<?xml version="1.0" encoding="UTF-8"?> <svg xmlns="http://www.w3.org/2000/svg" id="Layer_1" data-name="Layer 1" viewBox="0 0 878.97 725.45"><title>about-illustration</title><g><path d="M270.65,431.67c-32.82,24-81.76,24.3-125.34,12.32s-81.83-36.28-88.8-66.19S74,312.21,91.91,271s29.3-88,55.43-99.29,67.2,12.86,101.32,42.23,61.31,63.89,66.53,105S303.55,407.65,270.65,431.67Z" transform="translate(-55.31 -97.58)" fill="#05669b"></path><path d="M151.27,337.81l17.43,24,1.19-.12q1.59-26.33,3.17-52.66l.76,0q1.31,48.26,2.62,96.5l1.17.54,43.24-59.61,1.14.76c-2.91,4.94-5.79,9.89-8.72,14.82-11.32,19-22.7,38.06-33.94,57.16a13.21,13.21,0,0,0-2.12,6.47q1,58,2.3,115.9.75,34.49,1.65,69c.08,3.19-1.35,4-4.22,3.92-5.5-.13-11-.17-16.5,0-3.11.09-4.11-1.14-3.93-4.14,1.91-31.24,3.91-62.48,5.58-93.73,1.28-23.93,2-47.88,3.19-71.82.95-19.46,1.92-38.92,3.41-58.34.73-9.51.66-18.3-5.41-26.53-4.95-6.71-8.71-14.31-13-21.51Z" transform="translate(-55.31 -97.58)" fill="#2f2f33"></path></g><g><path d="M901.51,588.28c-23.66,17.26-58.93,17.51-90.34,8.87s-59-26.14-64-47.7,12.59-47.27,25.51-77,21.13-63.41,40-71.55,48.44,9.26,73,30.43,44.19,46,48,75.66S925.22,571,901.51,588.28Z" transform="translate(-55.31 -97.58)" fill="#05669b"></path><path d="M869.11,514.77c-4.3,7.19-8.51,14.43-12.93,21.54A17.4,17.4,0,0,0,853.44,547c.67,13.88.83,27.78,1.12,41.67q1.14,54,2.25,108.07.53,23.38,1.44,46.77c.12,3.2-.77,4.5-4.14,4.27a108,108,0,0,0-11.8,0c-2.59.11-3.49-.83-3.34-3.41.66-11.25,1.15-22.51,1.79-33.76.67-11.9,1.48-23.79,2.17-35.69,1.25-21.71,2.53-43.42,3.66-65.14.45-8.63.63-17.27.66-25.91a11.4,11.4,0,0,0-1.84-5.44c-11.46-19.41-23-38.76-33.84-58.63,11.93,16.45,23.85,32.91,36.5,50.35.59-9.38,1.11-17.55,1.62-25.72.2-3.27.2-6.56.61-9.8.57-4.48,0-8.52-2.81-12.25a24.84,24.84,0,0,1-3.9-8.06l6.5,8.76.95-.32V508.39l1.38,0v25.25l1.53.54,14.42-20Z" transform="translate(-55.31 -97.58)" fill="#2f2f33"></path></g><path d="M-341,691" transform="translate(-55.31 -97.58)" fill="#d0b09a"></path><path d="M0,663" transform="translate(-55.31 -97.58)" fill="#d0b09a"></path><g><path d="M700.82,213.33c20.77,14.84,27.88,46.31,27.11,76.1s-9.4,57.89-27.66,75-46.14,23-69.1,28.28-41,9.82-70,25.34-69.23,41.95-80.8,30.5,5.42-60.81-16.36-98.23-82.45-62.82-97.81-93.56,14.44-66.66,46.38-100.49,65.8-65.44,99.28-57.43S578.27,154.42,612,177.26,680.08,198.4,700.82,213.33Z" transform="translate(-55.31 -97.58)" fill="#05669b"></path><g><g><path d="M478.86,436.46c-3.68,4.45-3.82,9.62-4,14.7-.14,5.32-.27,9.75,2.26,13.57.9,1.36,2.53,3.24,2.83,6.22.22,2.16-.5,2.5,0,4,.64,1.88,2.69,2.95,6.78,5.09,2,1,2.65,1.2,3.4,1.13,1.37-.12,2-1,3.95-2.83,3.81-3.45,4.76-3.13,5.09-4.52.55-2.32-2.06-3.37-1.69-6.22.24-1.9,1.53-2.4,2.82-4.52,1.46-2.39,1.56-4.63,1.7-8.48.16-4.69.33-9.51-2.26-14.7-1.53-3.06-4-8.11-9-9.05C484.69,429.68,479.71,435.44,478.86,436.46Z" transform="translate(-55.31 -97.58)" fill="#d0b09a"></path><path d="M480.45,725.14c2.42-2.31,8.93,1.11,10,1.66,1.79.94,5.32,2.8,6.65,6.66.31.88,1.26,3.63,0,5-1.47,1.6-4.53-.31-6.65,1.66a14.86,14.86,0,0,0-1.67,2.77c-1.3,2.41-1.23,2.73-1.66,3.33-1,1.41-2.79,1.55-10.54,1.66-6.09.09-7.51,0-8.31-1.1-1.06-1.5-.27-3.69,0-4.44.83-2.33,2.69-2.3,6.65-5.55,2.11-1.73,3.16-2.6,3.88-3.88C480.79,729.31,478.79,726.72,480.45,725.14Z" transform="translate(-55.31 -97.58)" fill="#1a1920"></path><path d="M448.84,485.57c2-2.24,4.53-1,13.31-4.44,2.68-1.05,5.48-2.28,5.48-2.28,2.34-1,3.51-1.55,4.61-2.14,3.68-2,4-2.9,5.43-2.79,1.59.12,1.7,1.35,4.44,3.33,1.77,1.27,4.35,3.13,7.21,2.77,1.22-.15,2.48-1,5-2.77a23.62,23.62,0,0,0,4.44-3.88c1.06-1.24.93-1.9,1.66-2.22,1.47-.65,3.07.92,5.55,2.22a73.82,73.82,0,0,0,8.31,2.21c5.8,1.41,8.69,2.12,9.43,2.22,3.09.43,4,.25,5,1.11,2.19,1.89,1.44,5.95,1.11,8.32-1.21,8.66,1.47,6.16,1.11,22.74-.21,10-.32,15-1.66,18.85-2,5.64-4.59,8.41-4.44,14.42,0,1.31.16,1.44,1.11,8.32.86,6.26,1.29,9.4,1.11,10-1.59,5.18-12.23,6-30.5,7.21s-26,0-33.28-3.33c-2-.9-4.51-1.21-6.1-3.32-3.6-4.83,1.9-10.6,1.11-20.52-.62-7.82-4.26-7.15-6.65-17.75-1.85-8.21.35-8.57-1.11-20C449,492.28,446.21,488.49,448.84,485.57Z" transform="translate(-55.31 -97.58)" fill="#fff"></path><path d="M454.81,589.68c-1.05.37-1.4-.15-4.81-.77-6-1.09-8.31-.12-9.05-1.45s1.37-2.7,3.33-7.21c2.39-5.51,1.2-8,3.32-9.43,2.46-1.66,7-.36,9.43,2.22C461.73,578,458.82,588.28,454.81,589.68Z" transform="translate(-55.31 -97.58)" fill="#036093"></path><path d="M527.58,587.61c1.06.36,1.4-.15,4.82-.78,6-1.08,8.31-.12,9.05-1.44s-1.37-2.7-3.33-7.21c-2.39-5.52-1.2-8-3.33-9.43-2.45-1.66-7-.36-9.42,2.22C520.67,576,523.58,586.2,527.58,587.61Z" transform="translate(-55.31 -97.58)" fill="#036093"></path><path d="M526.47,733.46c.25-.24,4.65-4.41,10-3.33,2.5.5,4.25,2.18,7.76,5.54,4,3.85,3.08,4.29,6.1,6.66s5.19,2.92,6.1,5.54a4.36,4.36,0,0,1,0,3.33c-.57,1.1-1.82,1.77-4.44,2.22-2.17.37-11.84,2-15-2.77-1-1.58-.73-2.91-2.22-3.88s-2.54-.32-5-.56c-1.09-.1-5.21-.5-6.65-2.77C521.44,740.75,523.87,736,526.47,733.46Z" transform="translate(-55.31 -97.58)" fill="#1a1920"></path><path d="M459.37,560.43c4-1.5,6.62,3.93,17.19,7.21a45.77,45.77,0,0,0,14.7,1.94A67.58,67.58,0,0,0,511,566c6.94-2.17,7.87-2.52,7.87-2.52,4.42-1.62,5-2.21,6-1.92,3.41,1,3.76,9.49,4.16,19.13.76,18.42.32,18.41,1.11,26.62,1,9.94,2,11.59,2.22,20.52.12,5.31-.2,6.52,0,13.87a135.8,135.8,0,0,0,1.11,16.08c1.06,7.59,2,7.82,3.32,15.53a124.81,124.81,0,0,1,1.67,20c.16,6.84,1.09,13.7.55,20.52a14.25,14.25,0,0,0,.56,5.54c.73,2.32,1.73,3.26,2.77,5,2.68,4.44,3.64,10.8,1.66,12.2-1.21.85-2.33-1-5.54-.56-2.13.29-2.28,1.18-6.66,2.77a23,23,0,0,1-3.88,1.11c-2.65.51-4.09.78-5,0-1.15-1-.2-2.63-1.11-5.54a11.57,11.57,0,0,0-2.22-3.88c-3.39-4.6-1.45-13.3-1.66-22.19,0-2.07-.77-6.19-2.22-14.42-3.82-21.75-6.44-26.27-6.65-39.37-.09-5.45.35-5.15,0-8.32-.89-7.94-3.81-10.87-10.54-25.51-3-6.6-4.88-11.3-5.55-11.09s.31,3.17.56,7.76c.29,5.44-.5,8.43-1.11,13.31-.56,4.48-.56,8.72-.56,17.2,0,9.74.65,16.71,1.67,27.72,1.67,18.08,2.5,27.12,3.88,31.06,1,2.84,2.83,7.19,2.22,12.75-.29,2.68-1,3.88-1.11,7.77-.16,4.08.45,6.09-.56,6.65-1.4.79-3-2.88-7.2-3.32-1.94-.21-2.29.51-7.77,1.1-3,.33-3.52.18-3.88,0-2.34-1.13-2.55-5-2.77-8.87-1.1-19.28-1.07-15.18-1.11-18.3-.15-10.26.07-11.59-1.11-14.42-1-2.48-2.25-3.95-2.77-7.21-.58-3.53.19-5.88.55-8.32.71-4.71-.39-7.59-2.22-15-2.71-11-1.22-8.41-4.43-22.18-3.26-13.94-4.68-16.1-7.21-28.84-.6-3-1.14-6.24-2.22-12.75-2.38-14.29-2.47-17-2.22-20C453.94,571.13,454.7,562.18,459.37,560.43Z" transform="translate(-55.31 -97.58)" fill="#2f2f33"></path><path d="M445.51,576c1.23,1.8,2.39,2.32,5.54,4.44,5.36,3.59,5.51,4.43,7.21,4.43a6.92,6.92,0,0,0,5.55-3.32,7.15,7.15,0,0,0,.55-6.66c-1.18-2.57-4-3.69-3.88-3.88a4.22,4.22,0,0,0,3.33,1.66c1.6.14,3,.48,3.33-.55.52-1.69-2.86-4.18-3.33-4.44-3.06-1.67-5.61-4.46-8.87-3.88a7.17,7.17,0,0,1-3.89,0c-1.33-.44-1.45-1-2.21-1.11-2.28-.17-5.71,4.83-5,9.43A9.22,9.22,0,0,0,445.51,576Z" transform="translate(-55.31 -97.58)" fill="#d0b09a"></path><path d="M473.79,476.14c-2.59-1.7-5.36,3.25-16.36,5.82-4.55,1.06-8.89,1.34-12.2,5a18.9,18.9,0,0,0-2.22,3.33,44.34,44.34,0,0,0-4.43,11.09c-2.54,9-1.52,8-2.78,11.09-1,2.5-1.5,2.73-9.42,14.42-2.77,4.09-3.5,5.22-3.89,7.21-.49,2.57,0,4.49,1.67,10.54,1.91,6.85,2.87,10.28,3.33,11.64,2.66,7.92,4,11.88,6.65,15s7.68,7.15,10.26,5.82c2.24-1.15.25-5.39,3.88-8.32,1.4-1.12,3.08-1.72,5-3.88a15.07,15.07,0,0,0,2.22-3.33,132.47,132.47,0,0,0,10-27.17c5.54-22.17,2.81-18.72,7.21-39.93C474.83,484.06,476.47,477.89,473.79,476.14Zm-25,78.75c-.92.3-3.16-2.76-3.89-6.1a12.71,12.71,0,0,1,0-5c1.62-9.1,2.58-14.51,3.33-14.41s-.32,5.78.56,17.74C449.19,551.93,449.63,554.63,448.84,554.89Z" transform="translate(-55.31 -97.58)" fill="#036093"></path><path d="M535.77,571.32c-1.24,1.8-2.39,2.32-5.55,4.43-5.35,3.6-5.5,4.44-7.2,4.44a6.9,6.9,0,0,1-5.55-3.33,7.1,7.1,0,0,1-.55-6.65c1.18-2.57,4-3.69,3.88-3.88a4.22,4.22,0,0,1-3.33,1.66c-1.6.14-3,.48-3.33-.55-.52-1.69,2.86-4.19,3.33-4.44,3.06-1.67,5.61-4.47,8.87-3.88a7.23,7.23,0,0,0,3.88,0c1.34-.45,1.46-1,2.22-1.11,2.27-.17,5.71,4.83,5,9.43A9.11,9.11,0,0,1,535.77,571.32Z" transform="translate(-55.31 -97.58)" fill="#d0b09a"></path><path d="M508.6,489.8c4.39,21.2,1.66,17.76,7.21,39.93a132.47,132.47,0,0,0,10,27.17,15.32,15.32,0,0,0,2.22,3.33c1.91,2.16,3.59,2.75,5,3.88,3.63,2.93,1.64,7.17,3.88,8.32,2.58,1.33,7.5-2.61,10.26-5.83s4-7.05,6.65-15c.46-1.36,1.42-4.79,3.33-11.65,1.69-6.05,2.16-8,1.66-10.53-.38-2-1.11-3.13-3.88-7.21-7.92-11.69-8.41-11.92-9.42-14.42-1.26-3.1-.25-2.12-2.78-11.09a44.34,44.34,0,0,0-4.43-11.09,18.9,18.9,0,0,0-2.22-3.33c-3.31-3.65-7.65-3.93-12.2-5-11-2.57-13.77-7.52-16.36-5.82S506.44,479.42,508.6,489.8Zm23.84,52.68c.88-12-.21-17.65.56-17.75s1.71,5.32,3.32,14.42a12.29,12.29,0,0,1,0,5c-.72,3.35-3,6.41-3.88,6.1S532.09,547.29,532.44,542.48Z" transform="translate(-55.31 -97.58)" fill="#036093"></path><path d="M477.09,438.18c1.6-1.24,3.88,1.19,8,1.84,6.83,1.08,10.51-4,13.56-1.84,1.55,1.08,1.91,3.29,2.47,6.78.49,3,0,4.12.61,6.78.54,2.31,1.64,5.64,2.47,5.54,1-.11,1.23-4.93,1.23-7.39,0-5.21,0-9-2.46-12.95a17.87,17.87,0,0,0-10.48-7.39c-5.38-1.34-12.31-.34-16.64,4.31-4.85,5.21-4.15,12.52-3.7,17.26.12,1.23.18,6,1.23,6.16.87.12,2.29-2.95,2.78-5.85s-.19-3.84,0-8.63C476.32,438.91,476.8,438.4,477.09,438.18Z" transform="translate(-55.31 -97.58)" fill="#1a1920"></path></g><path d="M487.68,481.11c-1.89.65-3.41,2.66-3.07,4.08.23.95,1.12,1,1.53,2.05.58,1.47-.48,3.09-1,4.08s-.86,3.55-1.53,8.67a140.31,140.31,0,0,0-.94,14.44c-.3,11.46-.24,21.45-.2,24.69,0,0-.07,5.11.06,9.94h0c0,.26,0,1.3,0,2.69,0,.23,0,1.18,0,2.42,0,.23,0,1,0,2s0,1.39,0,1.45c.05,1.59,2.65,5.46,6.38,5.36s5.61-4,6.13-5.1a10.59,10.59,0,0,0,1-3.54l0-.55a89.66,89.66,0,0,0-.66-14.83c-1.14-7.87.12-7.52-1.27-25.29-.29-3.76-.56-6.73-1.26-12.64-.65-5.45-1-8.19-1.27-8.85-.72-1.64-2-3.69-1.16-5.24.28-.51.66-.73,1.53-2,.72-1.08,1.08-1.63,1-2C492.85,481.62,490,480.32,487.68,481.11Z" transform="translate(-55.31 -97.58)" fill="#1a1920"></path></g></g><g><path d="M294.8,489.15a10.41,10.41,0,0,1,4.78-3.11,9.52,9.52,0,0,1,6.45.24,9.75,9.75,0,0,1,5.74,8.12c.05,1.66-.52,2.38,0,4.06.59,1.94,1.63,1.91,2.38,3.82a10,10,0,0,1,0,6c-.45,2.1-.84,1.87-1.43,4.3a28.13,28.13,0,0,0-.72,5.73c-.08,2.91.31,3.38-.23,4.06-1.41,1.75-5.27.27-5.74,1.43-.21.53.55.91,1.2,2.39a6.74,6.74,0,0,1,.47,4.54,5.18,5.18,0,0,1-3.58,3.58c-1.07.23-1.81-.12-3.82-.95-6.08-2.53-5.49-2-7.65-3.11-3.36-1.78-5-2.67-5.49-3.82-1-2.56,1.59-4.42,1.19-8.36-.24-2.43-2.26-3-1.91-4.78.28-1.38,1.38-1.48,2.75-3.22,1.54-2,1.88-4,2.39-7.17.56-3.42-.05-3.33.48-6.45C292.51,493.75,292.92,491.33,294.8,489.15Z" transform="translate(-55.31 -97.58)" fill="#d0b09a"></path><g><g><path d="M294.8,752.63c-1.9-1.08-4.2-.22-4.77,0-3.58,1.33-5.69,5.35-6,8.84-.07.77.51,3,1.67,7.4a83.85,83.85,0,0,0,2.62,9.08c1,2.28,1.59,3,2.15,5.26.71,2.77.22,3.35,1,4.53,2,3.15,7.68,2.67,8.12,2.63a13.1,13.1,0,0,0,5.27-1.86c1.82-1,2.07-1.55,2.14-1.72.64-1.62-1.21-3.55-2.51-5.38-1.71-2.39-2.5-5.26-4.06-11-1-3.74-2.64-11.13-2.87-12.19C297,755.74,296.57,753.63,294.8,752.63Z" transform="translate(-55.31 -97.58)" fill="#d0b09a"></path><path d="M300.78,771.26a68.8,68.8,0,0,0,1.91,6.69c.4,1.21.79,2.33.24,3.11-.39.53-1,.58-2.63,1-2.68.61-2.45.8-3.58,1a9,9,0,0,1-5.74-1c-1.7-1.08-2.27-2.73-3.34-6a51.46,51.46,0,0,1-1.91-9.32c-.73-5.12-.85-7.64-1.2-7.64s-.89,2.93-.95,5.49a21.9,21.9,0,0,0,1.13,7.93c.79,2.32,1.31,2.47,2.09,5.09a41.55,41.55,0,0,1,1,4.78c.93,5.38.93,6.26,1.67,7.88a10.88,10.88,0,0,0,2.63,3.82c3.3,2.93,9.68,3.87,13.37.48a8.26,8.26,0,0,0,2.63-6.92c-.25-1.87-1.2-2.83-2.39-4.54A31.4,31.4,0,0,1,300.78,771.26Z" transform="translate(-55.31 -97.58)" fill="#222"></path></g><g><path d="M344.74,750.58c-2-1.05-4.39-.21-5,0-3.74,1.3-5.95,5.19-6.24,8.58-.07.75.54,2.91,1.75,7.19,1.38,4.91-.32,1.63.33,3,1,2.22,4.05,2.24,4.64,4.41.74,2.69,3.63,6.74,4.41,7.89,2.05,3,4.63,5.57,5.09,5.53a14.24,14.24,0,0,0,5.51-1.81c1.9-1,2.16-1.5,2.23-1.67.67-1.57-1.26-3.45-2.62-5.22-1.79-2.32-2.6-5.11-4.24-10.67-1.07-3.63-2.76-10.8-3-11.83C347,753.6,346.58,751.55,344.74,750.58Z" transform="translate(-55.31 -97.58)" fill="#d0b09a"></path><path d="M353.57,776a21.9,21.9,0,0,1,1.43,3.58c.27,1,.4,1.51.24,1.91-.63,1.64-4.54,2.24-7.4,1-1.51-.68-2.32-1.69-3.59-3.35-2.69-3.49-2.54-5.29-5.49-9.79-1.27-1.94-.67-.64-2.87-3.58-.86-1.16-1.36-1.89-2.15-1.91a1.87,1.87,0,0,0-1.67,1.19c-.3.8.13,1.6.72,2.63,1.46,2.56,2.34,3.86,2.86,4.78a22.55,22.55,0,0,1,1.68,5,43.06,43.06,0,0,1,1.43,7.65c0,.59.14,1.19.12,1.79s-.11,1,.12,1.31a1.68,1.68,0,0,0,1.07.6,1.32,1.32,0,0,0,1,0c.45-.3.2-1.24,0-2.87a33.05,33.05,0,0,1-.24-3.82c0-1.51.08-1.65,0-2.87a17.69,17.69,0,0,1-.24-2.38c.24-.09,1.43,2.11,2.15,4.77a29.89,29.89,0,0,1,.72,4.06c.42,3.18.22,3.66.71,5a7.34,7.34,0,0,0,2.15,3.34c2.55,2.07,6.21,1.27,7.87.9A19.11,19.11,0,0,0,358,793.6a8.24,8.24,0,0,0,2.15-1.2,5.8,5.8,0,0,0,.95-6.21,6.45,6.45,0,0,0-1.67-2.15A38.53,38.53,0,0,1,353.57,776Z" transform="translate(-55.31 -97.58)" fill="#222"></path></g><path d="M349.91,582.53a23.43,23.43,0,0,0-5.37,2.15c-2.32,1.2-4.21,2.21-5.11,4.16a10,10,0,0,0-.62,2c-.23,1.11-.48,2.27-.08,3,.78,1.45,4.1,1.18,4.89,1.12,8.83-.62,22.88,3.12,28.42,5,4.29,1.43,6.52,2.72,8.85,1.58,3-1.46,4.53-6.07,3-8.11-.86-1.18-2.36-1-5.36-1.58-1.87-.37-2.47-.68-9.08-3.38C355,582.5,352.79,581.89,349.91,582.53Z" transform="translate(-55.31 -97.58)" fill="#d0b09a"></path><path d="M330.88,619.1c-3.19-2.82-7.33-1.54-18.16-1.92-2.22-.07-1.1-.09-5.09-.28-15.47-.71-23.2-1.07-26,.28-10.4,5.08-10.4,25-10.4,29.51,0,3.42,2.08,12.79,6.22,31.53,2.11,9.59,3.25,14.2,2.86,21.26-.37,6.77-1.68,7.51-2.15,15.29-.29,4.88.28,10.18,1.44,20.78.63,5.82,1.7,14.38,2.24,19.87.39,3.94.58,5.92.57,6.18-.09,1.83-.39,2.92.29,3.57.85.81,2-.25,4.3,0,2.67.28,2.83,1.85,6.21,2.39a11.57,11.57,0,0,0,6.2-.69c1.76-.65,2.65-1,3.12-1.7.89-1.38-.14-3.47-.72-4.78-2-4.59-2.42-8.63-3.1-15.52-.06-.6,0,.12,0-8.13,0-8.51-.05-12.78-.24-13.85a36.57,36.57,0,0,1-.24-4.54,4,4,0,0,1,.48-2.63c.5-.71,1.12-.84,1.19-1.43s-.78-.95-1-1.67c-.37-1.55,3-2.55,3.59-5,.4-1.83-1.3-2.11-1.44-4.54-.19-3.58,3.37-5.47,2.39-8.12-.28-.77-.61-.68-.95-1.67-.57-1.63-.11-3.06.24-4.54.42-1.8.44-3.67.71-5.5,1.26-8.46-1.08-14,1.2-17.19a5,5,0,0,0,.95-2.15,6.26,6.26,0,0,0-.71-3.59c.07,0,1.93,2.68,4.77,9.08a125,125,0,0,1,5.68,15.51c.64,2.14,1,3.52,1.49,5.51,1,4.59.55,5,1.43,7.41,1.29,3.52,2.55,3.41,3.11,6.45.35,1.89-.06,2.38.48,4.77.42,1.88.85,2.39,1.43,4.3a25.84,25.84,0,0,1,1,5.5,154.5,154.5,0,0,0,2.62,15.52c1.18,5.77,1.8,8.71,3.11,11.47a20.3,20.3,0,0,1,1.67,4.06c.84,3.14.06,3.93,1,7.41a9.72,9.72,0,0,1,.47,3.1c0,1.49-.46,1.73-.23,2.39.4,1.18,2,1.1,5.25,2.39,2.89,1.13,2.77,1.62,4.54,1.91a12.47,12.47,0,0,0,6.28-.7,11.39,11.39,0,0,0,1.13-.49c1.35-.83-.26-6-1-10.51-.13-.84,0,0-.48-7.17-.47-6.73-.81-10.25-.95-11.71-.2-2-.3-3-.48-4.53-.91-7.62-1.56-8.7-1.2-12,.27-2.31.7-2.67.48-4.3-.35-2.59-1.65-3.09-1.91-5.73-.22-2.28.7-2.41.24-4.3-.5-2.06-1.75-2.55-1.67-4.3.05-1.2.66-1.37.95-2.63.47-2-.78-2.83-1.43-5.49-.93-3.85,1-4.85-.24-8.36-.55-1.54-1.07-1.74-1.43-3.35a10.34,10.34,0,0,1,.24-5c1.42-6.1-2.39-9.06-2.15-19.11,0-1.07.08-1.8,0-3.11a25.89,25.89,0,0,0-2.15-8.6c-3.51-8.73.95-13.83-3.83-23.17A10.6,10.6,0,0,0,330.88,619.1Z" transform="translate(-55.31 -97.58)" fill="#2c2d32"></path><path d="M287.16,526.41c2.6.6,3.11,2.25,8.6,4.78,2.37,1.09,2.28.78,5.29,2.15,1.23.56,1.54.75,2.12.71,2.1-.12,3.91-3,4.3-5.49s-1.35-3.76-.72-4.54,2.91.21,7.76,1.79c6.7,2.18,10,3.28,12.83,3.08a6.19,6.19,0,0,1,3.42.27c2.24,1,3,3.75,3.58,5.73,1.59,5.75,3.71,13.55,4.06,14.81,1.28,4.63,1.39,3.52,3.58,10.75.13.41,1.9,6.3,3,11.5.49,2.32.73,3.49.9,4.76.26,1.93.15,2.09.41,2.61,1.33,2.62,6,2.36,6,3.11s-3.41.31-6.69,2.39c-.47.29-4.61,3-4.54,6.45,0,1.68,1,2.59.48,3.34-.85,1.14-3.93.12-4.3,0a10.8,10.8,0,0,1-5.5-4.3c-1.89-3.11-1.39-6.2-1.91-6.21s-1.07,2.39-1.19,5a24.16,24.16,0,0,0,1.19,8.36c2.31,8.06.57,3.63,3.82,14.81,2.48,8.52,2.49,7.64,2.87,9.79.76,4.3.22,4.87.95,13.86.45,5.37.69,5.75.24,7.16,0,0-1.5,4.77-7.65,8.56-.14.09-.87.52-1.85,1a5.78,5.78,0,0,1-1,.46c-1.36.1-2.92-6.4-3.58-9.08,0,0-2.83-11.57-5.39-19.13-.33-1-.46-1.24-1.08-3.06-.95-2.8-1.12-3.61-1.41-3.61-.63,0-1.1,3.68-1.44,6-1.42,9.79-2.36,8.16-4.48,20.17-1.12,6.34-1.11,8.18-2.92,9.45-1.45,1-3,.92-10.51-.71-13.45-2.93-16.11-4.29-17.44-5a40.38,40.38,0,0,1-7.65-5.49c-.5-.51-1.11-1.24-2.38-2.39-.83-.75-1-.86-1.2-1.2-.75-1.55,1.23-4,1.67-4.54.58-.73,2.61-7.33,6.69-20.54,4-12.81,3.43-11.73,3.94-12.89,1.06-2.4,2.13-4.35,2.27-7.42a15.48,15.48,0,0,0-1.67-7.64c-1.17-2.27-2.59-3.55-5-5.73a52.17,52.17,0,0,0-6.05-4.54c-.56-.35-.89-.54-2.31-1.43a6.72,6.72,0,0,0-1.19-.72c-1.11-.35-2,.48-3.82,1.43-3,1.54-3.89,1-5,2.39-.79,1-.34,1.24-1.19,2.39-.28.37-.94,1.17-4.3,2.87a33.74,33.74,0,0,1-3.11,1.43c-6.6,2.59-9.58,1.07-12.42,3.82-1.48,1.43-1.48,2.63-2.39,2.63-1.75,0-4-4.44-3.34-8.36.34-2,1.58-3.59,4.06-6.69,2.24-2.8,3.35-4.21,4.59-4.94a3.61,3.61,0,0,0,1.38-1.27c.69-1.16.08-1.87.48-2.87.73-1.84,3.47-1.06,4.77-3.1.8-1.24.08-2,1-3.35s2.13-1.56,3.34-2.15c3.14-1.51,2.42-3.65,6.69-8.6,2.57-3,3.82-3.34,4.3-5.49s-.57-2.9-.24-4.54c.67-3.25,5.49-3.57,13.38-7.17C282.53,528.21,283.62,525.6,287.16,526.41Z" transform="translate(-55.31 -97.58)" fill="#036093"></path><path d="M252.57,583a.53.53,0,0,0-.36-.11c-.13,0-.18.08-.35.12a.92.92,0,0,1-.28,0,23.79,23.79,0,0,0-4.25.6c-2.59.61-3.66,1.5-6.63,2.34-3.77,1-5.74.79-5.93,1.6s1.61,1.61,4.16,3.23c3.28,2.08,3.29,2.57,7.2,5.41,2.83,2.06,3.56,2.33,15.31,9.37.23.13,4.6,2.35,13.34,6.79,1.74.89,3.38,1.69,5.29,1.29,2.17-.46,2.41-2,6.56-4.73,2.25-1.48,3.4-2.22,5-2.29s2.36.56,4.06.13c1.45-.36,2.92-1.32,2.81-2,0-.21,3-2.11,3.74-3.21a2.05,2.05,0,0,0-.07-2.39c-.6-.63.18-1.16.67-1.69a1.51,1.51,0,0,0,.19-1.68c-.27-.44-.79-.52-1.69-.67-2.79-.47-3.62-2.88-3.44-3.49s-.66-1.33-.76-1.41a3.59,3.59,0,0,0-2.41-.65c-3,0-4.54,0-5.24.39-1.75,1-1.05,2.16-3.47,4.4a13.5,13.5,0,0,0-2.56,2.46c-.23.33-.52.79-.69.73s0-.89-.06-2.15c0-.55-.11-2-.54-2.13s-1.37,1.88-1.6,2.43a36.91,36.91,0,0,0-1.54,4.83,3.7,3.7,0,0,1-.9,1.93,2.88,2.88,0,0,1-.78.5,2.45,2.45,0,0,1-1.35.28,2,2,0,0,1-1.22-.92c-1.14-1.62-5.81-3.55-11.95-8.51a56.7,56.7,0,0,1-7.55-7.49l-.32-.41c-.89-1.16-1.34-1.73-1.58-2.13A2.7,2.7,0,0,0,252.57,583Z" transform="translate(-55.31 -97.58)" fill="#d0b09a"></path><g><path d="M398.59,587.49l-.12.06,0-.1Z" transform="translate(-55.31 -97.58)" fill="#05669b"></path><polygon points="257.62 513.61 257.75 513.84 257.75 513.84 257.29 513.8 257.62 513.61" fill="#05669b"></polygon><path d="M384.26,583.91c-1.83-.47-4.28-1.1-7.19-1.87-2.65-.69-5.12-1.35-7.38-2l-56.76,31.11-1.16-2.13,57.09-31.29,28.9,7.4.69,2.28c-1.27-.3-2.89-.7-4.77-1.17C389.38,585.21,386,584.35,384.26,583.91Z" transform="translate(-55.31 -97.58)" fill="#0c86bc"></path><polygon points="343.17 489.96 343.17 489.98 288.23 516.98 257.75 513.84 288.34 516.9 343.17 489.96" fill="#05669b"></polygon><path d="M312.93,611.19l56.76-31.11c2.26.61,4.73,1.27,7.38,2,2.91.77,5.36,1.4,7.19,1.87s5.12,1.3,9.42,2.37c1.88.47,3.5.87,4.77,1.17l0,.1-54.82,26.93-30.59-3.06h0Z" transform="translate(-55.31 -97.58)" fill="#05669b"></path></g><path d="M383.19,590.43a11.43,11.43,0,0,1,4.3,1.43c1.7.84,2.57,1.28,3.11,2.15.13.22,1,1.58.47,2.63-.27.58-.7.54-.95,1.2s.07.82,0,1.91c-.05.75-.09,1.31-.48,1.67s-1,0-1.67.48-.32.87-1,1.67a3.39,3.39,0,0,1-1.91,1.19c-.68.13-.82-.14-1.67,0a14.63,14.63,0,0,0-1.43.48c-1,.2-1.81-.47-2.63-1a16.86,16.86,0,0,0-4.3-1.2c-3.86-.82-6.33-.15-6.45-.72-.08-.35.86-.86,2.14-1.55a13,13,0,0,1,2.61-1.17c1-.32,1.7-.34,1.82-.74s-.16-.57-.48-1c-.84-1-1.45-1-1.91-1.67-.34-.51-.61-1.43-.24-1.91.58-.76,2.3.09,2.87-.72.28-.39-.06-.71.24-1.19.51-.83,2.08-.73,2.38-.72,1.47.09,2.33.82,2.63.48s-.22-.73,0-1.19C381,590.29,382.71,590.4,383.19,590.43Z" transform="translate(-55.31 -97.58)" fill="#d0b09a"></path></g><path d="M272.53,532.06c.2-4.36-.82-6.93,1.19-9.79,1.4-2,3.78-3.44,3.35-5-.27-1-1.32-1-1.68-2.15-.4-1.34.67-2.19,1-3.82.36-2.06-.89-3.32-1.67-5.25s-.54-3.22.47-10.52c1.46-10.4,1.24-10.22,1.68-11,2.65-4.69,8-6.67,11.22-7.89a19.14,19.14,0,0,1,5.74-1.43,17.92,17.92,0,0,1,11.94,3.58c2.64,2.08,3.85,4.36,6,8.36a21.44,21.44,0,0,1,2.87,14.1c-.05.44-.11.83-.16,1.18-.06-.2-.12-.39-.2-.59-.75-1.91-1.8-1.87-2.39-3.82-.51-1.68.06-2.4,0-4.06a9.74,9.74,0,0,0-5.73-8.12l-.1,0h0l-.1,0-.21-.08a9.76,9.76,0,0,0-6.14-.12,10.44,10.44,0,0,0-4.77,3.11c-1.89,2.19-2.3,4.6-2.75,7.29-.53,3.12.08,3-.48,6.45-.51,3.14-.84,5.2-2.39,7.16-1.37,1.75-2.47,1.84-2.74,3.23-.35,1.78,1.67,2.35,1.91,4.77.39,4-2.19,5.8-1.2,8.36a2.75,2.75,0,0,0,.67.93c-.32.79-.77,1.74-1.39,3.06-4.26,9.17-3.65,9.45-5.49,11.47a22.46,22.46,0,0,1-6.21,4.54c-3.28,1.83-5.72,3.19-6.69,2.39C266.32,546.92,272.08,541.64,272.53,532.06Z" transform="translate(-55.31 -97.58)" fill="#2d3035"></path></g><g><path d="M468.21,289.85a5,5,0,0,0-4.37-3.44,6.65,6.65,0,0,0-5.25-.87c-4.92,1.16-6.71,6.51-6.17,10.86.64,5.23,6.07,8,11,5.52A9.88,9.88,0,0,0,468.21,289.85Z" transform="translate(-55.31 -97.58)" fill="#1fbaed"></path><path d="M488.4,283.61c-4-4-10.22-3.15-13.65,1.6-3.05,4.22-4.7,11.91-3.5,17,1.53,6.4,9,7.91,13.07,2.74,3.86-4.89,5.59-11.2,6.11-17.22A4,4,0,0,0,488.4,283.61Z" transform="translate(-55.31 -97.58)" fill="#1fbaed"></path><path d="M510.05,290.29c-.36-2.38-2.33-3.46-4.46-3.57a6.18,6.18,0,0,0-3.4-.9c-3.46.11-5.62,3.07-7.08,5.74-2.82,5.17-6.6,13.65-4,19.46a6.88,6.88,0,0,0,7.15,4.14c3.29-.41,5.5-3.18,7.29-5.62A25.76,25.76,0,0,0,510.05,290.29Z" transform="translate(-55.31 -97.58)" fill="#1fbaed"></path><path d="M525.48,305.12a4.29,4.29,0,0,0-1.06-1.14c-3-3-7.28-3.71-11-.59-3.54,3-5.51,9.59-4.21,13.94,1.71,5.7,8.68,6,12.57,2.21C525.48,316,528.44,309.83,525.48,305.12Z" transform="translate(-55.31 -97.58)" fill="#1fbaed"></path><path d="M588.57,274.71c6.41-16.14-18.85-27.46-30.38-33.78-8.39-4.59-19.86-12.43-29.92-14.76a9.28,9.28,0,0,0-5.79-1.56,4.44,4.44,0,0,0-2.8-.36c-2.78.71-4.95,2.26-7.28,3.81a30.88,30.88,0,0,0-4.53,3.29c-3.39.32-6.51,3-5.18,7,2.81,8.58,2.77,24.71-11.69,19.81-12.29-4.17-11.06-16.84-9.51-26.63.46-2.95-1.3-6.55-5-6.31-18.2,1.17-34.82,10.77-42.53,27.1-5.9,12.51-5.57,32.09,10.16,37.3a2.41,2.41,0,0,0,1.33,0c2,1.56,5.2-.19,5.53-2.74.13-1,5.57-2.53,6.4-2.69,1.35-.27,7.24-1.1,8.18.19,2.43,3.33,7.4,1.49,7.78-1.58,5.12-5.32,12.82-8.6,17-.16,1.85,3.72,6.39,2.71,8.28-.05,7.83-.4,14.07,3.41,14.15,12.1a3,3,0,0,0,1.45,2.72,2.78,2.78,0,0,0,3.11,1.22c17-3.59,5.9,17.85,12.38,24.41,4.36,4.42,10.57,1.86,12.2-3.4,2.14-6.84,1.89-16-2.78-21.75-4.48-5.52-11.25-8.93-17.21-13.14,5.11.38,17,9.15,18.23,10.23A13.75,13.75,0,0,1,545,304.4c.34,2.84-.27,5.29.92,8,2.48,5.69,9.66,6.47,13.41,1.35,4.44-6.07,2.77-17.35-2.18-22.6-3.66-3.87-9.14-6.75-13.52-9.7q-8-5.37-16.23-10.46c.41-1.58,1.92-3,4.82-4.23a34.25,34.25,0,0,1,4.24,2.76c3.2,2.19,6.3,4.56,9.44,6.84,4,2.87,8.88,5.57,12.25,9.06,4.91,5.08,3.75,8.63,5.41,14.5s6.89,9.28,11.7,3.46c5.56-6.74,3.18-21.91-2.41-27.9-4.73-5.06-11.88-8.64-17.65-12.4-7.1-4.63-14.4-8.93-21.77-13.15,3.93-2.65,17.24,6.76,19.39,8.22,7.5,5.11,14.92,9.87,20.68,16.87,4.11,5,8.13,8.72,14.14,3.68a3.62,3.62,0,0,0,1-3.65Z" transform="translate(-55.31 -97.58)" fill="#1fbaed"></path><path d="M580,228.58c-7.57-5.17-15.64-9.77-23.55-14.23-8.94-5-18.89-11.78-29.37-13.18s-38.06,5.93-38.62,18.9a3.71,3.71,0,0,0-1.72,2.05c-2.65,8-9.17,35.66,7.51,34.87,8.84-.42,8.44-11.79,5.72-20.53a17.39,17.39,0,0,1,7.2-8.78c2.87-1.91,6-3.62,8.91-5.52,15.09,3.13,28.46,6.54,42.56,13.86a138.59,138.59,0,0,1,15.58,9c7,4.88,36.79,30.71,11,39A4.15,4.15,0,0,0,583,285.8a2.38,2.38,0,0,0-2.09,1.88c-1.74,8.83,5.83,11.59,13.83,10.41,12-1.77,22.21-8.8,24.61-20.66C624,255,602.08,233.64,580,228.58Z" transform="translate(-55.31 -97.58)" fill="#1fbaed"></path></g><g><path d="M664.82,791.89c1.93-.23,2.45,1.79,4.91,2.86,4.57,2,8.75-2.4,11.44-.32,1.08.84,1.27,2.24,1.63,4.78s.85,4.66-.33,6c-.28.33-1.06,1.1-4.74,1.43-3.34.3-4.83-.15-8.17-.32a56.67,56.67,0,0,0-8.49.32c-5.63.48-5.06,1-8.17.95a33.1,33.1,0,0,1-10.06-1.86c-.2-.07-1-.41-2.54-1.1-1.75-.78-2-.89-2.11-1.17-.55-1.1.63-3.18,2.29-3.82a4.17,4.17,0,0,1,2.61,0,15.7,15.7,0,0,0,9.81-1.28c3.69-2,4.74-6.17,6.21-5.73.63.2.53,1,1.3,1.28C661.77,794.4,662.86,792.12,664.82,791.89Z" transform="translate(-55.31 -97.58)"></path><path d="M685.55,803.31a3.66,3.66,0,0,0-1,2.08c-.27.81-.69,1.52-5.55,5.55-1.77,1.46-3.32,3.19-5.2,4.5a5.52,5.52,0,0,0-2.08,2.43,3.81,3.81,0,0,0-.35,1.73c.29,1.9,4.66,3,7.8,3.3,6.9.71,12.72-1.66,16.3-3.12,1.34-.55,2.64-1.2,5.24-2.5,3.37-1.68,3.93-2.11,4.47-2.7a8.86,8.86,0,0,0,2.08-5.55,9.92,9.92,0,0,0-1.74-5.55c-1.12-1.88-2.87-4.83-5.55-5.2-4.07-.56-6.07,5.45-10.74,4.86C688.1,803,686.63,802.48,685.55,803.31Z" transform="translate(-55.31 -97.58)"></path><path d="M655.39,643.14c1.32-2.57,4.78-3.27,10.64-3.94,9.24-1.05,13.87-1.58,18.13-.91A48.18,48.18,0,0,1,698,642.92a58.19,58.19,0,0,1,7.27,4.73,9.61,9.61,0,0,1,2.43,2.08c2.17,2.95,1.52,7.11,1.38,8-.4,2.58-1.31,3.49-.69,5.2.35,1,1,1.76.69,2.43s-1.19.34-1.73,1c-.4.53-.27,1.4,0,3.12a9.22,9.22,0,0,1,.35,2.43c-.17,1.07-1,1-1.74,2.43-.27.49-1,1.89-.52,2.94s1.35.63,1.74,1.39c.63,1.23-1.37,2.68-1.74,5.2-.22,1.54.53,1.42.7,3.81.18,2.67-.65,2.87-.35,5.2.23,1.81.8,2.18.69,3.82a13.7,13.7,0,0,1-.69,2.77c-.39,1.66,0,2.49.35,5.2.54,4,.83,6.13.34,8.67a11.49,11.49,0,0,0-.34,3.46,29.61,29.61,0,0,0,.69,3.12c.44,2.84-.65,3.43,0,5.2.57,1.57,1.51,1.39,2.43,3.12.77,1.48.72,2.8.69,4.86,0,2.54.15,5.09,0,7.62-.27,4.49.21,4.72.35,12.14.24,13.21-1.29,12.48-.35,19.41a27.91,27.91,0,0,1,.35,9,18.15,18.15,0,0,1-2.08,6.93c-1.57,2.7-3.13,3.4-3.12,5.55,0,1.18.48,1.85.34,3.81a8,8,0,0,0,0,2.08,10.49,10.49,0,0,0,.7,2.08,4.74,4.74,0,0,1-.35,3.81c-1,1.35-3.33,1.15-6,.92a26.74,26.74,0,0,1-4.08-.74c-2.89-.66-2.77-.89-5.08-1.39-2.81-.61-3.7-.41-4.23-1.21s.08-1.42.35-3.47c.48-3.58-.89-4.7,0-7.28.5-1.45,1-1.42,1.73-2.77,1.49-2.94.08-5.41-.34-9-.76-6.53,2.81-7.32,2.08-14.21-.47-4.36-1.86-3.64-2.08-7.63-.29-5,1.89-6.79,1.73-13.52a8.48,8.48,0,0,0-1.73-5.55c-1.07-1.22-2.69-2.1-3.12-1.73s.26,1.23.69,3.12a17.92,17.92,0,0,1,.35,3.81c.31,11.59.41,11.05.34,20.46-.06,8.67-.15,9.65-.69,11.09a16.26,16.26,0,0,0-1.39,5.55c-.09,2,.34,2.31,0,3.81-.58,2.6-2.13,2.92-2.08,4.86,0,1.38.84,1.56,1,3.46a6.46,6.46,0,0,1-.34,3.12c-1.71,3.44-12,1.57-18.38-.69-1-.34-5.69-2.07-5.54-3.81.07-.91,1.41-1,2.08-2.78.57-1.48-.05-2.32.69-3.12s2.1-.36,2.43-1-1.22-1.72-1.74-3.46.34-3.32,1-4.86c2.09-4.58,2.68-7.1,2.78-9.36.05-1.33-.14-1.67-.7-4.85-.35-2-.69-4.93-1.38-10.75-.64-5.41-.76-6.28-.82-7.31a26.86,26.86,0,0,0-.22-3.09,9.85,9.85,0,0,1-.35-2.77c.2-1.52,1-1.61,1-2.78s-1-1.41-1.39-3.12c-.32-1.47.34-1.88,0-3.12-.38-1.42-1.55-2-2.42-2.77-2.1-2-2-5.18-2.08-7.28-.25-7-2.56-7.67-3.82-27.39-1.11-17.47.28-23.44,0-35.36-.09-3.82.59-7.62.7-11.44A6.2,6.2,0,0,1,655.39,643.14Z" transform="translate(-55.31 -97.58)" fill="#2f2f33"></path><path d="M668.21,513.14a12.06,12.06,0,0,0-3.12,7.63c0,1.67.5,2.27.7,4.85a29.48,29.48,0,0,1-.35,6.24c-.18,1.89-.78,8.21,2.43,12.83,1.83,2.63,4.24,3.76,5.89,7.28a21.68,21.68,0,0,1,1,2.77,13.16,13.16,0,0,1,.69,4.51,22,22,0,0,1-.34,2.77c-.27,1.57-.44,1.77-.35,2.08.42,1.47,5.24,2.28,9.36,1,8-2.4,12.15-12.12,11.44-16.29,0-.23-.29-1.65-.69-3.47-.57-2.61-.83-3.31-1-4.51a11.75,11.75,0,0,1,0-5.89c0-.12.54-1.18,1.56-3.29,1.29-2.69,1.42-2.93,1.38-3.47-.08-1.44-1.12-1.58-1.73-3.81-.1-.39-.18-1.07-.35-2.43-.21-1.79-.28-2.88-.34-3.47A17.53,17.53,0,0,0,693,513c-1.66-2.91-6.2-3.22-9.71-3.46C678.45,509.17,672.17,508.74,668.21,513.14Z" transform="translate(-55.31 -97.58)" fill="#e4a48e"></path><path d="M675.15,555.09l-3.24,3-1.35,1.27c-.75.71-1.1.76-1.31,1.23s0,.82-.17,1.56a4,4,0,0,1-.69,1.39A4.68,4.68,0,0,1,666,565a20.05,20.05,0,0,0-5.2,2.77,12.05,12.05,0,0,0-2.08,2.08,11.82,11.82,0,0,0-1.73,3.12c-.41,1.07-.24,1.09-.7,2.43a20.51,20.51,0,0,1-1.38,3.12,25,25,0,0,1-1.74,2.77c-1.75,2.49-3.23,4.44-3.81,5.2-3.66,4.85-5.49,7.27-6.24,9a6.67,6.67,0,0,1-1.73,2.77c-.93.79-1.73.86-2.08,1.73-.27.64.08.81,0,2.08a10.11,10.11,0,0,1-.7,2.78c-.31.9-.54,1.34-.69,1.73-.66,1.67-.32,3.27.35,6.24.59,2.64.9,4,1.73,4.51s1.26.26,4.16,0a47.81,47.81,0,0,1,6.93-.35,12.89,12.89,0,0,0,3.47,0c1.28-.25,2.1-.7,2.43-.35s-.14.83-.35,2.08a11.5,11.5,0,0,0,0,2.78c.15,2.21.43,2,.35,3.12a27,27,0,0,1-.7,3.12,9.64,9.64,0,0,0-.34,1.73,5.67,5.67,0,0,0,.34,2.08c.43,1.34.1,2.39-.34,5.2-.06.34-.27,2.19-.7,5.89-.55,4.83-.35,4.32-.69,6.59-.85,5.67-1,6.59-1,6.59-.35,1.74-.67,3,0,4.16a4.17,4.17,0,0,0,2.08,1.73,5.52,5.52,0,0,0,3.81,0c1.66-.53,1.83-1.31,3.12-1.39a5.84,5.84,0,0,1,2.43.7c1.77.59,3.37.15,5.2-.35,2.67-.73,4.51-1.9,9.71-5.2a86.14,86.14,0,0,1,7.62-4.51c4.43-2.23,5.84-2.29,6.94-2.08,1.53.31,2.77,1.6,5.2,4.16,3.28,3.47,5,6.41,7.28,9a17.32,17.32,0,0,1,1.39,1.73c.89,1.31,1.12,2.13,1.38,2.08s.27-1.46.35-3.12c.19-4.35,1-4.67.69-6.93s-1.25-2.31-1.73-4.51.5-2.67.69-6.24a34,34,0,0,0-.34-5.89c-.46-4.15-.81-3.74-.7-5.2.25-3.19,1.83-3.63,2.08-7.28.09-1.2-.08-1.22,0-3.47.11-2.88.38-3.11.35-4.51-.08-3-1.39-3.52-1.73-6.24-.16-1.22.24-2.8,1-5.89,1.93-7.47,3.1-8.46,3.12-11.09,0-1-.16-2.68.69-3.82a3.28,3.28,0,0,0,.69-1.39,6.35,6.35,0,0,0,0-1.38c.06-1.08.86-1.51,1.39-2.43s.34-1.4.35-3.47c0-3.88.51-3.85.34-6.93-.08-1.57-.29-3.09-.34-3.47-.15-1-.29-1.76-.35-2.08-.57-3.07-.05-4.75-.35-6.93a13,13,0,0,0-4.5-7.63,20,20,0,0,0-5.2-2.77c-3.75-1.62-4.88-1.39-5.9-2.77-1.46-2-.55-4.43-1.73-4.86-.54-.19-1,.2-2.43,1-2.61,1.59-2.21,1-4.51,2.43-4.43,2.74-3.8,3.56-6.58,4.85-3,1.4-4.65.85-5.55,2.43-.61,1.08,0,1.68-.69,3.81s-1.74,3.59-2.08,3.47.4-1.43,0-3.47c-.19-1-.46-1.22-1-3.12C675.42,556.2,675.25,555.53,675.15,555.09Z" transform="translate(-55.31 -97.58)" fill="#11c4f4"></path><path d="M677.23,604.32A3.09,3.09,0,0,0,679,604c.55-.31.59-.6,1-.69.72-.15,1,.5,1.73.34.54-.11.53-.53,1-.69.75-.24,1.32.47,2.08.69,1,.28,2-.31,3.82-1.73,2.23-1.78,2.22-2.28,4.85-4.51,0,0,1.53-1.29,2.66-2.35.6-.56.9-.84,1-.94.43-.52.55-.83.87-.87a.89.89,0,0,1,.86.52c.3.77-1.16,1.48-1,2.78,0,.4.18.32.35,1a2.71,2.71,0,0,1,0,2.08c-.46.67-1.4.36-1.73,1-.15.3,0,.42,0,1,0,.09-.05,1.89-1,2.42-.59.32-1.14,0-1.39.35s0,.52,0,1a2.67,2.67,0,0,1-.69,1.39c-.79.89-2.46.79-3.82.69-4.29-.32-6.43-.49-8-1A18.83,18.83,0,0,1,677.23,604.32Z" transform="translate(-55.31 -97.58)" fill="#e4a48e"></path><path d="M665.79,524.93c.17,0,0-2,.34-5.2a9.81,9.81,0,0,1,1-3.82c.84-1.55,1.56-1.7,1.74-1.73.7-.11,1.22.38,1.73.69,2.53,1.54,6.75-.34,8.32-1,2.41-1.07,3.16-2.11,4.51-1.73.72.2,1.17.71,2.08,1.73,1.2,1.36,2.21,2.5,2.08,3.82s-1.51,1.69-1.39,2.77,1.75,1.28,2.77,2.77a6.3,6.3,0,0,1,.7,3.82c0,1.74-.51,2.63,0,3.12a1.63,1.63,0,0,0,2.08,0c.26-.34,0-.69,0-1.74a4.59,4.59,0,0,1,.34-2.42c.19-.34.39-.51,2.08-1.74.88.28,1.24.17,1.39,0,.41-.45-.46-1.48-.69-3.12-.17-1.15.14-1.52.34-3.12.28-2.13.53-4-.34-5.55s-2.09-1-4.16-3.12c-1.41-1.45-1.2-2.07-2.43-3.12a8.42,8.42,0,0,0-4.51-1.73c-1.18-.18-12.23-1.85-15.6,2.43a21.45,21.45,0,0,1-2.42,3.12,8.28,8.28,0,0,0-1.74,2.08,5.91,5.91,0,0,0-.69,2.08,5.44,5.44,0,0,0,.35,2.77c.25.61.43.68.69,1.39a6,6,0,0,1,.35,1.73C664.89,522.09,665.58,524.94,665.79,524.93Z" transform="translate(-55.31 -97.58)" fill="#25242c"></path></g></svg> 