<?xml version="1.0" encoding="UTF-8"?> <svg xmlns="http://www.w3.org/2000/svg" id="Layer_1" data-name="Layer 1" viewBox="0 0 905.97 782.69"><defs><style>.cls-1{opacity:0.5;}.cls-2{fill:#11c4f4;}.cls-3{fill:#05669b;}.cls-4{fill:#2f2f33;}.cls-5{fill:#0072bb;}.cls-11,.cls-6{fill:#d0e4ef;}.cls-6{isolation:isolate;}.cls-7{fill:#057ec1;}.cls-8{fill:#046499;}.cls-9{fill:#1a1920;}.cls-10{fill:#d0b09a;}.cls-12{fill:#036093;}.cls-13{fill:#25242c;}</style></defs><title>blog-illustration</title><g class="cls-1"><path class="cls-2" d="M617.61,239c53.72,32.37,125.14,39.06,189.65,78.76,64.3,39.48,121.48,112.19,115.22,178-6,65.59-75.3,124.49-139.81,173.26-64.3,49-123.85,88-194.19,124.71-70.55,36.89-151.9,71.41-200.44,37.11-48.55-34.09-64.3-136.8-115.43-204.11S135,527.47,105.17,473.31c-29.77-54.37-2.8-131,46-180.81,48.76-50.05,119.32-73.36,179.73-102.7,60.41-29.13,111.12-64.08,154.27-52.65C528.28,148.8,564.1,206.63,617.61,239Z" transform="translate(-50.2 -109.11)"></path></g><path class="cls-3" d="M265.54,371.91c-32.82,24-81.76,24.3-125.34,12.32S58.37,348,51.4,318s17.46-65.58,35.4-106.8,29.3-88,55.43-99.29,67.2,12.86,101.32,42.24,61.31,63.89,66.53,105S298.43,347.88,265.54,371.91Z" transform="translate(-50.2 -109.11)"></path><path class="cls-4" d="M146.16,278.05l17.43,24,1.19-.11q1.59-26.34,3.17-52.66l.76,0q1.31,48.24,2.62,96.49l1.17.54,43.24-59.61,1.14.76c-2.91,4.94-5.79,9.9-8.72,14.82-11.32,19.05-22.7,38.07-33.94,57.17A13.14,13.14,0,0,0,172.1,366q1,57.94,2.3,115.89.75,34.49,1.65,69c.08,3.2-1.35,4-4.22,3.93-5.5-.14-11-.17-16.5,0-3.11.1-4.11-1.14-3.93-4.14,1.91-31.24,3.91-62.47,5.58-93.72,1.28-23.93,2-47.89,3.19-71.82,1-19.46,1.92-38.92,3.41-58.34.72-9.52.66-18.3-5.41-26.53-4.95-6.72-8.71-14.31-13-21.51Z" transform="translate(-50.2 -109.11)"></path><path class="cls-3" d="M923.4,621.37c-23.66,17.27-58.93,17.51-90.34,8.88s-59-26.15-64-47.71,12.59-47.26,25.51-77S815.7,442.16,834.52,434s48.44,9.27,73,30.44,44.19,46.05,48,75.66S947.11,604.05,923.4,621.37Z" transform="translate(-50.2 -109.11)"></path><path class="cls-4" d="M886,550.87c-4.3,7.19-8.51,14.43-12.93,21.53a17.43,17.43,0,0,0-2.74,10.69c.66,13.87.83,27.77,1.12,41.66q1.14,54,2.25,108.07.52,23.4,1.44,46.77c.12,3.21-.77,4.51-4.15,4.28a105.38,105.38,0,0,0-11.79,0c-2.59.1-3.49-.83-3.34-3.42.66-11.25,1.15-22.5,1.78-33.75.68-11.9,1.49-23.8,2.17-35.7,1.26-21.71,2.54-43.42,3.67-65.13.45-8.63.63-17.28.66-25.91a11.4,11.4,0,0,0-1.84-5.44c-11.46-19.41-23-38.77-33.84-58.63L865,606.23c.59-9.38,1.11-17.55,1.62-25.72.2-3.27.2-6.56.61-9.81.57-4.47,0-8.51-2.81-12.25a24.74,24.74,0,0,1-3.9-8.06l6.5,8.77.95-.33V544.49l1.37,0v25.25l1.54.53q7.21-10,14.42-20Z" transform="translate(-50.2 -109.11)"></path><path class="cls-5" d="M285.59,266.49H603.81A24.47,24.47,0,0,1,628.28,291v83.29a0,0,0,0,1,0,0H261.12a0,0,0,0,1,0,0V291A24.47,24.47,0,0,1,285.59,266.49Z"></path><path class="cls-6" d="M660.77,484.13H328.25A439.57,439.57,0,0,0,339.8,382.52,439.25,439.25,0,0,0,328.25,284H660.77a470.21,470.21,0,0,0,0,200.13Z" transform="translate(-50.2 -109.11)"></path><rect class="cls-5" x="314.23" y="332.69" width="260.17" height="43.87"></rect><path class="cls-7" d="M711,460c-1.79-11.65-16.09-20.49-33.14-20.49H661.43c-8.78,0-17.1,2.75-22.54,7.48-24.25,21.1-80.38,35.87-145.76,35.87S371.62,468.06,347.37,447c-5.44-4.73-13.76-7.48-22.54-7.48H312.88c-17,0-31.28,8.8-33.13,20.4L261.47,574.82h467.2Z" transform="translate(-50.2 -109.11)"></path><path class="cls-5" d="M747.11,728.37,728.67,568.66H261.47l-19.08,159.6c-2.16,18,13.29,33.74,33.12,33.74H714C733.76,762,749.18,746.35,747.11,728.37Zm-50-12.27c0,11.76-10.44,21.29-23.31,21.29H312.46c-12.87,0-23.31-9.53-23.31-21.29V616c0-11.76,10.44-21.29,23.31-21.29H673.8c12.87,0,23.31,9.53,23.31,21.29Z" transform="translate(-50.2 -109.11)"></path><path class="cls-7" d="M673.8,594.68H312.46c-12.87,0-23.31,9.53-23.31,21.29V716.1c0,11.76,10.44,21.29,23.31,21.29H673.8c12.87,0,23.31-9.53,23.31-21.29V616C697.11,604.21,686.67,594.68,673.8,594.68Z" transform="translate(-50.2 -109.11)"></path><path class="cls-5" d="M626.91,512.61c0,17.85-59.11,42.33-132,42.33s-132-24.48-132-42.33,59.1-22.32,132-22.32S626.91,494.75,626.91,512.61Z" transform="translate(-50.2 -109.11)"></path><path class="cls-8" d="M339.48,606.08A12.26,12.26,0,0,1,324.94,625a11.72,11.72,0,0,1-2.6-1.58,12.26,12.26,0,1,0,17.14-17.3Z" transform="translate(-50.2 -109.11)"></path><path class="cls-5" d="M341.13,618.75a12.27,12.27,0,0,0-1.65-12.67,12.61,12.61,0,0,0-2.6-1.58,12.26,12.26,0,0,0-14.54,18.88,11.72,11.72,0,0,0,2.6,1.58A12.26,12.26,0,0,0,341.13,618.75Z" transform="translate(-50.2 -109.11)"></path><path class="cls-8" d="M384,606.08a12.25,12.25,0,0,1-17.14,17.3A12.26,12.26,0,1,0,384,606.08Z" transform="translate(-50.2 -109.11)"></path><path class="cls-5" d="M385.63,618.75A12.27,12.27,0,0,0,384,606.08a12.11,12.11,0,0,0-2.6-1.58,11.88,11.88,0,1,0,4.25,14.25Z" transform="translate(-50.2 -109.11)"></path><path class="cls-8" d="M428.48,606.08A12.26,12.26,0,0,1,413.94,625a11.88,11.88,0,0,1-2.59-1.58,12.25,12.25,0,1,0,17.13-17.3Z" transform="translate(-50.2 -109.11)"></path><path class="cls-5" d="M430.13,618.75a11,11,0,1,0-18.78,4.63,11.88,11.88,0,0,0,2.59,1.58A12.25,12.25,0,0,0,430.13,618.75Z" transform="translate(-50.2 -109.11)"></path><path class="cls-8" d="M473,606.08A12.25,12.25,0,0,1,458.44,625a11.88,11.88,0,0,1-2.59-1.58A12.25,12.25,0,1,0,473,606.08Z" transform="translate(-50.2 -109.11)"></path><path class="cls-5" d="M474.64,618.75a11.05,11.05,0,1,0-18.79,4.63,11.88,11.88,0,0,0,2.59,1.58A12.27,12.27,0,0,0,474.64,618.75Z" transform="translate(-50.2 -109.11)"></path><path class="cls-8" d="M517.49,606.08A12.26,12.26,0,0,1,503,625a12,12,0,0,1-2.6-1.58,12.26,12.26,0,1,0,17.14-17.3Z" transform="translate(-50.2 -109.11)"></path><path class="cls-5" d="M519.14,618.75a12.27,12.27,0,0,0-1.65-12.67,12.61,12.61,0,0,0-2.6-1.58,12.26,12.26,0,0,0-14.54,18.88A12,12,0,0,0,503,625,12.26,12.26,0,0,0,519.14,618.75Z" transform="translate(-50.2 -109.11)"></path><path class="cls-8" d="M562,606.08a12.25,12.25,0,0,1-17.14,17.3A12.26,12.26,0,1,0,562,606.08Z" transform="translate(-50.2 -109.11)"></path><path class="cls-5" d="M563.64,618.75A12.23,12.23,0,1,0,547.45,625,12.27,12.27,0,0,0,563.64,618.75Z" transform="translate(-50.2 -109.11)"></path><path class="cls-8" d="M606.49,606.08A12.26,12.26,0,0,1,592,625a11.88,11.88,0,0,1-2.59-1.58,12.25,12.25,0,1,0,17.13-17.3Z" transform="translate(-50.2 -109.11)"></path><path class="cls-5" d="M608.14,618.75a11,11,0,1,0-18.78,4.63A11.88,11.88,0,0,0,592,625,12.25,12.25,0,0,0,608.14,618.75Z" transform="translate(-50.2 -109.11)"></path><path class="cls-8" d="M651,606.08A12.26,12.26,0,0,1,636.45,625a11.88,11.88,0,0,1-2.59-1.58A12.26,12.26,0,1,0,651,606.08Z" transform="translate(-50.2 -109.11)"></path><path class="cls-5" d="M652.65,618.75A12.27,12.27,0,0,0,651,606.08a12.61,12.61,0,0,0-2.6-1.58,12.26,12.26,0,0,0-14.54,18.88,11.88,11.88,0,0,0,2.59,1.58A12.27,12.27,0,0,0,652.65,618.75Z" transform="translate(-50.2 -109.11)"></path><path class="cls-8" d="M339.48,643.86a12.26,12.26,0,0,1-14.54,18.88,11.72,11.72,0,0,1-2.6-1.58,12.26,12.26,0,1,0,17.14-17.3Z" transform="translate(-50.2 -109.11)"></path><path class="cls-5" d="M341.13,656.53a12.27,12.27,0,0,0-1.65-12.67,12.61,12.61,0,0,0-2.6-1.58,12.26,12.26,0,0,0-14.54,18.88,11.72,11.72,0,0,0,2.6,1.58A12.26,12.26,0,0,0,341.13,656.53Z" transform="translate(-50.2 -109.11)"></path><path class="cls-8" d="M384,643.86a12.25,12.25,0,0,1-17.14,17.3A12.26,12.26,0,1,0,384,643.86Z" transform="translate(-50.2 -109.11)"></path><path class="cls-5" d="M385.63,656.53A12.27,12.27,0,0,0,384,643.86a12.11,12.11,0,0,0-2.6-1.58,11.88,11.88,0,1,0,4.25,14.25Z" transform="translate(-50.2 -109.11)"></path><path class="cls-8" d="M428.48,643.86a12.26,12.26,0,0,1-14.54,18.88,11.88,11.88,0,0,1-2.59-1.58,12.25,12.25,0,1,0,17.13-17.3Z" transform="translate(-50.2 -109.11)"></path><path class="cls-5" d="M430.13,656.53a11,11,0,1,0-18.78,4.63,11.88,11.88,0,0,0,2.59,1.58A12.25,12.25,0,0,0,430.13,656.53Z" transform="translate(-50.2 -109.11)"></path><path class="cls-8" d="M473,643.86a12.25,12.25,0,0,1-14.54,18.88,11.88,11.88,0,0,1-2.59-1.58A12.25,12.25,0,1,0,473,643.86Z" transform="translate(-50.2 -109.11)"></path><path class="cls-5" d="M474.64,656.53a11.05,11.05,0,1,0-18.79,4.63,11.88,11.88,0,0,0,2.59,1.58A12.27,12.27,0,0,0,474.64,656.53Z" transform="translate(-50.2 -109.11)"></path><path class="cls-8" d="M517.49,643.86A12.26,12.26,0,0,1,503,662.74a12,12,0,0,1-2.6-1.58,12.26,12.26,0,1,0,17.14-17.3Z" transform="translate(-50.2 -109.11)"></path><path class="cls-5" d="M519.14,656.53a12.27,12.27,0,0,0-1.65-12.67,12.61,12.61,0,0,0-2.6-1.58,12.26,12.26,0,0,0-14.54,18.88,12,12,0,0,0,2.6,1.58A12.26,12.26,0,0,0,519.14,656.53Z" transform="translate(-50.2 -109.11)"></path><path class="cls-8" d="M562,643.86a12.25,12.25,0,0,1-17.14,17.3A12.26,12.26,0,1,0,562,643.86Z" transform="translate(-50.2 -109.11)"></path><path class="cls-5" d="M563.64,656.53a12.23,12.23,0,1,0-16.19,6.21A12.27,12.27,0,0,0,563.64,656.53Z" transform="translate(-50.2 -109.11)"></path><path class="cls-8" d="M606.49,643.86A12.26,12.26,0,0,1,592,662.74a11.88,11.88,0,0,1-2.59-1.58,12.25,12.25,0,1,0,17.13-17.3Z" transform="translate(-50.2 -109.11)"></path><path class="cls-5" d="M608.14,656.53a11,11,0,1,0-18.78,4.63,11.88,11.88,0,0,0,2.59,1.58A12.25,12.25,0,0,0,608.14,656.53Z" transform="translate(-50.2 -109.11)"></path><path class="cls-8" d="M651,643.86a12.26,12.26,0,0,1-14.55,18.88,11.88,11.88,0,0,1-2.59-1.58A12.26,12.26,0,1,0,651,643.86Z" transform="translate(-50.2 -109.11)"></path><path class="cls-5" d="M652.65,656.53A12.27,12.27,0,0,0,651,643.86a12.61,12.61,0,0,0-2.6-1.58,12.26,12.26,0,0,0-14.54,18.88,11.88,11.88,0,0,0,2.59,1.58A12.27,12.27,0,0,0,652.65,656.53Z" transform="translate(-50.2 -109.11)"></path><path class="cls-8" d="M339.48,681.64a12.26,12.26,0,0,1-14.54,18.88,11.72,11.72,0,0,1-2.6-1.58,12.26,12.26,0,1,0,17.14-17.3Z" transform="translate(-50.2 -109.11)"></path><path class="cls-5" d="M341.13,694.31a12.27,12.27,0,0,0-1.65-12.67,12.61,12.61,0,0,0-2.6-1.58,12.26,12.26,0,0,0-14.54,18.88,11.72,11.72,0,0,0,2.6,1.58A12.26,12.26,0,0,0,341.13,694.31Z" transform="translate(-50.2 -109.11)"></path><path class="cls-8" d="M384,681.64a12.25,12.25,0,0,1-17.14,17.3A12.26,12.26,0,1,0,384,681.64Z" transform="translate(-50.2 -109.11)"></path><path class="cls-5" d="M385.63,694.31A12.27,12.27,0,0,0,384,681.64a12.11,12.11,0,0,0-2.6-1.58,11.88,11.88,0,1,0,4.25,14.25Z" transform="translate(-50.2 -109.11)"></path><path class="cls-8" d="M428.48,681.64a12.26,12.26,0,0,1-14.54,18.88,11.88,11.88,0,0,1-2.59-1.58,12.25,12.25,0,1,0,17.13-17.3Z" transform="translate(-50.2 -109.11)"></path><path class="cls-5" d="M430.13,694.31a11,11,0,1,0-18.78,4.63,11.88,11.88,0,0,0,2.59,1.58A12.25,12.25,0,0,0,430.13,694.31Z" transform="translate(-50.2 -109.11)"></path><path class="cls-8" d="M473,681.64a12.25,12.25,0,0,1-14.54,18.88,11.88,11.88,0,0,1-2.59-1.58A12.25,12.25,0,1,0,473,681.64Z" transform="translate(-50.2 -109.11)"></path><path class="cls-5" d="M474.64,694.31a11.05,11.05,0,1,0-18.79,4.63,11.88,11.88,0,0,0,2.59,1.58A12.27,12.27,0,0,0,474.64,694.31Z" transform="translate(-50.2 -109.11)"></path><path class="cls-8" d="M517.49,681.64A12.26,12.26,0,0,1,503,700.52a12,12,0,0,1-2.6-1.58,12.26,12.26,0,1,0,17.14-17.3Z" transform="translate(-50.2 -109.11)"></path><path class="cls-5" d="M519.14,694.31a12.27,12.27,0,0,0-1.65-12.67,12.61,12.61,0,0,0-2.6-1.58,12.26,12.26,0,0,0-14.54,18.88,12,12,0,0,0,2.6,1.58A12.26,12.26,0,0,0,519.14,694.31Z" transform="translate(-50.2 -109.11)"></path><path class="cls-8" d="M562,681.64a12.25,12.25,0,0,1-17.14,17.3A12.26,12.26,0,1,0,562,681.64Z" transform="translate(-50.2 -109.11)"></path><path class="cls-5" d="M563.64,694.31a12.23,12.23,0,1,0-16.19,6.21A12.27,12.27,0,0,0,563.64,694.31Z" transform="translate(-50.2 -109.11)"></path><path class="cls-8" d="M606.49,681.64A12.26,12.26,0,0,1,592,700.52a11.88,11.88,0,0,1-2.59-1.58,12.25,12.25,0,1,0,17.13-17.3Z" transform="translate(-50.2 -109.11)"></path><path class="cls-5" d="M608.14,694.31a11,11,0,1,0-18.78,4.63,11.88,11.88,0,0,0,2.59,1.58A12.25,12.25,0,0,0,608.14,694.31Z" transform="translate(-50.2 -109.11)"></path><path class="cls-8" d="M651,681.64a12.26,12.26,0,0,1-14.55,18.88,11.88,11.88,0,0,1-2.59-1.58A12.26,12.26,0,1,0,651,681.64Z" transform="translate(-50.2 -109.11)"></path><path class="cls-5" d="M652.65,694.31A12.27,12.27,0,0,0,651,681.64a12.61,12.61,0,0,0-2.6-1.58,12.26,12.26,0,0,0-14.54,18.88,11.88,11.88,0,0,0,2.59,1.58A12.27,12.27,0,0,0,652.65,694.31Z" transform="translate(-50.2 -109.11)"></path><path class="cls-8" d="M606.3,713.33a9.13,9.13,0,0,1,1.36,4.8v1.54a9.25,9.25,0,0,1-9.23,9.23H376.74a9.13,9.13,0,0,1-4.79-1.36,9.26,9.26,0,0,0,7.87,4.44H601.5a9.26,9.26,0,0,0,9.24-9.24V721.2A9.26,9.26,0,0,0,606.3,713.33Z" transform="translate(-50.2 -109.11)"></path><path class="cls-5" d="M598.43,728.9a9.25,9.25,0,0,0,9.23-9.23v-1.54A5.12,5.12,0,0,0,601.5,712H379.82a9.25,9.25,0,0,0-9.23,9.23v1.54a5.11,5.11,0,0,0,6.15,6.16Z" transform="translate(-50.2 -109.11)"></path><rect class="cls-7" x="250.34" y="294.2" width="395.64" height="10.01"></rect><ellipse class="cls-7" cx="249.96" cy="299.21" rx="11.16" ry="21.17"></ellipse><ellipse class="cls-7" cx="640.21" cy="299.21" rx="11.16" ry="21.17"></ellipse><path class="cls-5" d="M489.73,415.34,476.5,441.79h3.6l10.64-21.28,10.65,21.28H505l-13.22-26.45A1.14,1.14,0,0,0,489.73,415.34Z" transform="translate(-50.2 -109.11)"></path><path class="cls-9" d="M484.51,876.07c-.46.51-.65,1.17-1.38,1.38-1,.3-1.64-.77-2.76-.69-1.53.11-2.52,2.24-2.76,2.76-.1.23-1.44,3.23,0,5.52.84,1.33,1.79,1.09,4.83,2.76,3.6,2,3.46,3,5.52,3.45,2.58.61,6-.16,6.9-2.07.7-1.57-1-2.5-1.38-6.21-.34-3.28.84-4,0-5.52C491.94,874.76,486.27,874.15,484.51,876.07Z" transform="translate(-50.2 -109.11)"></path><path class="cls-9" d="M522.44,867.8a5.5,5.5,0,0,1,4.14-.69,6.63,6.63,0,0,1,4.14,3.45c.85,1.49.43,1.86,1.38,4.82a26.39,26.39,0,0,0,2.07,4.83,41.21,41.21,0,0,0,2.76,4.14c1.54,2.11,2,2.51,2.07,3.45a4.19,4.19,0,0,1-2.07,3.45c-2.21,1.31-5.1,0-8.28-1.38-4-1.8-3.67-2.73-8.27-4.83-2.19-1-3-1.12-3.45-2.07-.82-1.76,1.16-3.17,2.76-7.59S520.53,869.14,522.44,867.8Z" transform="translate(-50.2 -109.11)"></path><path class="cls-10" d="M460.37,640.18c-.47-.72.32-1.42,0-2.75-.22-.9-.67-1-1.38-2.07s-.45-1.29-1.38-4.14c-.67-2.06-1.14-3-.69-3.45.28-.29.68-.16,1.38-.69a3.1,3.1,0,0,0,.69-.69c.51-.72.31-1.15.69-1.38s.92.28,1.38,0,.21-.69.69-1.38a3.09,3.09,0,0,1,.69-.69c1.34-1.22-1.23-5.88,0-6.9a1.32,1.32,0,0,1,1.38,0c.45.28.55.84.69,2.07a30.27,30.27,0,0,0,.69,4.83,3.85,3.85,0,0,0,.69,1.38,3.14,3.14,0,0,0,.69.69c.64.49,1,.39,1.38.69.12.1.5.43.69,2.07a13.24,13.24,0,0,1,0,2.76,10.79,10.79,0,0,1-1.38,4.83,3.64,3.64,0,0,0-.69,1.38,7.52,7.52,0,0,0,0,2.07c.05,1.22.05,1.27,0,1.37-.44.83-2.08.76-3.45.69C461.58,640.8,460.75,640.77,460.37,640.18Z" transform="translate(-50.2 -109.11)"></path><path class="cls-10" d="M524.51,762.27a2,2,0,0,1,1.38,0c1.27.53.66,2.36,2.07,5.52a7.21,7.21,0,0,1,.69,2.06,8,8,0,0,1,0,2.07c-.21,3,.58,3.44,0,4.83a3.69,3.69,0,0,1-2.07,2.07,3,3,0,0,1-2.07,0c-1.76-.74-2.64-3.8-2.07-6.21.49-2.06,1.86-2.85,1.38-4.13-.3-.83-1-.91-1.38-2.07a3.48,3.48,0,0,1,0-2.07A3.31,3.31,0,0,1,524.51,762.27Z" transform="translate(-50.2 -109.11)"></path><path class="cls-10" d="M505.89,668.81c-.81,3.34-3.71,4.83-4.14,10-.23,2.77.45,4.17-.69,5.52s-3.34,1.42-7.58,1.38c-3.85,0-5.8-.09-6.9-1.38s-.45-2.87-.69-5.52c-.47-5.16-4.49-6.39-4.83-10-.68-7.27,5.16-16.9,12.42-16.9C501.2,651.91,507.4,662.59,505.89,668.81Z" transform="translate(-50.2 -109.11)"></path><path class="cls-4" d="M480.37,747.09c1.35-1.25,3.66-2.52,17.24-1.38,14.86,1.25,17.53,3.23,18.63,4.14,3.6,3,4.84,6.82,6.2,11,2.42,7.45,1.27,11.61,2.07,23.45.11,1.51.54,5.14,1.38,12.41,1.8,15.51,2.07,15.44,3.11,25.18.68,6.37.88,9.36,2.07,21.38.16,1.68.46,4.73.86,8.57.31,3.06.47,4.59.49,4.69.65,4.21,1.39,5.19.72,6.74-.82,1.88-2.48,1.8-2.76,3.45-.34,2,1.86,3,1.38,4.14-.58,1.39-3.73,0-9.33.94-.7.12-1.76.34-2.4-.25-.84-.77,0-2-.69-3.45-.9-1.85-3.18-1.53-3.45-2.76-.33-1.53,3.15-2.43,3.45-4.83.25-2-1.89-3-3.45-5.51-2-3.15-1.57-6.29-1.38-10.35a167.3,167.3,0,0,0-.69-18.62c-.55-7-1.3-5.13-3.45-18.63-1-6.45-2.78-12.8-3.44-19.31-.41-3.94-.66-8.19-3.45-9.65-1.63-.85-4-1.06-4.83,0s.19,2.8.69,4.82c1,4.17-.78,7.38-2.07,11-3.09,8.78.25,10.26-2.76,28.28-1,5.84-1.22,5.06-1.38,7.59-.71,11.36,5.11,13.84,3.45,22.07-1.09,5.42-4.46,8.5-2.76,12.41.56,1.29,1.71,2.76,1.38,4.83-.27,1.71-1.31,2.27-1.38,4.14s1.05,2.58.69,3.45c-.94,2.25-10.1,2.15-11.72-1.38-.74-1.61.64-2.68,0-5.52-.54-2.37-1.86-3.19-2.76-4.83-2-3.6-.19-7.84.69-11,1.68-6.12-.65-6.21-1.38-22.07-.45-9.71.41-9.84,0-20.7-.14-3.48-.27-4.74-1.38-17.24a230.94,230.94,0,0,1-.69-37.25C477.61,752.33,478,749.28,480.37,747.09Z" transform="translate(-50.2 -109.11)"></path><path class="cls-11" d="M507.27,760.89" transform="translate(-50.2 -109.11)"></path><path class="cls-12" d="M459.68,638.81a6.46,6.46,0,0,1,3.45-.69,7,7,0,0,1,3.45,1.38c3.92,3.21-1.68,11.6,2.41,19.65a23.09,23.09,0,0,1,2.07,4.14c1.3,4-.06,5.18,1.38,8.28,1,2.21,2.09,2.37,2.76,4.83.5,1.86.05,2.33.69,3.44,1.44,2.5,5.22,2.75,5.52,2.76,2.14.11,2.54-.74,4.82-.69s2.8.91,4.83,1.38c4.68,1.1,6.27-2.38,10.35-1.38,2.8.7,2.2,2.39,6.21,4.14,3.25,1.43,4.46.67,7.58,2.07a19.68,19.68,0,0,1,5.52,4.14c5,5.32,5.43,14.82,6.9,29.66.76,7.72,1.22,12.33,2.07,18.62,2.27,16.75,4.33,23.13.69,26.21-2,1.65-5.49,2.31-7.59.69-1.84-1.42-2.42-4.47-1.38-7.59a129.84,129.84,0,0,0-14.48-2.76c-8-1-16.85-1.39-23.46-3.44a74.07,74.07,0,0,1-7.55-3,16.24,16.24,0,0,1-3.48-1.84c-2.86-2.55-2-7.74-1.38-12.42,1.8-12.71,2.69-19.18,2.07-24.83-.35-3.14-1.38-6.23-3.45-12.41-4.54-13.59-7-14.16-9-22.76-1.09-4.71-1.18-9.58-1.38-19.32C459.19,649.59,459.42,643.32,459.68,638.81Z" transform="translate(-50.2 -109.11)"></path><path class="cls-13" d="M506,669c-.65,1.27-5.32,10.42-12.5,10-5.75-.34-9.17-6.57-10.5-9-1.48-2.69-4.51-8.22-2-14,2.18-5,7.52-7.88,12.5-8,6.9-.17,13.2,4.91,14.5,11C508.92,663.29,507.09,666.86,506,669Z" transform="translate(-50.2 -109.11)"></path></svg> 