<?xml version="1.0" encoding="UTF-8"?> <svg xmlns="http://www.w3.org/2000/svg" id="Layer_1" data-name="Layer 1" viewBox="0 0 956.87 781.27"><title>case-illustration</title><g opacity="0.5"><path d="M373.27,165.42c57.78,2.14,111.44,27.82,215.31,46.75,103.55,18.93,257.13,31,333.68,110.12s76.22,225.36-.66,300.92-230.3,80.5-353.43,122.31C445,787,352.36,865.52,266.6,860.75s-164.45-93-180.25-184.53,31.11-186.51,59.26-265.36S182.81,269.29,218.2,227C253.76,184.84,315.49,163.28,373.27,165.42Z" transform="translate(-22.59 -165.27)" fill="#11c4f4"></path></g><g opacity="0.6"><rect x="480.72" y="348.63" width="293.69" height="159.03" rx="17.24" fill="#0072bb"></rect><g><g><ellipse cx="533.29" cy="406.8" rx="31.56" ry="32.26" fill="#1fbaed"></ellipse><rect x="579.82" y="413.15" width="168.9" height="7.69" rx="2.62" fill="#1fbaed"></rect><rect x="579.82" y="432.05" width="90.78" height="7.69" rx="2.62" fill="#1fbaed"></rect><rect x="579.82" y="375.37" width="165.24" height="7.69" rx="2.62" fill="#1fbaed"></rect><rect x="579.82" y="394.26" width="142.07" height="7.69" rx="2.62" fill="#1fbaed"></rect></g><rect x="706.35" y="473.98" width="42.37" height="15.83" rx="3.8" fill="#05669b"></rect></g></g><g opacity="0.4"><rect x="422.99" y="112.73" width="237.27" height="128.48" rx="17.24" fill="#0072bb"></rect><g><g><ellipse cx="465.47" cy="159.73" rx="25.5" ry="26.06" fill="#1fbaed"></ellipse><rect x="503.06" y="164.86" width="136.46" height="6.22" rx="2.23" fill="#1fbaed"></rect><rect x="503.06" y="180.12" width="73.34" height="6.22" rx="2.23" fill="#1fbaed"></rect><rect x="503.06" y="134.33" width="133.5" height="6.22" rx="2.23" fill="#1fbaed"></rect><rect x="503.06" y="149.6" width="114.78" height="6.22" rx="2.23" fill="#1fbaed"></rect></g><rect x="605.28" y="214" width="34.23" height="12.79" rx="3.8" fill="#05669b"></rect></g></g><g><path d="M237.93,457c-32.82,24-81.76,24.3-125.34,12.32S30.76,433,23.79,403.11s17.46-65.59,35.4-106.81,29.3-88,55.43-99.28,67.2,12.86,101.32,42.23,61.32,63.89,66.53,105S270.83,433,237.93,457Z" transform="translate(-22.59 -165.27)" fill="#05669b"></path><path d="M118.55,363.12l17.43,24,1.19-.11,3.18-52.66.75,0q1.31,48.26,2.62,96.5l1.17.53,43.24-59.6,1.14.76c-2.91,4.94-5.79,9.89-8.72,14.82-11.32,19-22.7,38.06-33.94,57.16a13.14,13.14,0,0,0-2.12,6.47q1,57.94,2.3,115.9.75,34.47,1.65,68.95c.08,3.2-1.35,4-4.22,3.93-5.5-.13-11-.17-16.5,0-3.11.1-4.11-1.14-3.93-4.14,1.91-31.23,3.91-62.47,5.58-93.72,1.28-23.93,2-47.89,3.19-71.82.95-19.46,1.92-38.92,3.41-58.34.73-9.52.66-18.3-5.41-26.53-5-6.71-8.71-14.31-13-21.51Z" transform="translate(-22.59 -165.27)" fill="#2f2f33"></path></g><g><rect x="154.44" y="192.35" width="380.5" height="206.04" rx="17.24" fill="#0072bb"></rect><g><g><ellipse cx="222.55" cy="267.73" rx="40.89" ry="41.79" fill="#1fbaed"></ellipse><rect x="282.83" y="275.95" width="218.83" height="9.97" rx="3.58" fill="#1fbaed"></rect><rect x="282.83" y="300.43" width="117.61" height="9.97" rx="3.58" fill="#1fbaed"></rect><rect x="282.83" y="227" width="214.09" height="9.97" rx="3.58" fill="#1fbaed"></rect><rect x="282.83" y="251.47" width="184.07" height="9.97" rx="3.58" fill="#1fbaed"></rect></g><rect x="446.76" y="354.75" width="54.9" height="20.51" rx="3.8" fill="#05669b"></rect></g></g><g><path d="M936.79,529.58c-23.66,17.27-58.92,17.51-90.34,8.88s-59-26.14-64-47.71,12.59-47.26,25.51-77,21.13-63.41,39.95-71.56,48.44,9.27,73,30.44,44.19,46,47.95,75.66S960.5,512.27,936.79,529.58Z" transform="translate(-22.59 -165.27)" fill="#05669b"></path><path d="M899.39,459.08c-4.3,7.19-8.51,14.43-12.93,21.54a17.39,17.39,0,0,0-2.74,10.68c.67,13.87.83,27.77,1.12,41.67Q886,587,887.09,641q.52,23.4,1.44,46.78c.12,3.2-.77,4.5-4.14,4.27a108,108,0,0,0-11.8,0c-2.59.11-3.49-.83-3.34-3.42.66-11.24,1.15-22.5,1.79-33.75.67-11.9,1.48-23.79,2.17-35.7,1.25-21.71,2.53-43.42,3.66-65.13.45-8.63.63-17.27.66-25.91a11.4,11.4,0,0,0-1.84-5.44c-11.46-19.41-23-38.76-33.84-58.63,11.93,16.45,23.86,32.9,36.5,50.35.59-9.38,1.11-17.55,1.62-25.72.2-3.27.2-6.56.61-9.8.57-4.48,0-8.52-2.81-12.26a24.64,24.64,0,0,1-3.9-8.06l6.5,8.77,1-.33V452.7l1.38,0v25.25l1.53.53q7.21-10,14.42-20Z" transform="translate(-22.59 -165.27)" fill="#2f2f33"></path></g><g><path d="M310,639a10.35,10.35,0,0,1,4.78-3.1,9.52,9.52,0,0,1,6.45.24,9.75,9.75,0,0,1,5.74,8.12c.05,1.65-.52,2.37,0,4.06.59,1.94,1.63,1.91,2.38,3.82a10,10,0,0,1,0,6c-.45,2.11-.84,1.88-1.43,4.3a28.41,28.41,0,0,0-.72,5.74c-.08,2.9.31,3.37-.23,4.06-1.41,1.75-5.27.26-5.74,1.43-.21.53.55.91,1.2,2.39a6.73,6.73,0,0,1,.47,4.54,5.18,5.18,0,0,1-3.58,3.58c-1.07.23-1.81-.12-3.82-1-6.08-2.53-5.49-2-7.65-3.11-3.36-1.78-5.05-2.67-5.49-3.82-1-2.56,1.59-4.42,1.2-8.36-.25-2.43-2.27-3-1.92-4.78.28-1.39,1.38-1.48,2.75-3.23,1.54-2,1.88-4,2.39-7.16.56-3.42-.05-3.33.48-6.45C307.73,643.58,308.14,641.16,310,639Z" transform="translate(-22.59 -165.27)" fill="#d0b09a"></path><g><g><path d="M310,902.46c-1.9-1.08-4.2-.22-4.77,0-3.58,1.33-5.69,5.35-6,8.84-.07.76.51,3,1.67,7.4a80.62,80.62,0,0,0,2.63,9.08c1,2.28,1.58,3,2.14,5.25.71,2.77.22,3.36,1,4.54,2,3.14,7.68,2.67,8.12,2.63a13,13,0,0,0,5.27-1.87c1.82-1,2.07-1.54,2.14-1.71.64-1.62-1.21-3.56-2.51-5.38-1.71-2.39-2.49-5.26-4.06-11-1-3.74-2.64-11.12-2.87-12.18C312.22,905.56,311.79,903.45,310,902.46Z" transform="translate(-22.59 -165.27)" fill="#d0b09a"></path><path d="M316,921.09s.53,2.51,1.91,6.69c.4,1.2.79,2.33.24,3.1-.39.54-1,.59-2.63,1-2.68.61-2.45.8-3.58.95a9,9,0,0,1-5.74-.95c-1.7-1.08-2.27-2.73-3.34-6a51.46,51.46,0,0,1-1.91-9.32c-.73-5.12-.85-7.64-1.2-7.64s-.89,2.93-.95,5.49a21.83,21.83,0,0,0,1.13,7.92c.79,2.33,1.31,2.48,2.09,5.1a41.55,41.55,0,0,1,1,4.78c.93,5.38.93,6.26,1.67,7.88a11,11,0,0,0,2.63,3.82c3.3,2.93,9.68,3.87,13.37.48a8.27,8.27,0,0,0,2.63-6.93c-.25-1.86-1.2-2.83-2.39-4.54A31.33,31.33,0,0,1,316,921.09Z" transform="translate(-22.59 -165.27)" fill="#222"></path></g><g><path d="M360,900.41c-2-1-4.39-.21-5,0-3.74,1.29-6,5.19-6.24,8.58-.07.75.54,2.9,1.75,7.19,1.38,4.91-.32,1.63.33,3.05,1,2.22,4.05,2.24,4.64,4.41.74,2.69,3.63,6.73,4.41,7.89,2.05,3.05,4.63,5.57,5.09,5.53a14.24,14.24,0,0,0,5.51-1.81c1.9-1,2.16-1.5,2.23-1.67.67-1.57-1.26-3.45-2.62-5.22-1.79-2.33-2.6-5.11-4.24-10.67-1.07-3.63-2.76-10.8-3-11.83C362.26,903.42,361.81,901.38,360,900.41Z" transform="translate(-22.59 -165.27)" fill="#d0b09a"></path><path d="M368.79,925.87a21.9,21.9,0,0,1,1.43,3.58c.27,1,.4,1.51.24,1.91-.63,1.63-4.54,2.24-7.4,1-1.51-.68-2.32-1.7-3.59-3.35-2.69-3.49-2.54-5.29-5.49-9.79-1.27-1.94-.67-.64-2.87-3.58-.86-1.16-1.36-1.9-2.15-1.92a1.9,1.9,0,0,0-1.67,1.2c-.3.8.13,1.6.72,2.63,1.46,2.56,2.34,3.86,2.86,4.77a22.88,22.88,0,0,1,1.68,5,43,43,0,0,1,1.43,7.64c0,.6.14,1.2.12,1.8s-.11,1,.12,1.31a1.68,1.68,0,0,0,1.07.6,1.37,1.37,0,0,0,1,0c.45-.3.2-1.24,0-2.87A33.05,33.05,0,0,1,356,932c0-1.51.08-1.66,0-2.87a17.6,17.6,0,0,1-.24-2.39c.24-.08,1.43,2.12,2.15,4.78a29.89,29.89,0,0,1,.72,4.06c.42,3.18.22,3.66.71,5a7.39,7.39,0,0,0,2.15,3.34c2.55,2.07,6.21,1.26,7.87.9a19,19,0,0,0,3.84-1.38,8,8,0,0,0,2.15-1.19,5.8,5.8,0,0,0,.95-6.21,6.45,6.45,0,0,0-1.67-2.15A39.12,39.12,0,0,1,368.79,925.87Z" transform="translate(-22.59 -165.27)" fill="#222"></path></g><path d="M365.13,732.36a23.47,23.47,0,0,0-5.37,2.14c-2.32,1.2-4.21,2.21-5.11,4.17a10.22,10.22,0,0,0-.62,2c-.23,1.12-.48,2.28-.08,3,.78,1.45,4.1,1.18,4.89,1.12,8.84-.62,22.88,3.12,28.42,5,4.3,1.42,6.52,2.72,8.85,1.57,3-1.45,4.53-6.07,3-8.1-.86-1.18-2.36-1-5.36-1.58-1.87-.37-2.47-.68-9.08-3.38C370.25,732.32,368,731.72,365.13,732.36Z" transform="translate(-22.59 -165.27)" fill="#d0b09a"></path><path d="M346.1,768.92c-3.19-2.81-7.33-1.53-18.16-1.91-2.22-.07-1.1-.1-5.09-.28-15.47-.71-23.2-1.07-26,.28-10.4,5.08-10.4,25-10.39,29.5,0,3.43,2.07,12.8,6.21,31.54,2.11,9.59,3.25,14.2,2.86,21.26-.37,6.77-1.68,7.51-2.15,15.28-.29,4.89.29,10.19,1.44,20.79.63,5.82,1.7,14.38,2.24,19.87.39,3.94.58,5.91.57,6.18-.09,1.83-.39,2.92.29,3.57.85.81,2-.25,4.3,0,2.67.28,2.83,1.85,6.21,2.39a11.63,11.63,0,0,0,3.06.08,11.86,11.86,0,0,0,3.14-.77c1.76-.65,2.65-1,3.12-1.7.89-1.38-.14-3.47-.72-4.78-2-4.59-2.42-8.63-3.1-15.53-.06-.59,0,.13,0-8.12,0-8.51-.05-12.79-.24-13.85a36.57,36.57,0,0,1-.24-4.54,4,4,0,0,1,.48-2.63c.5-.71,1.12-.84,1.19-1.43s-.78-1-1-1.68c-.38-1.54,3-2.55,3.58-5,.4-1.84-1.3-2.11-1.43-4.54-.2-3.58,3.36-5.48,2.38-8.12-.28-.77-.61-.68-.95-1.67-.57-1.64-.11-3.06.24-4.54.42-1.8.44-3.67.71-5.5,1.26-8.46-1.08-14,1.2-17.2a4.92,4.92,0,0,0,.95-2.15,6.22,6.22,0,0,0-.71-3.58c.07,0,1.93,2.67,4.77,9.08a125,125,0,0,1,5.68,15.51c.64,2.14,1.05,3.52,1.49,5.51,1,4.59.55,5,1.43,7.4,1.29,3.53,2.55,3.42,3.11,6.45.35,1.9-.06,2.39.48,4.78.42,1.88.85,2.38,1.43,4.3a25.74,25.74,0,0,1,1,5.5,154.5,154.5,0,0,0,2.62,15.52c1.18,5.77,1.8,8.71,3.11,11.47a20.3,20.3,0,0,1,1.67,4.06c.84,3.14.06,3.93,1,7.41a9.72,9.72,0,0,1,.47,3.1c0,1.49-.46,1.73-.23,2.39.4,1.18,2,1.1,5.25,2.39,2.89,1.13,2.77,1.62,4.54,1.91a12.47,12.47,0,0,0,6.28-.7,11,11,0,0,0,1.13-.5c1.35-.82-.26-6-1-10.51-.13-.83,0,0-.48-7.16-.47-6.73-.81-10.25-.95-11.71-.2-2-.3-3-.48-4.54-.91-7.61-1.56-8.69-1.2-11.94.27-2.31.7-2.68.48-4.3-.35-2.59-1.65-3.09-1.91-5.73-.22-2.28.7-2.41.24-4.3-.5-2.07-1.75-2.55-1.67-4.3.05-1.2.66-1.37,1-2.63.47-2-.78-2.83-1.43-5.49-.93-3.85,1-4.85-.24-8.37-.55-1.53-1.07-1.73-1.43-3.34a10.39,10.39,0,0,1,.24-5c1.42-6.09-2.39-9-2.15-19.11,0-1.06.08-1.79,0-3.1a25.89,25.89,0,0,0-2.15-8.6c-3.51-8.74.95-13.83-3.83-23.17A10.51,10.51,0,0,0,346.1,768.92Z" transform="translate(-22.59 -165.27)" fill="#2c2d32"></path><path d="M302.38,676.24c2.6.59,3.11,2.25,8.6,4.78,2.37,1.09,2.28.78,5.29,2.15,1.23.56,1.54.75,2.12.71,2.1-.12,3.91-3,4.3-5.49s-1.35-3.76-.72-4.54,2.91.21,7.76,1.79c6.7,2.18,10,3.27,12.83,3.07A6.29,6.29,0,0,1,346,679c2.24,1,3,3.74,3.58,5.73,1.59,5.74,3.71,13.54,4.06,14.81,1.28,4.63,1.39,3.52,3.58,10.75.13.41,1.9,6.29,3,11.5.49,2.32.73,3.48.9,4.76.26,1.93.15,2.09.41,2.61,1.33,2.62,6,2.36,6,3.11s-3.41.31-6.69,2.38c-.47.3-4.61,3-4.54,6.45,0,1.69,1,2.6.48,3.35-.85,1.14-3.93.12-4.3,0a10.85,10.85,0,0,1-5.5-4.3c-1.89-3.11-1.39-6.2-1.91-6.21s-1.06,2.38-1.19,5A24.12,24.12,0,0,0,345,747.3c2.31,8.06.57,3.64,3.82,14.82,2.48,8.52,2.49,7.64,2.87,9.79.76,4.3.22,4.87,1,13.85.45,5.37.69,5.76.24,7.17,0,0-1.5,4.77-7.65,8.56-.14.08-.87.52-1.85,1a5,5,0,0,1-1,.46c-1.36.11-2.92-6.39-3.58-9.07,0,0-2.83-11.57-5.39-19.14-.33-1-.46-1.23-1.08-3-.95-2.8-1.12-3.61-1.41-3.61-.63,0-1.1,3.68-1.44,6-1.42,9.78-2.36,8.16-4.48,20.17-1.12,6.34-1.11,8.18-2.92,9.45-1.45,1-3,.92-10.51-.72-13.45-2.92-16.11-4.28-17.44-5a39.84,39.84,0,0,1-7.64-5.5c-.51-.5-1.12-1.23-2.39-2.39-.83-.74-1-.85-1.2-1.19-.75-1.55,1.23-4,1.67-4.54.58-.73,2.61-7.33,6.69-20.54,4-12.81,3.43-11.74,3.94-12.89,1.06-2.4,2.13-4.35,2.27-7.42a15.36,15.36,0,0,0-1.67-7.64c-1.17-2.27-2.59-3.55-5-5.73a50.85,50.85,0,0,0-6.05-4.54c-.56-.36-.89-.54-2.31-1.44a6.14,6.14,0,0,0-1.19-.71c-1.11-.36-2,.48-3.82,1.43-3,1.53-3.89,1-5,2.39-.79,1-.34,1.23-1.19,2.39-.27.36-.94,1.17-4.3,2.86a31.6,31.6,0,0,1-3.11,1.44c-6.6,2.59-9.58,1.07-12.42,3.82-1.48,1.43-1.48,2.62-2.39,2.63-1.75,0-4-4.44-3.34-8.36.34-2,1.58-3.59,4.06-6.69,2.24-2.81,3.36-4.21,4.59-4.94a3.61,3.61,0,0,0,1.38-1.27c.69-1.16.08-1.87.48-2.87.73-1.84,3.47-1.07,4.78-3.11.79-1.23.08-2,.95-3.34s2.13-1.56,3.34-2.15c3.14-1.51,2.42-3.65,6.69-8.6,2.57-3,3.82-3.34,4.3-5.49s-.57-2.9-.24-4.54c.67-3.25,5.49-3.58,13.38-7.17C297.75,678,298.84,675.43,302.38,676.24Z" transform="translate(-22.59 -165.27)" fill="#036093"></path><path d="M267.79,732.83a.6.6,0,0,0-.36-.11c-.13,0-.18.09-.35.13a.92.92,0,0,1-.28,0,23.79,23.79,0,0,0-4.25.6c-2.59.61-3.66,1.5-6.63,2.34-3.77,1.05-5.74.79-5.93,1.6s1.61,1.61,4.16,3.22c3.28,2.08,3.29,2.58,7.2,5.42,2.83,2.06,3.56,2.33,15.32,9.37.22.13,4.59,2.35,13.33,6.79,1.74.89,3.38,1.69,5.29,1.29,2.17-.46,2.41-2,6.56-4.73,2.25-1.48,3.4-2.23,5-2.29s2.36.56,4.06.13c1.45-.37,2.92-1.32,2.81-2,0-.21,3-2.11,3.74-3.21a2.05,2.05,0,0,0-.07-2.39c-.6-.63.18-1.17.67-1.69a1.51,1.51,0,0,0,.19-1.68c-.27-.44-.79-.52-1.69-.67-2.79-.47-3.62-2.88-3.44-3.49s-.66-1.33-.76-1.41a3.59,3.59,0,0,0-2.41-.65c-3,0-4.54,0-5.24.38-1.75,1-1.05,2.16-3.47,4.4a14.49,14.49,0,0,0-2.56,2.46c-.23.33-.52.8-.69.74s0-.89-.06-2.15c0-.55-.11-2-.54-2.13s-1.37,1.88-1.6,2.43a36.37,36.37,0,0,0-1.54,4.82,3.7,3.7,0,0,1-.9,1.94,2.88,2.88,0,0,1-.78.5,2.45,2.45,0,0,1-1.35.28,2.06,2.06,0,0,1-1.22-.92c-1.14-1.62-5.81-3.55-11.95-8.51a56.27,56.27,0,0,1-7.54-7.49l-.33-.42c-.89-1.15-1.34-1.73-1.58-2.12A2.81,2.81,0,0,0,267.79,732.83Z" transform="translate(-22.59 -165.27)" fill="#d0b09a"></path><g><path d="M413.81,737.32l-.12.06,0-.1Z" transform="translate(-22.59 -165.27)" fill="#05669b"></path><polygon points="305.56 595.75 305.69 595.98 305.69 595.98 305.23 595.93 305.56 595.75" fill="#05669b"></polygon><path d="M399.48,733.73c-1.83-.46-4.28-1.1-7.19-1.86-2.65-.69-5.12-1.35-7.38-2L328.15,761,327,758.89l57.09-31.29L413,735l.69,2.28-4.77-1.17C404.6,735,401.22,734.18,399.48,733.73Z" transform="translate(-22.59 -165.27)" fill="#0c86bc"></path><polygon points="391.11 572.1 391.11 572.12 336.17 599.11 305.69 595.98 336.28 599.04 391.11 572.1" fill="#05669b"></polygon><path d="M328.15,761l56.76-31.11c2.26.61,4.73,1.27,7.38,2,2.91.76,5.36,1.4,7.19,1.86s5.12,1.31,9.42,2.38l4.77,1.17,0,.1-54.82,26.93-30.59-3.06h0Z" transform="translate(-22.59 -165.27)" fill="#05669b"></path></g><path d="M398.41,740.26a11.43,11.43,0,0,1,4.3,1.43c1.7.84,2.57,1.28,3.11,2.15.13.22,1,1.58.47,2.63-.27.58-.7.54-1,1.19s.07.82,0,1.91c0,.75-.09,1.32-.48,1.68s-1,0-1.67.47-.32.88-1,1.68a3.39,3.39,0,0,1-1.91,1.19c-.68.12-.82-.14-1.67,0a12.35,12.35,0,0,0-1.43.48c-1,.2-1.81-.48-2.63-1a17,17,0,0,0-4.3-1.19c-3.86-.82-6.33-.15-6.45-.72-.08-.36.86-.86,2.14-1.55a12.48,12.48,0,0,1,2.61-1.17c1-.32,1.7-.34,1.82-.74s-.16-.57-.48-1c-.84-1-1.45-1-1.91-1.67-.34-.51-.61-1.43-.24-1.91.58-.76,2.3.09,2.87-.72.28-.4-.06-.72.24-1.19.51-.83,2.08-.74,2.38-.72,1.47.09,2.33.81,2.63.48s-.22-.73,0-1.2C396.25,740.12,397.93,740.23,398.41,740.26Z" transform="translate(-22.59 -165.27)" fill="#d0b09a"></path></g><path d="M287.75,681.89c.2-4.36-.82-6.94,1.19-9.79,1.4-2,3.78-3.44,3.35-5-.27-1-1.32-1-1.68-2.15s.67-2.2,1-3.82c.36-2.06-.89-3.33-1.67-5.26s-.54-3.21.47-10.51c1.46-10.4,1.24-10.22,1.68-11,2.65-4.68,8-6.67,11.22-7.88A19.14,19.14,0,0,1,309,625,17.92,17.92,0,0,1,321,628.62c2.65,2.07,3.85,4.36,6,8.36a21.44,21.44,0,0,1,2.87,14.1c-.05.43-.11.82-.16,1.17-.06-.19-.12-.38-.2-.58-.75-1.91-1.8-1.88-2.39-3.82-.51-1.68.06-2.41,0-4.06a9.74,9.74,0,0,0-5.73-8.12l-.1,0h0l-.1,0-.21-.08a9.62,9.62,0,0,0-6.14-.12,10.35,10.35,0,0,0-4.77,3.11c-1.89,2.19-2.3,4.6-2.75,7.28-.53,3.12.08,3-.48,6.45-.51,3.14-.84,5.21-2.39,7.17-1.37,1.75-2.47,1.84-2.74,3.22-.35,1.78,1.67,2.36,1.91,4.78.39,3.94-2.19,5.8-1.2,8.36a2.63,2.63,0,0,0,.67.92c-.31.8-.77,1.75-1.39,3.07-4.26,9.16-3.65,9.44-5.49,11.47a22.46,22.46,0,0,1-6.21,4.54c-3.28,1.83-5.72,3.19-6.69,2.38C281.54,696.75,287.3,691.47,287.75,681.89Z" transform="translate(-22.59 -165.27)" fill="#2d3035"></path></g></svg> 