<?xml version="1.0" encoding="UTF-8"?> <svg xmlns="http://www.w3.org/2000/svg" id="Layer_1" data-name="Layer 1" viewBox="0 0 982.36 673.52"><title>contact-illustration</title><g opacity="0.5"><path d="M713.79,241.16C759.32,279.34,783,343,814.22,405.13s70.17,122.62,72.91,185.44S856.58,718.67,808.74,768s-110.23,83-170.74,81.84-118.88-37.17-189.19-50-152.16-2.59-206.34-33.86-80.26-104.18-77.95-173.2,33.14-134.43,65.13-196.82,65.41-122,116.13-157.92,118.73-48.27,186.6-48S668.11,202.83,713.79,241.16Z" transform="translate(-8.44 -190)" fill="#11c4f4"></path></g><g><path d="M963.8,523.94c-19.49,14.23-48.54,14.43-74.42,7.32S840.8,509.72,836.66,492s10.37-38.94,21-63.41,17.4-52.24,32.91-58.95,39.9,7.64,60.15,25.08,36.41,37.93,39.5,62.32S983.33,509.68,963.8,523.94Z" transform="translate(-8.44 -190)" fill="#05669b"></path><path d="M933,465.87c-3.54,5.92-7,11.88-10.65,17.74a14.4,14.4,0,0,0-2.26,8.8c.55,11.43.69,22.88.93,34.32q.93,44.52,1.85,89Q923.3,635,924,654.28c.1,2.64-.63,3.71-3.41,3.52a90,90,0,0,0-9.72,0c-2.13.09-2.87-.68-2.74-2.81.54-9.26.94-18.54,1.46-27.8.56-9.81,1.23-19.6,1.79-29.41,1-17.88,2.09-35.77,3-53.66.37-7.1.52-14.22.55-21.34a9.48,9.48,0,0,0-1.52-4.48c-9.44-16-19-31.93-27.88-48.3l30.07,41.48c.49-7.73.92-14.46,1.33-21.19.17-2.69.17-5.4.51-8.07.46-3.69,0-7-2.31-10.1a20.2,20.2,0,0,1-3.22-6.64l5.35,7.23.79-.27V460.61l1.13,0v20.8l1.27.44,11.88-16.44Z" transform="translate(-8.44 -190)" fill="#2f2f33"></path></g><g><g><circle cx="771.77" cy="150" r="83.2" fill="#0072bb"></circle><path d="M814.7,361l-11.15-11.15a5.81,5.81,0,0,0-8.2.15l-5.62,5.62-1.11-.62a55.79,55.79,0,0,1-13.52-9.77,56.39,56.39,0,0,1-9.79-13.54l-.61-1.09,3.78-3.76,1.85-1.86a5.81,5.81,0,0,0,.15-8.2l-11.15-11.15a5.81,5.81,0,0,0-8.2.15L748,308.9l.09.09a18.23,18.23,0,0,0-2.59,4.57,19,19,0,0,0-1.15,4.63c-1.47,12.21,4.1,23.37,19.24,38.51,20.93,20.93,37.8,19.35,38.53,19.27a18.81,18.81,0,0,0,4.64-1.17,18.36,18.36,0,0,0,4.56-2.58l.07.06,3.18-3.12A5.82,5.82,0,0,0,814.7,361Z" transform="translate(-8.44 -190)" fill="#fff"></path></g><g><path d="M802.39,539.81c-1.53,3-.56,4.27-2,6.56-1,1.7-2,1.68-2.29,3.18s.23,3.28,1.09,3.5c1.07.26,2.16-2,2.84-1.75s.2,1.71.22,3.93c0,2.84.07,3.5.44,4.16.1.17,1,1.69,2.19,1.75,1.83.09,3.7-3.1,4.16-5.91a35.71,35.71,0,0,0-.44-6.12c-.31-2.9-.47-3.54-.22-4.82.42-2.14,1.3-2.47,1.09-3.72-.33-2-3.14-3.92-5-3.28C803.5,537.62,803,538.53,802.39,539.81Z" transform="translate(-8.44 -190)" fill="#d0b09a"></path><g><path d="M762.79,629c1.19,1.55-.69,3.34.43,5.49,1.24,2.39,4.26,1.58,5.38,3.94.61,1.27.24,2.58-.5,5.2-1.08,3.83-2.23,4-2.54,6.73a17.81,17.81,0,0,0,.39,5.33c.45,2.08,1,2.88.6,4.05a3.67,3.67,0,0,1-3,2.48c-2.75,0-6-5.43-6.65-10.8-.58-5.09,1.41-8.43-.81-10.82-1-1.09-1.66-.63-3-1.89-2.53-2.34-3.65-7-1.8-9.18.86-1,2.24-1.13,5-1.39C759.36,627.83,761.74,627.61,762.79,629Z" transform="translate(-8.44 -190)" fill="#1a1920"></path><path d="M777.06,643.42a6.69,6.69,0,0,1,3.17-1.26,6.07,6.07,0,0,1,4.24.36c1.14.7,1,1.53,2.29,4.14,1.59,3.19,2.48,3.29,3.71,6.29.87,2.11,1.3,3.17.88,4.14-1.26,2.92-8.43,1.86-8.82,1.8-2-.32-4.72-.75-6.36-3.06a8.13,8.13,0,0,1-1.23-4.32C774.79,649.91,774.39,645.58,777.06,643.42Z" transform="translate(-8.44 -190)" fill="#1a1920"></path><path d="M766.25,538.69c1.64-.9,2.69.27,7.54,1.5A50.38,50.38,0,0,0,790,541.86c3.31-.27,5.33-.88,6.88.5s1.5,3.74,1.56,5.43c.17,4.64,1.27,3.69,4.1,14.86,1.16,4.6,2.08,10.36,3.93,21.88,1.53,9.56,1.76,12,.49,15.19-1.49,3.72-4.28,6.46-6.55,8.68-3.09,3-4.68,3.61-8.2,6.35-4.19,3.26-6.71,6.17-10.65,10.69-8.31,9.55-8.63,13-12,13.19-4.69.29-10.08-6.15-9.34-10.52.14-.84,1.35-2.29,3.77-5.18,3.84-4.58,5.77-6.88,6.39-7.51,3-3.09,3.05-2.35,7.7-6.51,6.16-5.52,5.39-6.15,9.83-9.52,2.48-1.88,3.44-2.24,3.94-3.68.93-2.74-1.34-5.06-3.77-9.85-3.91-7.7-3.92-13.32-4.92-13.19s-1.07,4.6-1.31,10.35.1,6.88-.33,11.36c-.38,4-.76,4.35-1.14,8s-.26,6.56,0,12.36a111.85,111.85,0,0,0,1.47,16.37c.87,4.72,1.3,7.08,2,8.5s1.44,2.39,1.1,3.52c-.56,1.88-3.56,2.5-5.24,2.84-2,.4-4.12.84-5.41-.34-1-.95-.7-2.2-1-5.34-.11-1.17-.73-3.79-2-9-1-4.18-1.36-5.32-1.8-7.18-.59-2.51-1.29-6.22-1.64-18.7-.25-8.78.08-7.4-.16-12.53a174.22,174.22,0,0,0-2.13-19.7c-.83-5-1.46-7.4-2.13-13.19a56.51,56.51,0,0,1-.49-9.52C763.28,545.23,763.49,540.19,766.25,538.69Z" transform="translate(-8.44 -190)" fill="#2f2f33"></path></g><g><path d="M764.09,491.64c-.24,1.28,3.87,3.51,8.07,4.27,2.19.39,4.85.94,7.59-.48s5.3-4.27,4.86-6.52a5,5,0,0,0-1-2.14c-.68-.8-1.5-1.06-1.42-1.42s.91-.17,1.42-.71.07-1.54.24-2.85.67-1.21,1.66-3.08c1.08-2,1.7-3.21,1.42-4.51-.33-1.56-1.71-2.1-1.42-3.32.16-.69.64-.7.71-1.43.1-.93-.65-1.32-.71-2.37a3.41,3.41,0,0,1,.47-1.66c.73-1.82-1.07-4.65-2.37-5.93-3.36-3.33-9.34-2.27-12.57-.95-1.3.53-5.07,2.08-6.64,5.7-.24.54-.48,2.81-1,7.35a13,13,0,0,0,0,4.27,12.63,12.63,0,0,0,1.42,3.8c1,1.65,1.54,1.78,2.61,3.79a9.22,9.22,0,0,1,1,2.37,5.23,5.23,0,0,1,0,3.09C767.56,491,764.3,490.53,764.09,491.64Z" transform="translate(-8.44 -190)" fill="#d0b09a"></path><path d="M762.9,479.77c2.23.29,3.91-1.7,4.27-2.13a5.71,5.71,0,0,0,1.43-3.08c.21-2.06-1-3.06-.48-4.51.15-.38.24-.26,1.66-1.66A13.23,13.23,0,0,0,772,465.9c.68-1.31.17-1.8,1-3.09a4.07,4.07,0,0,1,1.66-1.66c.67-.33,1.56-.31,3.32-.24a11.1,11.1,0,0,1,2.37.24,4.34,4.34,0,0,1,2.61,1.43c.8,1.14,0,2.1.95,3.32a2.11,2.11,0,0,0,3.56,0c.41-.55.23-.87.47-2.38a12,12,0,0,1,1-3.32c.56-1.15.81-1,1-1.66.34-1.52-.9-3.38-2.37-4.27a6.21,6.21,0,0,0-3.8-.71c-1.69.17-2.3.89-3.08.47s-.41-1.37-1.43-2.6a5.21,5.21,0,0,0-2.84-1.67,3.57,3.57,0,0,0-2.37,0c-.74.34-.79.83-1.66,1.19a4.24,4.24,0,0,1-1.67.24c-1.44,0-1.91-.23-2.84-.24a7.07,7.07,0,0,0-2.85.71,13.91,13.91,0,0,0-4.51,2.85,19,19,0,0,0-2.61,3.32,12.05,12.05,0,0,0-1.89,3.32c-.36,1.24,0,1.43,0,4.51,0,3.27-.33,3.74.23,5,.33.71.51.69,1.43,2.37a6.82,6.82,0,0,0,1.18,1.9c.72.71,1.1.61,1.43,1.19.44.79-.09,1.33.23,2.13A3.14,3.14,0,0,0,762.9,479.77Z" transform="translate(-8.44 -190)" fill="#25242c"></path><g><path d="M765.71,478.18c-1.94-2.76-2.72-3.55-2.39-4.57.26-.78.9-.83,3.16-2.38s2.75-2.3,3.44-2.46a1.4,1.4,0,0,0-1-.43c-.93,0-1.11.67-3.78,2.5-2.26,1.55-2.9,1.6-3.15,2.38-.34,1,.45,1.81,2.39,4.57,1.08,1.55,1.46,2.19,6.13,8.12a3,3,0,0,0,1.64,1.24,2,2,0,0,0,.6,0,4.4,4.4,0,0,1-.89-.89C767.18,480.37,766.8,479.73,765.71,478.18Z" transform="translate(-8.44 -190)" fill="#706969"></path><path d="M776,485.32c1.64-1.3,2.88-2.28,2.91-3.68a3.58,3.58,0,0,0-.91-2.14c-4.79-6.73-1.34-2.54-5.06-7.16a32.06,32.06,0,0,0-3.06-3.57c-.69.16-1.13.87-3.44,2.46s-2.9,1.6-3.16,2.38c-.33,1,.45,1.81,2.39,4.57,1.09,1.55,1.47,2.19,6.13,8.12a4.4,4.4,0,0,0,.89.89C773.75,487.13,774.76,486.33,776,485.32Z" transform="translate(-8.44 -190)" fill="#150a06"></path></g><path d="M765.28,492.82c-.44-2.2-.65-3.93-.71-4.51-.44-3.79-.11-3.46-.48-5-.46-1.89-1-2.61-.71-3.79.25-.93,1.34-1,1.66-2.14.09-.31-.06-.6,0-1.42a1.66,1.66,0,0,1,.24-1,1.11,1.11,0,0,1,1-.47,1.3,1.3,0,0,1,.94.71c.39.59.19,1,.48,1.18.09.05.3.14,1.42-.47a12.26,12.26,0,0,1,1.66-1c.2-.07,1.29-.43,1.66,0s-.13.89.24,1.42a1.45,1.45,0,0,0,.71.48c.65.25.91,0,1.19.23s.24.62.24,1.43c0,.65-.1.7,0,1s.47.61.94.95.57.29.72.47a1.77,1.77,0,0,1,0,1.66c-.64,1.43-2.35,1-3.44,2.49a6.47,6.47,0,0,0-.71,2.14,17.28,17.28,0,0,0-.48,3.56c-.07,1.23,0,2.22,0,3.08.1,2.61.33,2.93,0,3.32-.92,1.08-4.32.53-5.69-1.42A9,9,0,0,1,765.28,492.82Z" transform="translate(-8.44 -190)" fill="#d0b09a"></path><path d="M763.62,485.23c-1-.32-1.46,1.2-3.8,2.14-2.14.85-2.79,0-4.74.94a7.41,7.41,0,0,0-3.09,2.85,8.07,8.07,0,0,0-1,4.51c.31,7.95.82,15.89,1.07,23.84a10.81,10.81,0,0,0,1.42,5.69,13.49,13.49,0,0,0,4,3.8c1.73,1.24,2.62,1.86,3.56,1.66,1.32-.28,1.91-1.89,2.84-4,2.39-5.51,2.53-4.12,4-8.07,1.86-4.86,1.67-7,3.56-16.13.76-3.65,2.79-6,1.66-7.35-.44-.54-1-.23-3.79-.72-2.32-.41-3.49-.63-4-1.42s0-1.4-.24-3.56C765.06,488.32,764.81,485.62,763.62,485.23Z" transform="translate(-8.44 -190)" fill="#11c4f4"></path><path d="M771.92,495c1.05-.29,1.76,1.3,3.56,1.18,1.39-.09,2.52-1.12,3.56-2.13a9.24,9.24,0,0,0,1.6-1.91c.86-1.38.8-2.23,1.72-3.31.51-.6,1.07-.53,1.42-1.19s.13-1.14.48-1.42,1.4.13,2.37.47c1.38.5,1.81.26,4.27.48a29,29,0,0,1,5.45.95c2.3.8,4.09,3.24,6.88,13.28,2.55,9.16,1.26,7.83,3.09,13,0,0,2.72,24.42,3.32,27.76.21,1.18-8.68,2.69-8.78,1.18,0-.55-1.76-12.15-2.37-14.47-.82-3.11-.62-7.24-1.19-7.12-.38.09.13-.43.6,8.19.11,2.07.15,3.78.23,6.88.12,4.42,4.56,18.38,4.39,18.86-2.16,6.21-15.78,6.16-21.35,6.17-9.16,0-21.33-2.26-22.06-6.88-.37-2.36,2.54-3.31,3.2-8.19.43-3.15-1.29-4.25-.71-8.06.78-5.14,1.17-7.72,1.66-9.49,4.49-16.29,6.74-24.43,6.88-28.71C770.17,499.77,770.29,495.41,771.92,495Z" transform="translate(-8.44 -190)" fill="#11c4f4"></path></g></g></g><path d="M862.59,290.57" transform="translate(-8.44 -190)" fill="#fff"></path><g><path d="M185.83,503.85c-27,19.74-67.35,20-103.25,10.15S15.17,484.12,9.43,459.47s14.38-54,29.16-88S62.73,299,84.25,289.7s55.36,10.6,83.46,34.79,50.52,52.63,54.81,86.48S212.93,484.06,185.83,503.85Z" transform="translate(-8.44 -190)" fill="#05669b"></path><path d="M87.49,426.53q7.17,9.9,14.36,19.79l1-.09,2.61-43.38.62,0,2.16,79.49,1,.44,35.63-49.1.93.62c-2.39,4.07-4.76,8.15-7.17,12.21-9.33,15.69-18.71,31.36-28,47.09a10.93,10.93,0,0,0-1.74,5.33q.81,47.74,1.9,95.47.6,28.41,1.35,56.81c.07,2.63-1.11,3.29-3.47,3.23-4.53-.11-9.07-.14-13.59,0-2.57.07-3.4-.94-3.24-3.41,1.57-25.74,3.22-51.47,4.59-77.21,1-19.71,1.67-39.45,2.63-59.16.78-16,1.58-32.07,2.81-48.06.6-7.84.54-15.08-4.46-21.86-4.08-5.53-7.17-11.78-10.7-17.72Z" transform="translate(-8.44 -190)" fill="#2f2f33"></path></g><g><g><g><circle cx="523.69" cy="310.57" r="83.2" fill="#0072bb"></circle><path d="M570.42,490.52a.93.93,0,0,1,1.5.72v31.52a7.43,7.43,0,0,1-7.46,7.4H499.79a7.44,7.44,0,0,1-7.47-7.4v-31.5a.93.93,0,0,1,1.51-.73c3.48,2.68,8.1,6.09,24,17.51,3.28,2.37,8.81,7.37,14.33,7.34s11.2-5.06,14.35-7.34C562.33,496.62,566.93,493.2,570.42,490.52Zm-38.3,19.91c3.61.06,8.8-4.5,11.42-6.38,20.63-14.84,22.2-16.14,27-19.84a3.64,3.64,0,0,0,1.43-2.91v-2.93a7.43,7.43,0,0,0-7.46-7.4H499.79a7.44,7.44,0,0,0-7.47,7.4v2.93a3.7,3.7,0,0,0,1.43,2.91c4.76,3.69,6.33,5,27,19.84,2.61,1.88,7.81,6.44,11.41,6.38Z" transform="translate(-8.44 -190)" fill="#fff"></path></g><g><path d="M519.49,844.89a4.48,4.48,0,0,1,4.93-.4,5.33,5.33,0,0,1,2.17,3.55c.39,1.56.1,2.36,0,5.52a29.7,29.7,0,0,1,0,3.35,9.21,9.21,0,0,0-.3,2.46c.08,1.11.48,1.25.4,1.78-.22,1.4-3.29,2.28-5.72,2.36-.31,0-5.51.14-6.3-2.17-.25-.71.05-1.27.78-3a69.69,69.69,0,0,0,2.57-6.51C519.26,847.74,518,846.24,519.49,844.89Z" transform="translate(-8.44 -190)" fill="#1a1920"></path><path d="M549.05,849.81a7.61,7.61,0,0,0-1.46,5.23,3.87,3.87,0,0,0,.48,2.26c.38.51,1,.84,2.95,1.19a34,34,0,0,0,3.75.39c2.09.19,2.82.81,5.12,1.58a28.26,28.26,0,0,0,10.64,1.18c3.45-.09,4.29-.58,4.54-1.18.35-.87-.5-2-.79-2.37-1.28-1.68-2.75-1.57-5.52-3a16.92,16.92,0,0,1-4.53-3.16c-2-2-1.59-2.78-3.35-4.33-.84-.74-2.77-2.45-5.32-2.37C552.26,845.4,550,848.45,549.05,849.81Z" transform="translate(-8.44 -190)" fill="#1a1920"></path><path d="M518.8,727.74c2.1-4.47,3.15-6,4.21-8H511c-.67,5.8-1.05,8.87-1.24,9.56-1,3.5-2.14,6.1-2.56,10.64-.1,1.09-.15,2.12-.4,4.14-.46,3.78-.72,3.47-1.18,7.1-.38,3-.27,3.71-1,4.73a2.81,2.81,0,0,0-.79,1.77c0,.75.54,1.11,1,1.77,1,1.47.28,2.46.79,4.34a8.61,8.61,0,0,0,2.84,4c1.62,1.54,4,3,4.45,2.54s-1.41-2.94-.79-3.55,1.82.9,3.95.59a2.8,2.8,0,0,0,2.16-1.18,1.87,1.87,0,0,0,0-2c-.62-.78-2-.36-2.16-.79s1.65-1.09,1.57-1.77-2.31-.38-3.54-1.77-.77-3.66-.6-4.54c.36-1.8,1-1.86,1.38-3.35.64-2.47-.78-3.76-1.18-6.7-.24-1.8.16-3.39,1-6.5A63,63,0,0,1,518.8,727.74Z" transform="translate(-8.44 -190)" fill="#d0b09a"></path><path d="M514,743.25a86.32,86.32,0,0,1,14-2.1,87.8,87.8,0,0,1,10.62,0c1.83.11,14.44.94,17.25,5.09a20.3,20.3,0,0,1,1.33,2.43c.84,1.82,1.26,2.73,1.1,3.76-.2,1.32-1.05,1.36-1.33,2.66-.31,1.46.55,2.41,1.11,4,.67,1.86.4,3.08.22,6-.58,9.78,1.68,10.43,0,14.6-.59,1.47-1.62,3.25-1.33,5.75.17,1.4.55,1.33.89,2.88.9,4.15-1.48,6.46,0,8.62.66,1,1.39.9,1.55,1.77.25,1.39-1.53,2-1.55,3.76,0,1.38,1.06,1.69.88,3.1-.14,1.12-.85,1.23-.88,2.21,0,1.21,1,1.55,1.55,2.87s-.2,2.5-.67,4.65c-.24,1.14-.16,2.82,0,6.19.23,4.62.34,6.93.89,8.19s1.51,2.72,1.11,4.42a7.84,7.84,0,0,0-.45,1.77,12.81,12.81,0,0,0,.45,2.87,10.49,10.49,0,0,1,.22,2.22c-.09,1.41-.6,1.6-.67,2.65-.13,1.86,1.39,2.41,1.11,3.54-.33,1.3-2.66,1.78-5.13,2.28-2.22.46-2.14.09-5.27.6-2.23.36-2.79.63-3.31.22-1-.83.32-2.59-.67-5.09-.7-1.77-1.83-2-1.77-3.32s1.14-1.79,1.77-2.65c1.69-2.31-.61-5.74-2.21-10.84-1.93-6.13-.19-6.18-2.43-16.37-.63-2.86-1-3.95-.89-6,.19-3.12,1.33-4.66.67-7.52a17.35,17.35,0,0,0-1.33-3.1c-1.25-3-1-5-1.33-8.18-.8-8.65-3.78-9.85-4.32-15.92-.06-.68-.18-2.4-1.21-2.88a1.79,1.79,0,0,0-2,.44c-.63.76-.11,1.93.22,3.54a34.21,34.21,0,0,1,.22,5.31c0,4.54-1.43,4.65-2.21,11.06-.43,3.55-.08,4.34-.88,6.63-.49,1.38-1,2.16-.89,3.54.13,1.73,1,2.23.89,3.76-.13,1.31-.85,1.48-1.33,2.88-.65,1.9.13,3.19.44,5.31.42,2.86-.65,3.06-.88,6.85-.34,5.54,1.83,6.84.88,11.73-.43,2.22-.89,2-1.1,4-.35,3.16.75,4.32.66,8.18,0,2.32-.11,3.64-1.11,4.64-1.45,1.46-4,1.37-5,1.33a20.55,20.55,0,0,1-2.54-.36c-2-.36-2.26-.55-2.43-.74-.64-.74.09-1.51-.22-3.1-.39-2-1.76-1.94-2-3.76-.17-1.35.53-1.78.22-3.32a5.28,5.28,0,0,0-.88-2c-1.74-2.73.26-7,0-12.16-.22-4.27-1.69-3.32-1.77-7.3-.1-4.55,1.79-7.06,1.54-11.5a24.45,24.45,0,0,1,0-3.54c.13-1.61.34-2.27.45-3.32a13.45,13.45,0,0,0-.67-5.31c-1.23-4.51-.13-9.19-.66-20.57-.35-7.45-.87-6.69-.89-11.5A66.74,66.74,0,0,1,514,743.25Z" transform="translate(-8.44 -190)" fill="#2f2f33"></path><g><g><path d="M526.79,677c.31,1.4.6,2.7,0,3.94a18.38,18.38,0,0,1-2.76,2.76c-1.22,1.12-1.54,1.38-1.78,2a3.72,3.72,0,0,0,.1,2.86c1.58,2.9,11.66,1.15,19.31-2.56,3.53-1.71,6.66-3.9,6.31-5.12-.23-.79-1.69-.52-3.55-2-.33-.26-2.6-2.08-2.56-4.33,0-1.36.88-1.72,2-3.55a14,14,0,0,0,1.78-9.06c-.31-1.95-.79-1.56-1.78-4.73-1.44-4.66-.49-5.76-1.77-7.69-2.28-3.42-7.55-3.36-7.88-3.35a10.45,10.45,0,0,0-8.48,4.53c-2.26,3.73-.56,8.08-3,9.27-1.16.57-2.11-.18-2.76.59s0,1.26,1.18,5.91c.2.78.4,1.56,1,1.77.81.3,1.6-.73,2.17-.39.41.24.29.94.4,2.17a16.3,16.3,0,0,0,.59,3C525.89,675.25,526.38,675.17,526.79,677Z" transform="translate(-8.44 -190)" fill="#d0b09a"></path><path d="M524,684.09c1.31.95,1.37,3.2,3.74,4.13a4.9,4.9,0,0,0,.49.17c.94.23,2.37.17,6.21-.76s5.78-1.35,6.9-2c4.08-2.24,4.33-5.14,7.59-5.61,1.26-.19,1.21.26,3.74.59,5.53.72,6.82-1.27,10.25-.2a11.88,11.88,0,0,1,5.71,4.53c1.24,1.61,1.26,2.32,2.76,5.72,2,4.5,2.73,5,5.71,11.43a17.83,17.83,0,0,1,2,5.71c.2,1.66.5,4.32-1.19,6.51a5.5,5.5,0,0,1-2.56,2c-4,1.34-8.48-3.48-9.65-4.73a14.22,14.22,0,0,1-2.82-4c-.68-1.48-.82-2.55-1.13-2.54-.54,0-.8,3.39-1,5.52-.64,7.41-.91,6.4-1.38,12.22a70.9,70.9,0,0,0-.39,7.68c.06,2.13.21,2.46.78,7.89.35,3.29.62,5.86.79,8.86.27,4.62.45,6.93.2,7.49-3,6.84-23.24,4.46-30.74,2.76a75.53,75.53,0,0,1-11.78-3.83c-.85-.36-2-.91-4.3-2-3.49-1.67-3.79-1.9-4-2.23-1.25-1.74.21-4.58,1-6.22a19.34,19.34,0,0,1,2.15-3.43c1.25-1.54,2.16-2.1,2-2.57s-1.58-.16-4.14-.39c-2.23-.2-3.81-.35-4.53-1.38-.52-.75-.34-1.62.39-4.53,0,0,.64-2.46,1.58-6.11.85-3.32.57-6,0-11.23-.51-4.72-.95-4.35-1.38-8.28-.67-6.07-1.2-10.91,1.58-14.58,1.25-1.65,3.19-2.61,7.09-4.53C519.34,684.34,522.34,682.86,524,684.09Z" transform="translate(-8.44 -190)" fill="#11c4f4"></path><path d="M562.06,660.83a31,31,0,0,1-1,4.54c-.87,2.94-1.46,3.36-2,5.71a13.8,13.8,0,0,0-.19,5.91c.26,1.26.5,1.38,1.18,3.75.58,2,.7,2.94,1,4.13.9,3.72,2.11,4.46,3.35,7.89a38.87,38.87,0,0,1,1.38,7.09c1.22,8.21.55,9.26,2,11.63.18.3,3.49,5.65,7.49,4.73,2.91-.68,4.59-4.3,4.73-7.1.1-1.92-.53-3.05-2.86-7.39-3.33-6.24-4.93-9.33-6.3-12.61-2.61-6.21-2.24-7.86-2-8.67.78-2.34,2.94-4.1,4.92-5.71l4.34-3.16c1.92-1.39,3.26-2.35,3.94-4.14a5.43,5.43,0,0,0,.4-1.77,20,20,0,0,0-.4-2.56c-.09-1.59.63-1.71.4-2.76-.33-1.46-1.84-1.66-1.78-2.76.05-.82.91-1,1-2a1.93,1.93,0,0,0-.79-1.77c-.79-.43-1.4.51-3,.39-1-.08-1.26-.53-2-.39-1,.2-1.53,1.31-1.77,1.77-1.35,2.61-3.31,4.85-4.93,7.29-1.49,2.25-3,4.62-3.74,4.34-.15-.06-.3-.25-.4-3.35-.07-2.35,0-2.91-.39-3.75-.5-1.09-1.56-2.19-2.17-2S561.87,659.49,562.06,660.83Z" transform="translate(-8.44 -190)" fill="#d0b09a"></path></g><path d="M535.46,641.32a16.53,16.53,0,0,1,2.76.4,9.58,9.58,0,0,1,4.33,2.76c1.16,1.19,2.23,2.83,3.74,8.27,1.79,6.42,2.75,10,1.88,14.29a32,32,0,0,1-1.38,4.53c-.61,1.62-2,5.08-2.56,4.93s.2-4.58.39-5.72c.75-4.34,1.45-4.92,1.18-7.09-.13-1.09-.27-.63-1.57-4.73-.67-2.1-1.11-3.46-1.58-5.32-.84-3.28-.68-3.73-1.38-4.53-1.41-1.62-3.74-1.73-4.73-1.78a9.69,9.69,0,0,0-4.93,1.19,13.94,13.94,0,0,0-5.51,5.32,14.61,14.61,0,0,0-2.76,7.68c-.06,1.76.35,3.21,1.18,6.11,1.1,3.85,1.74,4.17,2.36,7.1a14.5,14.5,0,0,1,.4,6.3c-.9,4.38-4.52,7.46-5.13,7.1s1.58-2.68,1.19-6.51c-.14-1.32-.75-2.79-2-5.71-.63-1.5-1-2.21-1.38-2.17-.74.07-.79,3-1.19,3s-1-3.77-1.18-8.28a51.53,51.53,0,0,1,.4-9.85c.76-5.28,1.15-8,3.15-11,.21-.32,4.61-6.82,9.46-6.7C531,640.84,532.45,641,535.46,641.32Z" transform="translate(-8.44 -190)" fill="#150a06"></path></g></g></g><g><path d="M572.08,671.37l33.21-17.08a4.61,4.61,0,0,0,2-6.21l-7.83-15.22a1.81,1.81,0,0,0-1.11-.92l-26.18-7.63A4.24,4.24,0,0,0,567,627l-8.61,24.53a4.8,4.8,0,0,0,.26,3.77l7.25,14.09a4.61,4.61,0,0,0,6.22,2Z" transform="translate(-8.44 -190)" fill="#f2f2f2"></path><path d="M570.76,665.34,604.29,651c1.08-.56.07.29-.48-.79l-4.22-17.13-41.08,21.12,10.38,12.85C569.45,668.16,569.68,665.9,570.76,665.34Z" transform="translate(-8.44 -190)" opacity="0.1" style="isolation: isolate"></path><path d="M599.12,632.09" transform="translate(-8.44 -190)" fill="none" stroke="#3f3d56" stroke-miterlimit="10"></path><rect x="562.87" y="628.76" width="34.36" height="34.36" rx="2.54" transform="translate(-239.62 146.75) rotate(-27.21)" fill="#6c63ff"></rect><polygon points="555.56 462.28 564.19 479.07 594.74 463.36 586.11 446.57 574.63 461.81 555.56 462.28" opacity="0.1" style="isolation: isolate"></polygon><path d="M583.56,652.76l14.71-19.53a.9.9,0,0,1,1.25-.18,1.07,1.07,0,0,1,.25.31l8.37,16.28a2.77,2.77,0,0,1-1.2,3.75h0l-36.47,18.75a2.77,2.77,0,0,1-3.75-1.2h0l-8.23-16a1.09,1.09,0,0,1,.47-1.47,1.31,1.31,0,0,1,.47-.12Z" transform="translate(-8.44 -190)" fill="#f2f2f2"></path><rect x="577.52" y="629.09" width="9.61" height="1.36" transform="translate(-231.97 146) rotate(-27.21)" fill="#f2f2f2"></rect><rect x="562.46" y="637.49" width="28.53" height="0.78" transform="translate(-236.3 144.34) rotate(-27.21)" fill="#f2f2f2"></rect><rect x="563.66" y="639.82" width="28.53" height="0.78" transform="translate(-237.24 145.14) rotate(-27.21)" fill="#f2f2f2"></rect><rect x="564.86" y="642.15" width="28.53" height="0.78" transform="translate(-238.17 145.95) rotate(-27.21)" fill="#f2f2f2"></rect><ellipse cx="586.47" cy="623.93" rx="3.98" ry="3.99" transform="translate(-228.85 147.25) rotate(-27.21)" fill="#fff"></ellipse><path d="M582.28,626.19a4.76,4.76,0,1,0,2.05-6.41A4.76,4.76,0,0,0,582.28,626.19Zm6.26-.37-5.92-1.89.3-.92,5,1.6.76-2.37.92.3-1.05,3.28Z" transform="translate(-8.44 -190)" fill="#57b894"></path></g></g><g><g><circle cx="263.5" cy="201.88" r="83.2" fill="#0072bb"></circle><path d="M271.94,349.42a30.78,30.78,0,0,0-30.75,30.75c0,21.05,27.52,51.94,28.69,53.25a2.78,2.78,0,0,0,4.12,0c1.17-1.31,28.7-32.2,28.7-53.25A30.79,30.79,0,0,0,271.94,349.42Zm0,46.22a15.47,15.47,0,1,1,15.47-15.47A15.49,15.49,0,0,1,271.94,395.64Z" transform="translate(-8.44 -190)" fill="#fff"></path></g><g><g><path d="M210.76,540.74c.29-.58.8-.82,1.05-1.75a5.3,5.3,0,0,0-.53-3.33c-.54-1.49-.86-3.06-1.4-4.55A23.07,23.07,0,0,1,208.39,520a8.7,8.7,0,0,1,1.58-4.55c2.28-2.86,6.31-2.94,8.23-3a12.15,12.15,0,0,1,7.54,1.93c1.58,1.11,2.46,2.55,4.2,5.43a29.76,29.76,0,0,1,2.45,6,3.71,3.71,0,0,1,.18,2.46c-.2.58-.42.56-.53,1-.21,1,.59,2.11,1.23,3s.94,1,.88,1.57a1.47,1.47,0,0,1-.53.88c-.52.41-1,.16-1.4.52a1.59,1.59,0,0,0-.35,1.06c-.31,2.77-.21,3.06-.53,3.67s-.6.66-.7,1.23.16.91.18,1.58a2.76,2.76,0,0,1-.53,1.75c-1.26,1.38-5.54-1.12-6.3,0-.21.3.08.53-.18,1.4a5.51,5.51,0,0,1-.88,1.58,11.84,11.84,0,0,1-1.05,1.4c-1.26,1.32-3.54,1.24-3.85,1.23C213.47,549.94,209.45,543.31,210.76,540.74Z" transform="translate(-8.44 -190)" fill="#d0b09a"></path><g><path d="M181.15,614.15c-.5.74.27,1.53-.35,3.33-.12.34-.31.75-.7,1.57s-.68,1.35-.88,1.76c-.45.93-.36,1.14-1.13,4.29-.4,1.6-.6,2.4-.71,2.63-.4.82-.88,1.39-.7,2.1.1.35.24.29.53.87.38.78.17,1,.52,1.76.29.62.46.57.71,1.22.17.46.14.62.35.88a1.52,1.52,0,0,0,1.05.52,1.42,1.42,0,0,0,1.17-.46s0,0,.05-.06c.19-.11.49.43.88.52s.74-.24,1.4-.87c.87-.83.83-1.08,1.4-1.4s.93-.18,1.23-.53.14-1,.17-1.93a9.57,9.57,0,0,1,.7-2.45,18.87,18.87,0,0,0,.36-3.5,34.06,34.06,0,0,0,.17-3.86c-.24-1.56-.72-1.8-.7-3.15s.61-1.78.35-2.45C186.4,613.29,182.1,612.76,181.15,614.15Z" transform="translate(-8.44 -190)" fill="#d0b09a"></path><path d="M248.78,616.25a20,20,0,0,0,1.4,1.58,18.19,18.19,0,0,0,1.57,1.57,13.7,13.7,0,0,0,2.11,1.23,17.17,17.17,0,0,1,2.45,1.93c.52.44,1.46,1.28,2.71,2.36.79.68,1.14,1,1.49,1,.53,0,1.23,0,1.23-.7,0-.11-.22-1.1.26-1.14.74-.07,1,1.15,1.93,1.22a1.2,1.2,0,0,0,1.23-.7c.07-.42-.59-1-.44-1.31s.35-.35.61.09.6,1,1.05,1,1.4-.57,1.32-1.14-1.19-.74-1.32-1.49c0-.23,0-.58.18-.7s.46.1.7,0,.39-.81.35-1.23c-.06-.64-.4-1.33-1.93-2.63-1.7-1.44-3.13-2.16-3-2.62.09-.26.58-.19.7-.53,0-.08.11-.37-.7-1.23a6.28,6.28,0,0,0-2.1-1.57,13.34,13.34,0,0,0-1.58-.53c-1.44-.44-2.15-.66-2.45-.7a14.69,14.69,0,0,0-3.15,0,6.55,6.55,0,0,1-1.4,0,9.8,9.8,0,0,1-1.76-.52c-.89-.25-2.49-.34-3.32.52a3.8,3.8,0,0,0-.71,1.75c-.23.9-.34,1.34-.17,1.75.27.66.86.5,1.75,1.41A15.2,15.2,0,0,1,248.78,616.25Z" transform="translate(-8.44 -190)" fill="#d0b09a"></path><g><path d="M209.18,540.57c1.82-.89,4.64,1.41,6.13,2.63,2.93,2.38,4.61,5.09,6.84,8.75a25.11,25.11,0,0,1,1.75,3.16c1.44,3.39,1,5.54,1.22,9.11.37,5,1.57,4.82,2.9,12.52.49,2.89.69,5.06.87,7,1.21,13.37-1.11,14.57,0,25.23,0,0,1.13,10.79,0,15.59-.39,1.65-.93,3.32-.93,3.32-.38,1.16-.69,2-.8,2.22s-.55,1.35-.72,1.64c-1.09,1.84-8.43-.26-10-.7-14.7-4.14-17.36-2.75-21.2-5.6-.87-.65-3.83-3-6.3-3a8.8,8.8,0,0,1-2.59-.27,9.47,9.47,0,0,1-2-.78c-2.49-1.46,1.54-16,2.81-20.67,1.33-4.94,3.55-13.48,4.94-21.63a95.1,95.1,0,0,0,1.33-11.32c.23-4.6-.16-4.26.21-5.77.77-3.18,2.28-3.77,9.46-12.27,3.05-3.61,3.65-4.54,4.2-5.78C208.17,542.11,208.21,541,209.18,540.57Z" transform="translate(-8.44 -190)" fill="#c0e5fa"></path><path d="M232.66,716.28c.82-.67,1.87-.86,5.25-.52,3.8.38,5.7.57,7,1.23,1.06.53.55.5,5.26,4.2a13.06,13.06,0,0,0,3.85,2.45,12.61,12.61,0,0,0,3.86.7c1.89.06,2.41-.35,4,0,.84.18,2,.46,2.46,1.41a2.19,2.19,0,0,1,0,1.57c-.65,1.6-3.57,1.87-6.13,2.1-11.16,1-10.43,1.15-13.67,1.23,0,0-3.71.09-7.56,0-1.77-.06-1.55-.1-2.95-.13-1.91-.05-2.23,0-2.63-.18-1.08-.59-1.06-2.36-1.05-5.26a18.17,18.17,0,0,1,.88-6.13A5.29,5.29,0,0,1,232.66,716.28Z" transform="translate(-8.44 -190)" fill="#1a1920"></path><path d="M168.61,715.18c.89-.58,2-.65,5.28.07,3.73.81,5.59,1.21,6.82,2,1,.65.5.56,4.75,4.77a13.35,13.35,0,0,0,3.55,2.88,13.09,13.09,0,0,0,3.75,1.13c1.88.26,2.44-.08,4,.45.81.28,2,.69,2.28,1.67a2.18,2.18,0,0,1-.18,1.57c-.82,1.52-3.75,1.45-6.33,1.39-11.21-.23-10.49,0-13.72-.32,0,0-3.7-.33-7.51-.9-1.75-.26-1.53-.28-2.91-.46-1.9-.26-2.22-.21-2.59-.48-1-.7-.79-2.45-.45-5.34a18,18,0,0,1,1.56-6A5.26,5.26,0,0,1,168.61,715.18Z" transform="translate(-8.44 -190)" fill="#1a1920"></path><path d="M196.22,617.83a63.33,63.33,0,0,1,15.06,3c6.74,2.37,10.11,3.56,12.79,6.48,2.19,2.37,3,4.71,4.56,9.28,4.89,14.42,7.34,21.65,7.53,22.6,1.84,9-.12,9.24,1.93,20.85,1.2,6.81,1.8,10.22,2.71,13.05,1.6,4.95,3.28,7.93,2.63,11a6,6,0,0,0,.18,4.2c.36.67,1.64,2.57,1.22,1.93a4.18,4.18,0,0,0,0,3c.74,1.62,2.48,1.61,2.63,2.63.27,1.82-5,3.93-5.25,4a17.3,17.3,0,0,1-5.63,1.14c-.22,0,0,0-3.71-.16-1.77-.07-2.22-.09-2.58-.46-.59-.62-.08-1.33-.17-3.5s-.65-2.78-.18-3.86,1.46-.86,1.58-1.57-1-1.45-1.93-2.46c-1.43-1.61-1.48-3.47-1.75-5.25-.63-4.16-1.93-4.52-3.5-10-1.06-3.65-.36-3.51-1.93-12.61-.21-1.23-.57-3.22-1.23-5.78-.6-2.36-1-2.71-1.4-4.73-.58-2.72-.19-2.86-.7-4.21-.81-2.15-2-2.32-3.85-4.73a43.15,43.15,0,0,1-3-5.78c-2.53-5.3-3-6.52-3.68-6.48-.95,0-1.29,2.2-2.63,5.61-.58,1.47-1.79,3.66-4.2,8.05s-5.45,9.61-9.81,17.35a27.65,27.65,0,0,0-2.81,6.48c-.89,3.15-.32,3.39-1.05,6.13-1.41,5.32-3.82,5.42-4.73,10.34-.46,2.51.06,3-.7,5.6-.71,2.41-1.54,3.24-1.4,5.08.16,2.22,1.47,2.53,1.23,3.86-.5,2.7-6.32,3.82-8.94,4a21.89,21.89,0,0,1-4.31-.18c-1.95-.22-2.94-.34-3.4-.87-.77-.89,0-1.84.53-6,.37-2.84.27-4.33,1.4-5.08.62-.41,1-.18,1.58-.53,1.79-1.05,1.32-5,1.22-6-.82-7.94,2-16.42,2.63-18.4,1.48-4.48,2.57-4.48,4.73-10.86.88-2.59.82-3.54,2.1-7.71.52-1.66,2-6.37,3.86-8.76.14-.19.7-.89,1.4-1.92s1.24-2,1.4-2.28a11.33,11.33,0,0,0,1.05-5.43c.05-6.42,4.53-8,3.86-13.84-.33-2.83-1.37-2.56-2.11-6.84-.47-2.73-1.14-6.64.88-8.58C191.5,617.68,193.16,617.59,196.22,617.83Z" transform="translate(-8.44 -190)" fill="#2f2f33"></path><path d="M207.78,543.2c2.68-1.2,8.64,6.89,9.11,7.53A48,48,0,0,1,223,562.29c1.42,3.85,1.56,5.77,3.59,11.65a33.58,33.58,0,0,1,1,3.51,56.1,56.1,0,0,1,1,5.74c.28,2,.42,3,.43,3.19,0,1.45-.14,2.16.35,2.63s1.29.06,2.27.35c1.43.42,1.58,2,2.81,3.85s1.64,1.16,5.25,4.73c2.32,2.3,2.43,2.88,3.68,3.33a8.49,8.49,0,0,1,3,1.4c.48.39.41.44,1.05,1.05a15.18,15.18,0,0,0,3.86,2.63,17.71,17.71,0,0,0,2.09.94c1.1.4,1.37.36,1.58.64.67.83-.48,2.76-1.22,4-1.88,3.17-2.8,2.74-4.21,5.43-.28.54-.52,1.09-1.05,1.23-1,.25-2-1.1-3-2.11-1.6-1.7-3.73-2.8-5.6-4.2-7.77-5.83-6.64-4.35-8.51-6.12-1-.94-1.82-1.84-2.35-1.59-.73.33-.24,2.45,0,5.08.12,1.42,0,.85-.35,9.46-.2,5.06-.22,7-1.06,9.81-.77,2.67-1.41,3.25-1.75,3.51-2.07,1.54-5.11,0-9.46-1.41-7.21-2.35-6.51-.63-17.87-3.68,0,0-4.91-1.31-9.7-3-2.57-.88-2.24-.92-3.4-1.21s-1.62-.27-2-.74c-.65-.87.34-1.92-.18-3s-2-.68-3-1.58c-1.23-1.13-.66-3.47.35-7.88,1.39-6,2.08-9,2.11-9.46.23-3.7-.39-6.64,1.22-8.58a4,4,0,0,0,1.05-1.93c.25-1.35-.56-1.85-.35-3,.28-1.44,1.73-1.3,2.28-2.8s-.89-2.45-.35-4.21c.42-1.38,1.48-1.33,2.45-3,.75-1.27.65-2.19.88-4,.4-3.15,1.06-3.22,1.93-7,1.14-5,0-5,1-7.19,1.67-3.44,4-2.29,6.3-6.3.92-1.6,1.42-3.31,3.33-4.56.8-.52,1.08-.45,1.93-1C206.79,545.39,206.7,543.68,207.78,543.2Z" transform="translate(-8.44 -190)" fill="#2a2f43"></path><path d="M222,552.13c-.63.11-.92,2.17-.7,3.85s.86,2.42,1.75,4.21c1.86,3.75,1.9,6.18,2.28,6.13s.66-4-.35-8.06C224.27,555.54,222.84,552,222,552.13Z" transform="translate(-8.44 -190)" fill="#2a2f43"></path></g></g><path d="M210.58,537.59c.62.94,2.58.89,3.86.35a3.53,3.53,0,0,0,1.57-1.23c.66-1,.3-1.84.18-3.85s-.21-3.67.61-5.17a3.75,3.75,0,0,1,2.46-2.1,3.32,3.32,0,0,1,3.15,1.4,4.54,4.54,0,0,1,.52,3,10.58,10.58,0,0,1-.52,3c-.52,1.66-1,2.11-1.4,3.85a5.91,5.91,0,0,0-.18,1.4c0,1.07.38,1.58,1,3.16a17.22,17.22,0,0,1,1.4,4c.16.83.23,1.75.36,1.75s-.13-1.71.7-2.28c.57-.39,1.18.09,2.8.35,1.2.19,3,.47,3.68-.35.45-.56.18-1.48-.35-3.33a13,13,0,0,0-1.4-3.5c-1.44-2.32-2.42-1.73-3.33-3.51s.16-2.24-.7-5.95c-.17-.72-.37-1.4,0-1.93s.92-.42,2.45-1.23c.83-.44,1-.64,1-.87.11-.58-.64-.94-.52-1.4s1-.36,1.92-.88a4.47,4.47,0,0,0,1.93-3c-.05,0-.63.78-.53.88s1.37-.94,2.28-1.93a2.89,2.89,0,0,0,.88-1.4,2.51,2.51,0,0,0-.18-1.4,3.32,3.32,0,0,0-.87-1.23c-1.53-1.44-2.33-2.21-3.68-2.63-1.7-.52-2.35.08-3.33-.7a9.76,9.76,0,0,0-1.4-1.05,9.38,9.38,0,0,0-1-.52,7.24,7.24,0,0,0-4.91,0c-1.31.46-1,.8-3.33,2.1-1.66.94-1.9.81-3.15,1.57a12.22,12.22,0,0,0-3.33,2.81c-1.29,1.64-1.63,3.24-2.1,5.43a14.55,14.55,0,0,0-.35,5.78,12,12,0,0,0,1.22,3.68,10.16,10.16,0,0,0,1.05,1.58c.9,1.07,1.25,1,1.58,1.57C211.45,535.21,209.9,536.55,210.58,537.59Z" transform="translate(-8.44 -190)" fill="#25242c"></path><path d="M232,535.49c.23.25,0,.77,0,.87a1.3,1.3,0,0,1-.35.53c-.41.34-.77.14-1.76.35-.58.12-.8.27-.87.17s.52-.89.87-1.22a2.91,2.91,0,0,1,1.06-.7C231.14,535.41,231.71,535.22,232,535.49Z" transform="translate(-8.44 -190)" fill="#25242c"></path></g><g><g opacity="0.5"><path d="M357.57,648.09a21.26,21.26,0,0,0-21.24,21.23c0,14.54,19,35.87,19.82,36.77a1.9,1.9,0,0,0,2.84,0c.81-.9,19.82-22.23,19.82-36.77A21.26,21.26,0,0,0,357.57,648.09Zm0,31.92a10.69,10.69,0,1,1,10.69-10.69A10.69,10.69,0,0,1,357.57,680Z" transform="translate(-8.44 -190)" fill="#0072bb"></path></g><line x1="255.71" y1="535.93" x2="352.92" y2="526.87" fill="none" stroke="#1a1920" stroke-miterlimit="10" stroke-dasharray="12"></line></g></g></g></svg> 