<?xml version="1.0" encoding="UTF-8"?> <svg xmlns="http://www.w3.org/2000/svg" id="Layer_1" data-name="Layer 1" viewBox="0 0 900.97 750.79"><title>content-illustration</title><g opacity="0.5"><path d="M545.53,791.68c-77.34,21.15-152.66,64-220.38,56.3S197.22,781.83,149.76,715.57C102.3,649.08,67.5,574.65,73.65,504.47s53.05-136.1,92.12-205.83,70.06-143,124.12-160.84,130.85,19.81,208,28,154.8-13.09,223.41,5.6c68.83,18.69,128.49,77.45,156,148.64,27.53,71.41,22.83,155.35,1.45,232.69s-59.32,148.19-118,183.34S622.76,770.63,545.53,791.68Z" transform="translate(-3.2 -98.11)" fill="#11c4f4"></path></g><path d="M330.47,998.43" transform="translate(-3.2 -98.11)" fill="#d0b09a"></path><g><path d="M218.54,360.91c-32.82,24-81.76,24.3-125.34,12.32S11.37,337,4.4,307s17.46-65.58,35.4-106.8,29.3-88,55.43-99.29,67.2,12.86,101.32,42.24,61.31,63.89,66.53,105S251.43,336.88,218.54,360.91Z" transform="translate(-3.2 -98.11)" fill="#05669b"></path><path d="M99.16,267.05l17.43,24,1.19-.11q1.59-26.34,3.17-52.66l.76,0q1.31,48.24,2.62,96.49l1.17.54,43.24-59.61,1.14.76c-2.91,4.94-5.79,9.9-8.72,14.82-11.32,19.05-22.7,38.07-33.94,57.17A13.14,13.14,0,0,0,125.1,355q1,57.94,2.3,115.89.75,34.49,1.65,69c.08,3.2-1.35,4-4.22,3.93-5.5-.14-11-.17-16.5,0-3.11.1-4.11-1.14-3.93-4.14,1.91-31.24,3.91-62.47,5.58-93.72,1.28-23.93,2-47.89,3.19-71.82,1-19.46,1.92-38.92,3.41-58.34.72-9.52.66-18.3-5.41-26.53-5-6.72-8.71-14.31-13-21.51Z" transform="translate(-3.2 -98.11)" fill="#2f2f33"></path></g><g><path d="M871.4,505.37c-23.66,17.27-58.93,17.51-90.34,8.88s-59-26.15-64-47.71,12.59-47.26,25.51-77S763.7,326.16,782.52,318s48.44,9.27,73,30.44,44.19,46.05,48,75.66S895.11,488.05,871.4,505.37Z" transform="translate(-3.2 -98.11)" fill="#05669b"></path><path d="M834,434.87c-4.3,7.19-8.51,14.43-12.93,21.53a17.43,17.43,0,0,0-2.74,10.69c.66,13.87.83,27.77,1.12,41.66q1.14,54,2.25,108.07.52,23.4,1.44,46.77c.12,3.21-.77,4.51-4.15,4.28a105.38,105.38,0,0,0-11.79,0c-2.59.1-3.49-.83-3.34-3.42.66-11.25,1.15-22.5,1.78-33.75.68-11.9,1.49-23.8,2.17-35.7,1.26-21.71,2.54-43.42,3.67-65.13.45-8.63.63-17.28.66-25.91a11.4,11.4,0,0,0-1.84-5.44c-11.46-19.41-23-38.77-33.84-58.63L813,490.23c.59-9.38,1.11-17.55,1.62-25.72.2-3.27.2-6.56.61-9.81.57-4.47,0-8.51-2.81-12.25a24.74,24.74,0,0,1-3.9-8.06l6.5,8.77.95-.33V428.49l1.37,0v25.25l1.54.53q7.21-10,14.42-20Z" transform="translate(-3.2 -98.11)" fill="#2f2f33"></path></g><g><path d="M359.41,560.35" transform="translate(-3.2 -98.11)" fill="#d0b09a"></path><g><g><path d="M168.48,668.62a12.06,12.06,0,0,0,12,12H723.56a12.06,12.06,0,0,0,12-12V372H168.48Z" transform="translate(-3.2 -98.11)" fill="#11c4f4"></path><g><path d="M723.56,351H180.5a12.06,12.06,0,0,0-12,12v9H735.59v-9A12.06,12.06,0,0,0,723.56,351Z" transform="translate(-3.2 -98.11)" fill="#0988ce"></path><g><circle cx="181.56" cy="263.42" r="5.51" fill="#11c4f4"></circle><circle cx="201.1" cy="263.42" r="5.51" fill="#11c4f4"></circle><circle cx="220.64" cy="263.42" r="5.51" fill="#11c4f4"></circle></g></g></g><g><path d="M195.26,520.42H685.8a8.17,8.17,0,0,1,8.17,8.17v0a8.17,8.17,0,0,1-8.17,8.17H195.42a8.17,8.17,0,0,1-8.17-8.17v-.19a8,8,0,0,1,8-8Z" fill="#0988ce"></path><path d="M195.26,492.36H350.49a8.17,8.17,0,0,1,8.17,8.17v0a8.17,8.17,0,0,1-8.17,8.17H195.42a8.17,8.17,0,0,1-8.17-8.17v-.19a8,8,0,0,1,8-8Z" fill="#0072bb"></path><path d="M195.26,544.47H685.8a8.17,8.17,0,0,1,8.17,8.17v0a8.17,8.17,0,0,1-8.17,8.17H195.42a8.17,8.17,0,0,1-8.17-8.17v-.19A8,8,0,0,1,195.26,544.47Z" fill="#0988ce"></path><path d="M198.59,293H399.78a8.17,8.17,0,0,1,8.17,8.17v162a8.17,8.17,0,0,1-8.17,8.17h-201a8.17,8.17,0,0,1-8.17-8.17V301a8,8,0,0,1,8-8Z" fill="#0988ce"></path><path d="M448.85,291.42H560.8a8.17,8.17,0,0,1,8.17,8.17v0a8.17,8.17,0,0,1-8.17,8.17H449a8.17,8.17,0,0,1-8.17-8.17v-.19a8,8,0,0,1,8-8Z" fill="#0988ce"></path><path d="M448.85,331.61h236.7a8.17,8.17,0,0,1,8.17,8.17v0a8.17,8.17,0,0,1-8.17,8.17H449a8.17,8.17,0,0,1-8.17-8.17v-.19A8,8,0,0,1,448.85,331.61Z" fill="#0988ce"></path><path d="M448.85,363.11h236.7a8.17,8.17,0,0,1,8.17,8.17v0a8.17,8.17,0,0,1-8.17,8.17H449a8.17,8.17,0,0,1-8.17-8.17v-.19a8,8,0,0,1,8-8Z" fill="#0988ce"></path><path d="M448.85,394.62h236.7a8.17,8.17,0,0,1,8.17,8.17v0a8.17,8.17,0,0,1-8.17,8.17H449a8.17,8.17,0,0,1-8.17-8.17v-.19a8,8,0,0,1,8-8Z" fill="#0988ce"></path><path d="M448.85,426.89h236.7a8.17,8.17,0,0,1,8.17,8.17v0a8.17,8.17,0,0,1-8.17,8.17H449a8.17,8.17,0,0,1-8.17-8.17v-.19a8,8,0,0,1,8-8Z" fill="#0988ce"></path><path d="M448.85,455.33h236.7a8.17,8.17,0,0,1,8.17,8.17v0a8.17,8.17,0,0,1-8.17,8.17H449a8.17,8.17,0,0,1-8.17-8.17v-.19a8,8,0,0,1,8-8Z" fill="#0988ce"></path></g></g></g><g><path d="M515.37,652.05a3.7,3.7,0,0,1,1.9,2.22c.29,1.4-.91,2-.63,3.49.21,1.14.93,1.2,1,2.22,0,1.21-1,1.47-1,2.54s1.22,1.17,1.58,2.54c.32,1.2-.48,1.53-.31,3.17.15,1.48.87,1.8.63,2.53-.37,1.16-2.66,2-4.12,1.27-2.07-1-1.94-4.86-1.91-5.71.07-1.74.54-1.89.32-3.17-.34-2.06-1.64-2.22-1.9-4.12-.2-1.46.55-1.54.63-3.81s-.55-2.88,0-3.49C512.31,650.92,514.23,651.38,515.37,652.05Z" transform="translate(-3.2 -98.11)" fill="#e6ae8b"></path><g><g><path d="M557.55,799.53c1.61-1.28,4.12-.58,5.08-.32.44.13,4,1.18,5.07,4.13.71,2-.63,2.39-.63,6.34,0,.73.21,2.71.63,6.66a10.21,10.21,0,0,1,0,3.49,9.36,9.36,0,0,1-1.59,3.49,7.5,7.5,0,0,1-2.85,2.85,6.25,6.25,0,0,1-5.71-.31c-3.36-2-3.34-7.13-3.33-9,0-3.72,1.24-3.68,1.9-8.88C556.76,803,555.92,800.84,557.55,799.53Z" transform="translate(-3.2 -98.11)" fill="#1a1920"></path><path d="M569.92,554.05c-5,4.76-3.33,13.13-2.85,15.54v.08c.18.88,1.63,8.27,1.57,12,0,1.69-.2,3.36-.2,3.36-.17,1.61-.39,2.72-.43,3-.5,3,3.3,11.8,10.15,11.73,5.19-.05,9-5.17,9.83-9.51.33-1.67-.67-2.85-.32-5.71a20.85,20.85,0,0,1,1.43-4.92,33.48,33.48,0,0,0,1.58-9.2c.35-4.73.55-7.34-.63-10.46-.57-1.53-2.21-5.87-6.66-7.93A12.55,12.55,0,0,0,569.92,554.05Z" transform="translate(-3.2 -98.11)" fill="#e6ae8b"></path><path d="M568,588.94c1.24-.19,1.8,2.4,6,5.71,2,1.52,3.25,2.51,5.08,2.53,2.64,0,4.74-1.94,5.71-2.85,2.47-2.33,2.85-4.55,3.8-4.44s1.6,3,1.91,5.07a62.16,62.16,0,0,1,.31,15.23c-.74,7.39.48,13.3-.31,15.85a71,71,0,0,1-6,14.59c-2.47,4.63-4.6,3.1-5.39,3.18-1.25.12-4.51.91-12.69-24.74-1.24-3.9-.91-11.13-1.11-17.29C565.13,595.85,566.08,589.22,568,588.94Z" transform="translate(-3.2 -98.11)" fill="#f7fafd"></path><path d="M598.12,800.2c1.4-1.5,4-1.19,5-1.07.47.06,4.17.56,5.64,3.32,1,1.88-.27,2.47.31,6.37.11.72.61,2.65,1.62,6.49a10.06,10.06,0,0,1,.52,3.45,9.53,9.53,0,0,1-1,3.69,7.6,7.6,0,0,1-2.4,3.25,6.23,6.23,0,0,1-5.69.53c-3.63-1.5-4.36-6.55-4.64-8.44-.53-3.68.68-3.82.56-9.07C597.85,803.73,596.7,801.73,598.12,800.2Z" transform="translate(-3.2 -98.11)" fill="#1a1920"></path><path d="M554.06,689.48c5-6.42,21.47-2.77,28.23-1.27,5.5,1.22,7,2.23,11.42,2.22,8.15,0,11.71-3.47,14.9-1.59,1.48.87,2.93,2.91,2.86,14.59-.12,18.4-3.77,21.84-2.22,33.3a51.68,51.68,0,0,1,.63,11.1c-.29,5.22-1.16,5.44-1.58,10.15-.87,9.62,2.55,10.51,1.58,19.35a22.76,22.76,0,0,0,.32,9.2c.44,1.64.7,1.7,1.27,3.8a23.71,23.71,0,0,1,.95,8.57c-.22,2.57-.39,4.49-1.9,6a7.21,7.21,0,0,1-4.44,1.91,10.84,10.84,0,0,1-8.88-3.49c-3-3.38-2-7.54-2.06-14.43,0-1-1.17-8.3-3.49-22.84-2.07-13-2.14-12.29-3.49-20.93-3.09-19.66-3.72-29.21-4.76-29.18-.89,0-.24,6.94-2.54,18.08-2.2,10.68-4.36,11.93-7.29,25.05A113.16,113.16,0,0,0,571,774.32c-.69,7.44-1.06,11.45-.63,17.12.47,6.3,1.71,11.92-.95,14.59a44.64,44.64,0,0,1-3.81,3.18,14.17,14.17,0,0,1-2.86,1.9c-2.65,1-6.07-.49-7.92-2.22-2.39-2.23-2.8-5.4-2.86-11.74a167.18,167.18,0,0,1,1-19.66c1.27-10.94,2-12.69,2.22-19,.12-3.44-.15-6.94-.63-14-1-15.08-1.76-15.47-1.9-23.47-.15-8.22.62-7.07.63-18.39C553.27,692.45,552.65,691.29,554.06,689.48Z" transform="translate(-3.2 -98.11)" fill="#2f2f33"></path><path d="M567.07,588.3c-.7-.12-1.26,3.33-4.76,5.71a12.92,12.92,0,0,1-4.28,1.75c-8.87,2.44-13.31,3.66-15.23,6.66-.69,1.08-1.09,2.51-1.9,5.39-.72,2.55-.55,2.86-1.27,5.39-1,3.61-1.64,4-1.9,6a13.28,13.28,0,0,0,.63,5.7c2.4,8,14.31,44.32,10.79,54.56a48.57,48.57,0,0,0-1.81,6.36,39.1,39.1,0,0,0-1,6.36c-.22,3.65.35,6.33,1.49,11.7.32,1.51.62,2.72,1.58,3.17,1.47.69,3.5-.84,4.13-1.27,5.11-3.54,15.31-2.63,27-1.59,9.44.85,9.9,2,17.12,1.91s11.79-.13,14.59-3.17c3.22-3.49,1.46-8.26,0-20.3-1.74-14.43-2.61-21.65-1-29.82,1.92-9.44,5.61-13.36,6.34-23.47a32.09,32.09,0,0,0-1.26-13c-.93-2.78-1.44-2.82-2.23-5.71-1.53-5.66-.37-8.53-2.53-10.78-.45-.46-1-.83-4.76-1.9-9.61-2.72-12.58-2.16-15.54-5.08-1.79-1.77-2.43-3.67-2.86-3.49-.65.28.85,4.71,1.59,8.25,1.42,6.79.4,12.1-1.27,20.3-2.45,12-4.57,22.48-8.56,22.83-4.63.41-10.76-12.82-12.69-24.74C565.3,602.2,568.47,588.55,567.07,588.3Z" transform="translate(-3.2 -98.11)" fill="#036093"></path><path d="M563.58,569c.94,1.46,1.84,1.55,2.53,2.53,1.09,1.53.47,3.48.64,3.49s1.27-2.81,1-6.34c-.14-1.51-.53-3.18.32-3.81.37-.27.59-.06,1-.31.95-.69,0-2.54.63-4.76a3.87,3.87,0,0,1,1.27-2.22c1.42-1,2.91.32,7.61.63h3.18a5,5,0,0,0,2.53-.32c1-.5.86-1.11,1.59-1.26,1.25-.28,2.6,1.29,2.85,1.58a3.17,3.17,0,0,1,.64,1,4.58,4.58,0,0,1,0,2.54c-.25,1.59-.5,2-.32,2.86a5.59,5.59,0,0,0,.32,1c.38.95.68,1.21,1,1.9a5.83,5.83,0,0,1,.32,1.59c.25,2.19-.19,3.18.31,3.48s1.19-.26,1.27-.31a3.09,3.09,0,0,0,1-2.54c0-1.09-.4-1.22-.31-2.22a6.71,6.71,0,0,1,.63-1.9,20.43,20.43,0,0,0,1-2.54,6.56,6.56,0,0,0,0-2.54,10.66,10.66,0,0,0-2.22-5.71c-.71-.81-1-.74-5.71-3.17a43.94,43.94,0,0,0-4.44-2.22c-2.12-.8-3.77-1.42-5.71-1.27-3.32.26-5.61,2.65-8.24,5.39a21.35,21.35,0,0,0-3.49,4.76,17.91,17.91,0,0,0-1.59,4.12,9,9,0,0,0,0,5.4A7.36,7.36,0,0,0,563.58,569Z" transform="translate(-3.2 -98.11)" fill="#0f0f1b"></path></g><path d="M577.85,597.5A3.49,3.49,0,0,0,576,600a7.72,7.72,0,0,0,.63,5.07c1.8,4.39-1.09,9-2.22,14-2.24,9.78,2.36,20.93,4.76,20.93s7.78-11.94,4.44-21.57c-1.51-4.34-5.2-9.44-3.17-13.32a7.22,7.22,0,0,0,1.27-4.44,3.82,3.82,0,0,0-1.59-2.85A2.75,2.75,0,0,0,577.85,597.5Z" transform="translate(-3.2 -98.11)" fill="#02030a"></path><g><g style="isolation: isolate"><path d="M518.76,691.45a2.62,2.62,0,0,0,2.86,2.32l120.84-8.69a2.63,2.63,0,0,0,2.5-2.71L640.8,624.6a4.3,4.3,0,0,0-4.6-4l-117.62,8.46a4.3,4.3,0,0,0-4,4.6Z" transform="translate(-3.2 -98.11)" fill="#5a5773"></path></g><path d="M531.1,672h99.83a1.67,1.67,0,0,1,1.67,1.67v0a1.67,1.67,0,0,1-1.67,1.67h-99.8a1.67,1.67,0,0,1-1.67-1.67v0A1.63,1.63,0,0,1,531.1,672Z" transform="translate(-50.05 -54.66) rotate(-4.12)" fill="#0988ce"></path><path d="M524.24,688.43a2.38,2.38,0,0,0,2.6,2.12l110.25-7.93a2.39,2.39,0,0,0,2.27-2.48l-3.79-52.7a3.92,3.92,0,0,0-4.19-3.63l-107.31,7.73a3.92,3.92,0,0,0-3.63,4.19Z" transform="translate(-3.2 -98.11)" fill="#11c4f4"></path><path d="M530.75,667.1h99.83a1.67,1.67,0,0,1,1.67,1.67v0a1.67,1.67,0,0,1-1.67,1.67h-99.8a1.67,1.67,0,0,1-1.67-1.67v0a1.63,1.63,0,0,1,1.63-1.63Z" transform="translate(-49.7 -54.7) rotate(-4.12)" fill="#0988ce"></path><path d="M534.8,661.4h90.92a1.67,1.67,0,0,1,1.67,1.67v0a1.67,1.67,0,0,1-1.67,1.67H534.83a1.67,1.67,0,0,1-1.67-1.67v0a1.63,1.63,0,0,1,1.63-1.63Z" transform="translate(-49.29 -54.74) rotate(-4.12)" fill="#0072bb"></path><path d="M531.1,672h99.83a1.67,1.67,0,0,1,1.67,1.67v0a1.67,1.67,0,0,1-1.67,1.67h-99.8a1.67,1.67,0,0,1-1.67-1.67v0A1.63,1.63,0,0,1,531.1,672Z" transform="translate(-50.05 -54.66) rotate(-4.12)" fill="#0988ce"></path><path d="M535.87,636.5h86.28a8.17,8.17,0,0,1,8.17,8.17v3.82a8.17,8.17,0,0,1-8.17,8.17H536a8.17,8.17,0,0,1-8.17-8.17v-4A8,8,0,0,1,535.87,636.5Z" transform="translate(-48.11 -54.87) rotate(-4.12)" fill="#0988ce"></path><path d="M531.45,676.82h99.83a1.67,1.67,0,0,1,1.67,1.67v0a1.67,1.67,0,0,1-1.67,1.67h-99.8a1.67,1.67,0,0,1-1.67-1.67v0A1.63,1.63,0,0,1,531.45,676.82Z" transform="translate(-50.4 -54.63) rotate(-4.12)" fill="#0988ce"></path></g><path d="M644.47,663.3a3.61,3.61,0,0,1-1.9-2.22c-.29-1.39.91-2,.63-3.49-.21-1.14-.94-1.2-1-2.22,0-1.21,1-1.46,1-2.53s-1.22-1.17-1.59-2.54c-.31-1.21.49-1.54.32-3.17s-.87-1.8-.63-2.54c.37-1.15,2.66-2,4.12-1.27,2.07,1,1.93,4.87,1.9,5.71-.06,1.75-.53,1.89-.31,3.17.34,2.06,1.64,2.23,1.9,4.12.2,1.46-.55,1.54-.64,3.81s.56,2.88,0,3.49C647.53,664.43,645.61,664,644.47,663.3Z" transform="translate(-3.2 -98.11)" fill="#e6ae8b"></path></g></g></svg> 