<?xml version="1.0" encoding="UTF-8"?> <svg xmlns="http://www.w3.org/2000/svg" id="Layer_1" data-name="Layer 1" viewBox="0 0 900.97 723"><title>facebook-illustration</title><g><path d="M244.54,431.91c-32.82,24-81.76,24.3-125.34,12.32S37.37,408,30.4,378s17.46-65.58,35.4-106.8,29.3-88,55.43-99.29,67.2,12.86,101.32,42.24,61.31,63.89,66.53,105S277.43,407.88,244.54,431.91Z" transform="translate(-29.2 -169.11)" fill="#05669b"></path><path d="M125.16,338.05l17.43,24,1.19-.11q1.59-26.34,3.17-52.66l.76,0q1.31,48.24,2.62,96.49l1.17.54,43.24-59.61,1.14.76c-2.91,4.94-5.79,9.9-8.72,14.82-11.32,19.05-22.7,38.07-33.94,57.17A13.14,13.14,0,0,0,151.1,426q1,57.94,2.3,115.89.75,34.49,1.65,69c.08,3.2-1.35,4-4.22,3.93-5.5-.14-11-.17-16.5,0-3.11.1-4.11-1.14-3.93-4.14,1.91-31.24,3.91-62.47,5.58-93.72,1.28-23.93,2-47.89,3.19-71.82,1-19.46,1.92-38.92,3.41-58.34.72-9.52.66-18.3-5.41-26.53-4.95-6.72-8.71-14.31-13-21.51Z" transform="translate(-29.2 -169.11)" fill="#2f2f33"></path></g><g><path d="M391.4,756.19a13,13,0,0,0,2,0A3.07,3.07,0,0,0,394,756h.73a9.9,9.9,0,0,0,1.3.18c3.75,0,7.51,0,11.26,0a3.59,3.59,0,0,0,.65-.07l.64-.11h2.06a28.09,28.09,0,0,0,5.42.18q.9-.06,1.8-.18h1.62a13.3,13.3,0,0,0,4.08.13,1.67,1.67,0,0,1,.11,1.06c-.19,2.6-.37,5.21-.56,7.82a.58.58,0,0,0,0,.89c-.17,2.25-.33,4.5-.52,6.75q-.56,6.52-1.13,13.06a5.45,5.45,0,0,0-.43,2.14c-.36,3.21-.65,6.42-1,9.63a97.9,97.9,0,0,1-1.68,11.31,13.23,13.23,0,0,0-.73,4.08c-.43,1.55-.85,3.1-1.27,4.65-.32.11-.39.41-.5.67a9,9,0,0,1-3,3.77c-1.06.8-2.12,1.6-3.21,2.35-5.44,3.77-10.9,7.51-16.36,11.27a12.08,12.08,0,0,0-1.41,1.06,2.94,2.94,0,0,0-.14,4.14,4.09,4.09,0,0,0,2.54,1.2,50,50,0,0,0,8.09.93c2.06,0,4.12.06,6.18.06H560.94a79.6,79.6,0,0,0,11.45-.51,20.08,20.08,0,0,0,4.09-.85,3,3,0,0,0,2-3.86,3.25,3.25,0,0,0-1.6-1.74c-4.14-2.81-8.3-5.59-12.41-8.45-3.65-2.56-7.56-4.8-10.57-8.2-.32-.81-.69-1.61-1-2.44-.44-1.39-.82-2.81-1.23-4.21a3.44,3.44,0,0,0-.22-1.93,100.5,100.5,0,0,1-2-12.19c-.36-3.44-.66-6.88-1-10.32a5.48,5.48,0,0,0-.45-2.14c-.17-2-.34-3.93-.5-5.89q-.79-9.6-1.58-19.2a.59.59,0,0,0,0-.89c-.09-1-.18-2.09-.28-3.14a1,1,0,0,1,.25-1,6.5,6.5,0,0,0,.87.12h15.88a2.41,2.41,0,0,0,.53-.07l.54-.12h1.16a1,1,0,0,0,.52.17,1.08,1.08,0,0,0,.53-.16h1.16a7.78,7.78,0,0,0,.81.17,5.6,5.6,0,0,0,2.44-.18h2.93a1.62,1.62,0,0,0,.75.2,1.55,1.55,0,0,0,.74-.2h6a.53.53,0,0,0,.62,0h11.76a2.3,2.3,0,0,0,.48.17,2.61,2.61,0,0,0,.48.05,2.28,2.28,0,0,0,1-.22h10.88a5.24,5.24,0,0,0,2.39.19h165c1.1,0,2.21,0,3.31,0a3.47,3.47,0,0,0,2.11-.45l1.3-.14a1,1,0,0,0,1.05-.06,1.75,1.75,0,0,0,.29-.26l.44-.07a.62.62,0,0,0,.75-.09.84.84,0,0,0,.18-.23,18.56,18.56,0,0,0,1.82-.68c4-1.8,6.45-5,7.51-9.53a29.89,29.89,0,0,0,.76-6.79q.1-20.76.1-41.51.11-162.59,0-325.17c0-7.8,0-15.61,0-23.41a18.06,18.06,0,0,0-1.8-7.89,12.11,12.11,0,0,0-6.11-6.1,22.52,22.52,0,0,0-6.12-1.78,53.61,53.61,0,0,0-7.49-.36H196.23c-1.11,0-2.21,0-3.32,0a22.33,22.33,0,0,0-6.91,1.27,13.15,13.15,0,0,0-8.08,7.93,19.13,19.13,0,0,0-1.36,6.89c0,1.4,0,2.8,0,4.2q0,176.16.05,352.33,0,17.34,0,34.68a23.16,23.16,0,0,0,.46,5c1.2,5.58,4.43,9.34,9.94,11a15.93,15.93,0,0,0,4.11.75,1.55,1.55,0,0,0,1.23.38l3.09,0h196ZM484.75,747a21,21,0,1,1,21-21A21,21,0,0,1,484.75,747ZM201.24,676V371a12,12,0,0,1,12-12h542a12,12,0,0,1,12,12V676a12,12,0,0,1-12,12h-542A12,12,0,0,1,201.24,676Z" transform="translate(-29.2 -169.11)" fill="#05669b"></path><rect x="172.04" y="189.89" width="566" height="329" rx="12" fill="#11c4f4"></rect><circle cx="455.56" cy="556.89" r="21" fill="#11c4f4"></circle></g><g><path d="M400,548" transform="translate(-29.2 -169.11)" fill="#d0b09a"></path><g><path d="M201,676a12,12,0,0,0,12,12H755a12,12,0,0,0,12-12V380H201Z" transform="translate(-29.2 -169.11)" fill="#11c4f4"></path><g><path d="M755,359H213a12,12,0,0,0-12,12v9H767v-9A12,12,0,0,0,755,359Z" transform="translate(-29.2 -169.11)" fill="#0988ce"></path><g><circle cx="188.06" cy="200.39" r="5.5" fill="#11c4f4"></circle><circle cx="207.56" cy="200.39" r="5.5" fill="#11c4f4"></circle><circle cx="227.06" cy="200.39" r="5.5" fill="#11c4f4"></circle></g></g></g><path d="M201.75,229.89H402.51a8.17,8.17,0,0,1,8.17,8.17v0a8.17,8.17,0,0,1-8.17,8.17H201.9a8.17,8.17,0,0,1-8.17-8.17v-.16a8,8,0,0,1,8-8Z" fill="#0072bb"></path><path d="M201.75,456.89H402.63a8.17,8.17,0,0,1,8.17,8.17v0a8.17,8.17,0,0,1-8.17,8.17H201.9a8.17,8.17,0,0,1-8.17-8.17v-.16a8,8,0,0,1,8-8Z" fill="#0988ce"></path><g><path d="M201.77,260.89H402.53a8.17,8.17,0,0,1,8.17,8.17v73.67a8.17,8.17,0,0,1-8.17,8.17H201.93a8.17,8.17,0,0,1-8.17-8.17V268.91a8,8,0,0,1,8-8Z" fill="#0988ce"></path><g><path d="M201.7,359.89h52.93a8.17,8.17,0,0,1,8.17,8.17V405.7a8.17,8.17,0,0,1-8.17,8.17H201.86a8.17,8.17,0,0,1-8.17-8.17v-37.8a8,8,0,0,1,8-8Z" fill="#0988ce"></path><path d="M276.15,359.89h52.93a8.17,8.17,0,0,1,8.17,8.17V405.7a8.17,8.17,0,0,1-8.17,8.17H276.3a8.17,8.17,0,0,1-8.17-8.17v-37.8A8,8,0,0,1,276.15,359.89Z" fill="#0988ce"></path><path d="M349.7,359.89h52.93a8.17,8.17,0,0,1,8.17,8.17V405.7a8.17,8.17,0,0,1-8.17,8.17H349.86a8.17,8.17,0,0,1-8.17-8.17v-37.8a8,8,0,0,1,8-8Z" fill="#0988ce"></path></g></g><path d="M201.75,428.89H356.63a8.17,8.17,0,0,1,8.17,8.17v0a8.17,8.17,0,0,1-8.17,8.17H201.9a8.17,8.17,0,0,1-8.17-8.17v-.16A8,8,0,0,1,201.75,428.89Z" fill="#0072bb"></path><path d="M201.75,480.89H402.63a8.17,8.17,0,0,1,8.17,8.17v0a8.17,8.17,0,0,1-8.17,8.17H201.9a8.17,8.17,0,0,1-8.17-8.17v-.16a8,8,0,0,1,8-8Z" fill="#0988ce"></path><g><path d="M500.53,260.89H701.29a8.17,8.17,0,0,1,8.17,8.17V430.73a8.17,8.17,0,0,1-8.17,8.17H500.68a8.17,8.17,0,0,1-8.17-8.17V268.91A8,8,0,0,1,500.53,260.89Z" fill="#0988ce"></path><path d="M515.42,281.89h171a7,7,0,0,1,7,7v0a7,7,0,0,1-7,7H515.55a7,7,0,0,1-7-7v-.13a6.82,6.82,0,0,1,6.82-6.82Z" fill="#11c4f4"></path><path d="M515.42,302.32h171a7,7,0,0,1,7,7v0a7,7,0,0,1-7,7H515.55a7,7,0,0,1-7-7v-.13a6.82,6.82,0,0,1,6.82-6.82Z" fill="#11c4f4"></path><path d="M515.42,322.89h171a7,7,0,0,1,7,7v0a7,7,0,0,1-7,7H515.55a7,7,0,0,1-7-7v-.13A6.82,6.82,0,0,1,515.42,322.89Z" fill="#11c4f4"></path><path d="M515.42,343.32h171a7,7,0,0,1,7,7v0a7,7,0,0,1-7,7H515.55a7,7,0,0,1-7-7v-.13A6.82,6.82,0,0,1,515.42,343.32Z" fill="#11c4f4"></path><path d="M515.42,363.89h171a7,7,0,0,1,7,7v0a7,7,0,0,1-7,7H515.55a7,7,0,0,1-7-7v-.13a6.82,6.82,0,0,1,6.82-6.82Z" fill="#11c4f4"></path><path d="M515.42,384.32h171a7,7,0,0,1,7,7v0a7,7,0,0,1-7,7H515.55a7,7,0,0,1-7-7v-.13a6.82,6.82,0,0,1,6.82-6.82Z" fill="#11c4f4"></path></g><path d="M714.12,627A24.86,24.86,0,1,0,739,651.85,24.86,24.86,0,0,0,714.12,627Zm7,16.36a.53.53,0,0,1-.53.53h-2.27c-1.57,0-1.85.61-1.85,1.81v2.5h4a.55.55,0,0,1,.38.16.56.56,0,0,1,.15.37V653a.53.53,0,0,1-.53.53h-4v10.78a.53.53,0,0,1-.53.53h-4.43a.53.53,0,0,1-.53-.53V653.54h-3.38a.53.53,0,0,1-.53-.53v-4.28a.53.53,0,0,1,.53-.53H711v-3c0-3.88,2.45-6.39,6.24-6.39h3.37a.53.53,0,0,1,.53.53Z" transform="translate(-29.2 -169.11)" fill="#05669b"></path><g><circle cx="665.53" cy="466.46" r="12.09" fill="#6c63ff"></circle><text transform="translate(659.43 472.92)" font-size="22" fill="#fff" font-family="MyriadPro-Bold, Myriad Pro" font-weight="700">4</text></g></g><g><path d="M897.4,576.37c-23.66,17.27-58.93,17.51-90.34,8.88s-59-26.15-64-47.71,12.59-47.26,25.51-77S789.7,397.16,808.52,389s48.44,9.27,73,30.44,44.19,46.05,48,75.66S921.11,559.05,897.4,576.37Z" transform="translate(-29.2 -169.11)" fill="#05669b"></path><path d="M860,505.87c-4.3,7.19-8.51,14.43-12.93,21.53a17.43,17.43,0,0,0-2.74,10.69c.66,13.87.83,27.77,1.12,41.66q1.14,54,2.25,108.07.52,23.4,1.44,46.77c.12,3.21-.77,4.51-4.15,4.28a105.38,105.38,0,0,0-11.79,0c-2.59.1-3.49-.83-3.34-3.42.66-11.25,1.15-22.5,1.78-33.75.68-11.9,1.49-23.8,2.17-35.7,1.26-21.71,2.54-43.42,3.67-65.13.45-8.63.63-17.28.66-25.91a11.4,11.4,0,0,0-1.84-5.44c-11.46-19.41-23-38.77-33.84-58.63L839,561.23c.59-9.38,1.11-17.55,1.62-25.72.2-3.27.2-6.56.61-9.81.57-4.47,0-8.51-2.81-12.25a24.74,24.74,0,0,1-3.9-8.06l6.5,8.77.95-.33V499.49l1.37,0v25.25l1.54.53q7.21-10,14.42-20Z" transform="translate(-29.2 -169.11)" fill="#2f2f33"></path></g><g><path d="M629.07,874.21c1.06-1.32,2.87-1.48,4.46-1.62,1-.09,4.71-.41,6.09,1.62.8,1.2-.1,1.85.4,4.06.69,3,2.72,3.25,3.25,6.09.09.46.54,2.9-.81,4.46-1.57,1.79-4.59,1.31-7.71.81s-5-.81-6.08-2.43c-.85-1.34-.08-2.07,0-6.49C628.73,876.53,628.07,875.47,629.07,874.21Z" transform="translate(-29.2 -169.11)" fill="#1a1920"></path><path d="M694.38,678.28c.68-1.24.37-2.33.41-3.65,0-.92.56-2.23,1.62-4.87,1.39-3.43,2.36-5.79,3.25-5.68.46.06.79.77.81.81.12.26.17.57,0,1.63s-.29,1.21-.41,2-.2,1.42,0,1.63c.46.48,1.43-.31,3.25,0a2.88,2.88,0,0,1,1.21.4c.61.39.56.72,1.22,1.22s1.07.42,1.22.81a1.31,1.31,0,0,1-.41,1.22c-.84.88-2.38.5-2.43.81s1.17.35,1.62,1.22a2.5,2.5,0,0,1-.81,2.84,2.21,2.21,0,0,1-.81.4,4,4,0,0,1-2.44-.4h0s-.61,1.2-1.21,2.43a16.15,16.15,0,0,1-.81,1.62,5.42,5.42,0,0,1-2,1.63c-.79.37-2.56,1.22-3.65.4s-.87-2.68-.81-3.24a6.82,6.82,0,0,1,.4-1.63A10.28,10.28,0,0,1,694.38,678.28Z" transform="translate(-29.2 -169.11)" fill="#d0b09a"></path><path d="M668.42,877.05a11.16,11.16,0,0,0-2.43,3.66c-1.08,2.27-1.78,3.75-1.22,4.86,1,2,5,.89,11,2.44.4.1,1.57.41,3.25.81s3.11.7,3.65.81c6,1.29,7.06,2.75,10.14,2.43,2.42-.24,5.22-1.49,5.27-2.84,0-.46-.28-1.19-5.27-3.65-5.78-2.84-6.9-2.62-8.93-4.46-2.71-2.46-1.74-3.81-4.05-5.27C676.52,873.77,671.32,874.35,668.42,877.05Z" transform="translate(-29.2 -169.11)" fill="#1a1920"></path><path d="M630.29,667.33a12.7,12.7,0,0,0,0-4.06,11.91,11.91,0,0,0-1.62-3.65c-1.31-2.34-1.62-4.44-2-7.3-.63-4.36-1.19-7.84.81-11,2.57-4,7.57-4.69,8.92-4.87s6.11-.83,9.33,2c1.91,1.69,2.49,4,3.65,8.51.34,1.32.06.54,1.22,6.9.62,3.43.87,4.57.81,6.49s-.13,3.69-1.21,5.27a9.59,9.59,0,0,1-2.84,2.84c-.79.45-1.47.62-1.63,1.22s.38.83.81,2a9.69,9.69,0,0,1,.41,2.84,5.85,5.85,0,0,1,0,2C645.53,678.69,630.27,672.94,630.29,667.33Z" transform="translate(-29.2 -169.11)" fill="#d0b09a"></path><path d="M629.07,765.9c9.46-.11,13.46,2.43,21.91,2.44,2.66,0,5.68-.18,5.68-.18a57,57,0,0,0,7.37-.69c3.36-.61,3.85-1.16,4.8-.76,2.17.94,2.33,5,2.43,9.33.33,14.46,0,19.88,0,19.88-.64,10.52-1,11.26-.81,15.82.19,3.93.51,3.83,1.62,13,1,8.44,1.54,12.66,1.62,16.64.2,9.38-1.19,10.15.41,13.79,1.7,3.88,4.35,5.43,4.46,9.73.06,2.23-.61,3.11,0,5.28.9,3.19,3.14,4,2.84,5.68-.19,1-1.38,2.07-5.68,3.24-6.73,1.84-11.93,3.67-13.39,1.63s2.09-4.78.61-8.32c-.92-2.21-2.81-2.46-4.46-4.06-3.83-3.72-2.25-10.82-1.62-15.41.69-5-.35-12.53-2.44-27.59-1.23-8.92-4.42-26.49-7.3-26.37-.51,0-1.22.61-4,13.8-2.4,11.15-3.61,16.86-4.06,23.53-.43,6.4-.72,10.63,0,15a43.13,43.13,0,0,1,.81,7.71c0,2.82-.29,3,0,4.46.78,3.79,3.38,4.11,4.06,7.31.64,3-.83,6.74-2.84,7.3-1.77.49-2.56-1.84-5.28-2-3.64-.25-5,3.75-7.7,3.25s-4.56-4.72-4.47-8.12c.08-2.56,1.27-3.09,1.63-6.08a14.5,14.5,0,0,0-1.22-7.3c-.85-2.2-1.77-6.27-1.62-30.83.16-27.31,1.34-29.08.4-36.92-.71-5.92.59-12.17-1.21-17.85-.24-.74-.86-2.57,0-4.06C622.53,766.48,624.94,766,629.07,765.9Z" transform="translate(-29.2 -169.11)" fill="#2f2f33"></path><g><path d="M640,679.9c10.78,8,18.62,20.66,19.88,19.88,1.09-.67-3.68-10.79-8.52-19.07-1.84-3.15-3.61-5.89-5.18-8.18.3,1,1,2.22.52,2.71-1.72,1.73-14.25-10-18.46-7.1a5.35,5.35,0,0,0-1.54,1.87l-.08.16a.61.61,0,0,0-.07.14c1.67,1.16,3.76,2.62,6.15,4.32C636.49,677.31,639.43,679.46,640,679.9Z" transform="translate(-29.2 -169.11)" fill="#fff"></path><path d="M695.26,678.66s-.24-.6-.55-1.36-.51-1.22-.53-1.25c-1.15-1.17-6.95,5.39-13,4.87a9.17,9.17,0,0,0-3.25,0c-2.26.46-2.83,1.64-4.46,2.43-2.1,1-5.18.14-11.36-1.62-3.49-1-4.26-1.49-4.87-2-1.93-1.71-1.5-3.16-3.24-5.27-2.44-3-6.71-4.29-7.71-3.25a1.39,1.39,0,0,0-.11,1.35c1.57,2.29,3.34,5,5.18,8.18,4.84,8.28,9.61,18.4,8.52,19.07-1.26.78-9.1-11.91-19.88-19.88-.59-.44-3.53-2.59-7.3-5.27-2.39-1.7-4.48-3.16-6.15-4.32a11.29,11.29,0,0,0-.74,5.13c.13,4.45-6.19,7.47-9.33,10.95-4.29,4.75-3.7,11.47-2.84,21.1,2,22.08,11.49,25.14,10.14,40.56-1.43,16.27-2,18.66-2,18.66-1.06,4.22-2.07,6.5-.81,8.52,2.17,3.49,9,2.85,15.87,2.21,6.14-.57,11.32-1.94,19.49-4.1,1.66-.44,2.35-.65,7.18-2,6.13-1.64,6.18-1.62,6.54-1.84,4.62-2.79,4.1-11.71,3.65-19.47a103.8,103.8,0,0,0-3.08-18.62,119.89,119.89,0,0,0-3.22-12.06c-1.3-3.91-2.06-5.38-2.62-8.26a44.84,44.84,0,0,1-.52-5.68c-.22-3.78,0-4.64.52-5.27,1.06-1.22,3-1.05,4.26-1,6.07.17,11.39-2.34,21.4-7.09.7-.33,1.48-.74,3.67-1.78s2.35-1.08,2.51-1.27C698.52,686.92,696.53,681.88,695.26,678.66Z" transform="translate(-29.2 -169.11)" fill="#036093"></path></g><path d="M616.9,784.16" transform="translate(-29.2 -169.11)" fill="#11c4f4"></path><path d="M636.37,772.8a4,4,0,0,1,2,1.22c2.13,2,1.27,3.44,3.25,5.27.75.7,1.65,1.2,1.62,2,0,.46-.31.55-.41,1.22a4,4,0,0,0,.41,2,4.51,4.51,0,0,0,.81,1.63c.26.29.81.81.81.81a1.34,1.34,0,0,1-.4.81c-.55.47-1.21,0-1.63.4-.15.13-.32.41,0,2.84.16,1.19.26,1.58,0,2a1.59,1.59,0,0,1-1.21.81,2.24,2.24,0,0,1-1.63-.81c-.35-.37-.42-.66-.81-.81s-.42,0-.81,0c0,0-.48,0-2-1.22a1.53,1.53,0,0,0-.81-.81c-.29-.09-.42,0-.81,0a1.91,1.91,0,0,1-1.62-.81c0-.08-.07-.17,0-1.22s.09-1.05,0-1.21c-.26-.44-1,0-1.63-.41a2.21,2.21,0,0,1-.81-1.62c-.06-.76.26-1,.81-2.43a11.13,11.13,0,0,0,.82-2.84c0-.38,0-1.07,0-2.44-.05-2.13-.1-2.16,0-2.43A3.78,3.78,0,0,1,636.37,772.8Z" transform="translate(-29.2 -169.11)" fill="#d0b09a"></path><path d="M616.9,687.2c-3.77.84-6.37,8.91-5.27,15,.34,1.9.94,3,1.62,6.9a60.68,60.68,0,0,1,.81,6.9c1.21,19,1,17.94,1.22,19.47,1.43,11.14,4.85,17,5.68,25.15a24.41,24.41,0,0,0,.81,4.46c1.12,4,2.23,4,3.24,7.3s.22,4.52,1.63,9.33c.3,1,.15,2,.81,2.44,1,.75,2.31-.43,6.69-1.83,2.61-.83,4.24-1.08,5.94-2.08.41-.24,1.86-1.14,2.15-1.32a17.92,17.92,0,0,0,1.65-1.06c1.26-1.38-.83-5.24-1.63-6.9-.55-1.16-1.18-5-2.43-12.57-.34-2-1.36-8.62-2-24.34-.77-18.21.24-18-1.21-22.72-2.68-8.69-7.46-14-11.36-18.25C621.71,689.23,619.33,686.67,616.9,687.2Z" transform="translate(-29.2 -169.11)" fill="#036093"></path><path d="M632.38,666.2c1-1.16-2.26-3.73-1.71-7.11.43-2.59,2.58-2.55,3.59-5.19,1.74-4.55-3.23-8.34-1.57-10.85,1-1.51,3.24-.76,11.25-1.64,6.73-.73,7-1.47,7.11-1.71.42-1.74-4.25-5.47-9.37-6.12-5.6-.72-10,2.5-10.95,3.23a17.58,17.58,0,0,0-4.46,4.94,14.7,14.7,0,0,0-2.75,7.51c-.14,3.14,1.36,3.13,2.8,8.56,1.22,4.64.79,6.95,2.72,8.17C630.16,666.69,631.82,666.87,632.38,666.2Z" transform="translate(-29.2 -169.11)" fill="#25242c"></path></g></svg> 