<?xml version="1.0" encoding="UTF-8"?> <svg xmlns="http://www.w3.org/2000/svg" id="Layer_1" data-name="Layer 1" viewBox="0 0 900.97 673.23"><title>social-media-marketing</title><path d="M-333,1552" transform="translate(-53.2 -163.11)" fill="#d0b09a"></path><g><circle cx="455.8" cy="394.89" r="190.5" fill="none" stroke="#1a1920" stroke-miterlimit="10" stroke-dasharray="11.97 11.97"></circle><g><g><path d="M523.4,802.3c.32-.23.84-.47,2.79-.28,3.14.32,5.36.54,7,2.24a13.79,13.79,0,0,1,2.24,3.91c.57,1.24.44,1.21.83,2,1.15,2.13,2.1,2.11,3.07,3.91a6,6,0,0,1,.84,3.63,5.25,5.25,0,0,1-1.39,3.07c-2.48,2.46-7,.76-7.54.56a10.2,10.2,0,0,1-4.47-3.63c-1.59-2.16-.87-2.76-3.21-7.68a10.06,10.06,0,0,1-1.11-3.07C522.34,806.38,521.88,803.43,523.4,802.3Z" transform="translate(-53.2 -163.11)" fill="#1a1920"></path><path d="M506.69,804.26c-.31-.24-.83-.48-2.79-.28-3.13.31-5.35.53-7,2.23a14,14,0,0,0-2.23,3.91c-.57,1.25-.44,1.21-.84,2-1.14,2.14-2.1,2.11-3.07,3.91a6.15,6.15,0,0,0-.83,3.63,5.25,5.25,0,0,0,1.39,3.07c2.48,2.46,7,.76,7.54.56a10.09,10.09,0,0,0,4.46-3.63c1.6-2.15.87-2.75,3.21-7.68a9.73,9.73,0,0,0,1.12-3.07C507.76,808.33,508.22,805.38,506.69,804.26Z" transform="translate(-53.2 -163.11)" fill="#1a1920"></path><path d="M488,690.93c2.07-1.9,6.15-1.38,14.24-.28,6,.82,5.83,1.32,9.21,1.39,4.41.09,6.21-.74,11.72-1.11,5-.34,7.53-.57,8.66,0,4.48,2.24,5,9.78,5.44,19.68.49,9.7-.83,9.44-.28,20.65.31,6.33.82,8.28.28,12.84a66.23,66.23,0,0,0-.84,9.49c0,2.78.22,2.61.28,5.59.14,6.63-.95,7.94-.56,12.84.29,3.59.88,2.91,1.4,7.26.59,5-.21,5.48,0,11.72.22,6.44,1.14,7.67,0,10.61a12.06,12.06,0,0,1-4.47,5.58c-4.11,2.72-10.59,3-13.39,0-1.54-1.66-.95-3.19-.56-13.68a119.74,119.74,0,0,0,0-14.23c-.41-5.36-1-5.28-1.4-10.33-.64-7.23.27-9.62.28-17,0-5-.46-8.74-1.4-16.19-1-8.07-2.77-22.1-4.46-22.05s-2.66,12.38-2.79,20.65a160.17,160.17,0,0,0,.83,18.15c.77,6.77,1.94,12.57.84,19.26-.13.79-.38,2.17-.56,4.19-.3,3.49-.07,5.71.28,10.6.57,7.72.57,9.89.56,11.17-.05,4.56-.09,6.86-1.12,8.09-2.94,3.54-11.4,3.21-14.79-.83-2.13-2.55-1.33-5.44-1.12-12.84.17-5.87-.57-11.73-.83-17.59-.56-12.44-1.85-22.18-2.8-29.31-1.59-12-2.31-13-3.34-23.45-1.12-11.24.29-4.33-.56-20.1C486.35,695.38,486,692.68,488,690.93Z" transform="translate(-53.2 -163.11)" fill="#2f2f33"></path></g><g><path d="M497.47,617.78c-.11,1.2,1.47,2.26,2.72,3.06,6.15,3.92,9.22,5.87,13.28,6.47,3.34.48,7,1,9.87-1,1.28-.9,1.4-1.6,3.74-3.4,2.92-2.24,4.38-2.42,4.42-3.4.07-1.5-3.3-1.91-6.12-4.77-1.06-1.07-3.87-3.71-3.41-6.46.24-1.41,1.16-1.86,2.22-3.23,2.23-2.9,2.3-6.26,2.38-10.21.08-4.16.16-8.06-2.38-11.91-.72-1.09-4-6.08-9.87-6.47-5.4-.36-9.93,3.47-11.91,7.15-3,5.52-1.29,12.72.51,16.16.08.16.9,2.2,2.55,6.3a5,5,0,0,1-1.36,6.8c-1,.94-1.46.84-3.4,2S497.56,616.83,497.47,617.78Z" transform="translate(-53.2 -163.11)" fill="#d0b09a"></path><g><path d="M479.44,643a5.41,5.41,0,0,1,5.1.68c2.32,1.59,2.61,4.62,2.72,5.78.35,3.6-1.35,5-.34,7.83.55,1.54,1.09,1.31,1.7,2.72,1.87,4.28-1.34,10.27-4.76,13.62-1.45,1.42-2.07,2.39-3.06,2.38-1.59,0-2.94-2.06-3.76-3.3a14.87,14.87,0,0,1-1.26-2.45,21.51,21.51,0,0,1-1.62-4.63c-.35-1.83-.13-3.51.34-6.81.28-2,.62-3.65,1-5.44C477,647,477.72,643.78,479.44,643Z" transform="translate(-53.2 -163.11)" fill="#d0b09a"></path><path d="M543.62,643.64a5.42,5.42,0,0,0-5.11.68c-2.31,1.6-2.61,4.62-2.72,5.79-.35,3.59,1.36,4.95.34,7.82-.54,1.54-1.08,1.31-1.7,2.72-1.86,4.28,1.34,10.27,4.76,13.62,1.45,1.42,2.07,2.4,3.07,2.38,1.59,0,2.93-2.06,3.75-3.3a15.72,15.72,0,0,0,1.27-2.45,21.52,21.52,0,0,0,1.61-4.63c.36-1.83.13-3.51-.34-6.81-.28-2-.61-3.65-1-5.44C546.09,647.66,545.33,644.46,543.62,643.64Z" transform="translate(-53.2 -163.11)" fill="#d0b09a"></path><path d="M501.22,615.39c1.38.71.8,2.43,2,4.77,2.82,5.34,10.86,5.92,11.4,6,1.61.1,6,.36,9.19-2.38,2.92-2.47,2.32-5.18,4.59-6,1.71-.58,3,.62,9,4.25,7,4.28,7.2,3.85,8.17,5.1,2,2.61.46,3.86,2,13.62.77,4.75,1,9.59,2,14.29.62,2.81,1,4.05.34,5.1-2,3.08-10.84-3.82-15-.68-3.31,2.52-2.15,10.06-1.27,15.75a69.46,69.46,0,0,0,1.66,7.47c1.86,6.8,3,7.29,2.67,9.11-1.19,6.34-16.48,8.41-19.74,8.85a62.9,62.9,0,0,1-19.14-.85,84.6,84.6,0,0,1-8.18-2.26c-1.81,0-4.59-.39-6-2.33-1.75-2.38-.59-5.91,0-7.83,3.25-10.51,7-22.79,2.72-28.59-1.23-1.66-4.88-5.13-9.52-5.66-1.4-.16-2,0-2.73-.46-2.76-1.88-1-8.83.68-15.32,2.21-8.45,3.32-12.68,6.47-15s4.73-.68,11.23-4.08C497.54,616.38,499.57,614.55,501.22,615.39Z" transform="translate(-53.2 -163.11)" fill="#11c4f4"></path><g><path d="M507,639.9c.14-4.07,0-5.4,1-6.13.82-.57,1.47-.15,4.77,0s4.31-.21,5.09.13a1.7,1.7,0,0,0-.67-1.15c-.9-.68-1.55-.16-5.44-.34-3.3-.15-3.95-.57-4.77,0-1.05.73-.88,2.06-1,6.13-.08,2.27-.18,3.17,0,12.25a3.59,3.59,0,0,0,.68,2.38,2.73,2.73,0,0,0,.54.48,5.26,5.26,0,0,1-.2-1.5C506.82,643.07,506.92,642.17,507,639.9Z" transform="translate(-53.2 -163.11)" fill="#706969"></path><path d="M511.75,654.25c2.51,0,4.42-.1,5.46-1.42a4.27,4.27,0,0,0,.68-2.72c.29-10,.55-3.42.34-10.55a40.6,40.6,0,0,0-.35-5.66c-.78-.34-1.72,0-5.09-.13s-3.95-.57-4.77,0c-1,.73-.88,2.06-1,6.13-.08,2.27-.18,3.17,0,12.25a5.26,5.26,0,0,0,.2,1.5C508.23,654.33,509.78,654.3,511.75,654.25Z" transform="translate(-53.2 -163.11)" fill="#150a06"></path></g><path d="M478.42,663c1.44-1.69,3.68-2.26,8.16-3.41,4.25-1.08,4.27-.46,6.81-1.36,1.55-.55,6.28-2.22,8.85-6.46,1.12-1.87,1.06-2.94,2.72-5.11a21.62,21.62,0,0,1,3.43-3.39,3,3,0,0,1,1-.69c1.78-.62,4.18,1.38,5.11,2.72,1.89,2.73.14,6.37-2,11.23-.86,1.91-1.58,2.95-2.73,3.4-1.42.57-2.37-.2-3.74.34-1.66.66-2.17,2.54-2.72,3.75-3,6.55-12.12,4.33-17.7,11.91-.74,1-1.45,2.24-2.72,2.38-2.22.25-4.51-3-5.45-5.44C476.38,670.24,476,665.91,478.42,663Z" transform="translate(-53.2 -163.11)" fill="#d0b09a"></path><path d="M546.14,661.34c-1.44-1.69-3.68-2.27-8.17-3.41-4.24-1.08-4.26-.46-6.8-1.36-1.55-.55-6.28-2.22-8.85-6.46-1.13-1.87-1.06-2.94-2.72-5.11a21.62,21.62,0,0,0-3.43-3.39,3,3,0,0,0-1-.69c-1.77-.62-4.17,1.38-5.1,2.72-1.89,2.73-.15,6.37,2,11.23.86,1.91,1.57,3,2.72,3.4,1.42.57,2.38-.2,3.75.34,1.65.66,2.17,2.54,2.72,3.75,3,6.55,12.12,4.33,17.7,11.91.74,1,1.45,2.24,2.72,2.38,2.22.25,4.51-3,5.44-5.45C548.18,668.54,548.59,664.21,546.14,661.34Z" transform="translate(-53.2 -163.11)" fill="#d0b09a"></path></g><path d="M498.15,588.17a23.11,23.11,0,0,0,1.36,3.4c.57,1.2,1.84,3.91,2.39,3.75s0-2.2.34-6.47c.14-2,.36-3.28,1.36-4.08a3.26,3.26,0,0,1,1.7-.68c1.95-.29,2.89,1,6.12,2,1.34.44,3.16,1,3.75.34s-.55-2.2,0-2.72,1.51.31,3.4,1c3.67,1.38,5.26.68,6.81,2.38a5.25,5.25,0,0,1,1,1.7c.88,2.27.21,4.78,0,4.77-.37,0-1.17-7.64,1.36-8.85,1.21-.58,2.68.55,3.06,0s-1-1.86-2.72-4.43c-1.93-2.8-1.75-3.28-2.72-4.42-1.4-1.65-3.61-2.21-7.83-3.4s-6.48-1.83-7.83-1.36c-2.63.9-2.67,3-6.46,4.76-2.31,1.06-2.65.44-3.75,1.36C496.58,579.75,497.4,585.54,498.15,588.17Z" transform="translate(-53.2 -163.11)" fill="#25242c"></path></g></g><g><circle cx="338.8" cy="384.89" r="6.25" fill="#05669b"></circle><path d="M399.5,531.75h-15a8.75,8.75,0,0,0-8.75,8.75v15a8.75,8.75,0,0,0,8.75,8.75h15a8.75,8.75,0,0,0,8.75-8.75v-15A8.75,8.75,0,0,0,399.5,531.75ZM392,558a10,10,0,1,1,10-10A10,10,0,0,1,392,558Zm10.75-19.42a1.33,1.33,0,1,1,1.33-1.33A1.32,1.32,0,0,1,402.75,538.58Z" transform="translate(-53.2 -163.11)" fill="#05669b"></path><path d="M392,511a37,37,0,1,0,37,37A37,37,0,0,0,392,511Zm20,44.5A12.5,12.5,0,0,1,399.5,568h-15A12.5,12.5,0,0,1,372,555.5v-15A12.5,12.5,0,0,1,384.5,528h15A12.5,12.5,0,0,1,412,540.5Z" transform="translate(-53.2 -163.11)" fill="#05669b"></path></g><path d="M512.27,382.89a37,37,0,1,0,37,37A37,37,0,0,0,512.27,382.89Zm10.46,24.35a.79.79,0,0,1-.79.79h-3.38c-2.33,0-2.76.91-2.76,2.7v3.72h5.91a.79.79,0,0,1,.55.23.8.8,0,0,1,.24.56v6.36a.79.79,0,0,1-.79.79h-5.9v16.06a.79.79,0,0,1-.78.79h-6.59a.8.8,0,0,1-.79-.79V422.39h-5a.79.79,0,0,1-.79-.79v-6.36a.79.79,0,0,1,.79-.79h5v-4.39c0-5.79,3.65-9.52,9.28-9.52h5a.8.8,0,0,1,.79.79Z" transform="translate(-53.2 -163.11)" fill="#05669b"></path><path d="M614.18,572.39a37,37,0,1,0,37,37A37,37,0,0,0,614.18,572.39ZM630,601.27c0,.34,0,.69,0,1.05,0,10.81-8.24,23.29-23.29,23.29a23.12,23.12,0,0,1-12.56-3.67,15.87,15.87,0,0,0,2,.11,16.45,16.45,0,0,0,10.15-3.49,8.27,8.27,0,0,1-7.65-5.7,7.27,7.27,0,0,0,1.55.14,8.33,8.33,0,0,0,2.15-.27,8.23,8.23,0,0,1-6.56-8v-.09a8.15,8.15,0,0,0,3.7,1,8.2,8.2,0,0,1-3.64-6.8,8.3,8.3,0,0,1,1.12-4.14,23.17,23.17,0,0,0,16.87,8.56,8.19,8.19,0,0,1,14-7.46,16.38,16.38,0,0,0,5.19-2,8.14,8.14,0,0,1-3.6,4.52,17.19,17.19,0,0,0,4.72-1.29A16.74,16.74,0,0,1,630,601.27Z" transform="translate(-53.2 -163.11)" fill="#05669b"></path><g><path d="M268.54,425.91c-32.82,24-81.76,24.3-125.34,12.32S61.37,402,54.4,372s17.46-65.58,35.4-106.8,29.3-88,55.43-99.29,67.2,12.86,101.32,42.24,61.31,63.89,66.53,105S301.43,401.88,268.54,425.91Z" transform="translate(-53.2 -163.11)" fill="#05669b"></path><path d="M149.16,332.05l17.43,24,1.19-.11q1.59-26.34,3.17-52.66l.76,0q1.31,48.24,2.62,96.49l1.17.54,43.24-59.61,1.14.76c-2.91,4.94-5.79,9.9-8.72,14.82-11.32,19.05-22.7,38.07-33.94,57.17A13.14,13.14,0,0,0,175.1,420q1,57.94,2.3,115.89.75,34.49,1.65,69c.08,3.2-1.35,4-4.22,3.93-5.5-.14-11-.17-16.5,0-3.11.1-4.11-1.14-3.93-4.14,1.91-31.24,3.91-62.47,5.58-93.72,1.28-23.93,2-47.89,3.19-71.82,1-19.46,1.92-38.92,3.41-58.34.72-9.52.66-18.3-5.41-26.53-4.95-6.72-8.71-14.31-13-21.51Z" transform="translate(-53.2 -163.11)" fill="#2f2f33"></path></g><g><path d="M921.4,570.37c-23.66,17.27-58.93,17.51-90.34,8.88s-59-26.15-64-47.71,12.59-47.26,25.51-77S813.7,391.16,832.52,383s48.44,9.27,73,30.44,44.19,46.05,48,75.66S945.11,553.05,921.4,570.37Z" transform="translate(-53.2 -163.11)" fill="#05669b"></path><path d="M884,499.87c-4.3,7.19-8.51,14.43-12.93,21.53a17.43,17.43,0,0,0-2.74,10.69c.66,13.87.83,27.77,1.12,41.66q1.14,54,2.25,108.07.52,23.4,1.44,46.77c.12,3.21-.77,4.51-4.15,4.28a105.38,105.38,0,0,0-11.79,0c-2.59.1-3.49-.83-3.34-3.42.66-11.25,1.15-22.5,1.78-33.75.68-11.9,1.49-23.8,2.17-35.7,1.26-21.71,2.54-43.42,3.67-65.13.45-8.63.63-17.28.66-25.91a11.4,11.4,0,0,0-1.84-5.44c-11.46-19.41-23-38.77-33.84-58.63L863,555.23c.59-9.38,1.11-17.55,1.62-25.72.2-3.27.2-6.56.61-9.81.57-4.47,0-8.51-2.81-12.25a24.74,24.74,0,0,1-3.9-8.06l6.5,8.77.95-.33V493.49l1.37,0v25.25l1.54.53q7.21-10,14.42-20Z" transform="translate(-53.2 -163.11)" fill="#2f2f33"></path></g><g><circle cx="471.88" cy="296.55" r="18" fill="#6c63ff"></circle><text transform="translate(462.8 306.16)" font-size="32.75" fill="#fff" font-family="MyriadPro-Regular, Myriad Pro">4</text></g><g><circle cx="354.8" cy="425.89" r="18" fill="#6c63ff"></circle><text transform="translate(345.71 435.51)" font-size="32.75" fill="#fff" font-family="MyriadPro-Regular, Myriad Pro">6</text></g><g><circle cx="572.8" cy="484.89" r="18" fill="#6c63ff"></circle><text transform="translate(563.71 494.51)" font-size="32.75" fill="#fff" font-family="MyriadPro-Regular, Myriad Pro">3</text></g><g><ellipse cx="661.49" cy="816.51" rx="4.73" ry="27.18" transform="translate(-436.81 543.79) rotate(-45)" fill="#05669b"></ellipse><path d="M699.63,825.89c-7.07,7.06-14.29,11.3-16.14,9.45s2.39-9.07,9.46-16.14,14.29-11.3,16.14-9.45S706.7,818.82,699.63,825.89Z" transform="translate(-53.2 -163.11)" fill="#05669b"></path></g><path d="M683,836c-7.26-20.24-13.76-49,0-71,11-17.49,26.82-18.08,37-34,8.6-13.45,13.3-38.07-10-87" transform="translate(-53.2 -163.11)" fill="none" stroke="#05669b" stroke-miterlimit="10" stroke-width="2"></path><circle cx="653.3" cy="472.39" r="10.5" fill="#6c63ff"></circle><circle cx="682.3" cy="518.39" r="10.5" fill="#6c63ff"></circle><circle cx="661.3" cy="559.39" r="10.5" fill="#6c63ff"></circle><circle cx="643.3" cy="600.39" r="10.5" fill="#6c63ff"></circle><circle cx="611.3" cy="628.39" r="10.5" fill="#6c63ff"></circle></g></svg> 