<?xml version="1.0" encoding="UTF-8"?> <svg xmlns="http://www.w3.org/2000/svg" xmlns:xlink="http://www.w3.org/1999/xlink" id="adf6e2ad-667e-4933-ac27-50a949c2abe5" viewBox="0 0 1130 799.2"><defs><linearGradient id="linear-gradient" x1="784.68" y1="-35.11" x2="784.68" y2="381.35" gradientTransform="matrix(1, 0, 0, -1, -35, 751.6)" gradientUnits="userSpaceOnUse"><stop offset="0" stop-color="gray" stop-opacity="0.25"></stop><stop offset="0.54" stop-color="gray" stop-opacity="0.12"></stop><stop offset="1" stop-color="gray" stop-opacity="0.1"></stop></linearGradient></defs><title>undraw_wireframing_nxyi</title><path d="M1108.14,197.65a231.26,231.26,0,0,0-44.83-60.38l-621.86-5.18,512-60.79A337.27,337.27,0,0,0,849.57,53.88C800.28,20.23,736.93,0,667.83,0c-62,0-119.33,16.29-166.07,43.93C462,26.6,416.74,16.81,368.65,16.81c-138.17,0-253.3,80.9-279.13,188.19Z" fill="#1fbaed" style="isolation: isolate"></path><path d="M1130,287.6a196.9,196.9,0,0,0-19.38-84.92L32.86,298.35A209.63,209.63,0,0,0,7.61,352.26l333.75,42.06L0,425C10.27,546.44,133.43,642.35,283.88,642.35c75.73,0,144.54-24.31,195.53-63.94C530.56,618.79,600,643.6,676.58,643.6c113.57,0,211.6-54.67,257.25-133.72,91.58-24.57,162.72-86.28,187.07-163.46L698.83,291.1H1130Z" fill="#1fbaed" style="isolation: isolate"></path><path d="M283.42,553.07s-46.22-66.69-38.37-129.63a122.94,122.94,0,0,0-14.8-76.34,206.68,206.68,0,0,0-21.74-30.94" fill="none" stroke="#535461" stroke-miterlimit="10" stroke-width="2"></path><path d="M213.22,276.47c3,9-4.71,40.74-4.71,40.74s-25.09-20.83-28.09-29.89a17.27,17.27,0,1,1,32.8-10.85Z" fill="#6c63ff"></path><path d="M256.92,317.66c-2.4,9.23-26.09,31.64-26.09,31.64s-9.74-31.12-7.33-40.35a17.27,17.27,0,0,1,33.55,8.23c0,.16-.09.32-.13.48Z" fill="#6c63ff"></path><path d="M284.11,403.77c-6.74,6.76-38.5,14.14-38.5,14.14s7.31-31.78,14-38.53a17.27,17.27,0,0,1,24.46,24.39Z" fill="#6c63ff"></path><path d="M290,473.6c-5.5,7.79-35.56,20.44-35.56,20.44s1.83-32.56,7.33-40.35A17.27,17.27,0,0,1,290,473.6Z" fill="#6c63ff"></path><path d="M197,362.45c8.58,4.16,41,.68,41,.68s-17.36-27.6-26-31.77a17.27,17.27,0,0,0-15,31.09Z" fill="#6c63ff"></path><path d="M204.91,444c9.44,1.4,39.34-11.62,39.34-11.62S219.42,411.21,210,409.81A17.27,17.27,0,0,0,204.92,444Z" fill="#6c63ff"></path><path d="M223.49,522.16c9.07,3,40.74-4.8,40.74-4.8s-20.9-25-30-28a17.27,17.27,0,1,0-10.78,32.82Z" fill="#6c63ff"></path><path d="M213.22,276.47c3,9-4.71,40.74-4.71,40.74s-25.09-20.83-28.09-29.89a17.27,17.27,0,1,1,32.8-10.85Z" opacity="0.25" style="isolation: isolate"></path><path d="M256.92,317.66c-2.4,9.23-26.09,31.64-26.09,31.64s-9.74-31.12-7.33-40.35a17.27,17.27,0,0,1,33.55,8.23c0,.16-.09.32-.13.48Z" opacity="0.25" style="isolation: isolate"></path><path d="M284.11,403.77c-6.74,6.76-38.5,14.14-38.5,14.14s7.31-31.78,14-38.53a17.27,17.27,0,0,1,24.46,24.39Z" opacity="0.25" style="isolation: isolate"></path><path d="M290,473.6c-5.5,7.79-35.56,20.44-35.56,20.44s1.83-32.56,7.33-40.35A17.27,17.27,0,0,1,290,473.6Z" opacity="0.25" style="isolation: isolate"></path><path d="M197,362.45c8.58,4.16,41,.68,41,.68s-17.36-27.6-26-31.77a17.27,17.27,0,0,0-15,31.09Z" opacity="0.25" style="isolation: isolate"></path><path d="M204.91,444c9.44,1.4,39.34-11.62,39.34-11.62S219.42,411.21,210,409.81A17.27,17.27,0,0,0,204.92,444Z" opacity="0.25" style="isolation: isolate"></path><path d="M223.49,522.16c9.07,3,40.74-4.8,40.74-4.8s-20.9-25-30-28a17.27,17.27,0,1,0-10.78,32.82Z" opacity="0.25" style="isolation: isolate"></path><path d="M283.16,550.39s-69.28-42.24-87.62-103a123,123,0,0,0-44.46-63.79,206.7,206.7,0,0,0-32.41-19.47" fill="none" stroke="#535461" stroke-miterlimit="10" stroke-width="2"></path><path d="M106.89,326c6.41,7.06,12.2,39.15,12.2,39.15s-31.37-8.88-37.78-15.94A17.27,17.27,0,1,1,106.89,326Z" fill="#6c63ff"></path><path d="M163.54,345.91c1.54,9.42-11,39.51-11,39.51S131,360.91,129.45,351.49a17.27,17.27,0,0,1,34.09-5.58Z" fill="#6c63ff"></path><path d="M223.29,413.6c-3.43,8.91-29.47,28.53-29.47,28.53s-6.2-32-2.78-40.92a17.27,17.27,0,0,1,32.25,12.39Z" fill="#6c63ff"></path><path d="M257,475c-1.87,9.36-24.23,33.1-24.23,33.1s-11.52-30.51-9.65-39.86A17.27,17.27,0,1,1,257,475Z" fill="#6c63ff"></path><path d="M126.88,411.15c9.54.33,37.77-16,37.77-16S137.6,377,128.06,376.6a17.27,17.27,0,0,0-1.18,34.52Z" fill="#6c63ff"></path><path d="M167.17,482.47c9.2-2.54,31.26-26.56,31.26-26.56s-31.27-9.31-40.43-6.73a17.27,17.27,0,0,0,8.83,33.39l.37-.1Z" fill="#6c63ff"></path><path d="M215.84,546.42c9.5-1,35.3-20.9,35.3-20.9s-29.25-14.42-38.74-13.47a17.27,17.27,0,1,0,3.44,34.37Z" fill="#6c63ff"></path><ellipse cx="565.71" cy="734.08" rx="179" ry="10.62" fill="#6c63ff" opacity="0.1" style="isolation: isolate"></ellipse><ellipse cx="746.87" cy="781.25" rx="46.86" ry="8.53" fill="#6c63ff" opacity="0.1" style="isolation: isolate"></ellipse><path d="M648,715.41v6.41H458.38V716.6a62.33,62.33,0,0,0,4.29-115.12H646.75A62.37,62.37,0,0,0,648,715.41Z" fill="#c8cad7"></path><path d="M646.75,601.49a62.46,62.46,0,0,0-34.46,41.33H497.13a62.46,62.46,0,0,0-34.46-41.33Z" opacity="0.1" style="isolation: isolate"></path><path d="M241.21,568.82v36c0,19.88,14.55,36,32.5,36h558c17.95,0,32.5-16.12,32.5-36v-36Z" fill="#c8cad7"></path><path d="M648,715.41v6.41H458.38V716.6A62.2,62.2,0,0,0,473,708.82H636.4A63,63,0,0,0,648,715.41Z" opacity="0.1" style="isolation: isolate"></path><path d="M405.21,710.82h296a9.5,9.5,0,0,1,9.5,9.5h0a9.5,9.5,0,0,1-9.5,9.5h-296a9.5,9.5,0,0,1-9.5-9.5h0A9.5,9.5,0,0,1,405.21,710.82Z" fill="#c8cad7"></path><path d="M864.21,174.32a32.5,32.5,0,0,0-32.5-32.5h-558a32.5,32.5,0,0,0-32.5,32.5h0v401.5h623Z" fill="#474157"></path><rect x="258.21" y="172.82" width="589" height="377" rx="16" fill="#ededf4"></rect><circle cx="552.71" cy="157.32" r="7.5" fill="#fff"></circle><circle cx="552.71" cy="606.32" r="18.5" fill="#fff"></circle><path d="M847.21,188.82h-589a16,16,0,0,1,16-16h557A16,16,0,0,1,847.21,188.82Z" fill="#c8cad7"></path><circle cx="274.21" cy="180.82" r="4" fill="#ededf4"></circle><circle cx="286.21" cy="180.82" r="4" fill="#ededf4"></circle><circle cx="298.21" cy="180.82" r="4" fill="#ededf4"></circle><rect x="280.21" y="202.32" width="151" height="9" fill="#6c63ff"></rect><rect x="280.21" y="465.32" width="151" height="9" fill="#6c63ff"></rect><rect x="280.21" y="485.32" width="280" height="9" fill="#6c63ff" opacity="0.2" style="isolation: isolate"></rect><rect x="280.21" y="498.33" width="280" height="9" fill="#6c63ff" opacity="0.2" style="isolation: isolate"></rect><rect x="280.21" y="511.33" width="280" height="9" fill="#6c63ff" opacity="0.2" style="isolation: isolate"></rect><rect x="280.21" y="226.32" width="278" height="151" fill="#6c63ff" opacity="0.2" style="isolation: isolate"></rect><rect x="283.21" y="391.32" width="65" height="60" fill="#6c63ff" opacity="0.2" style="isolation: isolate"></rect><rect x="493.21" y="391.32" width="65" height="60" fill="#6c63ff" opacity="0.2" style="isolation: isolate"></rect><rect x="386.71" y="391.32" width="65" height="60" fill="#6c63ff" opacity="0.2" style="isolation: isolate"></rect><rect x="617.55" y="270.24" width="191.33" height="140.83" fill="#6c63ff" opacity="0.2" style="isolation: isolate"></rect><rect x="637.71" y="298.82" width="151" height="9" fill="#ededf4"></rect><rect x="637.71" y="317.49" width="151" height="9" fill="#ededf4"></rect><rect x="637.71" y="336.16" width="151" height="9" fill="#ededf4"></rect><rect x="637.71" y="354.82" width="151" height="9" fill="#ededf4"></rect><rect x="637.71" y="373.49" width="151" height="9" fill="#ededf4"></rect><rect x="640.88" y="427.07" width="144.67" height="25.33" fill="#6c63ff"></rect><rect x="633.15" y="511.47" width="97.01" height="16.99" fill="#6c63ff"></rect><ellipse cx="258.43" cy="775.37" rx="28.6" ry="2.9" fill="#6c63ff" opacity="0.1" style="isolation: isolate"></ellipse><ellipse cx="843.87" cy="733.9" rx="17.14" ry="1.74" fill="#6c63ff" opacity="0.1" style="isolation: isolate"></ellipse><path d="M268.42,727.6s-37.3,19.27-18,42c0,0,1.81,5,7.06,4.58,0,0-1.05-1.91,3-3.43a19.73,19.73,0,0,0,4-2.14,9.5,9.5,0,0,0,3.61-4.82h0s7.63-10.21,1.72-29.1c0,0,.76-5.34.09-6.2l-4.58,6.11s4.69,3.14,5.22,7.76c0,0-4.88-7.75-5.94-6.87-.21.18-2.25,3.4-2.25,3.4s8.12,5.51,8.73,12.66c0,0-4.58-10-9.52-11.45l-2.79,5s8.88,5.4,9.88,13.52c0,0-5.15-10.3-10.41-12.38l-2.08,5.33s8.55,5.44,9.34,12.2c0,0-7.15-11.3-9.73-11,0,0-1.61,5-1.4,6.55,0,0,6.05,4,6.16,8,0,0-5.58-7-6.44-6.58,0,0-.36,7.08,1.36,10.77,0,0-2.94-5.26-2.47-10.77a11.81,11.81,0,0,0-3.58,5.81s-1.61-3.9,3.69-7.48c0,0,.5-5.51,1.11-6.19,0,0-5.73,2.79-8.16,6.23,0,0,.89-5.12,8.66-7.66l2-5.4s-7.76,3.29-10.15,6.19c0,0,1.72-5.08,10.76-7.51l2.68-5s-6.9,2.32-10.26,5c0,0,2.61-4.36,11.09-6.37L263,735.3s-5,1.79-6.4,2.43-1.68.32-1.68.32a18,18,0,0,1,9-4.07S268.77,727.89,268.42,727.6Z" fill="#6c63ff"></path><ellipse cx="169.3" cy="731.19" rx="21.92" ry="2.22" fill="#6c63ff" opacity="0.1" style="isolation: isolate"></ellipse><path d="M177,694.6s-28.58,14.76-13.82,32.16a5.49,5.49,0,0,0,5.41,3.51s-.8-1.46,2.27-2.63a15.42,15.42,0,0,0,3.08-1.64,7.31,7.31,0,0,0,2.77-3.7h0s5.84-7.82,1.31-22.29c0,0,.59-4.1.07-4.76L174.62,700s3.59,2.41,4,5.94c0,0-3.74-5.93-4.55-5.26-.16.14-1.72,2.61-1.72,2.61s6.22,4.22,6.69,9.7c0,0-3.51-7.68-7.3-8.77l-2.13,3.86s6.79,4.14,7.56,10.36c0,0-3.95-7.89-8-9.48l-1.59,4.08s6.56,4.17,7.16,9.35c0,0-5.48-8.66-7.46-8.39,0,0-1.23,3.84-1.07,5,0,0,4.64,3.1,4.72,6.14,0,0-4.28-5.4-4.94-5,0,0-.27,5.42,1,8.25a16.45,16.45,0,0,1-1.9-8.25,9.16,9.16,0,0,0-2.74,4.41s-1.23-3,2.83-5.73c0,0,.38-4.22.85-4.74,0,0-4.39,2.14-6.25,4.77,0,0,.68-3.92,6.63-5.87l1.51-4.14s-5.95,2.52-7.79,4.75c0,0,1.32-3.9,8.25-5.76l2.06-3.81s-5.29,1.78-7.87,3.81c0,0,2-3.35,8.5-4.88l1.67-2.39s-3.83,1.37-4.9,1.87-1.29.24-1.29.24a13.8,13.8,0,0,1,6.88-3.12S177.22,694.8,177,694.6Z" fill="#6c63ff"></path><path d="M851.74,705s-22.35,11.59-10.81,25.15a4.3,4.3,0,0,0,4.23,2.74s-.63-1.14,1.78-2.06a11.6,11.6,0,0,0,2.41-1.28,5.77,5.77,0,0,0,2.16-2.89h0s4.57-6.12,1-17.43c0,0,.45-3.2,0-3.72l-2.71,3.72s2.81,1.89,3.13,4.66c0,0-2.93-4.65-3.56-4.12-.13.11-1.35,2-1.35,2s4.87,3.3,5.23,7.58c0,0-2.74-6-5.7-6.85L846,715.6s5.31,3.23,5.91,8.1c0,0-3.08-6.17-6.24-7.42l-1.24,3.2s5.12,3.25,5.6,7.31c0,0-4.29-6.78-5.83-6.56a16.42,16.42,0,0,0-.84,3.92s3.62,2.42,3.69,4.8c0,0-3.35-4.22-3.86-3.94,0,0-.22,4.24.81,6.45a13,13,0,0,1-1.48-6.45,7.14,7.14,0,0,0-2.14,3.45s-1-2.34,2.21-4.48c0,0,.3-3.3.66-3.71,0,0-3.43,1.67-4.88,3.73,0,0,.53-3.07,5.18-4.59l1.18-3.23s-4.65,2-6.09,3.7c0,0,1-3,6.46-4.5l1.6-3a26.55,26.55,0,0,0-6.15,3s1.57-2.61,6.65-3.81l1.3-1.87s-3,1.08-3.83,1.46-1,.19-1,.19a10.77,10.77,0,0,1,5.38-2.44S851.94,705.21,851.74,705Z" fill="#6c63ff"></path><ellipse cx="936.04" cy="795.71" rx="41.75" ry="3.49" fill="#6c63ff" opacity="0.1" style="isolation: isolate"></ellipse><path d="M969.47,685.6a17.56,17.56,0,0,0-2.28,4.3c-.14.37-.27.8-.41,1.21a4.75,4.75,0,0,0-.8-.28,11.21,11.21,0,0,0-3.56-.3c0-.47.05-.95.07-1.47.14-5.27-.48-12.62-5.51-9.5-4.82,3-1.38,8,1.73,11.2.27.28.54.54.8.79-2.83,2-3.38,6.73-3.85,11.64s-4.64,10.28-7.4,13.33l-.79.85a10.11,10.11,0,0,0-8-2.07c-.12-.43-.24-.88-.38-1.35-2.23-8.09-6.88-22.1-12.82-25.17.26-.31.52-.64.79-1,2.52-3.3,5.35-8.19,1.16-9.44s-4.56,4.24-4.33,8.36a8.58,8.58,0,0,0,.12,1.47,6.16,6.16,0,0,0-4.39,2.14l-.64-.77c-3.4-4-9.64-10.37-11.52-5.56-1.76,4.48,3.72,10.3,7.58,13.67l.25.21c-2.6,10.51,8.71,19.08,14.8,22.83l.79.48c-8.4,9.9-13.58,28.46-13.58,28.46l23.52,4.2s15.59-13.46,13.6-26.1h.16c15.58-3.12,19.13-19.74,16.7-29.61l.27-.11a17.6,17.6,0,0,0,7.22-5.46C983.09,686.47,974,679.6,969.47,685.6Z" fill="#6c63ff"></path><path d="M969.47,685.6a17.56,17.56,0,0,0-2.28,4.3c-.14.37-.27.8-.41,1.21a4.75,4.75,0,0,0-.8-.28,11.21,11.21,0,0,0-3.56-.3c0-.47.05-.95.07-1.47.14-5.27-.48-12.62-5.51-9.5-4.82,3-1.38,8,1.73,11.2.27.28.54.54.8.79-2.83,2-3.38,6.73-3.85,11.64s-4.64,10.28-7.4,13.33l-.79.85a10.11,10.11,0,0,0-8-2.07c-.12-.43-.24-.88-.38-1.35-2.23-8.09-6.88-22.1-12.82-25.17.26-.31.52-.64.79-1,2.52-3.3,5.35-8.19,1.16-9.44s-4.56,4.24-4.33,8.36a8.58,8.58,0,0,0,.12,1.47,6.16,6.16,0,0,0-4.39,2.14l-.64-.77c-3.4-4-9.64-10.37-11.52-5.56-1.76,4.48,3.72,10.3,7.58,13.67l.25.21c-2.6,10.51,8.71,19.08,14.8,22.83l.79.48c-8.4,9.9-13.58,28.46-13.58,28.46l23.52,4.2s15.59-13.46,13.6-26.1h.16c15.58-3.12,19.13-19.74,16.7-29.61l.27-.11a17.6,17.6,0,0,0,7.22-5.46C983.09,686.47,974,679.6,969.47,685.6Z" opacity="0.1" style="isolation: isolate"></path><path d="M922.65,692.36l-2.75,8s-1.53-1.08-3.46-2.78c-3.85-3.37-9.34-9.19-7.58-13.67,1.88-4.81,8.12,1.54,11.52,5.56C921.74,691.12,922.65,692.36,922.65,692.36Z" fill="#6c63ff"></path><path d="M928.46,687.76a40.3,40.3,0,0,1-2.68,3.16,40.16,40.16,0,0,1-.49-4.24c-.23-4.12.2-9.59,4.33-8.36S931,684.46,928.46,687.76Z" fill="#6c63ff"></path><path d="M963.93,689c-.09,2.65-.35,4.77-.35,4.77a34.47,34.47,0,0,1-3.43-3.07c-3.11-3.23-6.55-8.21-1.73-11.2C963.45,676.41,964.07,683.76,963.93,689Z" fill="#6c63ff"></path><path d="M980.17,692.5A17.66,17.66,0,0,1,973,698a23.32,23.32,0,0,1-2.42.88l-3.24-4.55a32.56,32.56,0,0,1,1.33-4.42,17.56,17.56,0,0,1,2.28-4.3C975.39,679.6,984.53,686.47,980.17,692.5Z" fill="#6c63ff"></path><path d="M920.38,689.52c1.36,1.6,2.27,2.84,2.27,2.84l-2.75,8s-1.53-1.08-3.46-2.78a15.76,15.76,0,0,1,3.1-7.07A12.94,12.94,0,0,1,920.38,689.52Z" opacity="0.1" style="isolation: isolate"></path><path d="M928.46,687.76a40.3,40.3,0,0,1-2.68,3.16,40.16,40.16,0,0,1-.49-4.24A5.5,5.5,0,0,1,928.46,687.76Z" opacity="0.1" style="isolation: isolate"></path><path d="M942,719.72l-6.84,3s-1.5-.72-3.65-2.06c-7.18-4.42-21.64-15.55-12-28.67s17.77,10.41,21,21.92C941.46,717.36,942,719.72,942,719.72Z" fill="#6c63ff"></path><path d="M960.15,690.73a5.6,5.6,0,0,1,3.78-1.7c-.09,2.65-.35,4.77-.35,4.77A34.47,34.47,0,0,1,960.15,690.73Z" opacity="0.1" style="isolation: isolate"></path><path d="M973,698a23.32,23.32,0,0,1-2.42.88l-3.24-4.55a32.56,32.56,0,0,1,1.33-4.42C970.72,691.09,972.26,694.13,973,698Z" opacity="0.1" style="isolation: isolate"></path><path d="M956,727.68c-.38.08-.77.15-1.16.2-22.92,3.49-7.56-8.88-7.56-8.88s1-1,2.44-2.51c2.76-3,6.92-8.39,7.4-13.33.72-7.43,1.55-14.4,10.32-12.36S977.68,723.33,956,727.68Z" fill="#6c63ff"></path><rect x="911.74" y="784.77" width="43.81" height="11.52" fill="#d4dfec"></rect><rect x="904.77" y="747.33" width="57.24" height="40.2" fill="#d4dfec"></rect><rect x="911.74" y="784.77" width="43.81" height="11.52" opacity="0.1" style="isolation: isolate"></rect><rect x="904.77" y="747.33" width="57.24" height="40.2" opacity="0.1" style="isolation: isolate"></rect><rect x="914.62" y="784.77" width="43.81" height="11.52" fill="#d4dfec"></rect><path d="M940.49,713.92c1,3.44,1.49,5.8,1.49,5.8l-6.84,3s-1.5-.72-3.65-2.06C934.17,717.27,937.2,714.71,940.49,713.92Z" opacity="0.1" style="isolation: isolate"></path><path d="M956,727.68c-.38.08-.77.15-1.16.2-22.92,3.49-7.56-8.88-7.56-8.88s1-1,2.44-2.51C954,719.92,955.75,723.78,956,727.68Z" opacity="0.1" style="isolation: isolate"></path><path d="M918.7,749.6s12.84-46,30.84-31.81-7.32,36-7.32,36Z" fill="#6c63ff"></path><circle cx="925.18" cy="699.21" r="1.44" opacity="0.1" style="isolation: isolate"></circle><circle cx="925.06" cy="705.93" r="1.44" opacity="0.1" style="isolation: isolate"></circle><circle cx="966.82" cy="700.53" r="1.44" opacity="0.1" style="isolation: isolate"></circle><circle cx="933.22" cy="734.97" r="1.44" opacity="0.1" style="isolation: isolate"></circle><circle cx="963.82" cy="711.69" r="1.44" opacity="0.1" style="isolation: isolate"></circle><circle cx="948.94" cy="726.57" r="1.44" opacity="0.1" style="isolation: isolate"></circle><circle cx="930.1" cy="702.09" r="1.44" opacity="0.1" style="isolation: isolate"></circle><circle cx="962.86" cy="704.85" r="1.44" opacity="0.1" style="isolation: isolate"></circle><circle cx="957.94" cy="716.01" r="1.44" opacity="0.1" style="isolation: isolate"></circle><circle cx="942.82" cy="733.89" r="1.44" opacity="0.1" style="isolation: isolate"></circle><circle cx="939.7" cy="726.81" r="1.44" opacity="0.1" style="isolation: isolate"></circle><circle cx="932.26" cy="710.85" r="1.44" opacity="0.1" style="isolation: isolate"></circle><rect x="914.62" y="784.77" width="43.81" height="4.21" opacity="0.1" style="isolation: isolate"></rect><rect x="907.66" y="747.33" width="57.24" height="40.2" fill="#d4dfec"></rect><circle cx="944.74" cy="740.37" r="1.44" opacity="0.1" style="isolation: isolate"></circle><circle cx="936.1" cy="742.17" r="1.44" opacity="0.1" style="isolation: isolate"></circle><path d="M837.28,573.73c-1.2-.86-1.7-2.93-1.88-5,0-.47-.07-.93-.09-1.37a5.07,5.07,0,0,0,1.39-1.26c2.37-3.36-3.29-15.55-3.29-15.55s2.19-6.36,0-11.84-3.19-6.54-3.19-6.54-7.4-15.2-6.3-17-1.83-16-4-18.85a42.85,42.85,0,0,0-2.92-3.54s.37-6.18-2.74-11-6.57-18.2-6.57-18.2-3.83-12.55-6.57-17a19.25,19.25,0,0,0-4-4.11c.43-2,1.42-4.65-1.42-20.33-1.16-6.44.65-10.28,2.14-16.65s1.17-13.74-3.4-18.55-11.66-5.71-17.33-9c-5-2.89-9.45-7.78-15.29-7.69-4.29.07-4.28.74-8.23,2.35-6.83,2.78-14.51,1.94-21.45,4.24-6.24,2.07-14.17,8.87-12.28,16.08a7.91,7.91,0,0,0,2.3,4.28c1.35,1.23,3,1.24,4.85.87a.63.63,0,0,1-.07.35,18.87,18.87,0,0,0-.24,3c0,10.69,8.91,19.37,19.93,19.44.06.23.11.47.17.71.15.64.29,1.28.43,1.94-.52.69-1.06,1.38-1.57,2.07a19.87,19.87,0,0,0-3,5.33c-5.78,1.18-15.47,3.09-17,5.59-2,3.36-10.22,20-9.31,27.57,0,.42.09,1,.13,1.6,0,0-5.06,9-5.79,11.83s-2.37,13.43-5.48,15.9-9.49,10.43-8.58,12-8.58,3.53-8.58,3.53-6.38,2.47-6,4.42c.11.59-.34,1.15-1,1.69-7.26-2.39-16.51-4-23.68-.36-10,5.07,7.54,8.56,18,10.09,1.72.26,3.24.46,4.42.6.08.34.41.64,1.25.93l2.78,1,.42-1.3c3.47,1.23,12.94,5.06,12.94,5.06s8.22,1.34,10.59-3.43c1-1.93,3.73-5,6.7-8l-.33,1.07-6.92,22.83s-11,17-10.4,20.67-3.47,13.08-4.38,14-10,27.74-14.79,29.51-11.14,7.95-9,9.9,11,8.3,15,6.18,11,1.77,11,1.77,7.66-1.26,13.9,1.74c.07.69.15,1.44.23,2.23.65,6,1.71,14.29,2.84,16.7,1.83,3.89,3.47,10.78,2,13.43s1.28,53.19,4,61.85c2.14,6.78,5.07,17.69,4.57,24.81-.3,4.33-.48,8.66-.51,13V760c0,.24-.17.38-.25.58V761a35.85,35.85,0,0,0-1.59,4.61s-4.71,11.84-3.12,14.93a2.73,2.73,0,0,0,.75.87c2.27,1.82,8,2.21,10,2.29l-.09,3h2.69s.07-3,.25-6.74a18.44,18.44,0,0,0,1.16-6.58,26.85,26.85,0,0,1,2.4-11.37s.06-.31.12-.81h0a20.2,20.2,0,0,0,.17-3.11,11,11,0,0,0-1-5.29,12.06,12.06,0,0,1,.2-3.23c.73-2.65-1.1-21.2-1.1-21.2l3.1-34.11s1.83-26.33,1.1-33.22a21.86,21.86,0,0,1,.13-5.54,178.61,178.61,0,0,0,2-22.62v-2.12c6.64,2.28,17.9.41,17.9.41s2.62-.06,6.1,0c.09.72.19,1.43.29,2.12a39.61,39.61,0,0,0,1.81,8.41c1.82,3.89,3.47,10.78,2,13.43s1.27,53.19,4,61.85c2.15,6.78,5.08,17.68,4.58,24.81-.3,4.32-.48,8.65-.51,13v.8c-.09.19-.18.38-.26.58s0,.27,0,.39A35.76,35.76,0,0,0,773,761.2s-4.72,11.85-3.12,14.94a2.58,2.58,0,0,0,.75.86c2.27,1.83,8,2.21,10,2.29l-.09,3h2.69s.07-3,.25-6.74a18.44,18.44,0,0,0,1.16-6.58A27,27,0,0,1,787,757.6a20.37,20.37,0,0,0,.29-3.9,11,11,0,0,0-1-5.32,12,12,0,0,1,.2-3.22c.73-2.65-1.09-21.21-1.09-21.21l3.1-34.1s1.83-26.33,1.09-33.22a22.32,22.32,0,0,1,.14-5.54,177.89,177.89,0,0,0,2-21.49v-2.15c.66-.81,2-1.45,5.7-2.69,6.39-2.12,19.17-12.73,24.28-13.43s9.67-4.07,8.21-6.72-9.49-4.42-8.76-8.48-4.93-6.54-7.48-13.25-13.7-12-13.88-17-10.52-20.28-10.52-20.28-10.39-17.28-12.69-27.84a3.72,3.72,0,0,0-.13-.68h.13a19.33,19.33,0,0,1-.38-2.4,3.72,3.72,0,0,1,.09-.68h-.14v-.45a1.64,1.64,0,0,1,.22-.14l.6-.35-.2.08a19.53,19.53,0,0,0,3.31-2.7,14.63,14.63,0,0,0,3.81-5.32,27.07,27.07,0,0,0,1.49-7l1.3-2c1.26,5.27,3.1,12.83,3.68,14.52a147.48,147.48,0,0,1,6.58,22,74.7,74.7,0,0,0,8,20.68s9.31,12.19,16.43,12.72,3.11,2.47,4.2,2.83l.31.07.11,1.43.31,4.15s7.3,29.69,15.52,25.45S840,575.67,837.28,573.73Z" fill="url(#linear-gradient)"></path><path d="M838.24,600.06c-7.9,4.22-14.92-25.26-14.92-25.26l-.3-4.13-.57-7.81,9.65,1.23a28.62,28.62,0,0,0,0,5.07c.17,2,.66,4.09,1.81,4.93C836.48,576,846.13,595.85,838.24,600.06Z" fill="#a1616a"></path><path d="M719.21,772.2l.67-.51A3.3,3.3,0,0,1,719.21,772.2Z" fill="#a1616a"></path><path d="M739.1,610.24V633a183.86,183.86,0,0,1-2,22.47A22.42,22.42,0,0,0,737,661c.7,6.85-1,33-1,33l-3,33.87s1.75,18.42,1,21a12.81,12.81,0,0,0-.19,3.21c.1,3,.62,6.85.79,8v.35l-.11.08-14.67,11.19c2.34-2.13,2.94-7.09,2.93-11.69v-1.5q0-6.45.5-12.9c.48-7.07-2.34-17.9-4.4-24.64-2.63-8.59-5.27-58.78-3.86-61.41s-.18-9.48-1.93-13.34c-1-2.35-2-10.57-2.63-16.57-.38-3.64-.61-6.4-.61-6.4Z" fill="#a1616a"></path><path d="M770.26,767.7l.72-.54A3.76,3.76,0,0,1,770.26,767.7Z" fill="#a1616a"></path><path d="M790.15,605.74v23.87A183.87,183.87,0,0,1,788.22,651a22.42,22.42,0,0,0-.13,5.49c.7,6.85-1,33-1,33l-3,33.87s1.76,18.42,1.06,21a12.26,12.26,0,0,0-.19,3.2c.1,3,.63,6.91.79,8a.87.87,0,0,0,0,.33l-.11.08h0L771,767.12c2.27-2.18,2.86-7.08,2.85-11.62V754c0-4.3.2-8.6.49-12.9.47-7.07-2.34-17.89-4.4-24.63-2.64-8.59-5.27-58.78-3.86-61.41s-.18-9.48-1.93-13.34c-.63-1.36-1.23-4.67-1.75-8.35-.93-6.68-1.59-14.63-1.59-14.63Z" fill="#a1616a"></path><path d="M762.75,414.77l-.15.23a19.25,19.25,0,0,1-13.35,8,16.77,16.77,0,0,1-2.35.16c-.06-.24-.11-.48-.17-.71-1.15-5-2.37-9-2.37-9s1.31-1.89,3.22-4.3c5.19-6.56,14.75-16.93,14-3.07a23.84,23.84,0,0,0,1,8.31A1.14,1.14,0,0,1,762.75,414.77Z" opacity="0.1" style="isolation: isolate"></path><path d="M766.18,403.1a19.29,19.29,0,0,1-16.93,19.15,18.89,18.89,0,0,1-2.38.15h-.14a19.3,19.3,0,1,1,19.45-19.3Z" fill="#a1616a"></path><path d="M784.9,459.34l-18.72,16s-20.41-29.12-18-35.09c.77-1.87.68-5.19.19-8.89-.27-2-.66-4.21-1.1-6.29-.13-.65-.27-1.29-.41-1.92-.06-.24-.11-.48-.17-.71-1.15-5-2.37-9-2.37-9s1.31-1.89,3.22-4.3c5.19-6.56,14.75-16.93,14-3.07a23.84,23.84,0,0,0,1,8.31,1.36,1.36,0,0,0,.15.47c2.66,8.18,9.14,14.71,14.12,18.76a55,55,0,0,0,6.45,4.58Z" fill="#a1616a"></path><path d="M709.79,623.23l29.31-13V633a10.28,10.28,0,0,1-1.9-.89c-5.79-3.58-13-.8-13.51-.8s-6.32,2.46-12.46-1.23c-.27-.16-.54-.31-.8-.44C710,626,709.79,623.23,709.79,623.23Z" opacity="0.1" style="isolation: isolate"></path><path d="M790.15,605.74v23.87a10.71,10.71,0,0,0-1,2.21c-1.06,2.46-8.25,3.34-14.57,2.3a90.74,90.74,0,0,0-12.11-.76c-.93-6.68-1.59-14.63-1.59-14.63Z" opacity="0.1" style="isolation: isolate"></path><path d="M818.94,611.47c-4.92.7-17.2,11.23-23.34,13.34s-5.44,2.45-6.49,4.91-8.25,3.33-14.57,2.29-18.25-.71-18.25-.71S743,633.6,737.17,630s-13-.8-13.51-.8-6.32,2.46-12.46-1.23-14.39-2.28-14.39-2.28-6.67-3.86-10.53-1.75-12.28-4.21-14.39-6.14,4-8.07,8.6-9.83,13.34-28.43,14.21-29.3,4.74-10.18,4.21-13.86,10-20.54,10-20.54l6.66-22.66,2-7,.08-4.17c0-1.88.09-4.29.14-7,.18-11.2.37-27.81,0-35.32-.06-1.16-.12-2.1-.2-2.78-.88-7.54,7-24,8.95-27.37,1.44-2.49,10.76-4.38,16.31-5.55a35.46,35.46,0,0,0,3.92-.94,4.43,4.43,0,0,1,1.54-.12c5.24.21,20.69,3.45,20.69,3.45-1.4,42.29,1.41,34.92,1.41,34.92,4.56-3.51,1.75-34.57,1.75-34.57,2.28,1.05,4.61-1.59,4.61-1.59l8.9,3.69a88.54,88.54,0,0,1,7.85,5.31A23.65,23.65,0,0,1,799,448c2.63,4.39,6.32,16.85,6.32,16.85l-3.16,5c-2.76,4.43-7,11.24-11.35,18.14l-7.72,12.29c-3.45,5.48-6.26,9.93-7.43,11.74a4.41,4.41,0,0,0-.55,1.41,6.67,6.67,0,0,0-.13,1,15.72,15.72,0,0,0,.41,4.16c2.21,10.48,12.2,27.65,12.2,27.65s10,15.26,10.18,20.17,10.88,10.18,13.34,16.85,7.89,9.12,7.19,13.16,7,5.79,8.42,8.42S823.85,610.77,818.94,611.47Z" fill="#fa595f"></path><path d="M832.08,569.16c-2.71,1.83-7.48,1.76-9.06,1.51l-.57-7.81,9.65,1.23A29.6,29.6,0,0,0,832.08,569.16Z" opacity="0.1" style="isolation: isolate"></path><path d="M798.23,459.69l7.2,5.09s3.33,13.33,6.31,18.07,2.63,10.88,2.63,10.88a37.88,37.88,0,0,1,2.81,3.51c2.11,2.81,4.91,16.9,3.86,18.72s6.06,16.9,6.06,16.9,1,1,3.07,6.49,0,11.76,0,11.76,5.44,12.11,3.16,15.44-9.66,3-10.71,2.63,2.81-2.28-4-2.81-15.8-12.63-15.8-12.63a75.48,75.48,0,0,1-7.72-20.53,152.49,152.49,0,0,0-6.31-21.76c-.88-2.63-4.74-19.65-4.74-19.65Z" fill="#fa595f"></path><path d="M744.36,459.69s-.53,40.71-5.44,48.78Z" opacity="0.1" style="isolation: isolate"></path><path d="M772.79,474.08s-4.56,40.71-8.16,42.81S772.79,474.08,772.79,474.08Z" opacity="0.1" style="isolation: isolate"></path><path d="M766.18,468.29s-1.11,38.39-6.9,42.18S766.18,468.29,766.18,468.29Z" opacity="0.1" style="isolation: isolate"></path><path d="M715.76,540.93s-7.26,21.23-6.44,30S715.76,540.93,715.76,540.93Z" opacity="0.1" style="isolation: isolate"></path><path d="M775.5,520c-9.5,2.13-35.2,5.95-57.8-8.11,0-1.88.09-4.29.14-7,8.58,4.72,32.68,17,44.95,13.56,6.12-1.75,10-2.86,12.43-3.58A13.25,13.25,0,0,0,775.5,520Z" opacity="0.1" style="isolation: isolate"></path><path d="M775.5,517.85c-9.5,2.12-35.2,5.94-57.8-8.11,0-1.88.09-4.3.14-7,8.58,4.72,32.68,17,44.95,13.56,6.12-1.74,10-2.86,12.43-3.57A13.18,13.18,0,0,0,775.5,517.85Z" opacity="0.1" style="isolation: isolate"></path><path d="M775.5,518.6c-9.5,2.12-35.2,5.94-57.8-8.11,0-1.88.09-4.29.14-7,8.58,4.72,32.68,17,44.95,13.56,6.12-1.74,10-2.86,12.43-3.57A13.18,13.18,0,0,0,775.5,518.6Z" fill="#605d82"></path><path d="M775.5,518.6c-9.5,2.12-35.2,5.94-57.8-8.11,0-1.88.09-4.29.14-7,8.58,4.72,32.68,17,44.95,13.56,6.12-1.74,10-2.86,12.43-3.57A13.18,13.18,0,0,0,775.5,518.6Z" opacity="0.1" style="isolation: isolate"></path><path d="M734.61,760.07a1.65,1.65,0,0,1-.06.43l-14.67,11.19c2.34-2.13,2.94-7.09,2.93-11.69v-1.5a29.66,29.66,0,0,1,5.42-8.66c2.5-.65,4.07,0,5,1.13v.32a4.6,4.6,0,0,1,.52.78C735.22,754.6,734.8,758.73,734.61,760.07Z" opacity="0.1" style="isolation: isolate"></path><path d="M733.47,754.39,722.4,762s.07-.89.17-2.2a30.39,30.39,0,0,1,5.67-9.25c2.5-.64,4.07,0,5,1.13C733.33,753.31,733.47,754.39,733.47,754.39Z" opacity="0.1" style="isolation: isolate"></path><path d="M734.54,761.22a27.6,27.6,0,0,0-2.3,11.3,17.43,17.43,0,0,1-2.35,9.11,7.59,7.59,0,0,1-.77,1.11s-7.69-.06-10.38-2.29a2.62,2.62,0,0,1-.74-.85c-1.54-3.07,3-14.83,3-14.83,2.38-9.07,7.22-13.91,7.22-13.91C736.85,748.6,734.54,761.22,734.54,761.22Z" fill="#5a5773"></path><path d="M729.89,781.6a7.59,7.59,0,0,1-.77,1.11s-7.69-.06-10.38-2.29c1.32-4.38,5.55-17.63,7.52-15.38S729.42,777.37,729.89,781.6Z" opacity="0.1" style="isolation: isolate"></path><path d="M728.83,765.89l-.53,19.86h2.58s.41-17.42,1.57-19.86S728.83,765.89,728.83,765.89Z" fill="#5a5773"></path><path d="M785.66,755.6l-.06.41h0L771,767.12c2.27-2.18,2.86-7.08,2.85-11.62V754a29.71,29.71,0,0,1,5.41-8.65c2.5-.65,4.08,0,5,1.12v.33a4,4,0,0,1,.52.77C786.28,750.13,785.85,754.27,785.66,755.6Z" opacity="0.1" style="isolation: isolate"></path><path d="M784.52,749.88l-11.07,7.61s.07-.89.18-2.2a30,30,0,0,1,5.66-9.25c2.5-.64,4.07,0,5.05,1.13C784.38,748.81,784.52,749.88,784.52,749.88Z" opacity="0.1" style="isolation: isolate"></path><path d="M785.6,756.72a27.45,27.45,0,0,0-2.31,11.3,17.43,17.43,0,0,1-2.35,9.11,8.45,8.45,0,0,1-.77,1.11s-7.69-.06-10.38-2.29a2.71,2.71,0,0,1-.72-.86c-1.53-3.07,3-14.83,3-14.83,2.38-9.07,7.22-13.91,7.22-13.91C787.9,744.12,785.6,756.72,785.6,756.72Z" fill="#5a5773"></path><path d="M780.94,777.13a8.45,8.45,0,0,1-.77,1.11s-7.69-.06-10.38-2.29c1.32-4.38,5.55-17.64,7.52-15.39S780.47,772.87,780.94,777.13Z" opacity="0.1" style="isolation: isolate"></path><path d="M779.89,761.39l-.54,19.85h2.58s.41-17.41,1.57-19.85S779.89,761.39,779.89,761.39Z" fill="#5a5773"></path><path d="M802.88,475.31c-.12,5-2.85,10.33-7.64,11.82-1.4.43-2.89.53-4.32.82a9.25,9.25,0,0,0-2,.61c-3.07,1.41-4.6,4.91-5.22,8.23-.22,1.14-.36,2.29-.5,3.45a25.14,25.14,0,0,1-1.37,6.47,16.4,16.4,0,0,1-6.74,7.68,43.29,43.29,0,0,1-11.19,4.68,25.16,25.16,0,0,0,3-20.9c-.64-2.05-2-4.34-4.17-4.28-1.69.05-2.9,1.55-4.16,2.69-6.2,5.58-15.9,3.09-23.75.28,14-14.23,17.89-37.34,9.45-55.39a18,18,0,0,1-1.72-4.47,9.31,9.31,0,0,1,.43-4.62,20.46,20.46,0,0,1,2.84-5.29c.49-.69,1-1.37,1.52-2.06.67-.91,1.34-1.83,1.94-2.78a15.36,15.36,0,0,0,2-4.33c.89-3.4-.36-7.7-3.65-8.86l-.18-.07c-3.64-1.14-4.77-1.48-7.25-4.4-1.66-1.94-2.6-5-5.44-5.57-2.18-.45-4.62.52-6.91,1.11a19.31,19.31,0,1,1,34.8,14.17c2.56,8.4,9.19,15.1,14.27,19.23l8.9,3.69a88.54,88.54,0,0,1,7.85,5.31,114.82,114.82,0,0,0,5.66,18.29,64.62,64.62,0,0,1,3,9A22,22,0,0,1,802.88,475.31Z" opacity="0.1" style="isolation: isolate"></path><path d="M748.1,408.29c3.42,1.07,4.74,5.47,3.83,8.93s-3.36,6.26-5.43,9.17-3.91,6.39-3.28,9.91a18,18,0,0,0,1.72,4.47c8.44,18.05,4.5,41.15-9.45,55.39,7.85,2.81,17.56,5.3,23.75-.28,1.26-1.14,2.47-2.64,4.16-2.69,2.15-.07,3.54,2.23,4.17,4.28a25.13,25.13,0,0,1-3,20.89c7.23-2.1,15.17-5.35,17.94-12.35,1.24-3.13,1.24-6.61,1.86-9.93s2.15-6.81,5.22-8.22c2-.9,4.25-.79,6.32-1.43,4.79-1.49,7.52-6.81,7.64-11.82s-1.8-9.82-3.6-14.49c-10-26-.6-5.17-6.08-36.46-1.12-6.39.63-10.21,2.06-16.53s1.12-13.64-3.27-18.42S781.45,383,776,379.8c-4.83-2.88-9.08-7.73-14.7-7.64-4.12.06-4.11.73-7.91,2.33-6.57,2.76-13.94,1.93-20.62,4.21-6,2.06-13.62,8.8-11.8,16,2.45,9.69,9.17,2.56,14.41,3.65,2.84.6,3.78,3.62,5.44,5.57C743.34,406.8,744.46,407.15,748.1,408.29Z" fill="#4a4347"></path><path d="M685,526.49s-2.84-.3-6.66-.89c-10-1.52-26.91-5-17.29-10,8.83-4.62,21-.7,28.12,2.44a62,62,0,0,1,5.92,3Z" fill="#a1616a"></path><path d="M738.22,465.48s-4.56,23-6.84,28.07-6,18.43-6,18.43-5.39,4.88-9.84,9.62l2-7,.08-4.17c0-1.88.09-4.29.14-7,.18-11.2.37-27.81,0-35.32.39-.73.64-1.18.64-1.18L722,461.3s5.79-15.44,9.12-19.83S738.22,465.48,738.22,465.48Z" opacity="0.1" style="isolation: isolate"></path><path d="M687.79,523.44s-.51,2-1.37,4.7c-1.09-.44-2-.79-2.67-1-3-1,.53-2.28-.35-4.91-.75-2.26-2.14-1.55-3.74-2.18a45.41,45.41,0,0,1,3.39-4.07Z" opacity="0.1" style="isolation: isolate"></path><path d="M721.37,461.27l-3.55,5.63s-4.82,8.93-5.57,11.7S710,492,707,494.43s-9.13,10.35-8.25,11.93-8.25,3.51-8.25,3.51-6.14,2.46-5.79,4.39-5.09,3.51-3.16,4.91,3.69,0,4.57,2.63-2.64,3.87.35,4.92,12.81,5.16,12.81,5.16,7.89,1.33,10.17-3.41S724.72,512,724.72,512s3.68-13.34,6-18.43,6.85-28.07,6.85-28.07-3.69-28.43-7-24S721.37,461.27,721.37,461.27Z" fill="#fa595f"></path><path d="M711.37,506.54s-17.37,2.28-8.07,6.14,12.46,0,12.46,0Z" opacity="0.1" style="isolation: isolate"></path><path d="M689.79,516.89s10.18-2.1,12.81,0S689.79,516.89,689.79,516.89Z" opacity="0.1" style="isolation: isolate"></path><path d="M688.74,522.16s.7-1.76,4.21,0S688.74,522.16,688.74,522.16Z" opacity="0.1" style="isolation: isolate"></path><path d="M803.58,538.92s1.06,16,5.37,16.52S803.58,538.92,803.58,538.92Z" opacity="0.1" style="isolation: isolate"></path><path d="M812.8,502.7s.73,4.89-3.85,5.77S812.8,502.7,812.8,502.7Z" opacity="0.1" style="isolation: isolate"></path><path d="M760.85,550.29s-.23,49.37,9.83,55.45Z" opacity="0.1" style="isolation: isolate"></path><path d="M774.18,552.4S774,601.76,784,607.85Z" opacity="0.1" style="isolation: isolate"></path><path d="M720.72,659.29a37.32,37.32,0,0,1,6.85,0C731.38,659.6,720.72,659.29,720.72,659.29Z" opacity="0.1" style="isolation: isolate"></path><path d="M720.72,662.74a37.32,37.32,0,0,1,6.85,0C731.38,663.09,720.72,662.74,720.72,662.74Z" opacity="0.1" style="isolation: isolate"></path><path d="M772.77,655.24a37.32,37.32,0,0,1,6.85,0C783.43,655.6,772.77,655.24,772.77,655.24Z" opacity="0.1" style="isolation: isolate"></path><path d="M773.94,658a37.32,37.32,0,0,1,6.85,0C784.59,658.35,773.94,658,773.94,658Z" opacity="0.1" style="isolation: isolate"></path><g opacity="0.1"><path d="M739.18,494.43c14-14.23,17.89-37.33,9.45-55.39a18,18,0,0,1-1.72-4.47c-.63-3.52,1.2-7,3.28-9.91s4.53-5.71,5.43-9.17-.41-7.86-3.83-8.92c-3.64-1.14-4.77-1.49-7.25-4.41-1.66-1.94-2.6-5-5.44-5.56-5.24-1.09-12,6-14.41-3.66-1.38-5.42,2.65-10.6,7.3-13.69-5.81,2.41-12.53,8.81-10.81,15.58,2.45,9.69,9.17,2.57,14.41,3.66,2.84.59,3.78,3.62,5.44,5.56,2.49,2.92,3.61,3.27,7.25,4.41,3.42,1.06,4.74,5.46,3.83,8.92s-3.36,6.26-5.43,9.17-3.91,6.39-3.28,9.92a18.31,18.31,0,0,0,1.72,4.46c8.44,18.06,4.5,41.16-9.45,55.39,7.56,2.71,16.83,5.11,23,.31C752.82,498.69,745.42,496.66,739.18,494.43Z"></path><path d="M793.31,486.14a7.08,7.08,0,0,0-2,1.38c1.58-.39,3.25-.44,4.8-.93a9,9,0,0,0,3.26-1.82C797.38,485.33,795.2,485.27,793.31,486.14Z"></path><path d="M775.89,513.89a55.12,55.12,0,0,1-7.6,2.75,25.13,25.13,0,0,0,3-20.89c-.63-2-2-4.35-4.17-4.29a5.34,5.34,0,0,0-3.32,1.9c2,.07,3.37,2.29,4,4.28a25.13,25.13,0,0,1-3,20.89A43.88,43.88,0,0,0,775.89,513.89Z"></path></g><path d="M805.19,204.21H773.11a2,2,0,0,0-2,2V238.3a2,2,0,0,0,2,2h16V226H784.8v-5.26h4.39v-3.89c0-4.65,3.23-7.19,7.39-7.19,2,0,4.14.15,4.63.22v4.86H797.9c-2.26,0-2.7,1.07-2.7,2.65v3.35h5.39l-.7,5.26h-4.7v14.28h10a2,2,0,0,0,2-2V206.21A2,2,0,0,0,805.19,204.21Z" fill="#6c63ff"></path></svg> 