<?xml version="1.0" encoding="UTF-8"?> <svg xmlns="http://www.w3.org/2000/svg" xmlns:xlink="http://www.w3.org/1999/xlink" id="Layer_1" data-name="Layer 1" viewBox="0 0 1023.47 837.82"><defs><linearGradient id="linear-gradient" x1="352.43" y1="522.85" x2="352.43" y2="704.29" gradientTransform="matrix(1, 0, 0, -1, 0, 839.98)" gradientUnits="userSpaceOnUse"><stop offset="0" stop-color="gray" stop-opacity="0.25"></stop><stop offset="0.54" stop-color="gray" stop-opacity="0.12"></stop><stop offset="1" stop-color="gray" stop-opacity="0.1"></stop></linearGradient><linearGradient id="linear-gradient-2" x1="569.83" y1="288.51" x2="569.83" y2="459.18" xlink:href="#linear-gradient"></linearGradient><linearGradient id="linear-gradient-3" x1="171.5" y1="520.8" x2="171.5" y2="520.98" gradientTransform="matrix(1, 0, 0, -1, -88.27, 808.92)" xlink:href="#linear-gradient"></linearGradient><linearGradient id="linear-gradient-4" x1="228.02" y1="-13.75" x2="228.02" y2="589.77" gradientTransform="matrix(1, 0, 0, -1, -88.27, 808.92)" xlink:href="#linear-gradient"></linearGradient><linearGradient id="linear-gradient-5" x1="944.12" y1="-9.98" x2="944.12" y2="571.54" gradientTransform="matrix(1, 0, 0, -1, -88.27, 808.92)" xlink:href="#linear-gradient"></linearGradient></defs><title>undraw_analysis_4jis</title><ellipse cx="176" cy="807.83" rx="176" ry="29.99" fill="#6c63ff" opacity="0.1" style="isolation: isolate"></ellipse><ellipse cx="847.47" cy="800.73" rx="176" ry="29.99" fill="#6c63ff" opacity="0.1" style="isolation: isolate"></ellipse><path d="M274.41.46c-46,2.46-92.48,15.9-128.37,44.79-31.49,25.36-54.2,65.23-48.66,105.29,6.54,47.29,48.73,81.69,64.38,126.8,10.07,29,8.5,61,1.91,91-4.24,19.33-10.76,38.68-23.29,54C117.81,449.9,77.08,463.2,66,497.05,53.93,533.86,84.32,570,112.87,596.14c22.79,20.89,46.66,41.68,75.38,53.13,21,8.38,43.79,11.39,66.38,12.59a442.71,442.71,0,0,0,183-29.24c27.91-10.83,54.91-24.56,84.12-31.09,62.25-13.92,126.3,6.15,189.39,15.55a566.44,566.44,0,0,0,163.17.48c34.06-4.86,69.25-13.63,94.9-36.55,26-23.27,39-59.29,37.56-94.19s-16.16-68.5-37.84-95.9c-28-35.39-66.62-60.57-100.22-90.73a433.34,433.34,0,0,1-86.22-106.58c-13.2-23-24.43-47.41-41.53-67.66-26.67-31.56-65.35-50.33-104-64.83-89.16-33.4-181.64-40.2-274.6-55C333.31,1.53,303.84-1.08,274.41.46Z" transform="translate(0 -0.02)" fill="#1fbaed" style="isolation: isolate"></path><g opacity="0.7"><rect x="258.54" y="367.09" width="190.96" height="106.71" fill="#f6f7f9"></rect><g opacity="0.2"><circle cx="294.49" cy="414.46" r="19.88" fill="#6c63ff"></circle></g><g opacity="0.2"><rect x="338.61" y="390.9" width="86.62" height="5.45" fill="#6c63ff"></rect></g><g opacity="0.2"><rect x="338.61" y="404.79" width="44.13" height="5.45" fill="#6c63ff"></rect></g><g opacity="0.2"><rect x="338.61" y="418.68" width="71.37" height="5.45" fill="#6c63ff"></rect></g><g opacity="0.2"><rect x="338.61" y="432.57" width="86.62" height="5.45" fill="#6c63ff"></rect></g><g opacity="0.2"><rect x="401.27" y="452.62" width="23.97" height="10.53" fill="#6c63ff"></rect></g><rect x="419.31" y="72.18" width="190.96" height="106.71" fill="#f6f7f9"></rect><g opacity="0.2"><circle cx="455.27" cy="119.55" r="19.88" fill="#6c63ff"></circle></g><g opacity="0.2"><rect x="499.39" y="95.99" width="86.62" height="5.45" fill="#6c63ff"></rect></g><g opacity="0.2"><rect x="499.39" y="109.88" width="44.13" height="5.45" fill="#6c63ff"></rect></g><g opacity="0.2"><rect x="499.39" y="123.77" width="71.37" height="5.45" fill="#6c63ff"></rect></g><g opacity="0.2"><rect x="499.39" y="137.67" width="86.62" height="5.45" fill="#6c63ff"></rect></g><g opacity="0.2"><rect x="562.04" y="157.71" width="23.97" height="10.53" fill="#6c63ff"></rect></g><rect x="482.87" y="251.34" width="190.96" height="106.71" fill="#f6f7f9"></rect><g opacity="0.2"><circle cx="518.82" cy="298.72" r="19.88" fill="#6c63ff"></circle></g><g opacity="0.2"><rect x="562.95" y="275.16" width="86.62" height="5.45" fill="#6c63ff"></rect></g><g opacity="0.2"><rect x="562.95" y="289.05" width="44.13" height="5.45" fill="#6c63ff"></rect></g><g opacity="0.2"><rect x="562.95" y="302.94" width="71.37" height="5.45" fill="#6c63ff"></rect></g><g opacity="0.2"><rect x="562.95" y="316.83" width="86.62" height="5.45" fill="#6c63ff"></rect></g><g opacity="0.2"><rect x="625.6" y="336.88" width="23.97" height="10.53" fill="#6c63ff"></rect></g></g><rect x="191.88" y="135.69" width="321.11" height="181.44" fill="url(#linear-gradient)"></rect><rect x="194.15" y="137.94" width="316.6" height="176.93" fill="#f6f7f9"></rect><g opacity="0.2"><circle cx="253.75" cy="216.49" r="32.96" fill="#6c63ff"></circle></g><g opacity="0.2"><rect x="326.92" y="177.42" width="143.62" height="9.03" fill="#6c63ff"></rect></g><g opacity="0.2"><rect x="326.92" y="200.46" width="73.16" height="9.03" fill="#6c63ff"></rect></g><g opacity="0.2"><rect x="326.92" y="223.49" width="118.33" height="9.03" fill="#6c63ff"></rect></g><g opacity="0.2"><rect x="326.92" y="246.52" width="143.62" height="9.03" fill="#6c63ff"></rect></g><rect x="430.79" y="279.76" width="39.74" height="17.46" fill="#6c63ff"></rect><rect x="417.12" y="380.8" width="305.42" height="170.67" fill="url(#linear-gradient-2)"></rect><rect x="419.23" y="381.97" width="301.2" height="168.32" fill="#f6f7f9"></rect><g opacity="0.2"><circle cx="475.94" cy="456.7" r="31.36" fill="#6c63ff"></circle></g><g opacity="0.2"><rect x="545.54" y="419.53" width="136.63" height="8.59" fill="#6c63ff"></rect></g><g opacity="0.2"><rect x="545.54" y="441.45" width="69.6" height="8.59" fill="#6c63ff"></rect></g><g opacity="0.2"><rect x="545.54" y="463.36" width="112.57" height="8.59" fill="#6c63ff"></rect></g><g opacity="0.2"><rect x="545.54" y="485.27" width="136.63" height="8.59" fill="#6c63ff"></rect></g><g opacity="0.5"><rect x="644.36" y="516.89" width="37.81" height="16.61" fill="#6c63ff"></rect></g><g opacity="0.1"><path d="M82.86,287.92l.74.16A1,1,0,0,0,82.86,287.92Z" transform="translate(0 -0.02)" fill="url(#linear-gradient-3)"></path></g><path d="M237.58,404.09c-2.21-14.84-15.69-49.46-15.69-49.46h0c-.24-1-.5-2.06-.8-3.08-9.57-32.89-22.81-35.8-22.81-35.8l-47.43-10.11a3.58,3.58,0,0,1,1,.94l-.75.12a18.6,18.6,0,0,1-4.16-9c-.09-.49-.17-1-.23-1.52a33.35,33.35,0,0,0,.62-47.16,32.79,32.79,0,0,0-3.34-3c-.49-.39-1-.76-1.52-1.13,2.24-2.37,2.31-5.68.64-9-3.74-7.77-11.86-12.68-20.22-15.07-6.38-1.83-13.3-2.42-19.62-.42-3.61,1.14-6.89,3.07-10.27,4.76-6.3,3.15-13.24,5.64-18,10.81-1.11,1.21-2.12,2.75-1.8,4.34.25,1.19,1.18,2.1,1.79,3.16,1.35,2.36,1,5.33.09,7.9s-2.29,5-2.94,7.6-.39,5.74,1.59,7.62a35,35,0,0,0,3,2.1,15.24,15.24,0,0,1,2.83,3.17l5.62,7.59a78,78,0,0,1,7,10.69c1.39,2.75,2.48,5.7,4.35,8.16a13.12,13.12,0,0,0,1.87,2c-.18-.07-.37-.13-.55-.21a8.52,8.52,0,0,0,6.28,2.41h.28a1.7,1.7,0,0,0,1.15-.47v1c.1,3.65.09,7.53-.17,11.17L105,314a3.81,3.81,0,0,0-4.09.43l-43.69,35s-9.49,13-8.17,35.4l-7.65,33.62s-9.57,28.53-2.21,48.9,11.63,32,11.63,32,2.94,23.14,7.36,25,6.33,2.92,6.33,2.92l.88,5.53h0s.29.53.81,1.45c3.22,5.59,15.13,25.33,22.06,23.23a89.77,89.77,0,0,1,1.13,16.21l6.84,46s4.78,12.51,4.49,19.06,5.59,15.87,5.59,15.87A30.32,30.32,0,0,0,103.32,676c2.8,12.23,6.33,68.69,6.33,68.69l5.15,13.68-.15,16a15.34,15.34,0,0,1-3.16,7.1c-3.32,3.6-3.1,7.76-11,12.67s-13,6.76-13,13.31a17.48,17.48,0,0,1-.24,2.7c-.74,4.79-2.17,7.37,12.5,8.77,17.22,1.63,28.7-9.61,28.7-9.61s2.53-4.59,14.46-6.44c0,0,4.07-.22,4.3-3.83.08-1.24.06-3.62-.05-6.24-.19-5-.67-10.82-1.3-11.11-.79-.35-2.19-5.38-2.67-7.2h3.32s3.09-23.14,0-38.14-.29-25.61-.29-25.61l-.59-39.58s-4.17-4.23-.9-11.93,0-45.84,0-45.84,1.19-13.68,4.57-16.88.17-20,0-20.93l6,20.2s2.65,40.17,8.25,47.45l1.62,18.18s11.48,16.74,9.27,25.77,2.36,41.62,2.36,41.62v33.33s-5.16,13.39,2.06,18.19l3.11-.12c-1.06,1-1.82,2.39-3,3.62-1.38,1.42-2.16,6.82-2.6,11.46-.37,3.93-.49,7.31-.49,7.31s3.09,4.91,8.83,5.24,24.73,14.85,24.73,14.85,18.78,0,23.63-1l.29-.07a6.41,6.41,0,0,0,3.66-3,7.62,7.62,0,0,0,.89-5.5c-.61-2.87-2.88-6-7.93-8.69-12.59-6.65-14.46-12.87-14.46-12.87l-8.25-12.36h1.18s-.73-13.1,8.24-27.8l-.58-64.76s3.67-22.27-2.65-34.35c0,0-.52-12.81,3.71-16.74s-5.63-43.66-5.63-43.66-2-21.32-4.44-40.78h0c9.93,9.42,20.24-24.51,22-30.54h.26s-.05-.16-.12-.44a.42.42,0,0,1,.12-.43h0s-2.2-7.85-.59-6.26,5.6-4.36,5.6-4.36-.59-32.46,6.33-48.82S237.58,404.09,237.58,404.09ZM208,424.74l0-.09c1,19.82-.2,62.11-.2,62.11s-1.36,5.42-2.82,11.8L204,458.38h0l-1-37.84ZM81.26,411.08s5,62.58,0,71.6c-1.43,2.57-2.62,7.14-3.61,12.37-1.65-4.34-5.15-14.53-3.9-19.93,1.62-7-3.24-25.33-3.24-25.76s-.44-10.19,3.09-17.69S74.78,421,74.78,421,77.73,408.75,81.26,411.08Z" transform="translate(0 -0.02)" fill="url(#linear-gradient-4)"></path><path d="M93.44,552c-4.35,19.16-21.69-9.82-25.64-16.77l-.8-1.44L68.88,525l9.94-4a27.1,27.1,0,0,1,4.44,2.9C88.73,528.09,96.8,537.18,93.44,552Z" transform="translate(0 -0.02)" fill="#efb7b9"></path><path d="M227.94,520.66l-.11.43a2.58,2.58,0,0,1-.14.47c-1.7,6-11.81,39.66-21.57,30.31-10.68-10.26-5.49-33.82-5.49-33.82h.1l22.47-2.3,4.45,4.58h0Z" transform="translate(0 -0.02)" fill="#efb7b9"></path><path d="M214.94,686.37l.57,64.28c-8.8,14.6-8.09,27.6-8.09,27.6l-29,1.15c-7.08-4.76-2-18-2-18V728.26s-4.53-32.34-2.37-41.34-9.1-25.57-9.1-25.57l-1.58-18.05c-5.5-7.22-8.1-47.1-8.1-47.1l-5.91-20c.15.87,3.22,17.68,0,20.77s-4.48,16.76-4.48,16.76,3.18,37.85,0,45.5.86,12,.86,12l.59,39.29s-2.75,10.55.28,25.43,0,37.85,0,37.85h-31.2l.14-16-5-13.58S107,688.17,104.29,676a30.44,30.44,0,0,1,2.88-21.24s-5.77-9.25-5.48-15.75-4.41-18.92-4.41-18.92l-6.72-45.65a88.53,88.53,0,0,0-3.32-26c-3.91-13-9.68-30.05-9.68-30.05l6.52.58L117,521.94s80-5.38,83.61-.91a15,15,0,0,1,1.52,4.66c3.59,16.15,8.34,66.71,8.34,66.71s9.68,39.44,5.52,43.34-3.64,16.61-3.64,16.61C218.55,664.27,214.94,686.37,214.94,686.37Z" transform="translate(0 -0.02)" fill="#444053"></path><path d="M147.29,798.14c-.23,3.58-4.23,3.8-4.23,3.8-11.7,1.84-14.18,6.4-14.18,6.4s-11.27,11.15-28.15,9.58c-14.39-1.38-13-4-12.26-8.7a17.21,17.21,0,0,0,.23-2.68c0-6.5,5-8.35,12.79-13.22s7.58-9,10.83-12.57,3.58-10.5,3.58-10.5c3.68-6.4,13,1,13,1,.43,2.27,14.3,2,14.3,2s1.84,7.37,2.78,7.8c.62.29,1.09,6.07,1.28,11C147.35,794.55,147.36,796.92,147.29,798.14Z" transform="translate(0 -0.02)" fill="#b07473"></path><path d="M147.29,798.14c-.23,3.58-4.23,3.8-4.23,3.8-11.7,1.84-14.18,6.4-14.18,6.4s-11.27,11.15-28.15,9.58c-14.39-1.38-13-4-12.26-8.7,6.43,1.6,18.73,3.82,25.91-.08,10-5.42,17.13-9.21,17.13-9.21l15.73-8C147.35,794.55,147.36,796.92,147.29,798.14Z" transform="translate(0 -0.02)" opacity="0.1" style="isolation: isolate"></path><path d="M235.47,817.43a6.29,6.29,0,0,1-3.6,3,1.28,1.28,0,0,1-.28.07c-4.77,1-23.19,1-23.19,1S189.73,807,184.13,806.71s-8.67-5.2-8.67-5.2.11-3.36.47-7.26c.44-4.61,1.21-10,2.56-11.38,2.5-2.6,3-6.17,8.67-3.9,0,0,8-14.11,17.44-3.21l9.76,14.81s1.84,6.17,14.2,12.78c4.95,2.65,7.18,5.77,7.77,8.62A7.61,7.61,0,0,1,235.47,817.43Z" transform="translate(0 -0.02)" fill="#b07473"></path><path d="M235.47,817.43c-1.1.93-2.33,1.93-3.6,3a1.28,1.28,0,0,1-.28.07c-4.77,1-23.19,1-23.19,1S189.73,807,184.13,806.71s-8.67-5.2-8.67-5.2.11-3.36.47-7.26c5.73,1.72,14.43,4.75,16.76,8,3.57,5,14.42,11.91,14.42,11.91s20.23-1.94,29.22-2.21A7.65,7.65,0,0,1,235.47,817.43Z" transform="translate(0 -0.02)" opacity="0.1" style="isolation: isolate"></path><path d="M156.73,313.28l-26.66,28.17s-32.29-2.38-26.65-11.92c2.87-4.85,3.32-15,3.07-23.86-.24-8.53-1.12-15.79-1.12-15.79s45.29-22.54,41.82-1.52a34.79,34.79,0,0,0-.13,12C149,311,156.73,313.28,156.73,313.28Z" transform="translate(0 -0.02)" fill="#efb7b9"></path><path d="M147.18,288.36a34.79,34.79,0,0,0-.13,12,33.24,33.24,0,0,1-23.7,9.89c-6.16,0-12.75-5-17.7-7.95-.24-8.53-.29-12.42-.29-12.42S150.65,267.34,147.18,288.36Z" transform="translate(0 -0.02)" opacity="0.1" style="isolation: isolate"></path><path d="M156.73,275.14a33.38,33.38,0,1,1-12.56-26.08A33.37,33.37,0,0,1,156.73,275.14Z" transform="translate(0 -0.02)" fill="#efb7b9"></path><path d="M202.12,525.61c-8.31,19.78-61.77,20.19-61.77,20.19V524.24l-3.24-.21c1.4,6.17-2,21.23-2,21.23-42.25,6-52.54-18.09-52.54-18.09L84,518.93,117,521.86s80-5.38,83.61-.91A15.07,15.07,0,0,1,202.12,525.61Z" transform="translate(0 -0.02)" opacity="0.1" style="isolation: isolate"></path><path d="M140.35,543.2V521.63l-3.24-.2c1.4,6.17-2,21.23-2,21.23-31.79,4.48-45.5-8-50.33-14.5a20.1,20.1,0,0,1-2.21-3.6L95.46,452l3-106.83,4.65-18.74,1.08-9v-.1l.11.05,3.28,1.41,19.68,8.5,22.47-16.87.33-.25,1.11-.84,1.85,1.49,4.59,3.68,14.74,95.14s25.56,73.26,30.3,102.83c.19,1.18.35,2.28.47,3.31C206.23,542.7,140.35,543.2,140.35,543.2Z" transform="translate(0 -0.02)" fill="#e1e7ef"></path><circle cx="129.73" cy="329.3" r="1.9" fill="#67647e"></circle><circle cx="130.61" cy="346.63" r="1.9" fill="#67647e"></circle><circle cx="132.5" cy="374.7" r="1.9" fill="#67647e"></circle><circle cx="135.65" cy="404.92" r="1.9" fill="#67647e"></circle><circle cx="137.54" cy="433.31" r="1.9" fill="#67647e"></circle><circle cx="139.44" cy="463.54" r="1.9" fill="#67647e"></circle><circle cx="138.68" cy="493.45" r="1.9" fill="#67647e"></circle><path d="M105.53,462.53s-2.12,27.8-6,35.88-5.64,30.77-5.64,30.77l-9-1a20.1,20.1,0,0,1-2.21-3.6L95.57,452l3-106.83,4.65-18.74,1.08-9a.31.31,0,0,1,.12-.05,3.68,3.68,0,0,1,3.22.05l.44.22c-.13.37-.26.75-.38,1.14-3.52,11.05-4.84,31.43-4.84,31.43s5.06,37.27,5.63,54.61S105.53,462.53,105.53,462.53Z" transform="translate(0 -0.02)" opacity="0.1" style="isolation: isolate"></path><path d="M83.26,523.85a6,6,0,0,1-.34.67c-3.51,5.93-12.41,9.7-15.12,10.73l-.8-1.44L68.88,525l9.94-4A27.1,27.1,0,0,1,83.26,523.85Z" transform="translate(0 -0.02)" opacity="0.1" style="isolation: isolate"></path><path d="M59.2,382,51,386.92l-7.52,33.37s-9.39,28.32-2.16,48.54,11.44,31.75,11.44,31.75,2.89,23,7.22,24.85,6.22,2.89,6.22,2.89l.86,5.49s11.76-4,15.92-11-3.06-24.51-3.06-24.51-6.21-14.88-4.62-21.81-3.18-25.14-3.18-25.57-.43-10.12,3-17.56,1.16-10.61,1.16-10.61l-2.17-21.24Z" transform="translate(0 -0.02)" fill="#67647e"></path><path d="M202.8,519.36s-21.81,8.24-28.75,1-6.21-41-6.21-41S161.2,417,157,406.7s-2-84.23-2-84.23-2.84-9.55-5.27-12.08a2.38,2.38,0,0,0-.52-.43l.85.18,3,.65,4.59,3.68,14.74,95.14s25.56,73.26,30.3,102.83Z" transform="translate(0 -0.02)" opacity="0.1" style="isolation: isolate"></path><path d="M227.94,521.53h-.25c-2.74.35-27,3.28-27.09-1.76a14.67,14.67,0,0,1,.1-1.75l22.47-2.3,4.45,4.58h0c.08.3.15.56.21.76Z" transform="translate(0 -0.02)" opacity="0.1" style="isolation: isolate"></path><path d="M204.73,348.55l16,8.31s13.23,34.36,15.4,49.1c0,0,9.82,39.47,3,55.7s-6.21,48.46-6.21,48.46-3.9,5.92-5.49,4.33.58,6.21.58,6.21-27.23,3.62-27.36-1.74S206.85,488,206.85,488s1.73-60.82-.73-70.35S204.73,348.55,204.73,348.55Z" transform="translate(0 -0.02)" fill="#67647e"></path><path d="M157.15,413.33s-9,21.95-11.85,23.4.58,7.22.58,7.22S162.21,421.13,157.15,413.33Z" transform="translate(0 -0.02)" opacity="0.1" style="isolation: isolate"></path><path d="M151.81,336.32c.1-.42-10.7,10.59-13.58,12.23S148.73,348.46,151.81,336.32Z" transform="translate(0 -0.02)" opacity="0.1" style="isolation: isolate"></path><path d="M121.73,411.59s-16.47,10.66-14.31,14.86S121.73,411.59,121.73,411.59Z" transform="translate(0 -0.02)" opacity="0.1" style="isolation: isolate"></path><path d="M151.66,567s14,9,35.83,11.27Z" transform="translate(0 -0.02)" opacity="0.1" style="isolation: isolate"></path><path d="M118,588.71s13,16.32,18.93,16.76S118,588.71,118,588.71Z" transform="translate(0 -0.02)" opacity="0.1" style="isolation: isolate"></path><path d="M136.2,652.71c-.58.29-7.37,14.73-14.3,15.17S136.2,652.71,136.2,652.71Z" transform="translate(0 -0.02)" opacity="0.1" style="isolation: isolate"></path><path d="M196.45,684.34s12.88-2.88,15.74,6.36C212.19,690.7,211.33,687.81,196.45,684.34Z" transform="translate(0 -0.02)" opacity="0.1" style="isolation: isolate"></path><path d="M187.78,737.22s15.6-3.18,18.92,1.16S187.78,737.22,187.78,737.22Z" transform="translate(0 -0.02)" opacity="0.1" style="isolation: isolate"></path><path d="M143.62,744.59c0,.14-15.89,3.18-15.26,5.2s16.94,1.73,17.52-1.45a3,3,0,0,0-2.07-3.7Z" transform="translate(0 -0.02)" opacity="0.1" style="isolation: isolate"></path><path d="M182.58,758.31s26.1-3.18,24.46,2.31S182.58,758.31,182.58,758.31Z" transform="translate(0 -0.02)" opacity="0.1" style="isolation: isolate"></path><path d="M45.91,436.73c.15.43,17.19,2.74,19.5,8.23,0,0-16.75-7.8-19.35-7.8" transform="translate(0 -0.02)" opacity="0.1" style="isolation: isolate"></path><path d="M69.89,481.37s-14.16,4.48-13.16,11.27S55.3,489.47,69.89,481.37Z" transform="translate(0 -0.02)" opacity="0.1" style="isolation: isolate"></path><path d="M63.29,515.75s5.16-7.08,10.07-5.78S63.29,515.75,63.29,515.75Z" transform="translate(0 -0.02)" opacity="0.1" style="isolation: isolate"></path><path d="M144.16,249.06a8.35,8.35,0,0,1-1.66,1.24c-4.11,2.38-5.21,6-7.18,10.27-1.8,3.87-3.79,8-7.44,10.16-4.7,2.83-10.9,1.79-15.79,4.27a12.31,12.31,0,0,0-6.54,12.08,36.12,36.12,0,0,0,1.4,5.53,39.88,39.88,0,0,1,1.49,12,2.29,2.29,0,0,1,0,.37,33.38,33.38,0,1,1,35.76-55.93Z" transform="translate(0 -0.02)" opacity="0.1" style="isolation: isolate"></path><path d="M143.29,239c-3.67-7.71-11.64-12.58-19.84-15-6.26-1.81-13-2.4-19.26-.41a65.47,65.47,0,0,0-10.08,4.72c-6.19,3.13-13,5.6-17.65,10.74-1.08,1.19-2.08,2.73-1.76,4.31.24,1.18,1.16,2.08,1.75,3.13,1.33,2.34,1,5.29.09,7.84s-2.24,4.93-2.88,7.55-.39,5.69,1.55,7.56a35.12,35.12,0,0,0,2.92,2.08,15.7,15.7,0,0,1,2.77,3.15l5.51,7.53a75.73,75.73,0,0,1,6.9,10.62c1.38,2.73,2.44,5.65,4.27,8.09s4.7,4.4,7.74,4.13a1.46,1.46,0,0,0,1.22-.58,1.57,1.57,0,0,0,.16-.77,39.57,39.57,0,0,0-1.49-12,36.12,36.12,0,0,1-1.4-5.53,12.31,12.31,0,0,1,6.54-12.08c4.9-2.47,11.1-1.43,15.8-4.26,3.65-2.21,5.64-6.3,7.44-10.17,2-4.23,3.07-7.89,7.18-10.27S145.32,243.07,143.29,239Z" transform="translate(0 -0.02)" fill="#585268"></path><path d="M128.34,784.5s5.08,6.5,3.78,10.18S128.34,784.5,128.34,784.5Z" transform="translate(0 -0.02)" opacity="0.1" style="isolation: isolate"></path><path d="M197.41,800.75s1.13-8.72,5.68-8.8,4.77-.47,8.24.86,6.72,3.41,5.69,3.73-6-5-11-2.29A36.46,36.46,0,0,0,197.41,800.75Z" transform="translate(0 -0.02)" opacity="0.1" style="isolation: isolate"></path><path d="M113.11,338.15l14.24-10s-20.91-12.36-23.4-10.62-4.2,17.34-4.2,17.34Z" transform="translate(0 -0.02)" opacity="0.1" style="isolation: isolate"></path><path d="M113.05,337.5l14.3-10.24s-20.91-12.35-23.4-10.62-4.2,18.21-4.2,18.21Z" transform="translate(0 -0.02)" fill="#e1e7ef"></path><path d="M113.05,337.5l14.3-10.24s-20.91-12.35-23.4-10.62-4.2,18.21-4.2,18.21Z" transform="translate(0 -0.02)" opacity="0.03" style="isolation: isolate"></path><path d="M106.31,316.76l-.43-.22a3.69,3.69,0,0,0-4,.42L59,351.75s-9.32,12.89-8,35.14l25.28,35.83s2.89-12.14,6.36-9.83c0,0,4.91,62.12,0,71.08s-7.08,42.47-7.08,42.47l16.61,1.88s1.73-22.68,5.63-30.77,6-35.89,6-35.89,3.51-40.39,2.93-57.74-5.63-54.6-5.63-54.6S102.51,327.48,106.31,316.76Z" transform="translate(0 -0.02)" fill="#67647e"></path><path d="M149,331.81l-17.81-6.6s22.69-24.84,25.51-11.06Z" transform="translate(0 -0.02)" opacity="0.1" style="isolation: isolate"></path><path d="M149,330.92l-17.81-6.59s22.69-24.85,25.51-11.07Z" transform="translate(0 -0.02)" fill="#e1e7ef"></path><path d="M149,330.92l-17.81-6.59s22.69-24.85,25.51-11.07Z" transform="translate(0 -0.02)" opacity="0.03" style="isolation: isolate"></path><path d="M148.45,309.81a1,1,0,0,1,.73.15Z" transform="translate(0 -0.02)" opacity="0.1" style="isolation: isolate"></path><path d="M150.18,308.07l47.28,10.2s13,2.89,22.39,35.53S207,426.45,207,426.45l-4.91-4.17,2.46,95.35s-21.82,8.23-28.75,1-6.22-41-6.22-41-6.64-62.43-10.84-72.71-2-84.23-2-84.23S152.82,307.5,150.18,308.07Z" transform="translate(0 -0.02)" fill="#67647e"></path><path d="M193.41,368.83c-.67.62-1.44,29.47,1.45,51.43a279.71,279.71,0,0,0,8.19,39.58l-4.29-88S195.43,366.92,193.41,368.83Z" transform="translate(0 -0.02)" opacity="0.1" style="isolation: isolate"></path><path d="M187.63,344c1.16.72,6.22,12.71,3.9,17.63S187.63,344,187.63,344Z" transform="translate(0 -0.02)" opacity="0.1" style="isolation: isolate"></path><path d="M143,239a26,26,0,0,0-10.39-10.88,24.61,24.61,0,0,1,7.79,9.15c2,4.05,1.44,8.11-2.53,10.41s-5.21,6-7.17,10.27c-1.8,3.87-3.8,8-7.45,10.16-4.7,2.84-10.89,1.8-15.79,4.26a12.33,12.33,0,0,0-6.54,12.09,33.94,33.94,0,0,0,1.4,5.53,39.25,39.25,0,0,1,1.48,12,1.2,1.2,0,0,1-1.37,1.35,7,7,0,0,1-3.56-.66,8.27,8.27,0,0,0,6.16,2.39,1.46,1.46,0,0,0,1.22-.58,1.57,1.57,0,0,0,.16-.77,39.57,39.57,0,0,0-1.49-12,33.94,33.94,0,0,1-1.4-5.53,12.31,12.31,0,0,1,6.54-12.08c4.9-2.47,11.09-1.43,15.79-4.26,3.65-2.21,5.65-6.3,7.45-10.17,2-4.23,3.06-7.89,7.17-10.27S145,243.07,143,239Z" transform="translate(0 -0.02)" opacity="0.1" style="isolation: isolate"></path><ellipse cx="968.23" cy="761.71" rx="41" ry="5.63" fill="#6c63ff" opacity="0.1" style="isolation: isolate"></ellipse><ellipse cx="646.82" cy="814.54" rx="29.14" ry="4" fill="#6c63ff" opacity="0.1" style="isolation: isolate"></ellipse><ellipse cx="386.08" cy="784.89" rx="29.14" ry="4" fill="#6c63ff" opacity="0.1" style="isolation: isolate"></ellipse><path d="M402.13,775.81A11.67,11.67,0,0,0,406,770c.5-2.29-.48-5-2.68-5.89-2.46-.94-5.09.77-7.08,2.49s-4.28,3.69-6.88,3.32a10.5,10.5,0,0,0,3.24-9.81,4.28,4.28,0,0,0-.9-2c-1.37-1.46-3.85-.83-5.48.32-5.2,3.65-6.65,10.72-6.68,17.07-.52-2.29-.08-4.68-.1-7s-.65-5-2.64-6.22a8,8,0,0,0-4-1c-2.33-.09-4.94.15-6.53,1.86-2,2.12-1.47,5.68.25,8s4.35,3.81,6.77,5.42a14.88,14.88,0,0,1,4.83,4.61,4.09,4.09,0,0,1,.36.83H393.1A41.42,41.42,0,0,0,402.13,775.81Z" transform="translate(0 -0.02)" fill="#6c63ff"></path><path d="M984.86,754.71a11.65,11.65,0,0,0,3.87-5.79c.5-2.29-.48-5-2.68-5.89-2.46-.94-5.09.77-7.08,2.49s-4.28,3.69-6.89,3.32a10.47,10.47,0,0,0,3.24-9.81,4,4,0,0,0-.9-2c-1.36-1.46-3.84-.83-5.47.32-5.2,3.65-6.65,10.72-6.68,17.07-.53-2.29-.08-4.68-.1-7s-.66-5-2.64-6.22a8,8,0,0,0-4-1c-2.34-.09-4.94.15-6.54,1.86-2,2.12-1.47,5.68.26,8s4.35,3.81,6.77,5.42a14.88,14.88,0,0,1,4.83,4.61,4.09,4.09,0,0,1,.36.83h14.65A41.23,41.23,0,0,0,984.86,754.71Z" transform="translate(0 -0.02)" fill="#6c63ff"></path><path d="M654.73,801.46a11.75,11.75,0,0,0,3.84-5.79c.49-2.3-.49-5-2.68-5.89-2.46-.94-5.09.76-7.08,2.49s-4.28,3.68-6.89,3.32a10.47,10.47,0,0,0,3.24-9.81,4,4,0,0,0-.9-2c-1.37-1.46-3.84-.83-5.48.32-5.2,3.66-6.65,10.72-6.68,17.08-.52-2.29-.08-4.68-.09-7s-.66-5-2.64-6.22a8.08,8.08,0,0,0-4-1c-2.34-.08-4.94.15-6.54,1.86-2,2.13-1.47,5.69.26,8s4.35,3.8,6.76,5.42a15.05,15.05,0,0,1,4.88,4.68,6,6,0,0,1,.36.82h14.64A40.72,40.72,0,0,0,654.73,801.46Z" transform="translate(0 -0.02)" fill="#6c63ff"></path><path d="M948.59,345.16c-13.12-.26-24.7-9.56-31.26-20.84a21,21,0,0,1-3.16-8.92,11.13,11.13,0,0,1,.36-2.14,20.79,20.79,0,0,0,1-3.26,6,6,0,0,0,0-1.34v-.06c.32-2.42-1.1-4.75-2.88-6.42s-3.95-2.88-5.78-4.49c-5.64-4.95-7.35-12.89-7.46-20.45v-.4c.06-3.23.32-6.48.29-9.72a40.57,40.57,0,0,0-.24-5.51c-.54-4.58-2.28-9.24-5.88-12.16-9.39-7.61-25.18.31-34.89-6.89-2.37-1.75-4.28-4.36-7.14-5-2.17-.52-4.42.18-6.53.88-7.16,2.36-15.14,5.47-17.94,12.43-1.6,4-1.15,8.49-2.62,12.51-1,2.69-2.77,5-4.09,7.56a11.81,11.81,0,0,0-1.53,6.31,7.28,7.28,0,0,0,.47,3.36,8.44,8.44,0,0,0,2.32,3.31,11.38,11.38,0,0,1-1.4,2.22c-1.83,2.24-4.64,3.84-6.54,6-3.52,4.08-3.39,9.63-1.65,14.43s4.86,9.17,7,13.84c.93,2,1.68,4.3.71,6.32-.67,1.4-2.07,2.46-3.16,3.67a11.52,11.52,0,0,0-2.86,6.42c-21.43,4.89-21.44,22.1-21.44,22.1h0l-11.56,29.14s-1.85,4.9-4,11.37L763,397l9.46,15.94c-1.81,6.49-3.08,12.51-2.66,15.53,0,0-4.25,20,3.31,23.49l16.7,7.51a9.29,9.29,0,0,0,2.31,1l.68.3a1.78,1.78,0,0,0,1.56,0h.27a2.14,2.14,0,0,0,1-.14,1.79,1.79,0,0,0,.83-.91v-.09l5-1.45,4.24,5c1.91,1.34,3.78,2.51,5.61,3.56l-6.52,65.2s-1.06,86.66-4.25,106.39c-1.19,7.31-1.2,12.29-.75,15.68l-.12.22c.79,5.57,2.84,6.67,2.84,6.67v-.08l.12.08a56.44,56.44,0,0,1,3.43-7.35V655c-.06,7.36-.29,17.65-1,24.34-1.3,11.38,3.31,49.08,3.31,49.08l1.59,34.3a31.68,31.68,0,0,1-3.9,16.7c-3.77,6.85-8.68,16.48-9,20.75,0,.23,0,.47,0,.7h0l-8.36,9.73s-3.2,4.93,4,6.92c3.87,1.08,10.56,0,15.92-1.27a10.64,10.64,0,0,0,8.26-10.35,36.64,36.64,0,0,1,6.82-12.93l1.35,7.89,9,2.23,1.15-21.63a9.41,9.41,0,0,0,.62-3.82h0c1.77-15.38-4.17-14-4.17-14a1,1,0,0,1,.29.54c-.1-.17-.2-.35-.29-.53h0c-3.65-7.2-1.86-19-1.86-19s4.73-34.28,6.39-43.33c1.17-6.39.69-27.33.3-39.06a12.55,12.55,0,0,0,0-1.41c13.93-.18,31-.66,43-1.82v1.42l-2.22,81a44.43,44.43,0,0,1-3.09,15.06c0,.09-.08.18-.11.27a65.59,65.59,0,0,0-4.48,21.19l-1,25.74v.71h0c-1.79.69-4.61,2.68-4.69,8.45-.12,8.45,14.77,5.63,14.77,5.63,14.89,0,15-15.5,15-15.5s.48-14.21,1.18-23.72-2.24-7.41-2.24-7.41l-.22,27v-23.5l.23-3.44v-.1h0l0-.73,1.85-27.9s13.71-46.5,15.84-55.42c1.51-6.33.88-25.43.38-36a10.62,10.62,0,0,0-.06-1.4c4.24-.38,8-.42,9.51-.42h.69s-.71-74.68-2.48-102.86-4.61-53.9-11.71-61.65c-4.28-4.68-10.25-19.14-14.31-29.85a149.54,149.54,0,0,0,26.25,8.6c22.46,4.7,19.39-14.8,19.39-14.8l-2.28-36.87h.15a186.89,186.89,0,0,0-2.48-28.83c-1.18-7.31-3-14.87-5.78-21,2.44-.93,4.84-2,7.2-3,6.1-2.69,13-6.51,13.86-13.09h-.3A9.5,9.5,0,0,0,948.59,345.16ZM809.37,398.5h0c.06,3.81-.09,10.41-.31,17.72l-7.13-9.52,7.15-11.6Zm98.56,33.71-11.88-3.82a53.84,53.84,0,0,1,7.34-9.08l1-1-.37.08.58-.52.34-.08-.55.52.65-.13a20.33,20.33,0,0,0,4.05,8.14c4.24,4.72-1.2,5.89-1.2,5.89Z" transform="translate(0 -0.02)" fill="url(#linear-gradient-5)"></path><polygon points="835.72 774.93 834.32 801.27 825.46 799.06 823.59 788.1 835.72 774.93" fill="#a27772"></polygon><polygon points="835.72 774.93 834.32 801.27 825.46 799.06 823.59 788.1 835.72 774.93" opacity="0.1" style="isolation: isolate"></polygon><path d="M868.24,804.79l13.52,2.8,10-8.86v-25l.22-3.41v-.1h0l0-.72,1.82-27.7s13.52-46.17,15.62-55c1.49-6.29.87-25.26.38-35.74-.2-4.3-.38-7.17-.38-7.17l-29.84-7.23-.63,23-2.18,80.4a44.31,44.31,0,0,1-3.06,14.95l-.1.27a65.33,65.33,0,0,0-4.33,21.07l-1,25.55v.71Z" transform="translate(0 -0.02)" fill="#cc818c"></path><path d="M892,769.56v.71h0l.05-.72Z" transform="translate(0 -0.02)" opacity="0.1" style="isolation: isolate"></path><path d="M868.24,804.79l13.52,2.8,10-8.86v-2.12a2.82,2.82,0,0,1-1.44,2.29l-.14.08A26.86,26.86,0,0,1,875,802l-5.28-.45a5.54,5.54,0,0,0-1.39.34v.71Z" transform="translate(0 -0.02)" opacity="0.1" style="isolation: isolate"></path><path d="M890.21,799.68l.14-.08a2.83,2.83,0,0,0,1.45-2.48l.22-26.86s2.92-2.07,2.22,7.37-1.17,23.55-1.17,23.55-.11,15.39-14.8,15.39c0,0-14.69,2.79-14.58-5.6s6.07-8.74,6.07-8.74l5.27.46A27,27,0,0,0,890.21,799.68Z" transform="translate(0 -0.02)" fill="#b07473"></path><path d="M797.83,799.08c.35,6.06,18.18,2.56,18.18,2.56l12-23.31s10-7.7,5-14.46a10.71,10.71,0,0,1-.74-1.15v-.06h0c-.11-.18-.2-.36-.3-.55h0c-3.6-7.14-1.83-18.85-1.83-18.85s4.66-34,6.3-43c1.15-6.35.68-27.14.29-38.78-.15-4.83-.29-8.09-.29-8.09l-29.62-7.92v8.83c-.06,7.3-.28,17.52-1,24.16-1.28,11.31,3.27,48.73,3.27,48.73l1.57,34.06a31.67,31.67,0,0,1-3.93,16.53c-3.72,6.8-8.56,16.37-8.9,20.61A4,4,0,0,0,797.83,799.08Z" transform="translate(0 -0.02)" fill="#cc818c"></path><path d="M797.83,799.08c.35,6.06,18.18,2.56,18.18,2.56l12-23.31s10-7.7,5-14.46a10.71,10.71,0,0,1-.74-1.15c-.16,3.53-4,12.34-4,12.34s-9.91,19.83-13,24.37-16.85-.84-17.36-1A4.62,4.62,0,0,0,797.83,799.08Z" transform="translate(0 -0.02)" opacity="0.1" style="isolation: isolate"></path><path d="M832,762.09s5.86-1.36,4.12,13.91h0a9.86,9.86,0,0,1-4.65,8.73c-4.19,2.64-10.67,8.31-13.94,19.34h0a10.56,10.56,0,0,1-8.14,10.29c-5.29,1.23-11.89,2.32-15.71,1.25-7.11-2-4-6.87-4-6.87l8.16-9.68s14.22,5.6,17.37,1.05,13-24.37,13-24.37S833.73,763.37,832,762.09Z" transform="translate(0 -0.02)" fill="#b07473"></path><path d="M879.67,639.48l-.63,23c8-.77,13.64-1.85,14.62-3.36,2.09-3.25,9.73-4.63,16.23-5.19-.2-4.3-.38-7.17-.38-7.17Z" transform="translate(0 -0.02)" opacity="0.1" style="isolation: isolate"></path><path d="M806.79,657.06a11.14,11.14,0,0,1,3.27-3.94c3.15-1.75,2.81,11.19,2.81,11.19s10.45.1,23.84-.07c-.15-4.84-.29-8.09-.29-8.09l-29.62-7.92S806.84,651.92,806.79,657.06Z" transform="translate(0 -0.02)" opacity="0.1" style="isolation: isolate"></path><path d="M803.42,660.14s3.5-9.47,6.64-11.21,2.81,11.19,2.81,11.19,76.94.7,80.79-5.25,26.23-5.59,26.23-5.59-.7-74.15-2.45-102.13-4.55-53.51-11.54-61.2c-4.53-5-11-21.09-14.94-31.83-2.17-5.87-3.6-10.14-3.6-10.14l-73.44,4.2-.6,5.94-7.8,78s-1,86-4.2,105.62S803.42,660.14,803.42,660.14Z" transform="translate(0 -0.02)" fill="#444053"></path><g opacity="0.1"><path d="M887.73,654.92c3.84-5.94,26.23-5.59,26.23-5.59s-.7-74.15-2.45-102.13S907,493.69,900,486c-4.53-5-11-21.09-14.94-31.83-1.82-4.93-3.12-8.73-3.49-9.82l5.7-.32s1.43,4.27,3.6,10.14c4,10.74,10.41,26.85,14.94,31.83,7,7.69,9.79,33.22,11.54,61.2s2.41,102.08,2.41,102.08-22.38-.36-26.22,5.64c-3.29,5.08-59.91,5.31-76.35,5.27C838.24,660.09,884.73,659.46,887.73,654.92Z" transform="translate(0 -0.02)"></path><path d="M804.1,648.92c1.42-.79,2.13,1.4,2.48,4a57.29,57.29,0,0,0-3.31,7.16s-2-1.09-2.8-6.62C801.58,651.49,802.87,649.61,804.1,648.92Z" transform="translate(0 -0.02)"></path></g><path d="M826.11,264.58c-5.08,6.94.06,16.79-5.39,23.53-1.8,2.23-4.57,3.82-6.45,6-3.48,4.06-3.34,9.56-1.63,14.33s4.8,9.1,6.92,13.74c.92,2,1.66,4.27.71,6.27-.66,1.39-2,2.44-3.12,3.65-3.5,3.91-3.6,9.35-1.72,13.95s5.49,8.59,9,12.47c1.4,1.54,3.17,3.23,5.5,3.19a7.75,7.75,0,0,0,3.46-1.14A36.45,36.45,0,0,0,851,339.92a36.83,36.83,0,0,0-1.5-25.35c-3-7.07-7.88-13.85-7.92-21.33,0-5.93,3.05-11.59,3.59-17.5.66-7.17-3.59-18.57-12.25-21.7C833.45,258.67,828.73,261.06,826.11,264.58Z" transform="translate(0 -0.02)" fill="#585268"></path><path d="M826.11,264.58c-5.08,6.94.06,16.79-5.39,23.53-1.8,2.23-4.57,3.82-6.45,6-3.48,4.06-3.34,9.56-1.63,14.33s4.8,9.1,6.92,13.74c.92,2,1.66,4.27.71,6.27-.66,1.39-2,2.44-3.12,3.65-3.5,3.91-3.6,9.35-1.72,13.95s5.49,8.59,9,12.47c1.4,1.54,3.17,3.23,5.5,3.19a7.75,7.75,0,0,0,3.46-1.14A36.45,36.45,0,0,0,851,339.92a36.83,36.83,0,0,0-1.5-25.35c-3-7.07-7.88-13.85-7.92-21.33,0-5.93,3.05-11.59,3.59-17.5.66-7.17-3.59-18.57-12.25-21.7C833.45,258.67,828.73,261.06,826.11,264.58Z" transform="translate(0 -0.02)" opacity="0.1" style="isolation: isolate"></path><path d="M882.5,516.7c-10.18.54-19.76,4.91-28.67,9.86s-17.53,10.6-27.12,14.08" transform="translate(0 -0.02)" opacity="0.1" style="isolation: isolate"></path><path d="M876.17,540.68a42.12,42.12,0,0,0-26.44,12.85c-2.47,2.62-4.6,5.56-7.18,8.07a32.07,32.07,0,0,1-14.17,8" transform="translate(0 -0.02)" opacity="0.1" style="isolation: isolate"></path><path d="M878.26,558.92A46.14,46.14,0,0,0,857,571.73c-1.56,1.68-3,3.49-4.54,5.16-8.43,9-20.33,13.85-31.82,18.39" transform="translate(0 -0.02)" opacity="0.1" style="isolation: isolate"></path><path d="M877.39,305.83a210.37,210.37,0,0,0,2.1,24.3c.94,5.74,2.28,10.85,4.2,13.12,5.59,6.65-27.28,15.57-27.28,15.57l-19.41-15s15.39-14.17,8.22-28S877.39,305.83,877.39,305.83Z" transform="translate(0 -0.02)" fill="#cc818c"></path><path d="M813.32,454.12H891c-2.17-5.87-3.6-10.14-3.6-10.14l-73.44,4.2Z" transform="translate(0 -0.02)" opacity="0.1" style="isolation: isolate"></path><path d="M808.32,452.72h83c-2.33-8.34,0-16.07,3.33-22a48.67,48.67,0,0,1,8.69-11.28l.57-.51,29-6.43,1.56-.34s.23-52.69-18.42-59.92-29.85-17-29.85-17l-25.64,7.92-18.89-9.55c-6.06,6.53-22.15,4-22.15,4-26.35,3-26.35,22.85-26.35,22.85s15.39,35.91,16.56,35.91S808.32,452.72,808.32,452.72Z" transform="translate(0 -0.02)" fill="#67647e"></path><path d="M837,419.22s-16.93-3.75-22.69-10.31" transform="translate(0 -0.02)" opacity="0.1" style="isolation: isolate"></path><path d="M922.33,399.56l-19.6,16.09a32.46,32.46,0,0,0,.65,3.78l.57-.51,29-6.43Z" transform="translate(0 -0.02)" opacity="0.1" style="isolation: isolate"></path><path d="M869.17,447.13s4.3,2.42,10.88,5.59h11.28c-2.33-8.34,0-16.07,3.33-22l-19.93-6.45C881.53,430.57,869.17,447.13,869.17,447.13Z" transform="translate(0 -0.02)" opacity="0.1" style="isolation: isolate"></path><path d="M804.82,354.1l-11.66,6.29L781.73,389.3S769.84,421,771,429.41c0,0-4.19,19.81,3.27,23.31l19.46,8.8a1.8,1.8,0,0,0,2.33-2.49c-2.77-5.25-5.81-13.45-1-18l-5.6-11.65,20.27-33.08,6.75-11.38Z" transform="translate(0 -0.02)" fill="#67647e"></path><path d="M830.73,412.6c1,4.12,4.42,10.45,15.7,12.84l12.42,10.14,13.17,6,5.36,2.43,2.28-16.44-5.17-2.83-6-3.29s-13.59-24.64-35.12-14.23A4.77,4.77,0,0,0,830.73,412.6Z" transform="translate(0 -0.02)" opacity="0.1" style="isolation: isolate"></path><path d="M831.44,411.2c1,4.12,4.42,10.45,15.7,12.84l12.42,10.15,13.17,6,5.36,2.43,2.28-16.44-5.17-2.82-6-3.3s-13.59-24.63-35.12-14.23A4.78,4.78,0,0,0,831.44,411.2Z" transform="translate(0 -0.02)" fill="#cc818c"></path><circle cx="855.7" cy="297.07" r="30.08" opacity="0.1" style="isolation: isolate"></circle><circle cx="855.7" cy="296.37" r="30.08" fill="#cc818c"></circle><path d="M874.33,360.65l-9-17.58s13.24-5.34,14.2-11.54,12.68,7.26,10.14,11.72S874.33,360.65,874.33,360.65Z" transform="translate(0 -0.02)" opacity="0.1" style="isolation: isolate"></path><path d="M874.33,359.25l-9-17.58s13.24-5.34,14.2-11.54,12.68,7.27,10.14,11.72S874.33,359.25,874.33,359.25Z" transform="translate(0 -0.02)" fill="#67647e"></path><path d="M800.32,404.65l50,67.19s-18.42,10-43.84-7.93l-11-13.05-31.25-52.7Z" transform="translate(0 -0.02)" fill="#f6f8fb"></path><path d="M790.48,441.18l4.55-.12s27.8-27,34.62-13.34-17.31,26.4-17.31,26.4l-7.34,4-9.62,2.8-6.12-8.22Z" transform="translate(0 -0.02)" fill="#cc818c"></path><path d="M797.19,455.76c.42,1.55.82,3.26.12,4.7a1.78,1.78,0,0,1-.83.9,2,2,0,0,1-1,.14,9.57,9.57,0,0,1-6.27-3.11,28.31,28.31,0,0,1-4.07-5.88c-1.24-2.15-2.53-4.55-2.08-7,.49-2.68,2.88-4.54,5.16-6,4.61-3.05,4.72.5,5.77,4.42Z" transform="translate(0 -0.02)" opacity="0.1" style="isolation: isolate"></path><path d="M796.49,455.76c.42,1.55.82,3.26.12,4.7a1.78,1.78,0,0,1-.83.9,2,2,0,0,1-1,.14,9.57,9.57,0,0,1-6.27-3.11,28.31,28.31,0,0,1-4.07-5.88c-1.24-2.15-2.53-4.55-2.08-7,.49-2.68,2.88-4.54,5.16-6,4.61-3.05,4.72.5,5.77,4.42Z" transform="translate(0 -0.02)" fill="#67647e"></path><polygon points="809.72 396.28 812.05 392.35 810.01 399.65 809.72 396.28" opacity="0.1" style="isolation: isolate"></polygon><path d="M872.73,440.15l5.36,2.43,2.28-16.44-5.17-2.82C878.73,427.38,875.64,434.92,872.73,440.15Z" transform="translate(0 -0.02)" opacity="0.1" style="isolation: isolate"></path><path d="M894.24,421.07s-17.31,1.05-24.65-3.67" transform="translate(0 -0.02)" opacity="0.1" style="isolation: isolate"></path><g opacity="0.1"><path d="M892.09,432.11a48.44,48.44,0,0,1,8.7-11.28,22.67,22.67,0,0,1,2.56-1.4l27-5.54,1.56-.34s.24-52.69-18.42-59.92a112.62,112.62,0,0,1-29.09-16.39l2.05-.63s11.19,9.79,29.84,17,18.44,59.94,18.44,59.94h-2.8l-27.64,5.29-1.56,1.49A53.13,53.13,0,0,0,893.9,432a29.27,29.27,0,0,0-2.31,22.12h-2.86C886.43,445.78,888.8,438.05,892.09,432.11Z" transform="translate(0 -0.02)"></path><path d="M818.4,339.12c.45-.06.88-.13,1.34-.18a49.57,49.57,0,0,0,5.71.47A51.9,51.9,0,0,1,818.4,339.12Z" transform="translate(0 -0.02)"></path><path d="M858,344.53l-17.08-8.61a9.55,9.55,0,0,0,1-.91l17.82,9Z" transform="translate(0 -0.02)"></path></g><path d="M923,398.16l11.43,14,2.33,38s3,19.35-19.12,14.69-47.8-19.12-47.8-19.12,12.36-16.56,5.6-22.85l31.71,10.26s5.36-1.17,1.16-5.83-4.94-13.06-4.94-13.06Z" transform="translate(0 -0.02)" fill="#67647e"></path><path d="M928.16,438.27l6.3,7.22A9.07,9.07,0,0,1,928.16,438.27Z" transform="translate(0 -0.02)" opacity="0.1" style="isolation: isolate"></path><polygon points="917.44 437.08 927.23 449.67 922.34 450.84 917.44 437.08" opacity="0.1" style="isolation: isolate"></polygon><path d="M819.79,282.58c-1.08-2.63-.26-5.67,1-8.2s3.07-4.83,4-7.51c1.45-4,1-8.48,2.58-12.42,2.77-6.9,10.64-10,17.7-12.33,2.08-.69,4.3-1.39,6.44-.88,2.82.68,4.71,3.27,7,5,9.58,7.14,25.15-.72,34.41,6.84,3.55,2.89,5.27,7.53,5.8,12.07s0,9.15-.05,13.73c-.15,8,1.34,16.78,7.35,22.09,1.81,1.6,3.94,2.81,5.7,4.46s3.15,4,2.84,6.37a21.54,21.54,0,0,1-1,3.23c-1.2,4.18.58,8.61,2.75,12.38,6.48,11.2,17.89,20.43,30.84,20.69-.87,6.53-7.65,10.32-13.67,13-7.67,3.41-15.73,6.76-24.11,6.33s-17.12-5.79-18.61-14c-.51-2.83-.44-6.3-2.9-7.79-1.48-.9-3.4-.67-5-1.35-2.31-1-3.46-3.54-4.22-5.94a53.64,53.64,0,0,1-2.49-15.24c-.1-6.13.72-12.82-2.76-17.87-3.22-4.67-8.94-7-12.65-11.34-3.42-4-7.15-8.78-12.76-9.54C840.44,283.27,824.38,293.82,819.79,282.58Z" transform="translate(0 -0.02)" opacity="0.1" style="isolation: isolate"></path><path d="M819.79,281.18c-1.08-2.63-.26-5.67,1-8.2s3.07-4.83,4-7.51c1.45-4,1-8.48,2.58-12.42,2.77-6.9,10.64-10,17.7-12.33,2.08-.69,4.3-1.39,6.44-.88,2.82.68,4.71,3.27,7,5,9.58,7.15,25.15-.72,34.41,6.84,3.55,2.9,5.27,7.53,5.8,12.07s0,9.15-.05,13.73c-.15,8,1.34,16.78,7.35,22.09,1.81,1.6,3.94,2.81,5.7,4.46s3.15,4,2.84,6.37a21.66,21.66,0,0,1-1,3.24c-1.2,4.17.58,8.61,2.75,12.37,6.48,11.2,17.89,20.43,30.84,20.69-.87,6.53-7.65,10.32-13.67,13-7.67,3.42-15.73,6.76-24.11,6.33s-17.12-5.79-18.61-14c-.51-2.83-.44-6.3-2.9-7.79-1.48-.9-3.4-.67-5-1.35-2.31-1-3.46-3.54-4.22-5.94a53.64,53.64,0,0,1-2.49-15.24c-.1-6.13.72-12.82-2.76-17.87-3.22-4.67-8.94-7-12.65-11.34-3.42-4-7.15-8.78-12.76-9.54C840.44,281.92,824.38,292.42,819.79,281.18Z" transform="translate(0 -0.02)" fill="#585268"></path><path d="M841.11,358.47l17.24-14s-11.8-6.4-13.21-11.86-10.85,2.59-9.89,7.49S841.11,358.47,841.11,358.47Z" transform="translate(0 -0.02)" opacity="0.1" style="isolation: isolate"></path><path d="M841.81,356.37l17.24-14s-11.8-6.4-13.21-11.86S835,333.1,836,338,841.81,356.37,841.81,356.37Z" transform="translate(0 -0.02)" fill="#67647e"></path><circle cx="859.72" cy="354.07" r="1.37" opacity="0.1" style="isolation: isolate"></circle><circle cx="859.72" cy="361.69" r="1.37" opacity="0.1" style="isolation: isolate"></circle><circle cx="859.72" cy="369.3" r="1.37" opacity="0.1" style="isolation: isolate"></circle><g opacity="0.1"><path d="M826.73,261.75c1.36-3.75,1.07-7.95,2.34-11.72a13.89,13.89,0,0,0-1.45,2.68c-1.58,3.94-1.14,8.44-2.58,12.43,0,.07-.07.15-.1.23A22.15,22.15,0,0,0,826.73,261.75Z" transform="translate(0 -0.02)"></path><path d="M935.52,356c-7.67,3.42-15.73,6.76-24.12,6.33s-17.11-5.79-18.6-14.05c-.51-2.83-.44-6.3-2.9-7.79-1.48-.9-3.4-.67-5-1.35-2.32-1-3.46-3.54-4.22-5.94a53.78,53.78,0,0,1-2.49-15.26c-.1-6.13.71-12.82-2.76-17.87-3.22-4.67-8.94-7-12.65-11.34-3.43-4-7.15-8.78-12.77-9.54-7.7-1-23.77,9.5-28.35-1.74a8.85,8.85,0,0,1,.29-6.5c-.33.56-.65,1.12-.94,1.69-1.3,2.53-2.12,5.57-1,8.2,4.59,11.24,20.65.69,28.36,1.74,5.61.76,9.34,5.57,12.77,9.54,3.71,4.3,9.42,6.67,12.64,11.35,3.48,5,2.67,11.74,2.77,17.86A53.35,53.35,0,0,0,879,336.56c.76,2.39,1.91,5,4.22,5.94,1.6.67,3.52.45,5,1.35,2.45,1.48,2.39,5,2.89,7.78,1.49,8.26,10.23,13.63,18.61,14.06s16.45-2.92,24.11-6.34c5.52-2.45,11.67-5.86,13.32-11.44C944.5,351.58,939.82,354.07,935.52,356Z" transform="translate(0 -0.02)"></path></g></svg> 