<?xml version="1.0" encoding="UTF-8"?> <svg xmlns="http://www.w3.org/2000/svg" id="Layer_1" data-name="Layer 1" viewBox="0 0 664.97 670.28"><title>home-illustration</title><path d="M365.54,580.8c-32.82,24-81.76,24.3-125.34,12.32s-81.83-36.28-88.8-66.19,17.46-65.58,35.4-106.8,29.3-88,55.43-99.29,67.2,12.86,101.32,42.23,61.31,63.89,66.53,105S398.43,556.78,365.54,580.8Z" transform="translate(-150.2 -246.65)" fill="#05669b"></path><path d="M782.4,660.41c-23.66,17.26-58.93,17.51-90.34,8.87s-59-26.14-64-47.7,12.59-47.27,25.51-77,21.13-63.41,39.95-71.55,48.44,9.26,73,30.43,44.19,46,48,75.66S806.11,643.09,782.4,660.41Z" transform="translate(-150.2 -246.65)" fill="#05669b"></path><g><g><path d="M391.26,855.64a1,1,0,0,1,.33,0c-.07.06-.12.15-.18.16a1.65,1.65,0,0,1-.3,0C391.16,855.74,391.2,855.65,391.26,855.64Z" transform="translate(-150.2 -246.65)" fill="#3a3768"></path><path d="M482.75,268a2.55,2.55,0,0,1,2.18-2.11,7,7,0,0,1,1.45-.12h23.5a6.9,6.9,0,0,1,1.76.21,2.65,2.65,0,0,1,2,2.34,2.48,2.48,0,0,1-1.72,2.49,10.16,10.16,0,0,1-2.85.45l-5,0H492c-1.67,0-3.35,0-5,0a7.58,7.58,0,0,1-2.67-.51A2.48,2.48,0,0,1,482.75,268Z" transform="translate(-150.2 -246.65)" fill="#3a3768"></path><path d="M522.26,268.65a4.15,4.15,0,0,1,4-4.42,4.23,4.23,0,0,1,4.36,4.08,4.13,4.13,0,0,1-4.1,4.28A4,4,0,0,1,522.26,268.65Z" transform="translate(-150.2 -246.65)" fill="#3a3768"></path><path d="M605.63,855.67a.38.38,0,0,0,0,.1h-.72a.31.31,0,0,0,0-.1Z" transform="translate(-150.2 -246.65)" fill="#3a3768"></path><path d="M632.56,291.42q0,130.66,0,261.32,0,130.5,0,261a70.43,70.43,0,0,1-.37,7.12A24.7,24.7,0,0,1,626,835.2a22.42,22.42,0,0,1-10.89,6.74,43.16,43.16,0,0,1-9.27,1.38c-10.6.55-21.19.24-31.79.24q-88.89.08-177.78,0a63.87,63.87,0,0,1-12.42-1,23.4,23.4,0,0,1-15.54-10,26.42,26.42,0,0,1-4.35-13.76c-.19-4.31-.33-8.64-.33-13q0-255.72,0-511.44a82.2,82.2,0,0,1,.72-11,23.2,23.2,0,0,1,12-17.91,27.63,27.63,0,0,1,12.26-3.32c12.21-.69,24.43-.16,36.64-.31a8.71,8.71,0,0,1,1.77.17,3.92,3.92,0,0,1,3.4,3.78c.13,1.23.2,2.48.41,3.7a13.67,13.67,0,0,0,13.3,11.77c.7,0,1.4,0,2.11,0q52,0,104,0a22.79,22.79,0,0,0,4.67-.41A13.82,13.82,0,0,0,565.7,268a16.53,16.53,0,0,1,.5-3.35,3.18,3.18,0,0,1,2.71-2.48,14.73,14.73,0,0,1,2.57-.26c10.6,0,21.2-.11,31.79,0a47.08,47.08,0,0,1,10.12,1.15c10.24,2.43,16.35,9,18.44,19.29A45.43,45.43,0,0,1,632.56,291.42Z" transform="translate(-150.2 -246.65)" fill="#3a3768"></path><g id="M2oks1.tif"><g><path d="M391.26,855.64c-.06,0-.1.1-.15.16a1.65,1.65,0,0,0,.3,0c.06,0,.11-.1.18-.16A1,1,0,0,0,391.26,855.64Zm214.37,0h-.72a.31.31,0,0,1,0,.1h.72A.38.38,0,0,1,605.63,855.67Zm26.2-573.28c-2.09-10.3-8.2-16.86-18.44-19.29A47.08,47.08,0,0,0,603.27,262c-10.59-.15-21.19-.06-31.79,0a14.73,14.73,0,0,0-2.57.26,3.18,3.18,0,0,0-2.71,2.48,16.53,16.53,0,0,0-.5,3.35,13.82,13.82,0,0,1-10.86,12.92,22.79,22.79,0,0,1-4.67.41q-52,0-104,0c-.71,0-1.41,0-2.11,0a13.67,13.67,0,0,1-13.3-11.77c-.21-1.22-.28-2.47-.41-3.7a3.92,3.92,0,0,0-3.4-3.78,8.71,8.71,0,0,0-1.77-.17c-12.21.15-24.43-.38-36.64.31a27.63,27.63,0,0,0-12.26,3.32,23.2,23.2,0,0,0-12,17.91,82.2,82.2,0,0,0-.72,11q0,255.72,0,511.44c0,4.32.14,8.65.33,13a26.42,26.42,0,0,0,4.35,13.76,23.4,23.4,0,0,0,15.54,10,63.87,63.87,0,0,0,12.42,1q88.89,0,177.78,0c10.6,0,21.19.31,31.79-.24a43.16,43.16,0,0,0,9.27-1.38A22.42,22.42,0,0,0,626,835.2a24.7,24.7,0,0,0,6.2-14.35,70.43,70.43,0,0,0,.37-7.12q0-130.49,0-261t0-261.32A45.43,45.43,0,0,0,631.83,282.39Zm-105.32-9.8a4.13,4.13,0,0,0,4.1-4.28,4.23,4.23,0,0,0-4.36-4.08,4.15,4.15,0,0,0-4,4.42A4,4,0,0,0,526.51,272.59Zm-42.2-1.82a7.58,7.58,0,0,0,2.67.51c1.67,0,3.35,0,5,0h12l5,0a10.16,10.16,0,0,0,2.85-.45,2.48,2.48,0,0,0,1.72-2.49,2.65,2.65,0,0,0-2-2.34,6.9,6.9,0,0,0-1.76-.21h-23.5a7,7,0,0,0-1.45.12,2.55,2.55,0,0,0-2.18,2.11A2.48,2.48,0,0,0,484.31,270.77Z" transform="translate(-150.2 -246.65)" fill="#fff"></path><path d="M610.28,246.65H386.22a37,37,0,0,0-37,37v543.6a37,37,0,0,0,37,37H610.28a37,37,0,0,0,37-37V283.64A37,37,0,0,0,610.28,246.65Zm22.27,306.09q0,130.5,0,261a70.43,70.43,0,0,1-.37,7.12A24.7,24.7,0,0,1,626,835.2a22.42,22.42,0,0,1-10.89,6.74,43.16,43.16,0,0,1-9.27,1.38c-10.6.55-21.19.24-31.79.24q-88.89.08-177.78,0a63.87,63.87,0,0,1-12.42-1,23.4,23.4,0,0,1-15.54-10,26.42,26.42,0,0,1-4.35-13.76c-.19-4.31-.33-8.64-.33-13q0-255.72,0-511.44a82.2,82.2,0,0,1,.72-11,23.2,23.2,0,0,1,12-17.91,27.63,27.63,0,0,1,12.26-3.32c12.21-.69,24.43-.16,36.64-.31a8.71,8.71,0,0,1,1.77.17,3.92,3.92,0,0,1,3.4,3.78c.13,1.23.2,2.48.41,3.7a13.67,13.67,0,0,0,13.3,11.77c.7,0,1.4,0,2.11,0q52,0,104,0a22.79,22.79,0,0,0,4.67-.41A13.82,13.82,0,0,0,565.7,268a16.53,16.53,0,0,1,.5-3.35,3.18,3.18,0,0,1,2.71-2.48,14.73,14.73,0,0,1,2.57-.26c10.6,0,21.2-.11,31.79,0a47.08,47.08,0,0,1,10.12,1.15c10.24,2.43,16.35,9,18.44,19.29a45.43,45.43,0,0,1,.73,9Q632.53,422.08,632.55,552.74ZM530.61,268.31a4.13,4.13,0,0,1-4.1,4.28,4,4,0,0,1-4.25-3.94,4.15,4.15,0,0,1,4-4.42A4.23,4.23,0,0,1,530.61,268.31Zm-19-2.3a2.65,2.65,0,0,1,2,2.34,2.48,2.48,0,0,1-1.72,2.49,10.16,10.16,0,0,1-2.85.45l-5,0H492c-1.67,0-3.35,0-5,0a7.58,7.58,0,0,1-2.67-.51,2.48,2.48,0,0,1-1.56-2.74,2.55,2.55,0,0,1,2.18-2.11,7,7,0,0,1,1.45-.12h23.5A6.9,6.9,0,0,1,511.64,266ZM391.41,855.84a1.65,1.65,0,0,1-.3,0c.05-.06.09-.15.15-.16a1,1,0,0,1,.33,0C391.52,855.74,391.47,855.83,391.41,855.84Zm213.51-.07a.31.31,0,0,0,0-.1h.72a.38.38,0,0,0,0,.1Z" transform="translate(-150.2 -246.65)" fill="#3a3768"></path><path d="M605.64,855.77h-.72a.31.31,0,0,0,0-.1h.72A.38.38,0,0,0,605.64,855.77Z" transform="translate(-150.2 -246.65)"></path><path d="M391.59,855.68c-.07.06-.12.15-.18.16a1.65,1.65,0,0,1-.3,0c.05-.06.09-.15.15-.16A1,1,0,0,1,391.59,855.68Z" transform="translate(-150.2 -246.65)"></path><path d="M631.83,282.39c-2.09-10.3-8.2-16.86-18.44-19.29A47.08,47.08,0,0,0,603.27,262c-10.59-.15-21.19-.06-31.79,0a14.73,14.73,0,0,0-2.57.26,3.18,3.18,0,0,0-2.71,2.48,16.53,16.53,0,0,0-.5,3.35,13.82,13.82,0,0,1-10.86,12.92,22.79,22.79,0,0,1-4.67.41q-52,0-104,0c-.71,0-1.41,0-2.11,0a13.67,13.67,0,0,1-13.3-11.77c-.21-1.22-.28-2.47-.41-3.7a3.92,3.92,0,0,0-3.4-3.78,8.71,8.71,0,0,0-1.77-.17c-12.21.15-24.43-.38-36.64.31a27.63,27.63,0,0,0-12.26,3.32,23.2,23.2,0,0,0-12,17.91,82.2,82.2,0,0,0-.72,11q0,255.72,0,511.44c0,4.32.14,8.65.33,13a26.42,26.42,0,0,0,4.35,13.76,23.4,23.4,0,0,0,15.54,10,63.87,63.87,0,0,0,12.42,1q88.89,0,177.78,0c10.6,0,21.19.31,31.79-.24a43.16,43.16,0,0,0,9.27-1.38A22.42,22.42,0,0,0,626,835.2a24.7,24.7,0,0,0,6.2-14.35,70.43,70.43,0,0,0,.37-7.12q0-130.49,0-261t0-261.32A45.43,45.43,0,0,0,631.83,282.39Zm-233.84-4c0-.09.16-.2.3-.35.11.18.26.3.25.41s-.2.26-.29.24A.4.4,0,0,1,398,278.38Zm9.91-4.64c.47-.21,1.09-.56,1.44-.4s.55.88.57,1.36c.06,1.4,0,2.81,0,4.21a3.74,3.74,0,0,1-.35.9c-1-1.87-.09-3.73-.83-5.46l-1.4.11C407.59,274.11,407.7,273.83,407.9,273.74Zm-6.8,3a23,23,0,0,1,1.77-2.89,1.59,1.59,0,0,1,1.2-.56c.23,0,.56.59.63,1a28.68,28.68,0,0,1,.52,3.8,3,3,0,0,1-.46,1.26c-1.14-.37-2-.68-2.81-.89C400.81,278.15,400.56,277.77,401.1,276.73Zm-2.93-2.37.42.27a1.63,1.63,0,0,1-.41.26c-.06,0-.22-.14-.21-.18A1.56,1.56,0,0,1,398.17,274.36Zm-7.16.21a2.09,2.09,0,0,1,2-1.56,2.48,2.48,0,0,1,2.32,1.19,4.58,4.58,0,0,1,0,4.61c-1,1.5-2.83,1.57-4.17-.07.53.14.85.2,1.14.3,1,.38,1.67.29,2.17-.39a1.48,1.48,0,0,0-.05-2.17l-.05,0c-1,.87-1.59,1-2.41.56A2.2,2.2,0,0,1,391,274.57Zm212,1c.13-1.14.48-1.59,1.63-1.61q4.62-.09,9.24,0c1.13,0,1.51.49,1.65,1.61a6.93,6.93,0,0,1,0,1.29c-.08,1.41-.46,1.81-1.9,1.87s-3,0-4.54,0h0c-1.3,0-2.6,0-3.89,0-1.86-.05-2.24-.47-2.26-2.36A7.31,7.31,0,0,1,603.05,275.58Zm-13.49,1.53c.3-1.58,1.43-1.66,2.43-1.77a2.8,2.8,0,0,1,2.87,1.17c-.2.19-.29.33-.35.32A9.82,9.82,0,0,0,589.56,277.11Zm2.78,2.29c-.51,0-.79-.26-.88-1H593C593.15,279.11,592.82,279.36,592.34,279.4Zm-.4-6.75c2.26-.11,4.14.75,4.8,2.31-.33,0-.69.15-.88,0a6.62,6.62,0,0,0-7.35.06c-.11.07-.31,0-.62,0C588.34,273.6,589.86,272.74,591.94,272.65Zm-10.51,1.24c0-.22.48-.65.58-.61.3.12.68.41.73.69a19.36,19.36,0,0,1,0,5c0,.3-.42.54-.64.81-.25-.24-.7-.47-.71-.72C581.36,277.32,581.37,275.6,581.43,273.89Zm-3.2,1.48c0-.18.39-.5.55-.47s.62.3.67.53a13.55,13.55,0,0,1,.22,1.88,12.44,12.44,0,0,1-.19,1.78.93.93,0,0,1-.61.61c-.21,0-.65-.31-.66-.51C578.16,277.92,578.18,276.64,578.23,275.37Zm-2.65,1.11c.53,0,.82.6.78,1.71,0,.62.08,1.51-.77,1.51s-.7-.9-.79-1.4C574.78,277.1,575.06,276.49,575.58,276.48Zm-3.92,2.29c.06-.35.4-.66.61-1l1.07,1c-.41.45-.63.93-.93,1C571.77,279.83,571.58,279.26,571.66,278.77Z" transform="translate(-150.2 -246.65)" fill="#1fbaed"></path><path d="M513.59,268.35a2.48,2.48,0,0,1-1.72,2.49,10.16,10.16,0,0,1-2.85.45l-5,0-6,0h-6c-1.67,0-3.35,0-5,0a7.58,7.58,0,0,1-2.67-.51,2.48,2.48,0,0,1-1.56-2.74,2.55,2.55,0,0,1,2.18-2.11,7,7,0,0,1,1.45-.12h23.5a6.9,6.9,0,0,1,1.76.21A2.65,2.65,0,0,1,513.59,268.35Z" transform="translate(-150.2 -246.65)" fill="#fff"></path><path d="M530.61,268.31a4.13,4.13,0,0,1-4.1,4.28,4,4,0,0,1-4.25-3.94,4.15,4.15,0,0,1,4-4.42A4.23,4.23,0,0,1,530.61,268.31Z" transform="translate(-150.2 -246.65)" fill="#fff"></path><path d="M609.17,278.76c-1.3,0-2.6,0-3.89,0-1.86-.05-2.24-.47-2.26-2.36a7.31,7.31,0,0,1,0-.81c.13-1.14.48-1.59,1.63-1.61q4.62-.09,9.24,0c1.13,0,1.51.49,1.65,1.61a6.93,6.93,0,0,1,0,1.29c-.08,1.41-.46,1.81-1.9,1.87s-3,0-4.54,0Z" transform="translate(-150.2 -246.65)" fill="#0072bb"></path><path d="M394.38,276.53c-1,.87-1.59,1-2.41.56a2.2,2.2,0,0,1-1-2.52,2.09,2.09,0,0,1,2-1.56,2.48,2.48,0,0,1,2.32,1.19,4.58,4.58,0,0,1,0,4.61c-1,1.5-2.83,1.57-4.17-.07.53.14.85.2,1.14.3,1,.38,1.67.29,2.17-.39a1.48,1.48,0,0,0-.05-2.17,5.68,5.68,0,0,0,.35-1.23,1.51,1.51,0,0,0-1.53-1.54,1.53,1.53,0,0,0-1.49,1.42,1.5,1.5,0,0,0,1.35,1.55A6.12,6.12,0,0,0,394.38,276.53Z" transform="translate(-150.2 -246.65)" fill="#0072bb"></path><path d="M587.89,275.05c.45-1.45,2-2.31,4.05-2.4,2.26-.11,4.14.75,4.8,2.31-.33,0-.69.15-.88,0a6.62,6.62,0,0,0-7.35.06C588.4,275.11,588.2,275.05,587.89,275.05Z" transform="translate(-150.2 -246.65)" fill="#0072bb"></path><path d="M404.76,279.31c-1.14-.37-2-.68-2.81-.89-1.14-.27-1.39-.65-.85-1.69a23,23,0,0,1,1.77-2.89,1.59,1.59,0,0,1,1.2-.56c.23,0,.56.59.63,1a28.68,28.68,0,0,1,.52,3.8A3,3,0,0,1,404.76,279.31Zm-3.12-1.84c1.39.35,1.83.28,2.2-.29a2.72,2.72,0,0,0-.32-2.86A5.48,5.48,0,0,0,401.64,277.47Z" transform="translate(-150.2 -246.65)" fill="#0072bb"></path><path d="M582.91,276.43a24.21,24.21,0,0,1-.15,2.51c0,.3-.42.54-.64.81-.25-.24-.7-.47-.71-.72,0-1.71,0-3.43,0-5.14,0-.22.48-.65.58-.61.3.12.68.41.73.69A24.05,24.05,0,0,1,582.91,276.43Z" transform="translate(-150.2 -246.65)" fill="#0072bb"></path><path d="M579.67,277.31a12.44,12.44,0,0,1-.19,1.78.93.93,0,0,1-.61.61c-.21,0-.65-.31-.66-.51-.05-1.27,0-2.55,0-3.82,0-.18.39-.5.55-.47s.62.3.67.53A13.55,13.55,0,0,1,579.67,277.31Z" transform="translate(-150.2 -246.65)" fill="#0072bb"></path><path d="M408.7,274.35l-1.4.11c.29-.35.4-.63.6-.72.47-.21,1.09-.56,1.44-.4s.55.88.57,1.36c.06,1.4,0,2.81,0,4.21a3.74,3.74,0,0,1-.35.9C408.53,277.94,409.44,276.08,408.7,274.35Z" transform="translate(-150.2 -246.65)" fill="#0072bb"></path><path d="M594.86,276.51c-.2.19-.29.33-.35.32a9.82,9.82,0,0,0-5,.28c.3-1.58,1.43-1.66,2.43-1.77A2.8,2.8,0,0,1,594.86,276.51Z" transform="translate(-150.2 -246.65)" fill="#0072bb"></path><path d="M574.8,278.3c0-1.2.26-1.81.78-1.82s.82.6.78,1.71c0,.62.08,1.51-.77,1.51S574.89,278.8,574.8,278.3Z" transform="translate(-150.2 -246.65)" fill="#0072bb"></path><path d="M573.34,278.74c-.41.45-.63.93-.93,1-.64.11-.83-.46-.75-1s.4-.66.61-1Z" transform="translate(-150.2 -246.65)" fill="#0072bb"></path><path d="M591.46,278.38H593c.14.73-.19,1-.67,1S591.55,279.14,591.46,278.38Z" transform="translate(-150.2 -246.65)" fill="#0072bb"></path><path d="M398.29,278c.11.18.26.3.25.41s-.2.26-.29.24a.4.4,0,0,1-.26-.3C398,278.29,398.15,278.18,398.29,278Z" transform="translate(-150.2 -246.65)" fill="#0072bb"></path><path d="M398.59,274.63a1.63,1.63,0,0,1-.41.26c-.06,0-.22-.14-.21-.18a1.56,1.56,0,0,1,.2-.35Z" transform="translate(-150.2 -246.65)" fill="#0072bb"></path><path d="M394.38,276.53a6.12,6.12,0,0,1-1.27.15,1.5,1.5,0,0,1-1.35-1.55,1.53,1.53,0,0,1,1.49-1.42,1.51,1.51,0,0,1,1.53,1.54,5.68,5.68,0,0,1-.35,1.23Z" transform="translate(-150.2 -246.65)" fill="#1fbaed"></path><path d="M401.64,277.47a5.48,5.48,0,0,1,1.88-3.15,2.72,2.72,0,0,1,.32,2.86C403.47,277.75,403,277.82,401.64,277.47Z" transform="translate(-150.2 -246.65)" fill="#1fbaed"></path></g></g></g><g><rect x="226.6" y="71.68" width="76.35" height="80.45" fill="#fff"></rect><rect x="356.68" y="171.36" width="76.35" height="80.45" fill="#fff"></rect><rect x="247.1" y="273.87" width="76.35" height="80.45" fill="#0072bb"></rect><rect x="259.12" y="261.85" width="76.35" height="80.45" fill="#fff"></rect><rect x="247.1" y="465.45" width="76.35" height="80.45" fill="#0072bb"></rect><rect x="356.68" y="372.13" width="76.35" height="80.45" fill="#0072bb"></rect><path d="M433.86,334.73H396.09a5.16,5.16,0,0,0-5.15,5.15v37.77a5.15,5.15,0,0,0,5.15,5.15h14.73V366.46h-6.76v-7.69h6.76V352.9c0-6.66,4-10.35,10.05-10.35a41,41,0,0,1,6,.52v6.55h-3.36c-3.3,0-4.34,2.05-4.34,4.15v5h7.39l-1.19,7.69h-6.2V382.8h14.73a5.14,5.14,0,0,0,5.15-5.15V339.88A5.15,5.15,0,0,0,433.86,334.73Z" transform="translate(-150.2 -246.65)" fill="#6c63ff"></path><path d="M545.39,445.23a12.88,12.88,0,1,0,12.88,12.88A12.86,12.86,0,0,0,545.39,445.23Zm0,21.26a8.38,8.38,0,1,1,8.37-8.38,8.4,8.4,0,0,1-8.37,8.38Zm16.41-21.78a3,3,0,1,1-3-3A3,3,0,0,1,561.8,444.71Zm8.53,3.05c-.19-4-1.11-7.59-4.06-10.53s-6.5-3.86-10.53-4.06-16.57-.23-20.72,0-7.58,1.11-10.53,4.05-3.85,6.5-4,10.53-.24,16.57,0,20.72,1.1,7.59,4,10.53,6.5,3.85,10.53,4.06,16.58.23,20.72,0,7.59-1.11,10.53-4.06,3.86-6.5,4.06-10.53.23-16.57,0-20.71ZM565,472.92a8.48,8.48,0,0,1-4.78,4.78c-3.3,1.31-11.15,1-14.8,1s-11.51.29-14.81-1a8.51,8.51,0,0,1-4.78-4.78c-1.31-3.31-1-11.15-1-14.81s-.3-11.51,1-14.8a8.51,8.51,0,0,1,4.78-4.78c3.31-1.31,11.15-1,14.81-1s11.51-.29,14.8,1a8.51,8.51,0,0,1,4.78,4.78c1.31,3.3,1,11.15,1,14.8S566.28,469.63,565,472.92Z" transform="translate(-150.2 -246.65)" fill="#6c63ff"></path><path d="M467,539.69c0,.42,0,.85,0,1.27,0,12.88-9.8,27.71-27.71,27.71a27.56,27.56,0,0,1-15-4.37,20.21,20.21,0,0,0,2.35.12,19.51,19.51,0,0,0,12.09-4.16,9.75,9.75,0,0,1-9.1-6.76,12.24,12.24,0,0,0,1.84.15,10.39,10.39,0,0,0,2.56-.33,9.74,9.74,0,0,1-7.81-9.56v-.12a9.69,9.69,0,0,0,4.4,1.24,9.77,9.77,0,0,1-3-13A27.7,27.7,0,0,0,447.76,542a11,11,0,0,1-.24-2.23,9.75,9.75,0,0,1,16.86-6.66,19.26,19.26,0,0,0,6.18-2.35,9.66,9.66,0,0,1-4.28,5.36,19.62,19.62,0,0,0,5.61-1.5,21,21,0,0,1-4.89,5Z" transform="translate(-150.2 -246.65)" fill="#6c63ff"></path><rect x="526.08" y="610.88" width="76.35" height="80.45" transform="translate(-445.33 343.05) rotate(-45)" fill="#fff"></rect><path d="M577.3,628.77a.62.62,0,0,1,1-.36L592.89,643a4.85,4.85,0,0,1,0,6.87L563,679.71a4.85,4.85,0,0,1-6.86,0l-14.55-14.55a.6.6,0,0,1,.36-1c2.84-.37,6.55-.93,19.15-3,2.61-.42,7.48-.67,10-3.23s2.84-7.51,3.24-10C576.39,635.33,576.93,631.62,577.3,628.77Zm-8.48,26.89c1.69-1.64,2-6.14,2.32-8.22,2.67-16.38,2.8-17.71,3.29-21.61a2.42,2.42,0,0,0-.69-2l-1.35-1.35a4.84,4.84,0,0,0-6.86,0l-29.88,29.87a4.87,4.87,0,0,0,0,6.87l1.36,1.35a2.38,2.38,0,0,0,2,.68c3.9-.49,5.23-.61,21.62-3.29,2.07-.33,6.58-.63,8.22-2.32Z" transform="translate(-150.2 -246.65)" fill="#6c63ff"></path></g></g><g><path d="M508.93,649.26c.77-.35,2.4,1.66,3.16,2.59,1.49,1.82,1.51,2.47,2.88,4,.72.83,2.34,2.68,3.16,2.3.44-.2.48-1.19.57-3.16a18.06,18.06,0,0,0,0-2.87c-.13-1.26-.37-1.89,0-2.3a1.39,1.39,0,0,1,1.44-.29c1.21.46,1.22,2.72,2,7.47l.29,1.73c.19,1.14.29,1.72.29,1.72.59,3.57.87,5.37.29,6.33a5.36,5.36,0,0,0-.58,1.15,6.71,6.71,0,0,0-.29,1.15,6.86,6.86,0,0,1-2,3.16c-.67.62-2.16,2-3.74,1.73-2.08-.33-3.09-3.28-3.78-5.28-.93-2.72.32-4-.82-6.8-.55-1.36-.8-1.1-1.29-2.44-1-2.73.14-3.52-.86-5.75-.51-1.13-1.19-1.82-1.15-3.17C508.51,650.2,508.53,649.44,508.93,649.26Z" transform="translate(-150.2 -246.65)" fill="#d0b09a"></path><path d="M650.57,651.56c-.77-.35-2.41,1.66-3.17,2.59-1.48,1.82-1.51,2.47-2.87,4-.73.83-2.35,2.68-3.16,2.3-.44-.2-.49-1.19-.58-3.16a18.06,18.06,0,0,1,0-2.87c.13-1.26.38-1.89,0-2.3a1.39,1.39,0,0,0-1.44-.29c-1.21.46-1.22,2.72-2,7.47l-.29,1.73c-.19,1.14-.28,1.72-.28,1.72-.59,3.57-.88,5.37-.29,6.33a6.09,6.09,0,0,1,.57,1.15,5.16,5.16,0,0,1,.29,1.15,6.86,6.86,0,0,0,2,3.16c.68.62,2.17,2,3.74,1.73,2.08-.33,3.09-3.28,3.78-5.27.94-2.72-.32-4,.82-6.81.56-1.36.81-1.1,1.3-2.44,1-2.73-.14-3.52.86-5.75.5-1.13,1.19-1.82,1.15-3.17C651,652.5,651,651.74,650.57,651.56Z" transform="translate(-150.2 -246.65)" fill="#d0b09a"></path><g><path d="M556.39,903.92a6.85,6.85,0,0,1,1,3.41,8.13,8.13,0,0,1-.1,2.12,12.28,12.28,0,0,1-.58,1.94c-.61,2.17.78,3.18.2,4.3s-2.74,1.2-5.41,1.23a26.84,26.84,0,0,1-5.21-.46,39.58,39.58,0,0,1-4.2-1c-.67-.2-1.6-.51-1.68-.54l-.53-.19c-.84-.47-1.17-2.13-.73-3.42a4.43,4.43,0,0,1,2.16-2.28,5.27,5.27,0,0,1,1.81-.72c1.24-.25,1.66.15,2.22-.16.89-.49.52-1.82,1-2.92C547.65,902.44,554.4,901.4,556.39,903.92Z" transform="translate(-150.2 -246.65)" fill="#2d293d"></path><path d="M607.86,903.34a7,7,0,0,1,1,3.41,8.66,8.66,0,0,1-.1,2.13,12.44,12.44,0,0,1-.58,1.93c-.61,2.17.78,3.19.2,4.31s-2.75,1.2-5.41,1.23a28.35,28.35,0,0,1-5.21-.46,40.54,40.54,0,0,1-4.2-1c-.67-.2-1.6-.51-1.68-.54a3.94,3.94,0,0,1-.53-.19c-.84-.47-1.18-2.12-.73-3.42a4.47,4.47,0,0,1,2.16-2.28,5.74,5.74,0,0,1,1.8-.72c1.25-.24,1.66.15,2.23-.16.89-.48.52-1.82,1-2.92C599.11,901.86,605.87,900.82,607.86,903.34Z" transform="translate(-150.2 -246.65)" fill="#2d293d"></path><path d="M556.66,786.12c1.5-.77,3.82-1,8.46-1.46a87.61,87.61,0,0,1,10.8-.55,82.42,82.42,0,0,1,13,1.28c1.74.31,3,.61,5.61,1.22a19.38,19.38,0,0,1,4.36,1.24c2.5,1.59,3.17,4.74,3.74,7.45.65,3.07,1.15,5.07.29,7.21-.47,1.17-1.24,2.13-1,3.6.17,1.09.76,1.56.58,2.58s-.76,1.13-1.15,2c-.49,1.1-.09,2,.28,3.73.53,2.48,1.07,5,.29,7.48-.44,1.42-1,1.78-.86,2.87.19,1.57,1.41,1.59,2,3.17.85,2.2-1.05,3.37-.57,6.9.18,1.32.46,1.28.57,2.59a10.29,10.29,0,0,1-.86,4.88c-1.37,3.58,2,7.44,4,14.67,1.06,3.76,1.28,7.88,1.72,16.1a87,87,0,0,1,.22,9.63c-.25,4.51-.77,5.13-.22,7.33.81,3.24,2.45,3.92,3.16,7.77a14.94,14.94,0,0,1,.16,4.47,6.7,6.7,0,0,1-.44,2.14c-1.22,2.23-5.11,2.35-8.48,2.46-2.72.08-2.42-.41-4.49-.21a2.26,2.26,0,0,1-1.7-.24c-.73-.58-.6-1.83-.57-2.3.16-2.72-1.54-4.34-2.88-8-.8-2.21-1-4.44-1.44-8.91-.68-7.18.27-7.34-.57-12.08-.72-4.06-1.44-4.05-2.3-9.2a41.41,41.41,0,0,1-.86-7.47c0-2.8.4-4-.29-6-.62-1.86-1.25-1.9-2-4-.62-1.69-.53-2.53-.87-5.46a37.43,37.43,0,0,0-1.15-6.9c-.8-2.73-1.3-2.52-2.87-6.9a33.69,33.69,0,0,1-1.37-4.59c-.47-2.21-.36-2.94-.64-4.9-.46-3.1-1.66-7.53-2.59-7.48-.55,0-.73,1.56-1.73,6.62-.71,3.62-1.39,7-2.27,10.32-1.15,4.3-1.43,3.77-2.62,8.08-1.32,4.81-1,5.44-2.3,10.64s-1.81,5.08-2.58,8.62c-.29,1.3-.48,2.5-.87,11.79-.21,5.08-.42,11.25-.95,15.41-.29,2.3-.47,2.31-.7,4.56-.17,1.71-.13,2.39-.65,3.32-.64,1.18-1.34,1.28-1.72,2.3a4.55,4.55,0,0,0,.29,3.16c1,3.08.43,7.95-2,10.07-1.83,1.58-4.38,1.33-7.06,1.07-1.63-.16-4.33-.43-5.3-2.22-.42-.78-.25-1.37-.29-2.59a15.12,15.12,0,0,0-1.72-6c-.86-2.14-1.43-6.73,1.43-23.86,1.22-7.24,1.68-8.59,2.77-15.91.35-2.34.6-4.93,1.26-9.4.78-5.25,1.17-7.88,1.43-8.68.6-1.91,2.67-7.7,2-9.72a8.41,8.41,0,0,0-.72-1.58,7.63,7.63,0,0,0-1-1.29c-1.62-1.78,2.26-7.72.86-14.09-.24-1.09-.35-.9-.58-2-.79-4,.73-5.73.29-9.2-.32-2.56-1.22-2.21-1.44-4.32C549.18,792.9,552.57,788.21,556.66,786.12Z" transform="translate(-150.2 -246.65)" fill="#464353"></path></g><path d="M567.61,670.46c-.25.28-3.91,4.62-3.17,8.95.14.8.64,2.82-.2,3.39-.37.24-.67,0-1.06.19-1.55.76-1,6.59.87,7.11.5.14.85-.18,1.3.08.77.45.57,1.9.62,2.65.23,3.09,5.58,5.44,8.5,6.27,4.7,1.33,10.14.7,10.78-1.17a8.72,8.72,0,0,1,.39-2.06c.23-.53.24-.29,1.43-2,.26-.36.48-.7.83-.73s.49.27.76.31,1-.5,2.7-5.58a2.2,2.2,0,0,0,.11-1.83c-.42-.65-1.31-.38-1.77-.89-.79-.85.54-2.89,1.06-4.64,1-3.44-.54-7.34-2.28-9.54-3.21-4.06-8.47-4.23-10.19-4.28C576.87,666.63,571.08,666.44,567.61,670.46Z" transform="translate(-150.2 -246.65)" fill="#d0b09a"></path><path d="M568.34,671.29c.43,1.22-1.24,2-2.11,4.57a10.76,10.76,0,0,0,.09,6.59c.64,1.78,1.5,2.37,2.09,4.78.35,1.45.16,1.73.37,2.38,1.11,3.27,9.43,5.82,15.26,2.5,4-2.27,5.34-6.43,6-8.52a18.84,18.84,0,0,0-.08-11.5c-.84-2.7-2.24-7.18-6.73-9.55a13.16,13.16,0,0,0-10.15-.62c-4.62,1.52-8.47,5.61-7.76,7.36C565.78,670.39,567.88,670,568.34,671.29Z" transform="translate(-150.2 -246.65)" fill="#25242c"></path><path d="M541.71,722.58a21.54,21.54,0,0,1,2,4,29.32,29.32,0,0,1,1.44,8.92c0,3.05-.4,3.34-.29,6,.14,3.46,1,3.93,1.15,6.61.09,1.51-.08,2.73-1.73,8.34-.9,3.08-1.87,6.14-2.87,9.2a243.09,243.09,0,0,0-6.56,27.06c-.08.46-.18,1-.41,2.16-.35,1.76-.4,1.78-.36,2,.34,1.7,4.8,2.65,8.91,2.3a22.13,22.13,0,0,0,4.31-.86c5.29-1.27,9.88.52,12.94,1.44,13.4,4,32.75,1.92,37.09,1.15,2.27-.4,5.21-1.29,7.77,0a8.57,8.57,0,0,0,3.73,1.15,9.09,9.09,0,0,0,2.25-.24,8.46,8.46,0,0,0,1.41-.49,8.81,8.81,0,0,0,1.23-.71c2-1.4-9.13-33.36-8.91-41.69a21.9,21.9,0,0,0-.58-7.47c-.46-1.69-.84-2.12-.86-3.45,0-2,.82-2.39,1.73-6,.53-2.18.8-3.26.59-4.44s-.59-1.74-.31-2.75.93-1,1.44-2c.93-1.83-.5-3.21.29-5.18a4.76,4.76,0,0,1,1.72-2c3.66-2.91,7.3-5,10.35-7.19a31.54,31.54,0,0,0,5.47-4.6c1.56-1.72,2.34-2.57,2.73-3.54a4.65,4.65,0,0,1,1.29-2.21c.76-.61,1.17-.35,1.73-.86,1-.88.33-2.22.86-3.74s2-2.31,2.88-2.88c2.58-1.71,2.72-4.31,5.75-12.36,3.15-8.38,4.31-9.06,3.73-11.79-.73-3.45-3.38-6.07-4.88-6.61a7.82,7.82,0,0,0-2-.41,7.67,7.67,0,0,0-1.72.12c-1.89.39-2.22,3.05-4.89,6.33-1.82,2.23-3.24,2.94-3.45,4.88a5.08,5.08,0,0,1-.29,1.73c-.56,1.38-1.54,1.43-2.59,2.59-1.57,1.73-.6,3-2.3,4.89a16.21,16.21,0,0,1-2.3,1.72c-2.61,1.81-3.19,1.79-4,2.88s-.47,1.56-1.44,2.58a6.88,6.88,0,0,1-3.43,1.81c-1.36.38-2,.56-2.61.21-.89-.56-.33-1.66-1.43-3.45a7.15,7.15,0,0,0-1.89-2,4.77,4.77,0,0,0-1.85-.89c-1.26-.22-2.1.54-3.74,1.44-3,1.65-3.29.82-5.46,2.3a9.34,9.34,0,0,0-3.24,3.2c-.81,1.43-.75,2.41-1.36,2.55-.83.19-1.62-1.45-3.17-3.16a17.73,17.73,0,0,0-4.88-3.74c-4.34-2.46-6.16-1.12-11.94-2.68a3.6,3.6,0,0,0-2.73.09c-.68.39-.59.81-1.44,1.73a9.73,9.73,0,0,1-2.87,2c-1.36.7-2,.76-2.3,1.44s.17,1.33,0,1.43c-.39.23-2.33-3.33-6-6-2-1.44-2.83-1.46-3.16-1.44-2.11.1-3,2.39-4.32,2-.91-.27-.69-1.53-2-3.16-1-1.27-2-1.51-3.16-2.3-2-1.36-2.55-2.82-4.31-5.47-2.45-3.67-2.64-2.64-6.62-7.76-3.36-4.33-4.08-6.19-6.61-6.9a7.48,7.48,0,0,0-3.74,0c-2.71.62-5.61,2.74-5.46,4.6,0,.69.49.83.86,2.3a10.14,10.14,0,0,1,.29,2.3c.11,1.82,1.23,2.86,2.59,4.89,2.64,4,1.4,4.56,3.74,7.48,1.76,2.19,2.87,2.36,3.16,4,.33,1.91-.85,3.45,0,4.31.5.51,1,.08,2,.58s1.2,1.18,2.3,3.16c1.53,2.75,1.58,2.41,2,3.45a12,12,0,0,1,.87,4.6C531.86,712.33,533.76,716.08,541.71,722.58Z" transform="translate(-150.2 -246.65)" fill="#3a3768"></path></g><path d="M246.16,486.94l17.43,24,1.19-.12q1.59-26.33,3.17-52.66l.76,0q1.31,48.25,2.62,96.5l1.17.54,43.24-59.61,1.14.76c-2.91,4.94-5.79,9.89-8.72,14.82-11.32,19-22.7,38.06-33.94,57.16a13.21,13.21,0,0,0-2.12,6.47q1,58,2.3,115.9.75,34.49,1.65,69c.08,3.19-1.35,4-4.22,3.92-5.5-.13-11-.17-16.5,0-3.11.09-4.11-1.14-3.93-4.14,1.91-31.24,3.91-62.48,5.58-93.73,1.28-23.93,2-47.88,3.19-71.82.95-19.46,1.92-38.92,3.41-58.34.72-9.51.66-18.3-5.41-26.53-5-6.71-8.71-14.31-13-21.51Z" transform="translate(-150.2 -246.65)" fill="#2f2f33"></path><path d="M750,586.9c-4.3,7.19-8.51,14.43-12.93,21.54a17.4,17.4,0,0,0-2.74,10.68c.66,13.88.83,27.78,1.12,41.67q1.14,54,2.25,108.07.52,23.39,1.44,46.77c.12,3.2-.77,4.5-4.15,4.27a110.39,110.39,0,0,0-11.79,0c-2.59.11-3.49-.83-3.34-3.41.66-11.25,1.15-22.51,1.78-33.76.68-11.9,1.49-23.79,2.17-35.69,1.26-21.71,2.54-43.42,3.67-65.14.45-8.63.63-17.27.66-25.91a11.4,11.4,0,0,0-1.84-5.44c-11.46-19.41-23-38.76-33.84-58.63,11.93,16.45,23.85,32.91,36.5,50.35.59-9.38,1.11-17.55,1.62-25.72.2-3.27.2-6.56.61-9.8.57-4.48,0-8.52-2.81-12.25a24.84,24.84,0,0,1-3.9-8.06l6.5,8.77.95-.33V580.52l1.37,0v25.25l1.54.54,14.42-20Z" transform="translate(-150.2 -246.65)" fill="#2f2f33"></path><g><rect x="490.15" y="128.97" width="8.86" height="73.02" rx="2.29" fill="#3a3768"></rect><rect x="195.71" y="71.77" width="4.97" height="24.04" rx="2.29" fill="#3a3768"></rect><rect x="195.53" y="115.78" width="5.6" height="41.84" rx="2.29" fill="#3a3768"></rect><rect x="195.62" y="172.26" width="5.33" height="42.2" rx="2.29" fill="#3a3768"></rect></g></svg> 