<?xml version="1.0" encoding="UTF-8"?> <svg xmlns="http://www.w3.org/2000/svg" id="Layer_1" data-name="Layer 1" viewBox="0 0 668.36 544.58"><title>process-illustration</title><path d="M1758,246" transform="translate(-129.64 -233.42)"></path><g><g><polygon points="598.11 403.27 606.53 401.63 526.17 146.24 517.75 147.87 598.11 403.27" fill="#3a3768"></polygon><rect x="479.73" y="146.1" width="8.84" height="258.29" fill="#3a3768"></rect><polygon points="370.19 402.98 361.76 401.34 442.12 145.95 450.55 147.59 370.19 402.98" fill="#3a3768"></polygon></g><g><rect x="299.57" width="368.8" height="177.89" fill="#3a3768"></rect><rect x="304.32" y="6.85" width="359.3" height="164.19" fill="#fff"></rect></g><g><g opacity="0.2"><rect x="311.22" y="38.58" width="19.96" height="7.85" fill="#6c63ff"></rect></g><g opacity="0.2"><rect x="311.22" y="53.77" width="19.96" height="7.85" fill="#6c63ff"></rect></g><g opacity="0.2"><rect x="311.22" y="68.94" width="19.96" height="7.85" fill="#6c63ff"></rect></g><g opacity="0.2"><rect x="311.22" y="84.12" width="19.96" height="7.85" fill="#6c63ff"></rect></g><g opacity="0.2"><rect x="311.22" y="99.3" width="19.96" height="7.85" fill="#6c63ff"></rect></g><g opacity="0.2"><rect x="311.22" y="114.48" width="19.96" height="7.85" fill="#6c63ff"></rect></g><g opacity="0.2"><rect x="311.22" y="129.65" width="19.96" height="7.85" fill="#6c63ff"></rect></g><g opacity="0.2"><rect x="311.22" y="144.83" width="19.96" height="7.85" fill="#6c63ff"></rect></g><g opacity="0.2"><rect x="348.8" y="152.68" width="19.96" height="7.85" fill="#6c63ff"></rect></g><g opacity="0.2"><rect x="383.95" y="152.68" width="19.96" height="7.85" fill="#6c63ff"></rect></g><g opacity="0.2"><rect x="419.1" y="152.68" width="19.96" height="7.85" fill="#6c63ff"></rect></g><g opacity="0.2"><rect x="454.26" y="152.68" width="19.96" height="7.85" fill="#6c63ff"></rect></g><g opacity="0.2"><rect x="489.41" y="152.68" width="19.96" height="7.85" fill="#6c63ff"></rect></g><g opacity="0.2"><rect x="524.56" y="152.68" width="19.96" height="7.85" fill="#6c63ff"></rect></g><g opacity="0.2"><rect x="559.71" y="152.68" width="19.96" height="7.85" fill="#6c63ff"></rect></g><g opacity="0.2"><rect x="594.87" y="152.68" width="19.96" height="7.85" fill="#6c63ff"></rect></g><g opacity="0.2"><rect x="630.01" y="152.68" width="19.96" height="7.85" fill="#6c63ff"></rect></g><rect x="348.8" y="95.63" width="19.96" height="49.19" fill="#6c63ff"></rect><rect x="383.95" y="72.87" width="19.96" height="71.96" fill="#6c63ff"></rect><rect x="419.1" y="53.77" width="19.96" height="91.07" fill="#6c63ff"></rect><rect x="454.26" y="63.67" width="19.96" height="81.16" fill="#6c63ff"></rect><rect x="489.41" y="46.44" width="19.96" height="98.4" fill="#6c63ff"></rect><g opacity="0.2"><rect x="524.56" y="84.12" width="19.96" height="60.71" fill="#6c63ff"></rect></g><g opacity="0.2"><rect x="559.71" y="84.12" width="19.96" height="60.71" fill="#6c63ff"></rect></g><g opacity="0.2"><rect x="594.87" y="84.12" width="19.96" height="60.71" fill="#6c63ff"></rect></g><g opacity="0.2"><rect x="630.01" y="84.12" width="19.96" height="60.71" fill="#6c63ff"></rect></g><path d="M752.65,343.18" transform="translate(-129.64 -233.42)" fill="none" stroke="blue" stroke-miterlimit="10"></path></g><g><path d="M219.15,320.45a56.46,56.46,0,0,0,9.91-5.6c3.27-2.32,4.91-3.48,6.16-5.42,3.79-5.87,1.66-13.18,1.11-15.07-.65-2.19-1.16-2.6-3.3-6.81-1.06-2.07-4.56-8.95-5.84-13.18-2.64-8.73-.29-21,7.31-27.46,2.89-2.44,6-3.4,12.2-5.32,5.1-1.57,10.41-3.21,17.32-2.36a37.25,37.25,0,0,1,12.54,4.06,18.09,18.09,0,0,1,4.57,2.85c1.94,1.74,2.08,2.8,5.92,10.82,1.91,4,2.57,5.18,2.52,7.25a18.23,18.23,0,0,1-.83,4.74c-.6,1.75-1.15,2.3-1.28,3.82a8.06,8.06,0,0,0,.58,3.59c1.06,2.88,2.56,2.94,2.8,4.95a4.68,4.68,0,0,1-1.53,4.1c-1.13.88-2.11.41-2.62,1.21-.62,1,.72,1.88.75,4.25a12,12,0,0,1-1,4.35c0-.08-1.61,5.52-1.46,5.57s.6-1.55.73-1.51a29.17,29.17,0,0,0-.93,5.54c-.06,3.05.86,3.58.26,5.09-1.06,2.67-4.91,3.41-5.32,3.49-3.48.62-6.23-1.11-6.47-.61-.11.25.53.77,3.79,3.29a26.5,26.5,0,0,1,3.79,3.16,12.15,12.15,0,0,1,2.33,3.64c1.19,3.73-4.36,9.32-8.89,12.39-10.32,7-22.23,5.54-26,5.08a36.84,36.84,0,0,1-15.81-5.09A35.8,35.8,0,0,1,219.15,320.45Z" transform="translate(-129.64 -233.42)" fill="#d0b09a"></path><g><line x1="263.57" y1="178.31" x2="384.82" y2="106.32" fill="none" stroke="#cfb88e" stroke-miterlimit="10" stroke-width="5"></line><path d="M444.36,279.11" transform="translate(-129.64 -233.42)"></path><g><g><path d="M261.44,734.27c-3.61-3.5-13.3,1.68-14.86,2.52-2.67,1.43-7.92,4.23-9.91,10.08-.46,1.34-1.88,5.5,0,7.56,2.2,2.43,6.75-.45,9.91,2.53a22.93,22.93,0,0,1,2.47,4.2c1.95,3.65,1.84,4.13,2.48,5,1.51,2.14,4.16,2.35,15.69,2.52,9.08.13,11.19,0,12.39-1.68,1.57-2.26.4-5.59,0-6.72-1.24-3.53-4-3.48-9.91-8.41-3.14-2.62-4.71-3.93-5.78-5.88C260.92,740.58,263.91,736.66,261.44,734.27Z" transform="translate(-129.64 -233.42)" fill="#1a1920"></path><path d="M192.9,746.87c-.36-.35-6.92-6.67-14.87-5-3.73.77-6.34,3.31-11.56,8.4-6,5.84-4.59,6.5-9.08,10.09s-7.73,4.43-9.09,8.4a6.67,6.67,0,0,0,0,5c.85,1.67,2.72,2.68,6.61,3.36,3.24.57,17.63,3.08,22.3-4.2,1.53-2.39,1.09-4.41,3.3-5.88s3.79-.48,7.43-.84c1.63-.16,7.77-.77,9.91-4.2C200.4,757.92,196.78,750.73,192.9,746.87Z" transform="translate(-129.64 -233.42)" fill="#1a1920"></path><path d="M292.82,484.72c-6-2.27-9.85,5.94-25.6,10.92a67.31,67.31,0,0,1-21.88,2.94c-12.64-.16-23.24-3.53-29.32-5.46-10.33-3.29-11.73-3.81-11.73-3.81-6.57-2.46-7.4-3.35-8.92-2.91-5.07,1.47-5.59,14.37-6.19,29-1.14,27.89-.47,27.89-1.65,40.33-1.43,15.06-3,17.55-3.3,31.09-.19,8,.3,9.87,0,21a211,211,0,0,1-1.66,24.37c-1.57,11.5-3,11.86-4.95,23.53A193.13,193.13,0,0,0,175.14,686c-.24,10.37-1.62,20.76-.82,31.09a21.91,21.91,0,0,1-.83,8.41c-1.08,3.51-2.58,4.93-4.13,7.56-4,6.74-5.42,16.36-2.48,18.48,1.81,1.3,3.47-1.49,8.26-.84,3.17.44,3.39,1.79,9.91,4.2a35,35,0,0,0,5.78,1.69c3.95.76,6.09,1.17,7.43,0,1.72-1.51.3-4,1.66-8.41a17.78,17.78,0,0,1,3.3-5.88c5.05-7,2.16-20.15,2.48-33.61.07-3.14,1.15-9.37,3.3-21.84,5.69-33,9.59-39.81,9.91-59.66.14-8.26-.53-7.81,0-12.61,1.32-12,5.67-16.47,15.69-38.65,4.53-10,7.27-17.12,8.26-16.8.78.25-.46,4.8-.83,11.76-.42,8.24.75,12.76,1.66,20.17.83,6.77.83,13.2.82,26,0,14.78-1,25.33-2.48,42-2.48,27.38-3.72,41.08-5.78,47-1.47,4.3-4.21,10.9-3.3,19.33.44,4,1.43,5.87,1.65,11.76.24,6.19-.66,9.23.83,10.08,2.08,1.2,4.54-4.37,10.73-5,2.89-.31,3.41.78,11.57,1.68,4.5.5,5.24.27,5.78,0,3.48-1.72,3.8-7.65,4.13-13.44,1.64-29.22,1.58-23,1.65-27.73.21-15.55-.11-17.56,1.65-21.85,1.55-3.76,3.34-6,4.13-10.92.85-5.35-.28-8.92-.83-12.6-1.05-7.14.59-11.51,3.31-22.69,4-16.61,1.81-12.74,6.6-33.61,4.85-21.12,7-24.39,10.74-43.69.88-4.52,1.69-9.46,3.3-19.33,3.54-21.65,3.68-25.82,3.31-30.25C300.92,500.92,299.78,487.36,292.82,484.72Z" transform="translate(-129.64 -233.42)" fill="#2f2f33"></path></g><path d="M230.91,310.68c1.43,1-.89,4.27,0,10.11a22.54,22.54,0,0,0,5.68,11.37c2.08,2.38,6.45,7.41,13.89,8.2,8.83.94,14.92-4.83,15.79-5.68,1.42-1.39,5.76-5.64,5.69-12,0-3.95-2.32-6.7-1.9-6.94.64-.38,3.84,7.1,11.05,12.31,5.38,3.88,7.87,2.81,14.53,6.32,1.19.62,10.93,5.85,14.52,12.63,5.19,9.77-4.15,19.45-10.1,37.89-3.65,11.28-3.69,26.68-3.79,57.46-.1,30.15,2.21,37.49-4.42,45.47-6.25,7.53-15,9.07-31.58,12-11.67,2.06-26.93.11-57.46-3.79-5-.64-7.64-1-10.11-3.16-6.77-5.84-3.76-17.26,0-47.36,3.38-27.06,2.89-33.31,2.53-36.63-.32-2.93-.69-5-7.58-30.94s-8.66-31.82-5.05-37.89c3-5,8.21-7.86,15.79-12,7.88-4.31,9.56-3.2,17.05-7.58C224.65,315.09,229,309.38,230.91,310.68Z" transform="translate(-129.64 -233.42)" fill="#11c4f4"></path><path d="M379.94,402.25c2.14-1.15,2.67-1.12,5.06-2.52,5.08-3,5.3-4.7,8.84-7s7.14-2.72,14.52-3.79a28.13,28.13,0,0,1,8.21,0,10.07,10.07,0,0,1,5.05,1.9c1.08.85.91,1.16,1.9,1.89,2.37,1.73,4.22.54,5.68,1.89a5.08,5.08,0,0,1,.63,5.69c-1.15,2-3.47,1.56-4.42,3.79-.56,1.31.09,1.85-.63,3.15-.38.7-.83,1-3.16,2.53-3.37,2.18-3.4,2.12-3.79,2.53-1.44,1.51-1.07,2.35-2.52,3.79a9.31,9.31,0,0,1-3.16,1.89,20.87,20.87,0,0,1-7.58,1.26c-8.38.38-7,.76-10.1.63-4.74-.18-6.09-1-8.84,0-2.55.91-2.6,2-4.42,2.53-4.66,1.31-12.46-3.63-12.63-8.84S375.75,404.51,379.94,402.25Z" transform="translate(-129.64 -233.42)" fill="#d0b09a"></path><path d="M229.33,377.31c.77-35.89,4.81-67.69.32-68.52-1.32-.24-2.14,2.38-7,6.31-2.95,2.41-6.67,4.73-14.53,7.58-17.28,6.28-21.29,3.07-30,8.53a38.25,38.25,0,0,0-12,12.63c-6.67,10.37-3.11,14-9.47,29.05-2.68,6.32-5.85,11.69-12,22.1-2.5,4.23-4.21,6.9-7,12-4.57,8.49-6.85,12.73-7.58,16.42-2.23,11.37,3.09,20.89,3.79,22.1,3.07,5.31,5.82,6.27,13.26,13.26,10.14,9.52,7.94,10.23,15.79,17.68,4.94,4.7,7,5.88,8.21,9.48,1.13,3.34.35,7.12-1.26,14.52-2.16,9.95-4.42,17.05-4.42,17.05-2,6.16-2.82,7.67-1.9,9.48,1.4,2.72,5.21,2.92,14.53,3.78,19.14,1.79,20.89,2.62,24,.64,3.33-2.13,3.45-4.77,7.58-15.16,4.81-12.08,6-12.14,9.48-20.84,2-5,5.66-15.22,8.2-32.84C231.6,433.7,228.55,413.76,229.33,377.31Zm-50.21,59a7.67,7.67,0,0,1-3.71,2.87c-1.55.72-3.12,1.44-4.5.92-2.64-1-1.24-5.3-4.73-9.79-2-2.61-4-3.07-3.79-4.42.26-1.7,3.45-1.2,6.31-3.78,2-1.84,1.67-3.2,4.43-9.48.65-1.49,3.3-7.51,4.1-7.26s-1.18,4.71-.63,11.37c.13,1.6.89,4.28,1.92,9.75C179.92,434,179.76,435.24,179.12,436.35Z" transform="translate(-129.64 -233.42)" fill="#3a3768"></path><path d="M273.85,313.84c-3.9,2.54,2.19,15,5,34.1,1.4,9.3.72,11.46,1.27,28.42,1.08,33.89,1.63,50.83,5.68,65.68,2.36,8.66,8.79,29,6.95,40.41a105.26,105.26,0,0,0-1.27,22.74c.42,7.64-.11,9.33,1.27,11.37a11.92,11.92,0,0,0,5.33,4c2.61,1.21,5.58,1.39,11.42,1.7,4.16.23,4.65,0,5-.31,3.18-2.61-.7-11.94-1.26-13.26-2.3-5.4-4.25-6.08-6.32-10.1-2.91-5.69-1.66-9.51-1.89-18.32-.12-4.64-1.55-11.93-4.42-26.52-2.8-14.27-4.95-22-3.16-22.73.51-.22,1.14.2,5.05,3.79,6.43,5.9,7.28,7.11,8.85,8.2,3.92,2.74,8.63,2,16.41.64a379.22,379.22,0,0,0,45.47-10.74c8.86-2.65-.71,0,11.37-4.42,3.71-1.36,5-1.77,5.68-3.16.37-.78.73-2.32-3.79-10.73-2.2-4.11-2.45-4.05-4.17-7.39-3-5.83-2.62-6.75-4-7.77-2.62-1.88-6.06-.31-14.53,2.53-.58.19-6.91,2-19.58,5.68-10.88,3.15-14.16,3.79-16.42,1.89-1.24-1-1.87-3.22-3.15-7.57-1.23-4.19-1.2-6.35-3.16-9.48a22.82,22.82,0,0,0-2.53-3.15c-3.29-4-3.05-9.19-3.15-14.53-.34-16.94-3.82-16.69-3.16-30.31a14,14,0,0,0-.63-6.32c-1.71-4.41-5.26-5.26-12.63-10.1-8-5.23-8.11-7-15.16-10.74C278.45,314.27,275.54,312.74,273.85,313.84Z" transform="translate(-129.64 -233.42)" fill="#3a3768"></path><path d="M190.18,468.25c-4.74,1.6-6.9,6.63-7.58,8.2a16.85,16.85,0,0,0-1.27,9.48c1.11,6.41,6,10.14,10.11,13.26,3.58,2.72,6.69,5.09,11.37,5.68,3.63.47,7.68-1.16,15.78-4.42,6.47-2.6,8.41-4.07,9.48-6.31s1.35-5.28,0-6.32c-1.64-1.24-4,1.81-8.21,1.26a9.44,9.44,0,0,1-7-5.05c-1.21-2.38-1.71-6.12,0-7.58,1.15-1,2.25,0,5.05-.63a12,12,0,0,0,6.32-3.79c2.11-2.43,3.71-6.47,2.52-7.57s-3.57,1.45-10.1,3.15a40.29,40.29,0,0,1-8.84,1.27c-2.88.08-3.42-.23-10.11-.63C191.45,467.87,190.7,468.07,190.18,468.25Z" transform="translate(-129.64 -233.42)" fill="#d0b09a"></path></g></g><path d="M235.71,293.93c.55-.27-3.58-5.81-2.41-13,.25-1.53,1.07-6.55,4.59-7.79,2.51-.88,5.9.32,7.8,2.12,1.42,1.33,1.6,2.61,3.34,3.46.22.11,2.72,1.38,3.87.48,2-1.58-2.83-7.74-.15-11.39.64-.86,1.73-1.31,3.9-2.22,4.89-2.05,7.77-1.3,8.51-2.94.53-1.15-.43-2.61-1.22-3.81-2.22-3.36-5.31-3.71-5.27-5.05,0-.4.32-1.44,6.91-3.25,7.56-2.08,11.34-3.12,14-1.37a26.51,26.51,0,0,1,5,4.81c1,1.29,1.59,2.2,2.21,2.09,1.07-.18,1.51-3.22,1.51-5.21,0-.91-.12-7.7-5.13-11.24-2.22-1.57-6-1.61-13.5-1.62s-7.25.48-15.26.52c-5.72,0-7-.21-10,.42a23.08,23.08,0,0,0-9.79,4.28c-5,3.95-6.61,9.21-7.46,12-1.27,4.21-1.19,7.53-1.08,12.27a46.12,46.12,0,0,0,1.59,12.29C230.18,288.34,235.15,294.21,235.71,293.93Z" transform="translate(-129.64 -233.42)"></path></g></g></svg> 