<?xml version="1.0" encoding="UTF-8"?> <svg xmlns="http://www.w3.org/2000/svg" id="Layer_1" data-name="Layer 1" viewBox="0 0 761.97 649.93"><title>services-illustration</title><g><path d="M318.54,426.8c-32.82,24-81.76,24.3-125.34,12.32s-81.83-36.28-88.8-66.19,17.46-65.58,35.4-106.8,29.3-88,55.43-99.29,67.2,12.86,101.32,42.23,61.31,63.89,66.53,105S351.43,402.78,318.54,426.8Z" transform="translate(-103.2 -164)" fill="#05669b"></path><path d="M199.16,332.94l17.43,24,1.19-.12q1.59-26.33,3.17-52.66l.76,0q1.31,48.25,2.62,96.5l1.17.54,43.24-59.61,1.14.76c-2.91,4.94-5.79,9.89-8.72,14.82-11.32,19-22.7,38.06-33.94,57.16a13.21,13.21,0,0,0-2.12,6.47q1,58,2.3,115.9.75,34.49,1.65,69c.08,3.19-1.35,4-4.22,3.92-5.5-.13-11-.17-16.5,0-3.11.09-4.11-1.14-3.93-4.14,1.91-31.24,3.91-62.48,5.58-93.73,1.28-23.93,2-47.88,3.19-71.82,1-19.46,1.92-38.92,3.41-58.34.72-9.51.66-18.3-5.41-26.53-4.95-6.71-8.71-14.31-13-21.51Z" transform="translate(-103.2 -164)" fill="#2f2f33"></path></g><g><path d="M832.4,533.41c-23.66,17.26-58.93,17.51-90.34,8.87s-59-26.14-64-47.7,12.59-47.27,25.51-77,21.13-63.41,39.95-71.55,48.44,9.26,73,30.43,44.19,46,48,75.66S856.11,516.09,832.4,533.41Z" transform="translate(-103.2 -164)" fill="#05669b"></path><path d="M795,462.9c-4.3,7.19-8.51,14.43-12.93,21.54a17.4,17.4,0,0,0-2.74,10.68c.66,13.88.83,27.78,1.12,41.67q1.14,54,2.25,108.07.52,23.39,1.44,46.77c.12,3.2-.77,4.5-4.15,4.27a110.39,110.39,0,0,0-11.79,0c-2.59.11-3.49-.83-3.34-3.41.66-11.25,1.15-22.51,1.78-33.76.68-11.9,1.49-23.79,2.17-35.69,1.26-21.71,2.54-43.42,3.67-65.14.45-8.63.63-17.27.66-25.91a11.4,11.4,0,0,0-1.84-5.44c-11.46-19.41-23-38.76-33.84-58.63,11.93,16.45,23.85,32.91,36.5,50.35.59-9.38,1.11-17.55,1.62-25.72.2-3.27.2-6.56.61-9.8.57-4.48,0-8.52-2.81-12.25a24.84,24.84,0,0,1-3.9-8.06l6.5,8.77.95-.33V456.52l1.37,0v25.25l1.54.54,14.42-20Z" transform="translate(-103.2 -164)" fill="#2f2f33"></path></g><rect x="140.74" y="302" width="494.92" height="268" rx="17.24" fill="#0072bb"></rect><g><path d="M287.75,334H488.51a8.17,8.17,0,0,1,8.17,8.17v5.26a8.17,8.17,0,0,1-8.17,8.17H287.9a8.17,8.17,0,0,1-8.17-8.17V342a8,8,0,0,1,8-8Z" fill="#1fbaed"></path><path d="M587.12,514.07l-3-2.94a6,6,0,0,0,.59-5.78,6,6,0,0,0-3.22-3.22,6,6,0,0,0-4.7,0,6,6,0,0,0-3.22,3.22,6,6,0,0,0,0,4.7,6,6,0,0,0,3.22,3.22,6,6,0,0,0,5.78-.59l2.94,2.94a1,1,0,0,0,.78.32,1.09,1.09,0,0,0,1.09-1.1A1,1,0,0,0,587.12,514.07Zm-5.21-3.65A3.84,3.84,0,1,1,583,507.7,3.72,3.72,0,0,1,581.91,510.42Z" transform="translate(-103.2 -164)" fill="#0072bb"></path></g><g><path d="M310.55,579.63a4.42,4.42,0,0,0-3.49,1.72l-6.76-3.78a4.33,4.33,0,0,0,.25-1.45,4.43,4.43,0,0,0-.25-1.46l6.75-3.77a4.39,4.39,0,1,0-.91-2.67,4.43,4.43,0,0,0,.25,1.46l-6.75,3.77a4.39,4.39,0,1,0,0,5.34l6.76,3.77a4.5,4.5,0,0,0-.26,1.47,4.4,4.4,0,1,0,4.4-4.4Zm0-14.42a3,3,0,1,1-3,3A3,3,0,0,1,310.55,565.21Zm-14.39,13.93a3,3,0,1,1,3-3A3,3,0,0,1,296.16,579.14Zm14.39,7.91a3,3,0,1,1,3-3A3,3,0,0,1,310.55,587.05Z" transform="translate(-103.2 -164)" fill="#1fbaed"></path><g><rect x="223.58" y="408.8" width="54.54" height="8.41" rx="3.8" fill="#1fbaed"></rect><rect x="223.58" y="420.19" width="29.31" height="8.41" rx="3.8" fill="#1fbaed"></rect></g></g><g><g><rect x="380.58" y="408.8" width="54.54" height="8.41" rx="3.8" fill="#1fbaed"></rect><rect x="380.58" y="420.19" width="29.31" height="8.41" rx="3.8" fill="#1fbaed"></rect></g><path d="M471.4,571a.34.34,0,0,1,.55.27v11.58a2.72,2.72,0,0,1-2.72,2.72H445.67a2.72,2.72,0,0,1-2.72-2.72V571.27a.34.34,0,0,1,.55-.26c1.27,1,2.95,2.24,8.73,6.43,1.2.87,3.21,2.71,5.22,2.7s4.08-1.86,5.23-2.7C468.46,573.25,470.13,572,471.4,571Zm-13.95,7.32c1.32,0,3.21-1.65,4.16-2.34,7.52-5.46,8.09-5.93,9.82-7.29a1.37,1.37,0,0,0,.52-1.07v-1.08a2.72,2.72,0,0,0-2.72-2.72H445.67a2.72,2.72,0,0,0-2.72,2.72v1.08a1.4,1.4,0,0,0,.52,1.07c1.74,1.35,2.31,1.83,9.83,7.29.95.69,2.84,2.36,4.15,2.34Z" transform="translate(-103.2 -164)" fill="#1fbaed"></path></g><g><g><rect x="537.58" y="408.8" width="54.54" height="8.41" rx="3.8" fill="#1fbaed"></rect><rect x="537.58" y="420.19" width="29.31" height="8.41" rx="3.8" fill="#1fbaed"></rect></g><g><path d="M628.53,566.74h-.75v18.52a2.23,2.23,0,0,1-2.23,2.23H611.84v.68a1.42,1.42,0,0,0,1.42,1.43h15.27a1.43,1.43,0,0,0,1.42-1.43v-20A1.42,1.42,0,0,0,628.53,566.74Z" transform="translate(-103.2 -164)" fill="#1fbaed"></path><path d="M617.91,586.68h7.63a1.43,1.43,0,0,0,1.43-1.42v-20a1.43,1.43,0,0,0-1.43-1.42H615.37v.47a.76.76,0,0,1,0,.15v3.9a2,2,0,0,1-2,2h-4.52v14.92a1.43,1.43,0,0,0,1.43,1.42h7.63Zm.29-4.84h-5a.67.67,0,0,1-.67-.67.68.68,0,0,1,.67-.68h5a.68.68,0,0,1,.67.68A.67.67,0,0,1,618.2,581.84Zm5-3.43h-10a.68.68,0,0,1-.67-.68.67.67,0,0,1,.67-.67h10a.67.67,0,0,1,.67.67A.68.68,0,0,1,623.18,578.41Zm-10-5h10a.68.68,0,0,1,0,1.35h-10a.68.68,0,0,1,0-1.35Z" transform="translate(-103.2 -164)" fill="#1fbaed"></path><path d="M609.47,569.54h3.91a1.19,1.19,0,0,0,1.19-1.18h0v-3.91a.6.6,0,0,0-.6-.6.59.59,0,0,0-.42.18l-4.5,4.5A.6.6,0,0,0,609.47,569.54Z" transform="translate(-103.2 -164)" fill="#1fbaed"></path></g></g><g><g><rect x="224.58" y="484.8" width="54.54" height="8.41" rx="3.8" fill="#1fbaed"></rect><rect x="224.58" y="496.19" width="29.31" height="8.41" rx="3.8" fill="#1fbaed"></rect></g><g><path d="M312.08,642.06l-14.54,5.82H293.6a2.65,2.65,0,0,0-2.65,2.64v3.23a2.41,2.41,0,0,0,2.65,2.36h1l1.06,7.47a.89.89,0,0,0,.88.75h3.52a.88.88,0,0,0,.88-1l-.69-6.16,11.83,4.73a.87.87,0,0,0,.32.06.88.88,0,0,0,.89-.88V642.88a.9.9,0,0,0-.39-.73A.89.89,0,0,0,312.08,642.06Z" transform="translate(-103.2 -164)" fill="#1fbaed"></path><path d="M315.89,649.45l2.94-2.35a.88.88,0,1,0-1.1-1.38l-2.94,2.35a.88.88,0,0,0,.55,1.57.86.86,0,0,0,.55-.19Z" transform="translate(-103.2 -164)" fill="#1fbaed"></path><path d="M315.89,655.71a.88.88,0,0,0-1.1,1.38l2.94,2.35a.88.88,0,0,0,.55.19.87.87,0,0,0,.69-.33.89.89,0,0,0-.14-1.24Z" transform="translate(-103.2 -164)" fill="#1fbaed"></path><path d="M318.28,651.7h-2.94a.88.88,0,1,0,0,1.76h2.94a.88.88,0,0,0,0-1.76Z" transform="translate(-103.2 -164)" fill="#1fbaed"></path></g></g><g><g><rect x="381.58" y="484.8" width="54.54" height="8.41" rx="3.8" fill="#1fbaed"></rect><rect x="381.58" y="496.19" width="29.31" height="8.41" rx="3.8" fill="#1fbaed"></rect></g><path d="M462.87,640.77a6,6,0,0,1,2.8,4.45,4.66,4.66,0,0,0,2,.46,4.84,4.84,0,1,0-4.84-4.91Zm-3.17,9.91a4.84,4.84,0,1,0-4.84-4.84A4.84,4.84,0,0,0,459.7,650.68Zm2.06.33h-4.11a6.21,6.21,0,0,0-6.2,6.2v5.1l.35.11a28.16,28.16,0,0,0,8.43,1.36,17.45,17.45,0,0,0,7.36-1.38l.32-.16h0v-5A6.2,6.2,0,0,0,461.76,651Zm8-5h-4.08a6,6,0,0,1-1.84,4.16,7.36,7.36,0,0,1,5.26,7.05v1.55a16.71,16.71,0,0,0,6.5-1.37l.32-.16h0v-5A6.2,6.2,0,0,0,469.77,646Zm-18.56-.33a4.8,4.8,0,0,0,2.57-.74,6.06,6.06,0,0,1,2.25-3.83,2.45,2.45,0,0,0,0-.27,4.84,4.84,0,1,0-4.84,4.84Zm4.34,4.49a6,6,0,0,1-1.84-4.13l-.45,0h-4.11a6.21,6.21,0,0,0-6.2,6.2v5l0,.07.34.11a29,29,0,0,0,7,1.32v-1.52A7.37,7.37,0,0,1,455.55,650.17Z" transform="translate(-103.2 -164)" fill="#1fbaed"></path></g><g><path d="M512.48,800.92a7,7,0,0,1,1,3.41,9.15,9.15,0,0,1-.1,2.12,13.44,13.44,0,0,1-.58,1.94c-.61,2.17.78,3.18.19,4.3s-2.74,1.2-5.4,1.23a26.68,26.68,0,0,1-5.21-.46,39.43,39.43,0,0,1-4.21-1c-.66-.2-1.59-.51-1.67-.54l-.53-.19c-.84-.47-1.18-2.13-.73-3.42a4.45,4.45,0,0,1,2.15-2.28,5.36,5.36,0,0,1,1.81-.72c1.24-.25,1.66.15,2.23-.16.89-.49.52-1.82,1-2.92C503.73,799.44,510.49,798.4,512.48,800.92Z" transform="translate(-103.2 -164)" fill="#1a1920"></path><path d="M554.57,800.34a7,7,0,0,0-1,3.41,9.21,9.21,0,0,0,.1,2.13,13.65,13.65,0,0,0,.58,1.93c.61,2.17-.78,3.19-.19,4.31s2.74,1.2,5.4,1.23a28.35,28.35,0,0,0,5.21-.46,41,41,0,0,0,4.21-1c.66-.2,1.59-.51,1.67-.54a3.94,3.94,0,0,0,.53-.19c.84-.47,1.18-2.12.73-3.42a4.49,4.49,0,0,0-2.15-2.28,5.83,5.83,0,0,0-1.81-.72c-1.24-.24-1.66.15-2.23-.16-.89-.48-.52-1.82-1-2.92C563.32,798.86,556.56,797.82,554.57,800.34Z" transform="translate(-103.2 -164)" fill="#1a1920"></path><path d="M512.74,683.12c1.51-.77,3.83-1,8.47-1.46a87.5,87.5,0,0,1,10.8-.55,82.61,82.61,0,0,1,13,1.28c1.74.31,3,.61,5.61,1.22a19.38,19.38,0,0,1,4.36,1.24c2.5,1.59,3.16,4.74,3.74,7.45.64,3.07,1.15,5.07.28,7.21-.47,1.17-1.23,2.13-1,3.6.17,1.09.75,1.56.57,2.58s-.76,1.13-1.15,2c-.49,1.1-.08,2,.29,3.73.53,2.48,1.06,5,.29,7.48-.45,1.42-1,1.78-.87,2.87.19,1.57,1.41,1.59,2,3.17.84,2.2-1.06,3.37-.58,6.9.18,1.32.46,1.28.58,2.59a10.25,10.25,0,0,1-.87,4.88c-1.37,3.58,2,7.44,4,14.67,1.07,3.76,1.29,7.88,1.73,16.1a86.52,86.52,0,0,1,.21,9.63c-.24,4.51-.77,5.13-.21,7.33.81,3.24,2.44,3.92,3.16,7.77a15,15,0,0,1,.15,4.47,6.18,6.18,0,0,1-.44,2.14c-1.21,2.23-5.11,2.35-8.48,2.46-2.72.08-2.41-.41-4.49-.21a2.22,2.22,0,0,1-1.69-.24c-.73-.58-.61-1.83-.58-2.3.16-2.72-1.53-4.34-2.87-8-.8-2.21-1-4.44-1.44-8.91-.68-7.18.26-7.34-.58-12.08-.72-4.06-1.43-4.05-2.3-9.2a41.41,41.41,0,0,1-.86-7.47c0-2.8.4-4-.29-6-.61-1.86-1.24-1.9-2-4-.61-1.69-.52-2.53-.86-5.46a39.22,39.22,0,0,0-1.15-6.9c-.81-2.73-1.31-2.52-2.88-6.9a37.31,37.31,0,0,1-1.37-4.59c-.47-2.21-.35-2.94-.64-4.9-.45-3.1-1.65-7.53-2.59-7.48-.54,0-.72,1.56-1.72,6.62-.72,3.62-1.4,7-2.27,10.32-1.16,4.3-1.44,3.77-2.62,8.08-1.32,4.81-1,5.44-2.3,10.64s-1.82,5.08-2.59,8.62c-.28,1.3-.47,2.5-.86,11.79-.21,5.08-.43,11.25-1,15.41-.29,2.3-.46,2.31-.69,4.56-.17,1.71-.14,2.39-.65,3.32-.65,1.18-1.34,1.28-1.73,2.3a4.61,4.61,0,0,0,.29,3.16c1,3.08.43,7.95-2,10.07-1.84,1.58-4.39,1.33-7.07,1.07-1.62-.16-4.33-.43-5.3-2.22-.42-.78-.24-1.37-.28-2.59a15.26,15.26,0,0,0-1.73-6c-.86-2.14-1.43-6.73,1.44-23.86,1.21-7.24,1.68-8.59,2.77-15.91.35-2.34.59-4.93,1.25-9.4.79-5.25,1.18-7.88,1.43-8.68.61-1.91,2.67-7.7,2-9.72a8.1,8.1,0,0,0-.73-1.58,7.11,7.11,0,0,0-1-1.29c-1.62-1.78,2.27-7.72.86-14.09-.24-1.09-.35-.9-.57-2-.8-4,.72-5.73.28-9.2-.32-2.56-1.22-2.21-1.43-4.32C505.26,689.9,508.66,685.21,512.74,683.12Z" transform="translate(-103.2 -164)" fill="#2f2f33"></path></g><path d="M598,587.71c.07-.5.31-1.09,6.14-4.68,8.51-5.24,5.47-2.42,10.48-4.77a2.78,2.78,0,0,1,1.9-.25c.11,0,.93.26,1.08.82.24.9-1.39,2-1.65,2.15-1.86,1.25-3.65,1-3.67,1.46s1.24.48,3.1,1.52a5.8,5.8,0,0,1,2.15,1.65,4.86,4.86,0,0,1,.5,3.79c-.54,2.29-2.69,4.52-5.19,4.56s-4.35-1.94-4.18-2.35a5,5,0,0,1-3.55,2.4C602.15,594.7,597.59,590.68,598,587.71Z" transform="translate(-103.2 -164)" fill="#d0b09a"></path><g><g><path d="M523.48,595.86l.13-.05a15.11,15.11,0,0,1,7.15-.68c4.31.76,6.3,3.7,7.29,2.92.83-.66-.31-2.93.73-3.64.62-.43,1.31.17,2.18,0,2.16-.44,2.89-4.91,2.92-5.1.69-4.45-1.82-5.58-1.46-10.93.12-1.86.48-2.5,0-3.65-1.06-2.53-4.46-3.32-5.83-3.64a13.41,13.41,0,0,0-8,.73,8.81,8.81,0,0,0-6.56,8c-.3,1.9-.07,2.82,0,6.56a24,24,0,0,0,0,3.64,10.1,10.1,0,0,0,1.46,3.65" transform="translate(-103.2 -164)" fill="#d0b09a"></path><path d="M520.56,590.76c.05,1.62-.54,2.23,0,2.92,1.52,1.93,8.81.37,10.93-3.65.1-.17.07-.14,1.46-3.64.93-2.34.72-3.23,1.46-3.64,1.44-.8,3.38,1.47,4.37.73s-.38-2.86.73-5.83a7,7,0,0,1,.73-1.46,11.36,11.36,0,0,1,2.18-2.18c1.27-1.46.1-5.07-1.46-7.29-3.21-4.6-9.28-5-10.92-5.1a14.28,14.28,0,0,0-8,1.46,14.71,14.71,0,0,0-6.56,8c-.71,1.83-2.39,6.1-.73,10.2S520.45,586.61,520.56,590.76Z" transform="translate(-103.2 -164)" fill="#25242c"></path></g><path d="M544.6,595.66c-1.14-.45-.66-.68-2.51-1.75A14.39,14.39,0,0,0,530,592.58c-4.67,1.37-5,3.78-9.24,5.4a66.32,66.32,0,0,1-7.32,1.15c-1.3.18-2.85.35-5.83.74-3.29.43-2.61.37-3.07.42-2,.2-2.22.08-2.66.38-1.22.83-1.21,2.91-1.2,4.61,0,2.28.45,2.77.43,3.87-.06,3.19-4,4.8-8.47,8.47-2.54,2.1-4.26,4.22-7.71,8.48-4.42,5.45-6.63,8.18-7.7,12.32-.45,1.72-1.81,7,.77,11.56.36.64.72,1.14,4.62,4.62,9.21,8.22,10.45,8.35,12.33,11.56,1,1.73,1.48,3.12,2.31,3.08,1.44-.07,2.46-4.4,3.32-8,.55-2.3.25-1.91.91-4.84.45-2,.66-2.5.39-3.3-.42-1.28-1.44-1.44-3.08-3.08a14.21,14.21,0,0,1-2.31-3.08c-.84-1.44-2.76-4.76-1.54-6.94.52-.93,1-.57,3.08-2.31a10.81,10.81,0,0,0,3-3.34c.88-1.7.51-2.61,1.58-3.59.65-.59,1.74-1.14,2.31-.77.88.56.21,3,0,3.85-1.44,5.65,2.27-2.65-2.31,17.72-3.34,14.89-5.43,19.79-7.7,31.59-1.34,6.94-.45,4.34-1.54,10-1.29,6.65-2.4,9.62-.77,11.56,1.42,1.68,4.09,1.58,5.39,1.54,16.91-.5,19,4.32,36.21,1.54,8.14-1.31,12.21-2,16.95-4.62,11.57-6.47,13.87-8.48,13.87-8.48,1-.9,4.65-4.15,6.93-3.08,1,.45,1.24,1.45,2.31,1.54a3.54,3.54,0,0,0,3.08-2.31c.85-2.13-.92-4.32-2.31-6.93-.68-1.3-1.49-4.74-3.08-11.56-2.78-11.94-4.17-17.9-5.39-26.19-1.31-8.87-1.85-16.07-2.09-20-.05-.89,0-1.39-.14-2.69s-.22-1.55-.08-1.92c.5-1.34,3.19-1.49,3.85-1.54,3.09-.21,6.17-1.42,12.32-3.85a37.09,37.09,0,0,0,10.79-6.93c1.69-1.43.52-.64,7.7-7.71,1.84-1.8,3.45-3.82,5.2-5.7,2-2.13,2.52-2.64,2.51-3.54,0-1.68-2.13-3-6.34-5.62a3.53,3.53,0,0,0-1.37-.55c-1.67-.25-3.11,1-3.85,1.54-2.19,1.73-.77-.09-6.93,3.86-5.36,3.44-4.47,3.56-7.71,5.39a43.62,43.62,0,0,1-9.24,3.85c-2.35.71-2,.36-4.8,1.18-1.37.4-1.69.55-2.13.36-1.39-.58-.56-3-2.32-5.39a6.9,6.9,0,0,0-3.08-2.31c-1.2-.44-2.27-.39-4.62,0C548.25,595.5,546.82,596.55,544.6,595.66Z" transform="translate(-103.2 -164)" fill="#036093"></path></g></svg> 