<?xml version="1.0" encoding="UTF-8"?> <svg xmlns="http://www.w3.org/2000/svg" xmlns:xlink="http://www.w3.org/1999/xlink" id="a91a722e-5259-4ef2-8c31-2e8a1147b313" viewBox="0 0 1100.05 806.69"><defs><linearGradient id="linear-gradient" x1="459.28" y1="-40" x2="459.28" y2="422.24" gradientTransform="matrix(1, 0, 0, -1, 200.84, 761.37)" gradientUnits="userSpaceOnUse"><stop offset="0" stop-color="gray" stop-opacity="0.25"></stop><stop offset="0.54" stop-color="gray" stop-opacity="0.12"></stop><stop offset="1" stop-color="gray" stop-opacity="0.1"></stop></linearGradient></defs><title>undraw_operating_system_4lr6</title><ellipse cx="629.76" cy="780.51" rx="122.56" ry="26.18" fill="#6c63ff" opacity="0.1" style="isolation: isolate"></ellipse><path d="M1070.55,683.84c-24.35,20.2-59,28.56-92.51,33.84l-5.64.86c-58.57,8.74-118.32,10.52-177.79,12.28-165.87,4.91-332.17,9.81-497.6-1.51-73.16-5-148.13-13.76-212.25-43.7l-1.67-.79c-.83-.39-1.66-.78-2.49-1.19A223.9,223.9,0,0,1,48,664.54c-18.31-13.06-33.43-29-41.42-47.91-12.52-29.66-5.9-63,8.4-92s35.8-55.12,54.34-82.43c5.44-8,10.6-16.3,15.4-24.81,30-53.37,44.88-115.13,13.43-166.56a226.77,226.77,0,0,0-13.43-19c-7.67-10-15.47-20-20.74-31.07C51.69,175,54.33,146,58.81,118.51c6-36.59,17-76,51.38-98.86,35.67-23.74,86.3-22.54,130.57-14,68.83,13.19,132.36,40.8,196.49,65.7s131.35,47.58,201.86,50c62.26,2.17,134.89-14,176.23-56.08,40.15-40.85,115.6-43.94,170-19.27,51.91,23.54,85.48,73.36,83,123.12-3.16,62.1-54.93,111.83-95.9,164.7-6.81,8.79-13.33,17.68-19.28,26.72-19.42,29.53-33.15,65-19.78,96.88,7.5,17.85,21.81,31.47,39.06,43.36,38.65,26.63,92,44.55,116,81.83C1109.11,614.79,1101.45,658.19,1070.55,683.84Z" transform="translate(0.04 -0.05)" fill="#1fbaed" style="isolation: isolate"></path><ellipse cx="972.54" cy="704.8" rx="57.01" ry="10.96" fill="#6c63ff"></ellipse><ellipse cx="971.59" cy="700.14" rx="6.64" ry="8.69" fill="#3f3d56"></ellipse><ellipse cx="971.59" cy="689.52" rx="6.64" ry="8.69" fill="#3f3d56"></ellipse><ellipse cx="971.59" cy="678.89" rx="6.64" ry="8.69" fill="#3f3d56"></ellipse><ellipse cx="971.59" cy="668.27" rx="6.64" ry="8.69" fill="#3f3d56"></ellipse><ellipse cx="971.59" cy="657.65" rx="6.64" ry="8.69" fill="#3f3d56"></ellipse><ellipse cx="971.59" cy="647.03" rx="6.64" ry="8.69" fill="#3f3d56"></ellipse><ellipse cx="971.59" cy="636.41" rx="6.64" ry="8.69" fill="#3f3d56"></ellipse><path d="M996.4,563.78a31,31,0,0,0,2.47-3.64l-17.44-2.86,18.86.14a31.77,31.77,0,0,0,.61-25.2l-25.31,13.15,23.34-17.15a31.8,31.8,0,0,0-55.12,31.72,31.48,31.48,0,0,0,2.61,3.86,31.69,31.69,0,0,0-3.63,5.8l22.64,11.77-24.14-8.1a31.78,31.78,0,0,0,5.13,29.86,31.8,31.8,0,1,0,50,0,31.78,31.78,0,0,0,0-39.32Z" transform="translate(0.04 -0.05)" fill="#6c63ff"></path><path d="M939.61,583.44a31.67,31.67,0,0,0,6.81,19.66,31.8,31.8,0,1,0,50,0C1000.66,597.69,939.61,579.87,939.61,583.44Z" transform="translate(0.04 -0.05)" opacity="0.1" style="isolation: isolate"></path><path d="M134.73,673.91c0,5.59-21.81,10.21-50,10.87H83.06c-.83-.39-1.66-.78-2.49-1.19A224.27,224.27,0,0,1,48,664.54c6.85-.8,14.64-1.34,23-1.52h1.13c1.82,0,3.67-.06,5.54-.06h7C112.92,663.69,134.73,668.37,134.73,673.91Z" transform="translate(0.04 -0.05)" fill="#6c63ff"></path><ellipse cx="76.8" cy="669.2" rx="6.64" ry="8.69" fill="#3f3d56"></ellipse><ellipse cx="76.8" cy="658.58" rx="6.64" ry="8.69" fill="#3f3d56"></ellipse><ellipse cx="76.8" cy="647.96" rx="6.64" ry="8.69" fill="#3f3d56"></ellipse><ellipse cx="76.8" cy="637.34" rx="6.64" ry="8.69" fill="#3f3d56"></ellipse><ellipse cx="76.8" cy="626.72" rx="6.64" ry="8.69" fill="#3f3d56"></ellipse><ellipse cx="76.8" cy="616.1" rx="6.64" ry="8.69" fill="#3f3d56"></ellipse><ellipse cx="76.8" cy="605.47" rx="6.64" ry="8.69" fill="#3f3d56"></ellipse><path d="M101.61,532.84a31.86,31.86,0,0,0,2.48-3.63l-17.45-2.84,18.87.14a31.79,31.79,0,0,0,.6-25.19l-25.3,13.13,23.34-17.16a31.8,31.8,0,1,0-52.52,35.58,32.24,32.24,0,0,0-3.63,5.8l22.64,11.7L46.5,542.3a31.89,31.89,0,0,0,5.13,29.86,31.8,31.8,0,1,0,50,0,31.78,31.78,0,0,0,0-39.32Z" transform="translate(0.04 -0.05)" fill="#6c63ff"></path><path d="M44.83,552.5a31.66,31.66,0,0,0,6.8,19.66,31.8,31.8,0,1,0,50,0C105.87,566.75,44.83,548.93,44.83,552.5Z" transform="translate(0.04 -0.05)" opacity="0.1" style="isolation: isolate"></path><g opacity="0.2"><path d="M305.84,555.29a24.89,24.89,0,0,1-.2,2.76q-11.64-4.68-22.92-9.93a18.6,18.6,0,0,1-10.6-5.17c-2.19-1.1-4.37-2.24-6.54-3.39a26.57,26.57,0,0,1,1.66-3c4.2-6.66,10.6-10.83,17.65-10.6s13.15,4.78,16.93,11.66A34.38,34.38,0,0,1,305.84,555.29Z" transform="translate(0.04 -0.05)" fill="#3f3d56"></path><path d="M307,520.37a34.47,34.47,0,0,1-5.13,17.32c-4.21,6.64-10.6,10.81-17.65,10.58-.49,0-1-.06-1.45-.1a18.6,18.6,0,0,1-10.6-5.17,25.23,25.23,0,0,1-4.88-6.37,35.83,35.83,0,0,1,1.1-35C272.6,495,279,490.8,286,491s13.15,4.78,16.93,11.66A34.43,34.43,0,0,1,307,520.37Z" transform="translate(0.04 -0.05)" fill="#3f3d56"></path><ellipse cx="286.2" cy="484.69" rx="28.63" ry="21.87" transform="translate(-207.25 755.39) rotate(-88.19)" fill="#3f3d56"></ellipse><ellipse cx="287.31" cy="449.71" rx="28.63" ry="21.87" transform="matrix(0.03, -1, 1, 0.03, -171.22, 722.62)" fill="#3f3d56"></ellipse><ellipse cx="288.41" cy="414.74" rx="28.63" ry="21.87" transform="translate(-135.2 689.85) rotate(-88.19)" fill="#3f3d56"></ellipse><path d="M214.12,172.83a106.14,106.14,0,0,1-7.76-12.24L264.08,153,202,151.47a104.91,104.91,0,0,1,.62-83l82,45.85L209.47,55.37A104.75,104.75,0,1,1,378.69,178,104.71,104.71,0,0,1,390,197.48l-75.77,36.38,80.33-24.17a104.84,104.84,0,0,1-20,97.78A104.75,104.75,0,1,1,210,302.28a104.73,104.73,0,0,1,4.08-129.45Z" transform="translate(0.04 -0.05)" fill="#6c63ff"></path><path d="M399.05,243.45a104.3,104.3,0,0,1-24.44,64A104.75,104.75,0,1,1,210,302.28C196.57,284,399.42,231.7,399.05,243.45Z" transform="translate(0.04 -0.05)" opacity="0.1" style="isolation: isolate"></path></g><g opacity="0.2"><path d="M798.18,480.51a19.39,19.39,0,0,1-.14,2q-8.31-3.28-16.31-7.06a13.29,13.29,0,0,1-7.55-3.68c-1.55-.79-3.11-1.6-4.65-2.41a20.16,20.16,0,0,1,1.18-2.13c3-4.74,7.54-7.7,12.56-7.54s9.36,3.4,12.05,8.3A24.46,24.46,0,0,1,798.18,480.51Z" transform="translate(0.04 -0.05)" fill="#3f3d56"></path><path d="M799,455.62A24.56,24.56,0,0,1,795.35,468c-3,4.72-7.54,7.69-12.56,7.53l-1-.07a13.29,13.29,0,0,1-7.55-3.68,18.07,18.07,0,0,1-3.47-4.54,25.51,25.51,0,0,1,.78-24.88c3-4.74,7.55-7.71,12.56-7.55s9.37,3.4,12,8.3A24.51,24.51,0,0,1,799,455.62Z" transform="translate(0.04 -0.05)" fill="#3f3d56"></path><ellipse cx="784.25" cy="430.27" rx="20.37" ry="15.56" transform="translate(329.46 1200.49) rotate(-88.19)" fill="#3f3d56"></ellipse><ellipse cx="785.03" cy="405.38" rx="20.37" ry="15.56" transform="translate(355.09 1177.16) rotate(-88.19)" fill="#3f3d56"></ellipse><ellipse cx="785.81" cy="380.5" rx="20.37" ry="15.56" transform="translate(380.72 1153.85) rotate(-88.19)" fill="#3f3d56"></ellipse><path d="M732.91,208.37a73.1,73.1,0,0,1-5.52-8.71l41.08-5.42-44.21-1.07a74.67,74.67,0,0,1,.43-59.07L783,166.69l-53.4-41.93a74.55,74.55,0,1,1,126.84,78.38A75.76,75.76,0,0,1,850,212a74.34,74.34,0,0,1,8.06,13.86l-53.89,25.89,57.17-17.2a74.56,74.56,0,0,1-14.22,69.58A74.54,74.54,0,1,1,730,300.46,74.55,74.55,0,0,1,732.91,208.37Z" transform="translate(0.04 -0.05)" fill="#6c63ff"></path><path d="M864.52,258.59a74.18,74.18,0,0,1-17.4,45.56A74.54,74.54,0,1,1,730,300.46C720.42,287.46,864.78,250.23,864.52,258.59Z" transform="translate(0.04 -0.05)" opacity="0.1" style="isolation: isolate"></path></g><g opacity="0.2"><path d="M585,402.46a19.43,19.43,0,0,1-.15,2q-8.31-3.29-16.31-7.06a13.29,13.29,0,0,1-7.54-3.68c-1.56-.79-3.11-1.6-4.65-2.41a17.64,17.64,0,0,1,1.17-2.13c3-4.73,7.55-7.7,12.56-7.54s9.36,3.4,12,8.3A24.57,24.57,0,0,1,585,402.46Z" transform="translate(0.04 -0.05)" fill="#3f3d56"></path><path d="M585.74,377.57a24.56,24.56,0,0,1-3.65,12.33c-3,4.72-7.54,7.69-12.56,7.53a4.67,4.67,0,0,1-1-.07,13.26,13.26,0,0,1-7.54-3.68,18.11,18.11,0,0,1-3.48-4.54,25.49,25.49,0,0,1,.79-24.88c3-4.74,7.54-7.71,12.56-7.55s9.36,3.4,12,8.3A24.52,24.52,0,0,1,585.74,377.57Z" transform="translate(0.04 -0.05)" fill="#3f3d56"></path><ellipse cx="570.22" cy="351.27" rx="20.38" ry="15.57" transform="translate(202.04 910.65) rotate(-88.28)" fill="#3f3d56"></ellipse><ellipse cx="571.78" cy="327.33" rx="20.37" ry="15.56" transform="translate(226.59 888.44) rotate(-88.19)" fill="#3f3d56"></ellipse><ellipse cx="572.58" cy="302.44" rx="20.37" ry="15.56" transform="translate(252.25 865.13) rotate(-88.19)" fill="#3f3d56"></ellipse><path d="M519.68,130.28a74.39,74.39,0,0,1-5.52-8.71l41.08-5.42L511,115.08A74.62,74.62,0,0,1,511.44,56l58.33,32.63L516.38,46.71A74.54,74.54,0,1,1,636.8,134a74.94,74.94,0,0,1,8.07,13.86L591,173.72l57.16-17.2a74.56,74.56,0,0,1-14.22,69.58,74.54,74.54,0,1,1-117.16-3.73,74.58,74.58,0,0,1,2.9-92.13Z" transform="translate(0.04 -0.05)" fill="#6c63ff"></path><path d="M651.29,180.54a74.18,74.18,0,0,1-17.4,45.56,74.54,74.54,0,1,1-117.11-3.73C507.19,209.42,651.55,172.18,651.29,180.54Z" transform="translate(0.04 -0.05)" opacity="0.1" style="isolation: isolate"></path></g><path d="M972.4,500.81V718.54c-58.57,8.74-118.32,10.52-177.79,12.28-165.87,4.91-332.17,9.81-497.6-1.51-73.16-5-148.13-13.76-212.25-43.7V417.37c.24-185-.76,0,0-185.56V165.22a14.1,14.1,0,0,1,14.1-14.1H958.3a14.1,14.1,0,0,1,14.1,14.1V333.85C973,500.37,972,334.37,972.4,500.81Z" transform="translate(0.04 -0.05)" fill="#3f3d56"></path><rect x="344.19" y="217.7" width="368.86" height="28.56" rx="5.22" fill="#6c63ff" opacity="0.3" style="isolation: isolate"></rect><path d="M687.94,233.22h-.61l-.23-.19a5.14,5.14,0,0,0,1.19-3.25,4.94,4.94,0,1,0-4.92,5,5.07,5.07,0,0,0,3.24-1.18l.22.19v.58l3.81,3.82,1.14-1.14Zm-4.57,0a3.44,3.44,0,1,1,3.43-3.45h0a3.42,3.42,0,0,1-3.4,3.44Z" transform="translate(0.04 -0.05)" fill="#444053"></path><rect x="222.88" y="493.15" width="34.42" height="11.9" rx="5" fill="#3f3d56" opacity="0.7" style="isolation: isolate"></rect><rect x="222.88" y="522.9" width="53.54" height="11.9" rx="5" fill="#6c63ff" opacity="0.3" style="isolation: isolate"></rect><rect x="222.88" y="508.03" width="107.09" height="11.9" rx="5" fill="#6c63ff" opacity="0.3" style="isolation: isolate"></rect><path d="M164.57,522.58a5.74,5.74,0,0,0-5.8,5.68h0a3.88,3.88,0,0,1-3.87,3.79,10,10,0,0,0,7.73,3.8,7.67,7.67,0,0,0,7.75-7.59h0a5.74,5.74,0,0,0-5.81-5.69Zm26.53-17.76-2.6-2.55a1.94,1.94,0,0,0-2.72,0l-17.34,17,5.32,5.22,17.32-17a1.86,1.86,0,0,0,.06-2.63Z" transform="translate(0.04 -0.05)" fill="#6c63ff"></path><rect x="222.88" y="345.61" width="34.42" height="11.9" rx="5" fill="#3f3d56" opacity="0.7" style="isolation: isolate"></rect><rect x="222.88" y="375.36" width="53.54" height="11.9" rx="5" fill="#6c63ff" opacity="0.3" style="isolation: isolate"></rect><rect x="222.88" y="360.48" width="107.09" height="11.9" rx="5" fill="#6c63ff" opacity="0.3" style="isolation: isolate"></rect><path d="M191.18,378.15,176,362.87a10.82,10.82,0,0,0-2.51-11.58,11,11,0,0,0-12.35-2.18l7.18,7.22-5,5L156,354.15a10.86,10.86,0,0,0,2.17,12.41,10.65,10.65,0,0,0,11.51,2.52l15.15,15.29a1.61,1.61,0,0,0,2.28.06l.06-.06,3.84-3.86a1.51,1.51,0,0,0,.39-2.1,2.62,2.62,0,0,0-.22-.25Z" transform="translate(0.04 -0.05)" fill="#6c63ff"></path><rect x="509.64" y="493.15" width="34.42" height="11.9" rx="5" fill="#3f3d56" opacity="0.7" style="isolation: isolate"></rect><rect x="509.64" y="522.9" width="53.54" height="11.9" rx="5" fill="#6c63ff" opacity="0.3" style="isolation: isolate"></rect><rect x="509.64" y="508.03" width="107.09" height="11.9" rx="5" fill="#6c63ff" opacity="0.3" style="isolation: isolate"></rect><path d="M459.44,526a10,10,0,0,1-9.89,0c-3.87,1.19-6.24,5.09-7.12,8.54h24.12C465.68,531.09,463.32,527.19,459.44,526Zm-4.94-18.37a8.69,8.69,0,1,0,8.69,8.69h0A8.69,8.69,0,0,0,454.5,507.63Zm0,15.3a6.71,6.71,0,0,1-6.07-4.14h12.14A6.71,6.71,0,0,1,454.5,522.93Z" transform="translate(0.04 -0.05)" fill="#6c63ff"></path><path d="M472.09,521.37a10.05,10.05,0,0,1-8.4.69,12,12,0,0,1-2.3,2.86,11.24,11.24,0,0,1,4.9,4.33H479.2A10.71,10.71,0,0,0,472.09,521.37ZM467.15,503a8.72,8.72,0,0,0-7.33,4,10.8,10.8,0,0,1,5.15,7.14h8.25a6.73,6.73,0,0,1-6.07,4.12,5.94,5.94,0,0,1-2.08-.38,12.11,12.11,0,0,1-.54,2.07,8.33,8.33,0,0,0,2.62.4,8.69,8.69,0,1,0,0-17.38Z" transform="translate(0.04 -0.05)" fill="#6c63ff"></path><rect x="222.88" y="603.81" width="34.42" height="11.9" rx="5" fill="#3f3d56" opacity="0.7" style="isolation: isolate"></rect><rect x="222.88" y="633.56" width="53.54" height="11.9" rx="5" fill="#6c63ff" opacity="0.3" style="isolation: isolate"></rect><rect x="222.88" y="618.69" width="107.09" height="11.9" rx="5" fill="#6c63ff" opacity="0.3" style="isolation: isolate"></rect><path d="M176.57,607.62h-9.82a3.28,3.28,0,0,0-3.32,3.24h0v.7h-.62a3.28,3.28,0,0,0-3.32,3.24h0v23.63a3.34,3.34,0,0,0,3.32,3.32h17.08a3.27,3.27,0,0,0,3.23-3.31h0v-.62h.71a3.27,3.27,0,0,0,3.23-3.31h0V618.12Zm0,3.66,6.84,6.84h-6.84Zm3.94,27.15a.67.67,0,0,1-.62.7H162.81a.72.72,0,0,1-.69-.7V614.8a.67.67,0,0,1,.69-.62h.62v21c0,1.82.86,2.66,2.67,2.66h14.41Zm3.93-3.94a.67.67,0,0,1-.61.7H166.75a.72.72,0,0,1-.69-.7V610.86a.67.67,0,0,1,.69-.62h7.19v10.51h10.5Z" transform="translate(0.04 -0.05)" fill="#6c63ff"></path><rect x="509.64" y="345.61" width="34.42" height="11.9" rx="5" fill="#3f3d56" opacity="0.7" style="isolation: isolate"></rect><rect x="509.64" y="375.36" width="53.54" height="11.9" rx="5" fill="#6c63ff" opacity="0.3" style="isolation: isolate"></rect><rect x="509.64" y="360.48" width="107.09" height="11.9" rx="5" fill="#6c63ff" opacity="0.3" style="isolation: isolate"></rect><path d="M457.32,353.37H445.94a3.52,3.52,0,0,0-3.5,3.51v19.25a3.5,3.5,0,0,0,3.5,3.5H475.7a3.5,3.5,0,0,0,3.5-3.5V360.79a3.52,3.52,0,0,0-3.5-3.5H460.82l-3.5-3.94Z" transform="translate(0.04 -0.05)" fill="#6c63ff"></path><rect x="792.83" y="493.15" width="34.42" height="11.9" rx="5" fill="#3f3d56" opacity="0.7" style="isolation: isolate"></rect><rect x="792.83" y="522.9" width="53.54" height="11.9" rx="5" fill="#6c63ff" opacity="0.3" style="isolation: isolate"></rect><rect x="792.83" y="508.03" width="107.09" height="11.9" rx="5" fill="#6c63ff" opacity="0.3" style="isolation: isolate"></rect><path d="M762.93,509.28l-6.77-.32-.4-4.41A1.7,1.7,0,0,0,753.9,503h0l-24.27,2a1.67,1.67,0,0,0-1.59,1.74v.05l1.73,19.35a1.7,1.7,0,0,0,1.88,1.49l1.23-.09-.19,3.76a1.87,1.87,0,0,0,1.81,1.93h0l27.09,1.28a1.88,1.88,0,0,0,2-1.74l1.14-21.6a1.86,1.86,0,0,0-1.8-1.92Zm-29.12.44-.58,11.06-1.44,2-1.32-14.61v-.09a.88.88,0,0,1,.78-.77l21.42-1.75a.81.81,0,0,1,.87.64h0l.21,2.52-18-.86a1.9,1.9,0,0,0-1.94,1.86Zm27.4,19.44-7-8.17-3.07,2.82-5.67-6.63L735.4,527.9l.86-16.33h0a1,1,0,0,1,1-.74l23.9,1.16a.87.87,0,0,1,.85.83h0Z" transform="translate(0.04 -0.05)" fill="#6c63ff"></path><path d="M756.89,518.79a2.63,2.63,0,1,0-2.62-2.64h0A2.64,2.64,0,0,0,756.89,518.79Z" transform="translate(0.04 -0.05)" fill="#6c63ff"></path><rect x="795.21" y="345.61" width="34.42" height="11.9" rx="5" fill="#3f3d56" opacity="0.7" style="isolation: isolate"></rect><rect x="795.21" y="375.36" width="53.54" height="11.9" rx="5" fill="#6c63ff" opacity="0.3" style="isolation: isolate"></rect><rect x="795.21" y="360.48" width="107.09" height="11.9" rx="5" fill="#6c63ff" opacity="0.3" style="isolation: isolate"></rect><circle cx="762.6" cy="356.58" r="5.25" fill="#6c63ff"></circle><path d="M758.53,362.82l-10.42,6.94-14.44-9.62v-3.51l14.44,9.63,8.3-5.53a7.38,7.38,0,0,1-.1-8H733.24a3.52,3.52,0,0,0-3.51,3.51v21.88a3.52,3.52,0,0,0,3.51,3.51H763a3.52,3.52,0,0,0,3.5-3.51v-15.2a7.36,7.36,0,0,1-8-.06Z" transform="translate(0.04 -0.05)" fill="#6c63ff"></path><ellipse cx="509.68" cy="745.97" rx="26.08" ry="5.01" fill="#6c63ff"></ellipse><ellipse cx="509.25" cy="743.84" rx="3.04" ry="3.97" fill="#3f3d56"></ellipse><ellipse cx="509.25" cy="738.98" rx="3.04" ry="3.97" fill="#3f3d56"></ellipse><ellipse cx="509.25" cy="734.12" rx="3.04" ry="3.97" fill="#3f3d56"></ellipse><ellipse cx="509.25" cy="729.26" rx="3.04" ry="3.97" fill="#3f3d56"></ellipse><ellipse cx="509.25" cy="724.41" rx="3.04" ry="3.97" fill="#3f3d56"></ellipse><ellipse cx="509.25" cy="719.55" rx="3.04" ry="3.97" fill="#3f3d56"></ellipse><ellipse cx="509.25" cy="714.69" rx="3.04" ry="3.97" fill="#3f3d56"></ellipse><path d="M520.57,681.5a13.23,13.23,0,0,0,1.13-1.67l-8-1.31,8.62.07a14.6,14.6,0,0,0,.28-11.52l-11.57,6,10.67-7.85a14.54,14.54,0,0,0-25.2,14.5,14.22,14.22,0,0,0,1.2,1.78,15.11,15.11,0,0,0-1.66,2.65l10.36,5.38-11-3.7a14.52,14.52,0,0,0,2.34,13.65,14.54,14.54,0,1,0,22.86,0,14.54,14.54,0,0,0,0-18Z" transform="translate(0.04 -0.05)" fill="#6c63ff"></path><path d="M494.6,690.49a14.46,14.46,0,0,0,3.11,9,14.54,14.54,0,1,0,22.86,0C522.52,697,494.6,688.86,494.6,690.49Z" transform="translate(0.04 -0.05)" opacity="0.1" style="isolation: isolate"></path><path d="M752,390.23a13.69,13.69,0,0,1-1-2.7c-.1-1.07.32-2.48-.63-3-.53-.29-1.27-.07-1.74-.45a2.16,2.16,0,0,1-.51-1.2,4.11,4.11,0,0,0-3.8-3c1-2.71,4.68-3.37,6.3-5.76.81-1.19.55-3.38-.88-3.39a2.46,2.46,0,0,0-1,.25l-5.33,2.2a27.2,27.2,0,0,0-3,1.39c-2.93,1.67-5.12,4.38-7.09,7.13a30.64,30.64,0,0,0-4.41,8,18,18,0,0,0-.94,5.49v.56c-.87.15-1.58.53-2.49.71l-2.07,5.47a6.87,6.87,0,0,1-1.35,2.49,13.42,13.42,0,0,1-1.46,1.15,8.46,8.46,0,0,0-2.91,7.37,7.93,7.93,0,0,0-4.66,9.78,9.3,9.3,0,0,0-6.81,6,4.42,4.42,0,0,1-.89,1.88,3.56,3.56,0,0,1-2.37.73c-2.34.15-4.38,2-6.49,1a13.2,13.2,0,0,0-7.71-1.08,5.74,5.74,0,0,1-1.65.15,4.34,4.34,0,0,1-1.35-.47,10.51,10.51,0,0,0-3.06-1.21,2.83,2.83,0,0,0-2.9,1.12c-.74-.81-1.18-1.86-1.85-2.73a3,3,0,0,0-2.82-1.35c.7-.63,0-1.89-.93-2.11a11.49,11.49,0,0,0-2.81.1c-2.44,0-4.32-2.24-6.69-2.83-2.18-.53-5.09.11-6.21-1.85-.35-.63-.45-1.45-1-1.92a3.71,3.71,0,0,0-.71-1.45,4.77,4.77,0,0,0-3.76-1.12,15.47,15.47,0,0,0-4.37.75,2.23,2.23,0,0,0-.15-.56,11.1,11.1,0,0,0-4.84-5.94,20,20,0,0,0-5.66-2.26V407a22.6,22.6,0,0,1,1.16-7.43c.08-.26.18-.52.27-.78a26.6,26.6,0,0,0,12-44.63,7.16,7.16,0,0,0-.21-1.6,7.86,7.86,0,0,0-1.6-3.12c-1.22-2.72-3.12-3.92-5.55-5.06-.7-.33-1.44-.65-2.22-1-3.87-1.74-7.61-4.3-12-4.29-4,0-7.86,2.21-11.82,2.13h-.95c-1.11-.13-2.44-.39-3.17.46a4.5,4.5,0,0,0-.56,1.09,2.64,2.64,0,0,1-.2.37h0a4.4,4.4,0,0,1-.51.69h0c-1.28,1.4-3.43,2-5.2,2.94-4,2.05-6.62,6.23-7.66,10.61a33.43,33.43,0,0,0,.1,13.44c.4,2.22,1.26,4.74,2.84,6.14h0s-13.37,9.51-10.93,10.86c1.33.74,6.87-2.77,11.64-6.12.05.2.09.41.15.61a44.46,44.46,0,0,0,2.18,6.25c1,2.39,2.44,5,4.93,5.69a5.36,5.36,0,0,0,1.69.19h.44a39.39,39.39,0,0,1-1.15,10.87,6.6,6.6,0,0,0-4.09,1.13,3.32,3.32,0,0,1-1.66.88,2.87,2.87,0,0,1-1.71-.84,9.7,9.7,0,0,0-12.14.64c-4.84,4.57-4.29,13.49-10,16.95-1.56.95-3.56,1.46-4.48,3.05a11.41,11.41,0,0,1-.77,1.47,3.94,3.94,0,0,1-1.36,1,26.22,26.22,0,0,0-4.68,2.7,6.7,6.7,0,0,0-2.69,4.54,8.63,8.63,0,0,0,.82,3.81,36.73,36.73,0,0,0,3.12,6,6.43,6.43,0,0,0-1.26,2.95c-.4,2.81.94,5.58,1.09,8.42.13,2.48-.66,4.9-1.1,7.34-1.76,9.54,1.61,19.2,5,28.26a14.64,14.64,0,0,1,1.2,4.65c.09,3-1.6,5.67-2.07,8.59-1,6.14,3.53,11.92,3.63,18.13,0,2.87-.86,5.78-.14,8.55.47,1.85,1.62,3.44,2.44,5.17,1.44,3.06,1.83,6.53,3.21,9.62a23.09,23.09,0,0,0,7.12,8.48c1.73,5.49-.73,12.12,0,18,.94-.37,1.89-.71,2.85-1a41.14,41.14,0,0,0,6.3,24.84c1.55,2.42,3.37,4.68,4.54,7.31a34.26,34.26,0,0,1,1.77,5.79q2.5,10.47,5,20.92c1.36,5.65,2.73,11.4,2.32,17.2-.28,4-1.3,8.57,1.18,11.77a8.4,8.4,0,0,1,1.49,2.06,5.23,5.23,0,0,1,0,2.72,181.27,181.27,0,0,0-2.48,20.39c-.56.75-1.12,1.51-1.63,2.26-4.11,6-6.09,13.21-7.69,20.32a245.33,245.33,0,0,0-5.16,42.44,28.43,28.43,0,0,0-5.26,6.41c-2.15,4-2.43,8.7-2.66,13.24a4.75,4.75,0,0,0,.24,2.18,4.53,4.53,0,0,0,2.24,1.68l1.24.59c-.27,1-.51,2-.72,3-1.58-1.78-4.39-4.6-4.87-2.54a101.69,101.69,0,0,0-2.56,21,1.77,1.77,0,0,0,1.38,2.09,1.51,1.51,0,0,0,.52,0A116.11,116.11,0,0,0,610,801.37c5.65,0,11.29-.46,16.92-.89l5.77-.44a128.08,128.08,0,0,0,17.67-2.19c2.55-.56,5.18-1.35,7.1-3.14s2.86-4.85,1.54-7.12h0c-1.61-2.74-5.37-2.94-8.51-3.38a28,28,0,0,1-8.92-2.84c-.63-.32-1.24-.68-1.85-1a1.39,1.39,0,0,0,.48-.14c2.7-.91,4.85-3,7.39-4.25,3-1.45,6.31-1.78,9.57-2.19s6.62-1,9.33-2.86c2.54-1.74,4.34-4.91,3.75-7.89a4.34,4.34,0,0,0-.16-.62c-1-3.23-4.5-5-7.76-5.8s-6.8-1.28-9.44-3.38l-.39-.31c-.22-.19-.45-.37-.69-.56a5.63,5.63,0,0,0,.77-3.26c-.14-1.79-1.18-3.37-1.89-5-1.39-3.25-1.5-6.88-1.88-10.39-.94-8.83-3.65-17.35-5.69-26-.23-1-.45-2-.67-3a62.86,62.86,0,0,1,7.27-11.64,38.07,38.07,0,0,0,7-13.77c.42-1.54.73-3.1,1-4.67q5.41-27.09,10.24-54.27a45,45,0,0,0,.91-7.84,23.84,23.84,0,0,0,1.35-7.43c.94-3.67,1.89-7.52,1.12-9.92-.54-1.7-.81-7.51-1.11-13.08a49.38,49.38,0,0,0-.54-8.93c-.09-.51-.19-1-.3-1.51q-.09-.45-.18-.75a25.43,25.43,0,0,0-1.76-4.86,22.6,22.6,0,0,0-1.32-2.71,12.38,12.38,0,0,0-1-1.48,61.7,61.7,0,0,1,6.22.58c.5.07,1.12.11,1.43-.3a1.48,1.48,0,0,0,.18-.77,12.68,12.68,0,0,0-1.62-6.76c-.8-1.42-1.91-2.8-1.88-4.43a6.48,6.48,0,0,1,.55-2.2l2.77-7.44c2.35-6.29,1.23-13.58,2.45-20.18a118.65,118.65,0,0,0,1.82-15.61c.23-4.47.09-9.32-2.6-12.9a14.41,14.41,0,0,1-2-2.84,8.51,8.51,0,0,1-.48-3.39q-.07-10.51.42-21a206.44,206.44,0,0,0,35.05-4,22.31,22.31,0,0,0,4-1.08,19.86,19.86,0,0,0,4-2.53c3.93-2.84,7.92-5.73,10.91-9.55a32.4,32.4,0,0,0,6.46-15.94c2.84-2.63,4.35-6.37,5.77-10a15.39,15.39,0,0,0,1.32-4.85c.07-1.72-1.06-3.52-.74-5.21a13.84,13.84,0,0,1,4.19-7.58,2.76,2.76,0,0,0,1-1.33,2.17,2.17,0,0,0-.23-1.3l-.09-.15c.28-.17.54-.35.81-.53.93-.66,1.82-1.39,2.69-2.1a17,17,0,0,0,3.49-3.54A5.75,5.75,0,0,0,752,390.23ZM623.69,773.52a2.8,2.8,0,0,0-.71.06,9.36,9.36,0,0,0-2.54.73l-.19.1c1.1-2.38,2.14-4.8,3.08-7.26.11-.29.21-.58.32-.88l-.12,1.64A20.27,20.27,0,0,0,623.69,773.52Z" transform="translate(0.04 -0.05)" fill="url(#linear-gradient)"></path><path d="M638,409.1c.1,3.88,1.42,7.64,1.62,11.52-11.43.57-22.72-5-34-3.28,3.17-2,4.86-5.74,5.86-9.37a38.9,38.9,0,0,0,1.11-14.41,6.86,6.86,0,0,0-.14-.79c-.42-1.9-1.51-4.59-1.22-6.08.39-2,2.25-1.59,3.93-1.48a150.58,150.58,0,0,1,15.26,2c1.32.23,14.13,3.43,14.33,3.1a59.74,59.74,0,0,0-5.55,11.43A22.22,22.22,0,0,0,638,409.1Z" transform="translate(0.04 -0.05)" fill="#ee8e9e"></path><path d="M751.05,397.1a16.64,16.64,0,0,1-3.49,3.52c-.87.71-1.76,1.44-2.69,2.09a11.55,11.55,0,0,1-5.72,2.33c-2.72.18-8.51-1.42-10.2-3.75a6.82,6.82,0,0,1-1-3.91,17.79,17.79,0,0,1,.94-5.46,30.64,30.64,0,0,1,4.41-8c2-2.74,4.16-5.43,7.09-7.09a27.2,27.2,0,0,1,3-1.39l5.33-2.18a2.47,2.47,0,0,1,1-.26c1.43,0,1.69,2.2.88,3.38-1.62,2.38-5.27,3-6.3,5.73a4.1,4.1,0,0,1,3.8,2.95,2.1,2.1,0,0,0,.51,1.19c.47.37,1.21.16,1.74.45.95.5.53,1.91.63,3a13.51,13.51,0,0,0,1,2.68A5.71,5.71,0,0,1,751.05,397.1Z" transform="translate(0.04 -0.05)" fill="#ee8e9e"></path><path d="M593.4,786.45c.88-.88,2.32-.73,3.55-.54a132,132,0,0,0,19.95,1.61c.84-4.08-1.59-8-2.37-12.14a10.6,10.6,0,0,0-.8-3.08c-.94-1.8-3.06-2.63-5.05-3-3.59-.76-9.21-2.09-11.22,1.54C595.05,775.15,594.28,781.59,593.4,786.45Z" transform="translate(0.04 -0.05)" fill="#65617d"></path><path d="M666.49,771c-2.71,1.85-6.07,2.42-9.33,2.84s-6.61.74-9.57,2.19c-2.54,1.26-4.69,3.32-7.39,4.22a15.33,15.33,0,0,1-7.67.12c-3-.57-6.26-1.67-7.89-4.29-1.46-2.32-1.31-5.27-1.11-8,.24-3.09.47-6.2.69-9.3a4.41,4.41,0,0,1,.58-2.24c2.19-3.2,7.52,1.33,10.37,1.33,4.52,0,9.37-2.46,12.62-5.45a3.82,3.82,0,0,1,1-.74c1.29-.58,2.58.49,3.72,1.42l.39.31c2.64,2.09,6.18,2.52,9.44,3.37s6.75,2.55,7.76,5.77a4.21,4.21,0,0,1,.16.61C670.83,766.13,669,769.28,666.49,771Z" transform="translate(0.04 -0.05)" fill="#3f3d56"></path><path d="M666.49,771c-2.71,1.85-6.07,2.42-9.33,2.84s-6.61.74-9.57,2.19c-2.54,1.26-4.69,3.32-7.39,4.22a15.33,15.33,0,0,1-7.67.12c-3-.57-6.26-1.67-7.89-4.29-1.46-2.32-1.31-5.27-1.11-8,.24-3.09.47-6.2.69-9.3a4.41,4.41,0,0,1,.58-2.24c2.19-3.2,7.52,1.33,10.37,1.33,4.52,0,9.37-2.46,12.62-5.45a3.82,3.82,0,0,1,1-.74c1.29-.58,2.58.49,3.72,1.42l.39.31c2.64,2.09,6.18,2.52,9.44,3.37s6.75,2.55,7.76,5.77a4.21,4.21,0,0,1,.16.61C670.83,766.13,669,769.28,666.49,771Z" transform="translate(0.04 -0.05)" fill="#434175"></path><path d="M666.49,772.06c-2.71,1.85-6.07,2.43-9.33,2.85s-6.61.73-9.57,2.18c-2.54,1.26-4.69,3.32-7.39,4.22a15.33,15.33,0,0,1-7.67.12,12.6,12.6,0,0,1-7.89-5.33c-1.46-2.32-1.31-5.27-1.11-8,.24-3.09.47-6.2.69-9.3a4.38,4.38,0,0,1,.58-2.24c2.19-3.2,7.52,1.33,10.37,1.33,4.52,0,9.37-2.46,12.62-5.45a3.82,3.82,0,0,1,1-.74c1.29-.58,2.58.49,3.72,1.42a26.68,26.68,0,0,1-3.17,6.56,13.63,13.63,0,0,1-10,6.22c-2,.15-4.09-.25-6,.27s-3.77,2.52-3.08,4.42,3.06,2.25,5,2.36a22.28,22.28,0,0,0,8.21-.58c1.6-.53,3.07-1.41,4.62-2.06,6.62-2.74,15-1.21,20.46-5.85a13,13,0,0,1,1.67-1.28C671.67,766.17,669,770.37,666.49,772.06Z" transform="translate(0.04 -0.05)" fill="#e8eaf2"></path><path d="M666.49,772.06c-2.71,1.85-6.07,2.43-9.33,2.85s-6.61.73-9.57,2.18c-2.54,1.26-4.69,3.32-7.39,4.22a15.33,15.33,0,0,1-7.67.12,12.6,12.6,0,0,1-7.89-5.33c-1.46-2.32-1.31-5.27-1.11-8,.24-3.09.47-6.2.69-9.3a4.38,4.38,0,0,1,.58-2.24c2.19-3.2,7.52,1.33,10.37,1.33,4.52,0,9.37-2.46,12.62-5.45a3.82,3.82,0,0,1,1-.74c1.29-.58,2.58.49,3.72,1.42a26.68,26.68,0,0,1-3.17,6.56,13.63,13.63,0,0,1-10,6.22c-2,.15-4.09-.25-6,.27s-3.77,2.52-3.08,4.42,3.06,2.25,5,2.36a22.28,22.28,0,0,0,8.21-.58c1.6-.53,3.07-1.41,4.62-2.06,6.62-2.74,15-1.21,20.46-5.85a13,13,0,0,1,1.67-1.28C671.67,766.17,669,770.37,666.49,772.06Z" transform="translate(0.04 -0.05)" opacity="0.05" style="isolation: isolate"></path><path d="M594.64,569.44a40.8,40.8,0,0,0,5.58,30c1.55,2.4,3.37,4.66,4.54,7.27a34.33,34.33,0,0,1,1.77,5.77l5,20.8c1.36,5.62,2.73,11.34,2.32,17.11-.28,4-1.3,8.53,1.18,11.71a8.34,8.34,0,0,1,1.49,2,5.15,5.15,0,0,1,0,2.7c-2.54,15.11-4.43,30.9.16,45.51,4.17,13.25,4.41,27.93,8,41.35a9.31,9.31,0,0,0,2.19,4.59,7.31,7.31,0,0,0,3.3,1.56c5.22,1.25,10.73-.21,15.59-2.46,3.42-1.59,7.1-4.37,6.81-8.12-.14-1.79-1.18-3.36-1.89-5-1.39-3.23-1.5-6.83-1.88-10.33-.94-8.78-3.65-17.26-5.69-25.84s-3.44-17.57-1.71-26.23A229.45,229.45,0,0,1,658.22,630a6.4,6.4,0,0,1,1.55-2.32,17.23,17.23,0,0,0,2.19-1.49,6.63,6.63,0,0,0,1-2.72c.76-2.74,3-4.77,4.53-7.17,3.83-6.08,2.62-13.87,2.48-21-.14-7,.86-14-.28-20.92s-5-13.94-11.69-16.06c-3.29-1.07-6.85-.82-10.29-.48C629.48,559.57,611.76,562.88,594.64,569.44Z" transform="translate(0.04 -0.05)" fill="#696791"></path><path d="M594.64,570.44a40.8,40.8,0,0,0,5.58,30c1.55,2.4,3.37,4.66,4.54,7.27a34.33,34.33,0,0,1,1.77,5.77l5,20.8c1.36,5.62,2.73,11.34,2.32,17.11-.28,4-1.3,8.53,1.18,11.71a8.34,8.34,0,0,1,1.49,2,5.15,5.15,0,0,1,0,2.7c-2.54,15.11-4.43,30.9.16,45.51,4.17,13.25,4.41,27.93,8,41.35a9.31,9.31,0,0,0,2.19,4.59,7.31,7.31,0,0,0,3.3,1.56c5.22,1.25,10.73-.21,15.59-2.46,3.42-1.59,7.1-4.37,6.81-8.12-.14-1.79-1.18-3.36-1.89-5-1.39-3.23-1.5-6.83-1.88-10.33-.94-8.78-3.65-17.26-5.69-25.84s-3.44-17.57-1.71-26.23A229.45,229.45,0,0,1,658.22,631a6.4,6.4,0,0,1,1.55-2.32,17.23,17.23,0,0,0,2.19-1.49,6.63,6.63,0,0,0,1-2.72c.76-2.74,3-4.77,4.53-7.17,3.83-6.08,2.62-13.87,2.48-21-.14-7,.86-14-.28-20.92s-5-13.94-11.69-16.06c-3.29-1.07-6.85-.82-10.29-.48C629.48,560.57,611.76,563.88,594.64,570.44Z" transform="translate(0.04 -0.05)" opacity="0.1" style="isolation: isolate"></path><path d="M668.92,613.23a43.85,43.85,0,0,1-.91,8.07q-4.83,27-10.28,54c-.32,1.56-.63,3.12-1.05,4.65a37.77,37.77,0,0,1-7,13.7C634.53,712.54,633.22,740,625,762.75c-.56,1.54-1.11,3.09-1.7,4.61a116.82,116.82,0,0,1-5.07,11.31,3.19,3.19,0,0,1-1,1.35,3,3,0,0,1-1.65.33,48.31,48.31,0,0,1-21.36-4.86A4.48,4.48,0,0,1,592,773.6a4.71,4.71,0,0,1-.24-2.17c.23-4.51.51-9.19,2.66-13.16a28.27,28.27,0,0,1,5.26-6.38,242.72,242.72,0,0,1,5.16-42.22c1.6-7.08,3.58-14.23,7.69-20.21,3-4.42,7.38-8.78,6.84-14.11-.23-2.34-1.21-5.25.69-6.62.83-.61,2.06-.69,2.63-1.55a3.08,3.08,0,0,0,.37-1.32,32.66,32.66,0,0,0-.68-10.93,57.94,57.94,0,0,1-1.63-7.13,9,9,0,0,1,1.79-6.88c.1-4.87,0-9.92.07-14.78a27.26,27.26,0,0,0-.69-8.25c-.36-1.27-.93-2.49-1.21-3.79-1-4.67,1.52-10.27-1.5-14-1.26-1.54-3.2-2.31-4.85-3.42a17.72,17.72,0,0,1-6.66-9.57,52.5,52.5,0,0,1-1.9-11.74,11.89,11.89,0,0,1,0-2.53,4.26,4.26,0,0,1,.34-1.27c.94-2.11,3.46-2.93,5.71-3.47a185.09,185.09,0,0,1,43.61-5.1c5.44-3.7,8.49-2.37,10.8,1.54a40.85,40.85,0,0,1,3.07,7.51c1,3.18,1.12,21,2.14,24.17C672.72,600.37,668.87,608.87,668.92,613.23Z" transform="translate(0.04 -0.05)" fill="#696791"></path><path d="M570.68,451.29c-.4,2.8.94,5.55,1.09,8.38.13,2.47-.66,4.88-1.1,7.31-1.76,9.48,1.61,19.09,5,28.11a14.46,14.46,0,0,1,1.2,4.62c.09,2.94-1.6,5.64-2.07,8.55-1,6.11,3.53,11.85,3.63,18,0,2.85-.86,5.75-.14,8.5.47,1.84,1.62,3.43,2.43,5.14,1.45,3,1.84,6.5,3.22,9.57,2.49,5.55,7.84,9.18,12.94,12.51,2.89-1,6-2.11,7.62-4.72a11.62,11.62,0,0,0,1.33-4.14c1.1-6.33,1.06-12.79,1-19.21a118.71,118.71,0,0,0-.83-16.54c-1-7-3.29-13.7-4.92-20.57-2-8.65-3.09-17.59-6.28-25.9-2.81-7.29-7.17-13.84-11.77-20.12-1.75-2.39-3.14-5.81-6.54-5.26A7.14,7.14,0,0,0,570.68,451.29Z" transform="translate(0.04 -0.05)" fill="#434175"></path><path d="M570.68,449.29c-.4,2.8.94,5.55,1.09,8.38.13,2.47-.66,4.88-1.1,7.31-1.76,9.48,1.61,19.09,5,28.11a14.46,14.46,0,0,1,1.2,4.62c.09,2.94-1.6,5.64-2.07,8.55-1,6.11,3.53,11.85,3.63,18,0,2.85-.86,5.75-.14,8.5.47,1.84,1.62,3.43,2.43,5.14,1.45,3,1.84,6.5,3.22,9.57,2.49,5.55,7.84,9.18,12.94,12.51,2.89-1,6-2.11,7.62-4.72a11.62,11.62,0,0,0,1.33-4.14c1.1-6.33,1.06-12.79,1-19.21a118.71,118.71,0,0,0-.83-16.54c-1-7-3.29-13.7-4.92-20.57-2-8.65-3.09-17.59-6.28-25.9-2.81-7.29-7.17-13.84-11.77-20.12-1.75-2.39-3.14-5.81-6.54-5.26A7.14,7.14,0,0,0,570.68,449.29Z" transform="translate(0.04 -0.05)" opacity="0.05" style="isolation: isolate"></path><path d="M644.66,390.28a59.74,59.74,0,0,0-5.55,11.43,26.23,26.23,0,0,1-6.3.76c-8.25,0-14.08-4.69-18.93-10.62-.42-1.9-3-3.67-2.74-5.16.39-2,2.25-1.59,3.93-1.48a150.58,150.58,0,0,1,15.26,2C631.65,387.37,644.46,390.61,644.66,390.28Z" transform="translate(0.04 -0.05)" opacity="0.1" style="isolation: isolate"></path><circle cx="632.85" cy="375.29" r="26.41" fill="#ee8e9e"></circle><path d="M666.18,564.56c-4.57-.27-9.18-.08-13.76.1a47.24,47.24,0,0,0-8.55.88c-3.47.79-6.71,2.37-10.13,3.36-5.48,1.59-11.26,1.66-16.93,2.22a94.36,94.36,0,0,0-11.09,1.74,4.26,4.26,0,0,1,.34-1.27c.94-2.11,3.46-2.93,5.71-3.47a185.09,185.09,0,0,1,43.61-5.1C660.82,559.37,663.87,560.65,666.18,564.56Z" transform="translate(0.04 -0.05)" opacity="0.1" style="isolation: isolate"></path><path d="M648.18,418.58c-1.15,1.33-2.7,2.8-4.4,2.37a6,6,0,0,1-1.72-.92c-3-2-6.78-2.42-10.36-3a152.72,152.72,0,0,1-21.34-4.8A21.67,21.67,0,0,0,604,411c-4.47,0-8.44,3-11.24,6.48s-4.8,7.57-7.55,11.1c-2,2.52-4.3,4.74-6.13,7.35-4.62,6.59-5.62,15.19-4.42,23.15s4.37,15.47,7.53,22.88a77.9,77.9,0,0,0,6.14,12.46c-1.06,6-.5,13,2.38,18.4.93,1.77,2.08,3.49,2.39,5.47a13.77,13.77,0,0,1-.16,4l-1.35,9.56c-.41,2.91-.82,5.82-1.35,8.72-1,5.29-2.28,11,.17,15.82,2.93,5.74-.15,13.09.62,19.49a97.8,97.8,0,0,1,25.74-6.11c5.67-.56,11.45-.63,16.93-2.22,3.42-1,6.66-2.57,10.13-3.37a47.23,47.23,0,0,1,8.55-.87c6.33-.25,12.7-.51,19,.42.5.08,1.12.12,1.43-.29a1.52,1.52,0,0,0,.19-.75,12.63,12.63,0,0,0-1.62-6.72c-.8-1.41-1.91-2.79-1.88-4.41a6.36,6.36,0,0,1,.55-2.19l2.77-7.4c2.35-6.25,1.23-13.51,2.45-20.07a117.46,117.46,0,0,0,1.82-15.53c.23-4.45.09-9.27-2.6-12.83a14.34,14.34,0,0,1-2-2.83,8.41,8.41,0,0,1-.48-3.37q-.09-13.37.73-26.72c-2.34-4.21-4.79-8.51-7.13-12.72-2.73-4.9-5.49-9.9-6.59-15.4-.73-3.63-.71-7.38-1.23-11.05a5,5,0,0,0-.93-2.59,4.68,4.68,0,0,0-3.76-1.11A16.43,16.43,0,0,0,648.18,418.58Z" transform="translate(0.04 -0.05)" fill="#434175"></path><path d="M744.87,402.71a11.55,11.55,0,0,1-5.72,2.33c-2.72.18-8.51-1.42-10.2-3.75a6.82,6.82,0,0,1-1-3.91,4.89,4.89,0,0,1,1.14-.22,29.93,29.93,0,0,1,8.86.36c2.88.7,5.66,2.45,6.87,5.16Z" transform="translate(0.04 -0.05)" opacity="0.1" style="isolation: isolate"></path><path d="M657,459.83c1.61,2,3.28,4.06,5.56,5.25,2.63,1.36,5.72,1.39,8.67,1.33a208.08,208.08,0,0,0,36.23-4,22.28,22.28,0,0,0,4-1.07,20.26,20.26,0,0,0,4-2.52c3.93-2.82,7.92-5.7,10.91-9.51a32.09,32.09,0,0,0,6.46-15.85c2.84-2.61,4.35-6.34,5.77-9.93a15.22,15.22,0,0,0,1.32-4.82c.07-1.71-1.06-3.5-.74-5.18a13.58,13.58,0,0,1,4.19-7.54,2.76,2.76,0,0,0,1-1.33,2.14,2.14,0,0,0-.23-1.29c-1.22-2.71-4-4.45-6.88-5.16a29.33,29.33,0,0,0-8.87-.36,21.05,21.05,0,0,0-2.9.78l-2.07,5.43a6.75,6.75,0,0,1-1.35,2.48,13.42,13.42,0,0,1-1.46,1.15A8.39,8.39,0,0,0,717.7,415a7.88,7.88,0,0,0-4.66,9.72,9.28,9.28,0,0,0-6.81,6,4.5,4.5,0,0,1-.89,1.87,3.67,3.67,0,0,1-2.34.76c-2.34.14-4.38,2-6.49,1a13.28,13.28,0,0,0-7.71-1.08,5.74,5.74,0,0,1-1.65.15,4.34,4.34,0,0,1-1.35-.47,10.78,10.78,0,0,0-3.06-1.2,2.83,2.83,0,0,0-2.9,1.12c-.74-.81-1.18-1.85-1.85-2.72a3,3,0,0,0-2.82-1.35c.7-.62,0-1.87-.93-2.1a12.58,12.58,0,0,0-2.81.1c-2.44,0-4.32-2.23-6.69-2.81-2.18-.53-5.09.11-6.21-1.84-.39-.69-.47-1.63-1.14-2a2.17,2.17,0,0,0-1.48-.17,14.16,14.16,0,0,0-4.45,1.35c-2.29,9-1.09,18.24.65,27.3A24.08,24.08,0,0,0,657,459.83Z" transform="translate(0.04 -0.05)" fill="#434175"></path><path d="M656.93,491.88l-11.37,22.94c1.23-2.13,3.82-3,5.87-4.31A15.54,15.54,0,0,0,657,503a47.09,47.09,0,0,0,2.15-9.29c.23-1.45.71-3.49,0-4.81C657.89,489.14,657.47,490.81,656.93,491.88Z" transform="translate(0.04 -0.05)" opacity="0.1" style="isolation: isolate"></path><path d="M624.21,511.37c-2.57,2.54-5.71,4.41-8.53,6.66-6.6,5.26-11.3,12.46-15.89,19.53a30.43,30.43,0,0,0-3.25,5.92c.54.46,1.34,0,1.88-.49l8.93-7.84a20.26,20.26,0,0,0,3-3c1.55-2.09,2.24-4.69,3.65-6.88a26.6,26.6,0,0,1,5.43-5.53c2.05-1.76,11.47-9.73,9.18-12.83C626.92,507.71,625.56,510,624.21,511.37Z" transform="translate(0.04 -0.05)" opacity="0.1" style="isolation: isolate"></path><path d="M643.72,412a26.78,26.78,0,0,0-9.45-3.11,19.85,19.85,0,0,0-6-.43c-1.86.23-3.65.95-5.52,1-2.63.15-5.14-.92-7.68-1.61s-5.47-1-7.6.57a3.32,3.32,0,0,1-1.66.88,3,3,0,0,1-1.71-.84,9.74,9.74,0,0,0-12.14.64c-4.84,4.54-4.29,13.41-10,16.86-1.56,1-3.56,1.45-4.48,3a12,12,0,0,1-.77,1.46,3.94,3.94,0,0,1-1.36,1,26.17,26.17,0,0,0-4.68,2.69,6.64,6.64,0,0,0-2.69,4.51,8.54,8.54,0,0,0,.82,3.79,35.61,35.61,0,0,0,34.61,22.13,5.44,5.44,0,0,0,3.63-1.13,7.1,7.1,0,0,0,1.27-2.09c2.67-5.59,7.68-9.72,10.86-15,1.89-3.17,3.11-6.72,5.09-9.84,3-4.73,7.54-8.23,12-11.62,2.52-1.91,5.31-3.92,8.47-3.79,2.81.12,4.86.27,3.82-3.17A11,11,0,0,0,643.72,412Z" transform="translate(0.04 -0.05)" fill="#434175"></path><path d="M643.72,412a26.78,26.78,0,0,0-9.45-3.11,19.85,19.85,0,0,0-6-.43c-1.86.23-3.65.95-5.52,1-2.63.15-5.14-.92-7.68-1.61s-5.47-1-7.6.57a3.32,3.32,0,0,1-1.66.88,3,3,0,0,1-1.71-.84,9.74,9.74,0,0,0-12.14.64c-4.84,4.54-4.29,13.41-10,16.86-1.56,1-3.56,1.45-4.48,3a12,12,0,0,1-.77,1.46,3.94,3.94,0,0,1-1.36,1,26.17,26.17,0,0,0-4.68,2.69,6.64,6.64,0,0,0-2.69,4.51,8.54,8.54,0,0,0,.82,3.79,35.61,35.61,0,0,0,34.61,22.13,5.44,5.44,0,0,0,3.63-1.13,7.1,7.1,0,0,0,1.27-2.09c2.67-5.59,7.68-9.72,10.86-15,1.89-3.17,3.11-6.72,5.09-9.84,3-4.73,7.54-8.23,12-11.62,2.52-1.91,5.31-3.92,8.47-3.79,2.81.12,4.86.27,3.82-3.17A11,11,0,0,0,643.72,412Z" transform="translate(0.04 -0.05)" opacity="0.05" style="isolation: isolate"></path><path d="M657.47,794.73c-1.92,1.79-4.55,2.57-7.1,3.12A128.08,128.08,0,0,1,632.7,800l-5.77.44c-5.63.43-11.27.86-16.92.88a117.17,117.17,0,0,1-20.82-1.8,2.24,2.24,0,0,1-1.65-.8,2.29,2.29,0,0,1-.25-1.31,100.74,100.74,0,0,1,2.56-20.9c.65-2.81,5.7,3.5,5.93,3.77a5.78,5.78,0,0,0,4.59,2.43c5.81.32,12.32-3.21,16.93-6.35a21.63,21.63,0,0,1,3.14-1.95,9.34,9.34,0,0,1,2.54-.72,15.27,15.27,0,0,1,8.64,1.75c3.47,1.72,6.51,4.19,10,6a28,28,0,0,0,8.92,2.82c3.14.43,6.9.64,8.51,3.36h0C660.33,789.91,659.37,793,657.47,794.73Z" transform="translate(0.04 -0.05)" fill="#434175"></path><path d="M657.47,795.77c-1.92,1.79-4.55,2.57-7.1,3.12a128.08,128.08,0,0,1-17.67,2.19l-5.77.44c-5.63.43-11.27.86-16.92.88a116.24,116.24,0,0,1-20.82-1.8,2.27,2.27,0,0,1-1.65-.79,9.18,9.18,0,0,1-1.29-2.36c.12-7,2-14.05,3.6-20.9.65-2.81,5.7,3.5,5.93,3.77a5.78,5.78,0,0,0,4.59,2.43c5.81.32,12.32-3.21,16.93-6.35a21.63,21.63,0,0,1,3.14-1.95,9.34,9.34,0,0,1,2.54-.72c-.75,4.18-6.74,9.23-9.84,10.77-6.26,3.11-13.7,1.55-20.68,1.92a3,3,0,0,0-1.47.35c-.83.56-.88,1.75-.86,2.75.06,1.66.27,3.62,1.72,4.46a4.9,4.9,0,0,0,2.32.49,327.85,327.85,0,0,0,51.57-1.81,28.19,28.19,0,0,0,8.4-1.87,21.34,21.34,0,0,0,4.87-3.14C661.21,789.37,659.37,794,657.47,795.77Z" transform="translate(0.04 -0.05)" fill="#e8eaf2"></path><path d="M643.09,375.06c-.1,2.73,1.76,8-3.35,6.55-3-.88-3.9-4.49-7.76-3.69s-4.76,5.57-6.06,8.68a16.59,16.59,0,0,1-12,9.72,7.4,7.4,0,0,1-3.31,0c-2.49-.71-3.91-3.28-4.93-5.66a44.53,44.53,0,0,1-2.18-6.22,25.15,25.15,0,0,1-.79-4.56h0a20.7,20.7,0,0,1,0-3.15c.46-6.21,4-11.87,8.52-16.15s10-7.38,15.45-10.43a22.94,22.94,0,0,1,5.7-2.54,19.19,19.19,0,0,1,6-.24,20.94,20.94,0,0,1,7.66,1.8,10.79,10.79,0,0,1,2.69,1.89,8.14,8.14,0,0,1,2.34,3.89c1,4-1.58,7.63-3.66,10.8C645.51,368.56,643.22,371.54,643.09,375.06Z" transform="translate(0.04 -0.05)" fill="#434175"></path><path d="M729,433.67c-1.09-2.75-5.67-10.36-4.35-13a33.77,33.77,0,0,1,3.49,6.24C729,429.06,728.32,431.92,729,433.67Z" transform="translate(0.04 -0.05)" opacity="0.1" style="isolation: isolate"></path><path d="M647.47,365.74c2.08-3.17,4.64-6.79,3.66-10.8a8.38,8.38,0,0,0-3-4.44,7.27,7.27,0,0,1,.76,1.87c1,4-1.58,7.62-3.66,10.8-1.85,2.82-4.14,5.81-4.28,9.32-.1,2.73,1.77,8-3.34,6.55-3-.88-3.9-4.49-7.77-3.69s-4.75,5.56-6.06,8.68a16.55,16.55,0,0,1-12,9.72,7.4,7.4,0,0,1-3.31,0,5.05,5.05,0,0,1-1.56-.77,6.77,6.77,0,0,0,3.77,3.34,7.44,7.44,0,0,0,3.32,0,16.63,16.63,0,0,0,12-9.73c1.31-3.12,2.16-7.86,6.06-8.67s4.72,2.8,7.77,3.68c5.11,1.48,3.24-3.82,3.34-6.55C643.33,371.55,645.63,368.56,647.47,365.74Z" transform="translate(0.04 -0.05)" opacity="0.1" style="isolation: isolate"></path><path d="M648.6,360.31a20.37,20.37,0,0,1-1.56,2.24,27.16,27.16,0,0,1-3.61,3.74c-.79.68-1.6,1.31-2.44,1.91a39.65,39.65,0,0,1-4.93,2.95,92.14,92.14,0,0,1-15.78,5.65l-10.54,3.07c-1.3,1-3.67,2.74-6.28,4.57a25.15,25.15,0,0,1-.79-4.56h0a18.41,18.41,0,0,1,0-3.15c.46-6.21,4-11.87,8.52-16.15s10-7.38,15.45-10.43a22.94,22.94,0,0,1,5.7-2.54,19.49,19.49,0,0,1,6-.24,20.94,20.94,0,0,1,7.66,1.8,10.79,10.79,0,0,1,2.69,1.89,10.13,10.13,0,0,1,1.35,2.86C650.7,356.07,649.78,358.37,648.6,360.31Z" transform="translate(0.04 -0.05)" opacity="0.1" style="isolation: isolate"></path><path d="M648.6,359.6a20.37,20.37,0,0,1-1.56,2.24,27.16,27.16,0,0,1-3.61,3.74c-.79.68-1.6,1.31-2.44,1.91a39.65,39.65,0,0,1-4.93,2.95,92.14,92.14,0,0,1-15.78,5.65l-10.54,3.06c-3.68,2.79-16,11.91-18.07,10.77-2.44-1.34,10.93-10.81,10.93-10.81l.61.47c-2-1.23-3-4.08-3.42-6.55-.78-4.42-1.15-9-.1-13.37s3.67-8.51,7.66-10.55c1.77-.92,3.92-1.53,5.2-2.93a4.4,4.4,0,0,0,.51-.69,1.58,1.58,0,0,0,.2-.36,4,4,0,0,1,.56-1.09c.73-.84,2.06-.59,3.17-.45h.36a5.81,5.81,0,0,0,.59,0c4,.09,7.81-2.12,11.82-2.12,4.39,0,8.13,2.54,12,4.28.78.35,1.52.67,2.22,1,2.8,1.3,4.9,2.69,6,6.38C650.7,355.37,649.78,357.68,648.6,359.6Z" transform="translate(0.04 -0.05)" fill="#6c63ff"></path><path d="M617.94,343.65a1.79,1.79,0,0,1-.42,2.32,3.21,3.21,0,0,1-1.66.59,11.38,11.38,0,0,1-1.3.1,3.58,3.58,0,0,1-1.71-.29,3,3,0,0,1-.3-.19,4.4,4.4,0,0,0,.51-.69c.1.08.2.06.59,0a9.13,9.13,0,0,0,2.14-.36,2.38,2.38,0,0,0,.8-.39,2.43,2.43,0,0,0,.76-1.15Z" transform="translate(0.04 -0.05)" opacity="0.1" style="isolation: isolate"></path><path d="M602.86,379a4.83,4.83,0,0,0,1.83.68,8.29,8.29,0,0,0,1.41.23,7.78,7.78,0,0,0,3.45-1" transform="translate(0.04 -0.05)" opacity="0.1" style="isolation: isolate"></path></svg> 