<svg id="Layer_1" data-name="Layer 1" xmlns="http://www.w3.org/2000/svg" xmlns:xlink="http://www.w3.org/1999/xlink" viewBox="0 0 848 789.99">
  <defs>
    <linearGradient id="linear-gradient" x1="327.11" y1="709.49" x2="327.11" y2="754.15" gradientTransform="matrix(1, 0, 0, -1, -88, 901.87)" gradientUnits="userSpaceOnUse">
      <stop offset="0" stop-color="gray" stop-opacity="0.25"/>
      <stop offset="0.54" stop-color="gray" stop-opacity="0.12"/>
      <stop offset="1" stop-color="gray" stop-opacity="0.1"/>
    </linearGradient>
    <linearGradient id="linear-gradient-2" x1="390.04" y1="709.49" x2="390.04" y2="754.15" xlink:href="#linear-gradient"/>
    <linearGradient id="linear-gradient-3" x1="360.4" y1="645.11" x2="360.4" y2="689.77" xlink:href="#linear-gradient"/>
    <linearGradient id="linear-gradient-4" x1="451.98" y1="687.92" x2="451.98" y2="732.58" xlink:href="#linear-gradient"/>
    <linearGradient id="linear-gradient-5" x1="421.29" y1="615.53" x2="421.29" y2="660.19" xlink:href="#linear-gradient"/>
    <linearGradient id="linear-gradient-6" x1="548.46" y1="622.78" x2="548.46" y2="667.44" xlink:href="#linear-gradient"/>
    <linearGradient id="linear-gradient-7" x1="613.84" y1="671.8" x2="613.84" y2="716.46" xlink:href="#linear-gradient"/>
    <linearGradient id="linear-gradient-8" x1="674.7" y1="709.49" x2="674.7" y2="754.15" xlink:href="#linear-gradient"/>
    <linearGradient id="linear-gradient-9" x1="672.08" y1="622.78" x2="672.08" y2="667.44" xlink:href="#linear-gradient"/>
    <linearGradient id="linear-gradient-10" x1="552.49" y1="709.49" x2="552.49" y2="754.15" xlink:href="#linear-gradient"/>
    <linearGradient id="linear-gradient-11" x1="608.62" y1="578.88" x2="608.62" y2="623.54" xlink:href="#linear-gradient"/>
    <linearGradient id="linear-gradient-12" x1="777.06" y1="593.2" x2="777.06" y2="637.86" xlink:href="#linear-gradient"/>
    <linearGradient id="linear-gradient-13" x1="834.02" y1="564.29" x2="834.02" y2="608.95" xlink:href="#linear-gradient"/>
    <linearGradient id="linear-gradient-14" x1="905.46" y1="641.54" x2="905.46" y2="686.2" xlink:href="#linear-gradient"/>
    <linearGradient id="linear-gradient-15" x1="891" y1="578.88" x2="891" y2="623.54" xlink:href="#linear-gradient"/>
    <linearGradient id="linear-gradient-16" x1="873.23" y1="703.12" x2="873.23" y2="747.78" xlink:href="#linear-gradient"/>
    <linearGradient id="linear-gradient-17" x1="787.89" y1="703.12" x2="787.89" y2="747.78" xlink:href="#linear-gradient"/>
    <linearGradient id="linear-gradient-18" x1="828.71" y1="641.54" x2="828.71" y2="686.2" xlink:href="#linear-gradient"/>
    <linearGradient id="linear-gradient-19" x1="129.5" y1="592.07" x2="129.5" y2="636.73" xlink:href="#linear-gradient"/>
    <linearGradient id="linear-gradient-20" x1="186.46" y1="563.16" x2="186.46" y2="607.82" xlink:href="#linear-gradient"/>
    <linearGradient id="linear-gradient-21" x1="225.67" y1="701.99" x2="225.67" y2="746.65" xlink:href="#linear-gradient"/>
    <linearGradient id="linear-gradient-22" x1="140.33" y1="701.99" x2="140.33" y2="746.65" xlink:href="#linear-gradient"/>
    <linearGradient id="linear-gradient-23" x1="181.15" y1="640.41" x2="181.15" y2="685.07" xlink:href="#linear-gradient"/>
  </defs>
  <title>process-illustration-right</title>
  <path d="M550-803.63" transform="translate(-88 -100.13)"/>
  <rect x="3" y="3" width="842" height="469.85" fill="#fff" stroke="#3a3768" stroke-miterlimit="10" stroke-width="6"/>
  <g>
    <line x1="29" y1="132.85" x2="817" y2="132.85" fill="none" stroke="#3a3768" stroke-miterlimit="10" stroke-width="10"/>
    <g>
      <line x1="185.44" y1="40.37" x2="185.44" y2="434.87" fill="none" stroke="#3a3768" stroke-miterlimit="10" stroke-width="10"/>
      <line x1="416.99" y1="40.37" x2="416.99" y2="434.87" fill="none" stroke="#3a3768" stroke-miterlimit="10" stroke-width="10"/>
      <line x1="648.54" y1="40.37" x2="648.54" y2="434.87" fill="none" stroke="#3a3768" stroke-miterlimit="10" stroke-width="10"/>
    </g>
  </g>
  <g>
    <rect x="216.04" y="147.72" width="46.13" height="44.66" fill="url(#linear-gradient)"/>
    <rect x="216.84" y="148.49" width="44.54" height="43.12" fill="#7cfcff"/>
    <rect x="278.97" y="147.72" width="46.13" height="44.66" fill="url(#linear-gradient-2)"/>
    <rect x="279.77" y="148.49" width="44.54" height="43.12" fill="#7cfcff"/>
    <rect x="249.33" y="212.1" width="46.13" height="44.66" fill="url(#linear-gradient-3)"/>
    <rect x="250.13" y="212.87" width="44.54" height="43.12" fill="#ffffa5"/>
    <rect x="340.91" y="169.29" width="46.13" height="44.66" fill="url(#linear-gradient-4)"/>
    <rect x="341.71" y="170.05" width="44.54" height="43.12" fill="#ffffa5"/>
    <rect x="310.22" y="241.68" width="46.13" height="44.66" fill="url(#linear-gradient-5)"/>
    <rect x="311.01" y="242.45" width="44.54" height="43.12" fill="#ff69b4"/>
    <rect x="249.09" y="93.3" width="95.81" height="20.98" fill="#6c63ff" opacity="0.2" style="isolation: isolate"/>
  </g>
  <g>
    <rect x="437.39" y="234.43" width="46.13" height="44.66" fill="url(#linear-gradient-6)"/>
    <rect x="438.19" y="235.2" width="44.54" height="43.12" fill="#7cfcff"/>
    <rect x="502.77" y="185.41" width="46.13" height="44.66" fill="url(#linear-gradient-7)"/>
    <rect x="503.56" y="186.18" width="44.54" height="43.12" fill="#ffffa5"/>
    <rect x="563.63" y="147.72" width="46.13" height="44.66" fill="url(#linear-gradient-8)"/>
    <rect x="564.42" y="148.49" width="44.54" height="43.12" fill="#ffffa5"/>
    <rect x="561.01" y="234.43" width="46.13" height="44.66" fill="url(#linear-gradient-9)"/>
    <rect x="561.81" y="235.2" width="44.54" height="43.12" fill="#ffffa5"/>
    <rect x="441.42" y="147.72" width="46.13" height="44.66" fill="url(#linear-gradient-10)"/>
    <rect x="442.22" y="148.49" width="44.54" height="43.12" fill="#ff69b4"/>
    <rect x="497.55" y="278.33" width="46.13" height="44.66" fill="url(#linear-gradient-11)"/>
    <rect x="498.34" y="279.1" width="44.54" height="43.12" fill="#ff69b4"/>
    <rect x="482.14" y="93.3" width="95.81" height="20.98" fill="#6c63ff" opacity="0.2" style="isolation: isolate"/>
  </g>
  <g>
    <rect x="665.99" y="264.01" width="46.13" height="44.66" fill="url(#linear-gradient-12)"/>
    <rect x="666.78" y="264.78" width="44.54" height="43.12" fill="#7cfcff"/>
    <rect x="722.95" y="292.92" width="46.13" height="44.66" fill="url(#linear-gradient-13)"/>
    <rect x="723.75" y="293.69" width="44.54" height="43.12" fill="#7cfcff"/>
    <rect x="794.39" y="215.67" width="46.13" height="44.66" fill="url(#linear-gradient-14)"/>
    <rect x="795.18" y="216.44" width="44.54" height="43.12" fill="#7cfcff"/>
    <rect x="779.93" y="278.33" width="46.13" height="44.66" fill="url(#linear-gradient-15)"/>
    <rect x="780.72" y="279.1" width="44.54" height="43.12" fill="#7cfcff"/>
    <rect x="762.16" y="154.09" width="46.13" height="44.66" fill="url(#linear-gradient-16)"/>
    <rect x="762.96" y="154.86" width="44.54" height="43.12" fill="#ffffa5"/>
    <rect x="676.82" y="154.09" width="46.13" height="44.66" fill="url(#linear-gradient-17)"/>
    <rect x="677.62" y="154.86" width="44.54" height="43.12" fill="#ff69b4"/>
    <rect x="717.64" y="215.67" width="46.13" height="44.66" fill="url(#linear-gradient-18)"/>
    <rect x="718.44" y="216.44" width="44.54" height="43.12" fill="#ff69b4"/>
    <path d="M801.81,265.73a2.35,2.35,0,0,0,.54,3,4.39,4.39,0,0,0,2.18.78,16,16,0,0,0,1.69.13,4.65,4.65,0,0,0,2.24-.39,2,2,0,0,0,.39-.25,5.26,5.26,0,0,1-.66-.89c-.13.1-.26.08-.78,0a12.08,12.08,0,0,1-2.79-.48,2.78,2.78,0,0,1-2-2Z" transform="translate(-88 -100.13)" opacity="0.1" style="isolation: isolate"/>
    <path d="M821.51,311.94a6.47,6.47,0,0,1-2.38.89,9.52,9.52,0,0,1-1.85.3,10.36,10.36,0,0,1-4.51-1.27Z" transform="translate(-88 -100.13)" opacity="0.1" style="isolation: isolate"/>
    <rect x="684.25" y="93.3" width="95.81" height="20.98" fill="#6c63ff" opacity="0.2" style="isolation: isolate"/>
  </g>
  <rect x="18.44" y="265.14" width="46.13" height="44.66" fill="url(#linear-gradient-19)"/>
  <rect x="19.23" y="265.91" width="44.54" height="43.12" fill="#7cfcff"/>
  <rect x="75.4" y="294.05" width="46.13" height="44.66" fill="url(#linear-gradient-20)"/>
  <rect x="76.2" y="294.82" width="44.54" height="43.12" fill="#7cfcff"/>
  <rect x="114.61" y="155.22" width="46.13" height="44.66" fill="url(#linear-gradient-21)"/>
  <rect x="115.41" y="155.99" width="44.54" height="43.12" fill="#ffffa5"/>
  <rect x="29.27" y="155.22" width="46.13" height="44.66" fill="url(#linear-gradient-22)"/>
  <rect x="30.07" y="155.99" width="44.54" height="43.12" fill="#ff69b4"/>
  <rect x="70.09" y="216.8" width="46.13" height="44.66" fill="url(#linear-gradient-23)"/>
  <rect x="70.89" y="217.57" width="44.54" height="43.12" fill="#ff69b4"/>
  <path d="M154.26,266.86a2.35,2.35,0,0,0,.54,3,4.18,4.18,0,0,0,2.18.78,13.59,13.59,0,0,0,1.69.13,4.53,4.53,0,0,0,2.24-.39,1.62,1.62,0,0,0,.39-.25,4.77,4.77,0,0,1-.66-.89c-.13.1-.26.08-.78,0a12,12,0,0,1-2.79-.48,2.71,2.71,0,0,1-2-2Z" transform="translate(-88 -100.13)" opacity="0.1" style="isolation: isolate"/>
  <path d="M174,313.07a6.26,6.26,0,0,1-2.38.89,9.77,9.77,0,0,1-1.85.3,10.19,10.19,0,0,1-4.51-1.27Z" transform="translate(-88 -100.13)" opacity="0.1" style="isolation: isolate"/>
  <rect x="36.7" y="94.43" width="95.81" height="20.98" fill="#6c63ff" opacity="0.2" style="isolation: isolate"/>
  <g>
    <g>
      <path d="M816,281a23.54,23.54,0,0,0,1.63,4.09c1.37,3.2,2.88,6.75,3.27,9.79.64,5-1.63,9.12-2.45,10.62-.7,1.27-2.89,4.54-15.51,10.61-5.21,2.5-7.42,4.71-11.44,4.9-1.13.05-5.74.27-6.94-2s2.68-4.79,2.45-9.8c-.12-2.77-1.52-6.36-4.08-7.35s-4.46,1.61-9.8,3.27c-3.71,1.16-11.74,2.65-14.69-.82-2.17-2.54.62-5.15-1.64-12.24-.79-2.5-1.44-4.54-3.26-6.54-2.33-2.55-4.54-2.81-4.9-4.89-.15-.88.2-1.06,1.63-4.9a49.44,49.44,0,0,0,1.64-4.9c.77-3,1.15-4.5.81-5.72-.88-3.17-4.42-3.13-5.71-6.53a8,8,0,0,1,0-4.9c3.19-14.24,4.78-21.36,8.16-25.31,5.47-6.39,12.36-8.55,16.33-9.8a43.65,43.65,0,0,1,27.76.82c3.05,1.13,20.56,7.66,23.68,22a34,34,0,0,1-2.45,20.42,51.33,51.33,0,0,0-4.08,10.61A17.07,17.07,0,0,0,816,281Z" transform="translate(-88 -100.13)" fill="#d0b09a"/>
      <g>
        <path d="M662.12,354.06a49.59,49.59,0,0,0-5.71-7.35c-5.67-5.86-7.91-7.32-13.07-12.25-4.31-4.12-9-7.86-13.06-12.24-.83-.9-3.7-4.05-7.35-4.09-.41,0-2,0-2.45.82s.87,2.4,1.63,3.27c1.38,1.55,2,1.6,4.09,3.26.26.22,1.54,1.51,4.08,4.08,1.58,1.61,2.37,2.43,2.45,3.27a4.35,4.35,0,0,1-1.64,3.27c-1.34,1.12-2.23.59-5.71,1.63-3.32,1-3.89,1.88-4.08,2.45a3.49,3.49,0,0,0,0,1.63,23.63,23.63,0,0,0,.81,4.08c1,3.4,1.48,3.28,1.64,4.9.17,1.84-.4,2,0,3.27a6.07,6.07,0,0,0,3.26,3.27,9.63,9.63,0,0,0,4.08.81h4.09c1,.13,1.67.57,3.26,1.63l2.45,1.64a28.2,28.2,0,0,0,4.9,2.45c1.77.67,1.55.36,2.45.81,1.62.82,2,1.63,4.08,3.27a10.47,10.47,0,0,0,2.45,1.63c2.47.92,5-.45,5.72-.81.32-.17,4.38-2.39,4.9-6.54C665.7,359.72,664.51,357.8,662.12,354.06Z" transform="translate(-88 -100.13)" fill="#d0b09a"/>
        <g>
          <path d="M795.62,830.48c.49.83,4.57,7.93,2.45,16.33-.72,2.86-1.58,5.86-4.09,7.35-4,2.41-10.12-1.68-16.33-5.71-10.06-6.55-9.26-9.43-15.51-11.44-6.69-2.14-10.18.34-14.7-3.26a14.89,14.89,0,0,1-4.89-8.17c-.47-1.89-1.9-7.77,1.63-11.43,3.21-3.33,9.24-1.87,13.88-.81,6.38,1.46,6.94,3.49,14.29,5.3,5.63,1.39,5.8.32,9.8,1.64C784.28,821,791.35,823.31,795.62,830.48Z" transform="translate(-88 -100.13)" fill="#1a1920"/>
          <path d="M670.88,803.79c-4.54,3.16-1.86,13.61-1.59,14.64a24.86,24.86,0,0,0,4.63,9c1.36,1.7,3.24,3.62,16.88,11.13,6,3.31,7,3.67,8.46,3.88.44.07,9.49,1.2,13.93-4.95,4.1-5.69,1.73-14.07-2.22-18.35-2.56-2.78-4-1.88-14.16-6.73-6.26-3-6.59-3.74-11.41-5.71C677.79,803.57,673.65,801.87,670.88,803.79Z" transform="translate(-88 -100.13)" fill="#1a1920"/>
          <g>
            <path d="M736.83,489.19c10.17-5.53,16.62,3.21,40.82,4.9,13.69,1,21.74-1.13,32.66,4.08a39.48,39.48,0,0,1,10.62,7.35c2.27,2.24,6.85,7.31,9,13.88,3.2,9.88-3.63,14-6.53,30.21-2.27,12.62,1.5,11.47-.41,30.62-1.15,11.55-1.82,18.19-4.9,26.94-2.53,7.18-4.64,10-4.9,16.33-.3,7.29,2.26,8.35,3.27,17.15,1.11,9.77-1.63,12.14-1.63,22.86,0,9.3,2,15.5,3.26,20.41,3,12,2,25.17,0,51.44a582,582,0,0,1-11,71.45c-1,4.8-1.77,6.93-3,13.62-1.46,7.58-1.22,8.42-2.26,9.64-5.61,6.63-29.74,2.15-35.11-10.61-1.84-4.37-.58-7.59,2.45-21.23,0,0,2.77-12.46,5.72-29.39,3.37-19.38,2.73-35.54,1.63-63.69-.11-2.74.41-8.29-.82-15.51-1.61-9.46-4.51-10.91-6.53-19.6-.4-1.75-.55-8.81-.82-22.86-.19-10.42-.24-15.09-1-22.25-.42-3.75-.81-6.11-1.6-10.82-1.65-9.88-2.51-14.83-3.91-15.1-2.16-.43-4.17,5.89-12.24,21.23-5.68,10.77-12.69,22.82-12.25,22a12,12,0,0,1,1.63,8.17c-.89,4.2-4.49,6.27-6.53,8.16-6.64,6.16-4.86,18.08-4.08,26.95,1.62,18.45-.18,33.53-1.64,45.72-2.34,19.6-6.42,26.32-6.53,44.09-.08,13.16,0,16.33,0,16.33.29,11,.95,14.13,0,20.41-1.1,7.28-1.83,12.16-5.71,15.52-6.45,5.56-18.72,4.46-25.31-1.64-1.64-1.51-4.63-4.9-6.54-22a158.94,158.94,0,0,1-.81-27.76c.83-12.78,2.73-17.91,4.08-27,2.74-18.38-.54-26.3-1.63-46.54-.74-13.62.59-26.5,3.26-52.25a666.43,666.43,0,0,1,13.88-84.1c3.42-14.34,10.44-30.52,24.5-62.87C728,498.51,730.65,492.54,736.83,489.19Z" transform="translate(-88 -100.13)" fill="#2f2f33"/>
            <path d="M648.65,363.45a17.52,17.52,0,0,1,5.31-6.94c1.26-1,5.56-4.33,9.79-3.27,2.5.63,3.63,2.46,6.54,6.53.49.7,7.13,10,13.15,16.92,1.94,2.22,4,4.28,8.07,8.4,4.92,4.94,5.68,5.41,6.54,5.71,4.48,1.59,8.88-2.29,16.33-7.35,18.1-12.3,22.18-9.82,27.76-18,3.68-5.38,2.05-6.68,7.35-14.7,3.55-5.37,6.56-9.93,12.24-13.06,4.91-2.7,7.12-1.75,10.62-4.9s3.85-6.65,5.71-10.61c3.18-6.78,8.71-10,18-15.52,10.16-6,20.23-12,27.76-8.16,3.47,1.75,3.9,4.31,8.16,11.43,6.94,11.6,9.54,11,17.15,22,7.75,11.2,14.33,20.72,13.88,32.66-.24,6.26-2.16,6.58-5.72,19.6-1.9,7-2.85,12.36-4.9,26.94-5.14,36.73-4.1,38-7.34,53.08-3.44,15.93-5.16,23.89-8.17,28.57a29,29,0,0,0-4.9,12.25c-.61,4.52.44,5.87,0,8.17-1.58,8.21-19.48,13.41-35.11,13.88-21.62.64-41.37-7.7-42.46-8.17-8.14-3.52-14.33-7.63-24.49-7.35-6.63.19-10.27,2.12-12.25,0-2.8-3,1.43-10.18,8.17-25.31,6.6-14.83,9.9-22.25,12.24-31.84,1.43-5.84-.27-.88,2.87-30.53.5-4.68,1-8.86-1.23-10.3-2.4-1.55-5.75,1.56-17.15,6.54a108,108,0,0,1-13.94,5.1c-6.47,1.8-9.7,2.7-13,2.24-5.22-.71-8.49-3.89-16.33-12.24-10.56-11.24-15.83-16.86-17.15-18.78A86.17,86.17,0,0,1,648.65,363.45Z" transform="translate(-88 -100.13)" fill="#3a3768"/>
          </g>
        </g>
      </g>
    </g>
    <path d="M813.66,282.21c-.65-.32,4.3-6.9,2.89-15.47-.3-1.82-1.28-7.78-5.5-9.26-3-1-7.07.38-9.36,2.51-1.69,1.59-1.91,3.1-4,4.11-.27.13-3.27,1.64-4.65.57-2.43-1.88,3.4-9.19.17-13.52-.76-1-2.06-1.57-4.67-2.64-5.86-2.43-9.32-1.55-10.21-3.49-.63-1.38.52-3.1,1.47-4.53,2.66-4,6.36-4.41,6.31-6,0-.47-.38-1.71-8.28-3.86-9.07-2.48-13.6-3.71-16.83-1.63a31,31,0,0,0-6,5.7c-1.26,1.53-1.91,2.61-2.66,2.49-1.28-.22-1.81-3.83-1.81-6.19,0-1.08.14-9.14,6.15-13.35,2.66-1.86,7.2-1.9,16.18-1.91s8.7.57,18.3.62c6.85,0,8.38-.25,11.93.51A27.81,27.81,0,0,1,814.86,222c6,4.7,7.94,10.94,9,14.29,1.53,5,1.43,8.95,1.3,14.58a54.85,54.85,0,0,1-1.9,14.59C820.3,275.57,814.34,282.54,813.66,282.21Z" transform="translate(-88 -100.13)"/>
  </g>
  <path d="M1696.28-617.72" transform="translate(-88 -100.13)"/>
  <g>
    <path d="M310.64,519.29c4.34,14.77,3.31,25.13,1.45,32-.9,3.35-2.85,8.94-1.45,16,.16.8,2.28,11,7.27,11.63,3.93.47,7.52-5.33,8.72-7.27,5.66-9.13,4.35-19.29,2.91-30.52-1.36-10.57-3.45-13.41-4.36-14.54C320.51,520.84,313.46,519.61,310.64,519.29Z" transform="translate(-88 -100.13)" fill="#d0b09a"/>
    <path d="M370.24,241.65a92.32,92.32,0,0,1,23.25,7.27c9.35,4.37,14.15,6.61,16,11.63,2.72,7.4-4.41,11.52-1.45,20.35,2,5.84,6.26,7.63,5.81,13.08-.24,3-1.57,3-2.9,7.27-2.35,7.56.76,10.74-1.46,14.54-2.69,4.59-8.47,2-14.53,5.81-8.44,5.29-5.11,15.22-11.63,24.71C375.35,357.9,356,364,347,357.94c-4.21-2.84-4.92-7.49-4.36-45.06.51-34.55,1.28-41.21,5.81-49.42C354.69,252.11,364,245.36,370.24,241.65Z" transform="translate(-88 -100.13)" fill="#d0b09a"/>
    <g>
      <path d="M501.06,311.43a34.17,34.17,0,0,1,1.45-8.73c1.31-4.88,2.2-8,4.36-11.62,2.8-4.65,6.14-7.15,10.18-10.18,5.09-3.82,4.53-2.06,10.09-6.18,1.75-1.29,3.53-2.74,5.9-2.54,1.55.13,3.45,1,3.63,2.18.11.74-.43,1.59-4.36,4.36-5.17,3.64-7.09,4.18-7.27,5.81-.12,1.19.82,1.54,2.91,4.37,1.75,2.36,3.89,5.25,4.36,8.72.16,1.15.66,4.83-1.45,7.26-3.2,3.7-9.11.75-11.63,4.37-1,1.38-.14,1.86-1.46,5.81-.94,2.85-1.51,4.55-2.9,5.81-2.87,2.61-8.62,2.86-11.63,0C501,318.75,501,315.62,501.06,311.43Z" transform="translate(-88 -100.13)" fill="#d0b09a"/>
      <g>
        <g>
          <path d="M394.46,810c-1.4,4.32,1.05,5.69,0,10.17-1,4.13-3.31,4-4.36,8.72a19.53,19.53,0,0,0,0,7.27c.58,4.71.92,7.54,2.9,8.72,2.71,1.63,5.48-1.62,8.73,0s2.86,5.79,4.36,5.82c1.84,0,4.33-6.36,4.36-13.08,0-6-1.9-6.4-1.46-11.63.47-5.5,2.67-6.11,2.91-11.63.13-3,.33-7.68-2.91-10.18-2.88-2.22-7.28-1.76-10.17,0A10.52,10.52,0,0,0,394.46,810Z" transform="translate(-88 -100.13)" fill="#d0b09a"/>
          <path d="M322.27,805.64c-1.4,4.32,1.05,5.69,0,10.17-1,4.14-3.31,4.05-4.36,8.73a19.48,19.48,0,0,0,0,7.26c.58,4.72.93,7.54,2.9,8.73,2.72,1.62,5.48-1.62,8.73,0s2.86,5.78,4.36,5.81c1.85,0,4.33-6.36,4.36-13.08,0-6-1.9-6.39-1.46-11.63.47-5.5,2.68-6.11,2.91-11.63.13-3,.33-7.68-2.91-10.17-2.88-2.23-7.28-1.77-10.17,0A10.51,10.51,0,0,0,322.27,805.64Z" transform="translate(-88 -100.13)" fill="#d0b09a"/>
          <path d="M336.8,488.76c8.38-5.74,11.73.61,45.06,0,28.57-.52,39.49-5.42,52.33,2.91,7.84,5.08,11.56,11.95,14.54,17.44,2.84,5.25,9,18.85,4.36,59.6-.4,3.53-1.16,9.69-5.09,31.25-8.25,45.3-10.27,47.67-13.08,68.32-3,21.86-.38,16.84-4.36,55.23-.63,6-3.11,29.51-7.72,52.91-2.55,13-2.72,10.5-4.18,19.19-2.08,12.39-1.61,16.66-5.54,20.93-5.14,5.57-12.86,5.81-14.54,5.82-1.35,0-10.64,0-14.53-5.82-3.32-5-.34-10.69,1.45-20.35,1.95-10.58-.14-11.8,0-29.07.21-26.68,5.22-27,4.36-48-.65-15.77-3.54-16.62-2.91-30.52.67-14.69,4-15.39,5.82-30.53,1.38-11.39-.21-13.3-2.91-49.42-1.67-22.24-1.62-29-2.91-29.07-2.18-.15-6.56,19-7.27,39.25-.62,17.87,2.11,22.51,1.46,37.79-.82,19.1-6,32.68-8.72,40.7-13.75,40.31-15.53,55.79-17.2,72.62-.63,6.38-1.86,12.71-2,19.11-.31,11.29,1.14,16.6-2.58,20.19-3,2.89-7.47,2.91-12.14,2.92-3.73,0-7.54-1-15.16-3.16-4.49-1.25-6.75-1.89-7.58-2.66-5.26-4.89-.32-18.07,1.45-23.26,9.28-27.17-1.41-30.75,7.27-69.77,6.07-27.29,11-24.26,13.08-43.61,1.59-14.88-.82-21.43-5.81-53.78-4.39-28.4-6.58-42.61-7.27-59.6C323.16,524.67,322.11,498.82,336.8,488.76Z" transform="translate(-88 -100.13)" fill="#2f2f33"/>
          <path d="M319.36,828.9c2.51-4.23,4.2-5.38,5.82-5.82,4.3-1.16,9.14,2.43,11.62,5.82,2.81,3.82,2.89,7.93,2.91,16,0,9.2.28,15.67,0,23.25-.48,12.92-1.09,15.94-3.63,18.17-2.1,1.84-4.44,2.22-8.72,2.91-5.58.9-12.26,2-16-1.45-3.13-2.87-2.61-8.74-1.46-20.35.34-3.41,1.2-8.09,2.91-17.45S315.69,835.09,319.36,828.9Z" transform="translate(-88 -100.13)" fill="#1a1920"/>
          <path d="M390.59,826c3-1.37,6.35.3,8.72,1.45a23.45,23.45,0,0,1,10.17,10.18c3,6,1.14,8.71,4.36,16,1.38,3.1,2.47,3.32,4.36,7.27s3.22,6.68,2.91,10.17a13.5,13.5,0,0,1-4.36,8.72,11.93,11.93,0,0,1-5.81,2.91c-4.62.83-6.63-4-10.18-2.91a5.59,5.59,0,0,0-3.63,3.64c-.53,2,.75,3.43,0,4.36s-3.15,1.06-4.36,0c-1.61-1.41-.48-4.17,0-8.73.56-5.43-.22-9.53-1.46-16-.93-4.9-1.4-7.35-2.9-10.18-2.05-3.85-3.58-4.19-4.36-7.27s0-5.44,1.45-10.17C387.21,829.91,388.07,827.15,390.59,826Z" transform="translate(-88 -100.13)" fill="#1a1920"/>
        </g>
        <path d="M319.36,347.77c33.93-8,59.75-12.78,71.23-14.54,11.07-1.7,11.37-1,19.05-2.67,7.94-1.78,10.81-3.3,14.38-1.69,5.46,2.46,4,8.32,9.45,12.35,4.77,3.51,9.76,1.9,20.35,1.46,18.62-.78,19.41,4.16,24.71,1.45,11.94-6.1,6.65-27.23,18.89-32a19.53,19.53,0,0,1,13.09,0,20.36,20.36,0,0,1,6.78,4.37c1.14,1.11,4.06,3.93,4.84,7.26,1.18,5-3.27,7.49-8.72,17.44-4.94,9-3.61,11.23-8.72,18.9A61.15,61.15,0,0,1,496,370.3c-17.7,15.77-54.53-2.17-61.05,8.72-2.09,3.48,1.59,5.48,5.81,21.8,3.83,14.8,1.64,16.35,5.82,34.89a178.82,178.82,0,0,0,6.91,23.59c2.9,7.71,4.65,12.35,8.24,18.2,6,9.72,10.05,11.4,9.56,14.9-.87,6.28-15.17,9.05-29.07,11.62-27.19,5-54,12.45-81.4,16-20.9,2.7-32.16,3.41-36.34,11.63-4.89,9.61,4.26,20.91-1.45,26.17-4.37,4-15.83,3.05-20.35-4.36-2.29-3.76-.42-7,0-14.54.58-10.79-2.84-11.42-4.37-24.71-1.71-14.91,2.25-17.1,0-33.43-1-7.35-1.81-6.95-2.9-14.54-1.95-13.56-.47-22.45,0-30.52,1.44-24.88-7.45-29.25-5.82-45.06C290.67,379.94,296.52,364.8,319.36,347.77Z" transform="translate(-88 -100.13)" fill="#3a3768"/>
      </g>
    </g>
    <path d="M351.34,246A31.25,31.25,0,0,1,363,241.65c11.71-2.27,21.19,1.8,30.52,5.82,9.08,3.9,13.62,5.85,16,10.17.84,1.53,2.61,5.39-1.45,24.71-2.09,9.95-3.06,11.3-5.82,23.26-3.38,14.67-2.28,14.18-4.36,20.35-3.24,9.65-5.79,10.43-13.08,24.71-5.92,11.61-8.89,17.41-10.17,24.71a85.91,85.91,0,0,0,0,27.62,61.82,61.82,0,0,1,1.45,13.08c0,5,0,8.21-1.45,11.63-1.76,4.22-4.35,5.61-14.54,13.08C347.71,449.85,348,450.4,345.53,451c-10.66,2.48-21.08-6.69-23.26-8.72-11.64-10.84-12.58-26.67-13.08-37.8-.62-13.76,3-27.1,10.17-53.78,4.54-16.84,5.93-18.93,8.72-32,3.38-15.74,2.36-17.35,5.82-33.43C340.2,255.91,346.1,249.42,351.34,246Z" transform="translate(-88 -100.13)"/>
  </g>
</svg>
