<svg id="Layer_1" data-name="Layer 1" xmlns="http://www.w3.org/2000/svg" viewBox="0 0 1900 240.59">
  <title>wave</title>
  <path d="M1903,837.72c-.9.07-1.78.12-2.67.12-22.16,0-44.37.86-66.48-.27-23.38-1.19-46.73-3.68-69.95-6.7-22.87-3-45.69-6.65-68.28-11.24-25.7-5.21-51.24-11.31-76.63-17.86-32.17-8.3-64.08-17.6-96.18-26.18-24.21-6.47-48.43-13-72.84-18.61-32.16-7.46-64.38-14.76-96.82-20.86-19.52-3.67-39.5-4.85-59.26-7.28a497.41,497.41,0,0,0-90.05-2.45c-24.29,1.44-48.52,5-72.58,8.89a407.93,407.93,0,0,0-86.8,24.13c-25.57,10.21-50.51,22-75.87,32.73-27,11.42-53.77,23.26-81.19,33.46-50.19,18.67-101,35.75-153.55,46.45-25.35,5.15-51,8.89-76.63,12.6-39.34,5.7-79,5.92-118.61,4.78-23.06-.66-46.13-2.38-69.08-4.76C438.27,881.43,407,878,376,873c-39.76-6.36-79.31-14.06-118.88-21.61-59.14-11.28-118.66-14.92-178.55-8.5C53.24,845.63,28.17,850.28,3,854.05V966H1903Z" transform="translate(-3 -725.41)" fill="#f3f3f3"/>
</svg>
